G04 #@! TF.GenerationSoftware,KiCad,Pcbnew,(6.0.9)*
G04 #@! TF.CreationDate,2022-12-29T20:14:13-03:00*
G04 #@! TF.ProjectId,pulso - high,70756c73-6f20-42d2-9068-6967682e6b69,0.3*
G04 #@! TF.SameCoordinates,Original*
G04 #@! TF.FileFunction,Legend,Top*
G04 #@! TF.FilePolarity,Positive*
%FSLAX46Y46*%
G04 Gerber Fmt 4.6, Leading zero omitted, Abs format (unit mm)*
G04 Created by KiCad (PCBNEW (6.0.9)) date 2022-12-29 20:14:13*
%MOMM*%
%LPD*%
G01*
G04 APERTURE LIST*
G04 Aperture macros list*
%AMRotRect*
0 Rectangle, with rotation*
0 The origin of the aperture is its center*
0 $1 length*
0 $2 width*
0 $3 Rotation angle, in degrees counterclockwise*
0 Add horizontal line*
21,1,$1,$2,0,0,$3*%
G04 Aperture macros list end*
%ADD10C,0.120000*%
%ADD11C,0.150000*%
%ADD12C,2.500000*%
%ADD13C,0.100000*%
%ADD14O,2.750000X1.800000*%
%ADD15C,1.397000*%
%ADD16R,1.600000X1.600000*%
%ADD17C,1.600000*%
%ADD18C,0.900000*%
%ADD19R,1.000000X0.700000*%
%ADD20R,2.800000X1.000000*%
%ADD21C,3.000000*%
%ADD22C,4.100000*%
%ADD23C,1.900000*%
%ADD24C,3.400000*%
%ADD25C,3.050000*%
%ADD26C,1.800000*%
%ADD27RotRect,2.550000X2.500000X210.000000*%
%ADD28C,1.701800*%
%ADD29C,3.987800*%
%ADD30C,3.200000*%
%ADD31RotRect,2.550000X2.500000X195.000000*%
%ADD32R,1.700000X0.900000*%
%ADD33RotRect,2.550000X2.500000X345.000000*%
%ADD34RotRect,2.550000X2.500000X330.000000*%
G04 APERTURE END LIST*
D10*
X161000000Y-92000000D02*
X163000000Y-92000000D01*
X162000000Y-93000000D02*
X162000000Y-92000000D01*
X162000000Y-91000000D02*
X162000000Y-93000000D01*
X156000000Y-92000000D02*
X158000000Y-92000000D01*
X139000000Y-92000000D02*
X141000000Y-92000000D01*
X140000000Y-92000000D02*
X139000000Y-92000000D01*
X135000000Y-91000000D02*
X135000000Y-92000000D01*
X136000000Y-92000000D02*
X135000000Y-92000000D01*
X135000000Y-92000000D02*
X136000000Y-92000000D01*
X134000000Y-92000000D02*
X135000000Y-92000000D01*
X135000000Y-92000000D02*
X135000000Y-93000000D01*
D11*
X121219032Y-54535190D02*
X120219032Y-54535190D01*
X120219032Y-54154238D01*
X120266652Y-54059000D01*
X120314271Y-54011380D01*
X120409509Y-53963761D01*
X120552366Y-53963761D01*
X120647604Y-54011380D01*
X120695223Y-54059000D01*
X120742842Y-54154238D01*
X120742842Y-54535190D01*
X121219032Y-53392333D02*
X121171413Y-53487571D01*
X121123794Y-53535190D01*
X121028556Y-53582809D01*
X120742842Y-53582809D01*
X120647604Y-53535190D01*
X120599985Y-53487571D01*
X120552366Y-53392333D01*
X120552366Y-53249476D01*
X120599985Y-53154238D01*
X120647604Y-53106619D01*
X120742842Y-53059000D01*
X121028556Y-53059000D01*
X121123794Y-53106619D01*
X121171413Y-53154238D01*
X121219032Y-53249476D01*
X121219032Y-53392333D01*
X120552366Y-52725666D02*
X121219032Y-52535190D01*
X120742842Y-52344714D01*
X121219032Y-52154238D01*
X120552366Y-51963761D01*
X121171413Y-51201857D02*
X121219032Y-51297095D01*
X121219032Y-51487571D01*
X121171413Y-51582809D01*
X121076175Y-51630428D01*
X120695223Y-51630428D01*
X120599985Y-51582809D01*
X120552366Y-51487571D01*
X120552366Y-51297095D01*
X120599985Y-51201857D01*
X120695223Y-51154238D01*
X120790461Y-51154238D01*
X120885699Y-51630428D01*
X121219032Y-50725666D02*
X120552366Y-50725666D01*
X120742842Y-50725666D02*
X120647604Y-50678047D01*
X120599985Y-50630428D01*
X120552366Y-50535190D01*
X120552366Y-50439952D01*
X122781413Y-54773285D02*
X122829032Y-54630428D01*
X122829032Y-54392333D01*
X122781413Y-54297095D01*
X122733794Y-54249476D01*
X122638556Y-54201857D01*
X122543318Y-54201857D01*
X122448080Y-54249476D01*
X122400461Y-54297095D01*
X122352842Y-54392333D01*
X122305223Y-54582809D01*
X122257604Y-54678047D01*
X122209985Y-54725666D01*
X122114747Y-54773285D01*
X122019509Y-54773285D01*
X121924271Y-54725666D01*
X121876652Y-54678047D01*
X121829032Y-54582809D01*
X121829032Y-54344714D01*
X121876652Y-54201857D01*
X122162366Y-53868523D02*
X122829032Y-53678047D01*
X122352842Y-53487571D01*
X122829032Y-53297095D01*
X122162366Y-53106619D01*
X122829032Y-52725666D02*
X122162366Y-52725666D01*
X121829032Y-52725666D02*
X121876652Y-52773285D01*
X121924271Y-52725666D01*
X121876652Y-52678047D01*
X121829032Y-52725666D01*
X121924271Y-52725666D01*
X122162366Y-52392333D02*
X122162366Y-52011380D01*
X121829032Y-52249476D02*
X122686175Y-52249476D01*
X122781413Y-52201857D01*
X122829032Y-52106619D01*
X122829032Y-52011380D01*
X122781413Y-51249476D02*
X122829032Y-51344714D01*
X122829032Y-51535190D01*
X122781413Y-51630428D01*
X122733794Y-51678047D01*
X122638556Y-51725666D01*
X122352842Y-51725666D01*
X122257604Y-51678047D01*
X122209985Y-51630428D01*
X122162366Y-51535190D01*
X122162366Y-51344714D01*
X122209985Y-51249476D01*
X122829032Y-50820904D02*
X121829032Y-50820904D01*
X122829032Y-50392333D02*
X122305223Y-50392333D01*
X122209985Y-50439952D01*
X122162366Y-50535190D01*
X122162366Y-50678047D01*
X122209985Y-50773285D01*
X122257604Y-50820904D01*
X174708619Y-50430809D02*
X175708619Y-50430809D01*
X175708619Y-50811761D01*
X175661000Y-50907000D01*
X175613380Y-50954619D01*
X175518142Y-51002238D01*
X175375285Y-51002238D01*
X175280047Y-50954619D01*
X175232428Y-50907000D01*
X175184809Y-50811761D01*
X175184809Y-50430809D01*
X174708619Y-51573666D02*
X174756238Y-51478428D01*
X174803857Y-51430809D01*
X174899095Y-51383190D01*
X175184809Y-51383190D01*
X175280047Y-51430809D01*
X175327666Y-51478428D01*
X175375285Y-51573666D01*
X175375285Y-51716523D01*
X175327666Y-51811761D01*
X175280047Y-51859380D01*
X175184809Y-51907000D01*
X174899095Y-51907000D01*
X174803857Y-51859380D01*
X174756238Y-51811761D01*
X174708619Y-51716523D01*
X174708619Y-51573666D01*
X175375285Y-52240333D02*
X174708619Y-52430809D01*
X175184809Y-52621285D01*
X174708619Y-52811761D01*
X175375285Y-53002238D01*
X174756238Y-53764142D02*
X174708619Y-53668904D01*
X174708619Y-53478428D01*
X174756238Y-53383190D01*
X174851476Y-53335571D01*
X175232428Y-53335571D01*
X175327666Y-53383190D01*
X175375285Y-53478428D01*
X175375285Y-53668904D01*
X175327666Y-53764142D01*
X175232428Y-53811761D01*
X175137190Y-53811761D01*
X175041952Y-53335571D01*
X174708619Y-54240333D02*
X175375285Y-54240333D01*
X175184809Y-54240333D02*
X175280047Y-54287952D01*
X175327666Y-54335571D01*
X175375285Y-54430809D01*
X175375285Y-54526047D01*
X173146238Y-50192714D02*
X173098619Y-50335571D01*
X173098619Y-50573666D01*
X173146238Y-50668904D01*
X173193857Y-50716523D01*
X173289095Y-50764142D01*
X173384333Y-50764142D01*
X173479571Y-50716523D01*
X173527190Y-50668904D01*
X173574809Y-50573666D01*
X173622428Y-50383190D01*
X173670047Y-50287952D01*
X173717666Y-50240333D01*
X173812904Y-50192714D01*
X173908142Y-50192714D01*
X174003380Y-50240333D01*
X174051000Y-50287952D01*
X174098619Y-50383190D01*
X174098619Y-50621285D01*
X174051000Y-50764142D01*
X173765285Y-51097476D02*
X173098619Y-51287952D01*
X173574809Y-51478428D01*
X173098619Y-51668904D01*
X173765285Y-51859380D01*
X173098619Y-52240333D02*
X173765285Y-52240333D01*
X174098619Y-52240333D02*
X174051000Y-52192714D01*
X174003380Y-52240333D01*
X174051000Y-52287952D01*
X174098619Y-52240333D01*
X174003380Y-52240333D01*
X173765285Y-52573666D02*
X173765285Y-52954619D01*
X174098619Y-52716523D02*
X173241476Y-52716523D01*
X173146238Y-52764142D01*
X173098619Y-52859380D01*
X173098619Y-52954619D01*
X173146238Y-53716523D02*
X173098619Y-53621285D01*
X173098619Y-53430809D01*
X173146238Y-53335571D01*
X173193857Y-53287952D01*
X173289095Y-53240333D01*
X173574809Y-53240333D01*
X173670047Y-53287952D01*
X173717666Y-53335571D01*
X173765285Y-53430809D01*
X173765285Y-53621285D01*
X173717666Y-53716523D01*
X173098619Y-54145095D02*
X174098619Y-54145095D01*
X173098619Y-54573666D02*
X173622428Y-54573666D01*
X173717666Y-54526047D01*
X173765285Y-54430809D01*
X173765285Y-54287952D01*
X173717666Y-54192714D01*
X173670047Y-54145095D01*
X145341904Y-96051309D02*
X144541904Y-96051309D01*
X144541904Y-95746547D01*
X144580000Y-95670357D01*
X144618095Y-95632261D01*
X144694285Y-95594166D01*
X144808571Y-95594166D01*
X144884761Y-95632261D01*
X144922857Y-95670357D01*
X144960952Y-95746547D01*
X144960952Y-96051309D01*
X144541904Y-95327500D02*
X145341904Y-95137023D01*
X144770476Y-94984642D01*
X145341904Y-94832261D01*
X144541904Y-94641785D01*
X145341904Y-93879880D02*
X144960952Y-94146547D01*
X145341904Y-94337023D02*
X144541904Y-94337023D01*
X144541904Y-94032261D01*
X144580000Y-93956071D01*
X144618095Y-93917976D01*
X144694285Y-93879880D01*
X144808571Y-93879880D01*
X144884761Y-93917976D01*
X144922857Y-93956071D01*
X144960952Y-94032261D01*
X144960952Y-94337023D01*
X151571904Y-100663023D02*
X150771904Y-100663023D01*
X150771904Y-100358261D01*
X150810000Y-100282071D01*
X150848095Y-100243976D01*
X150924285Y-100205880D01*
X151038571Y-100205880D01*
X151114761Y-100243976D01*
X151152857Y-100282071D01*
X151190952Y-100358261D01*
X151190952Y-100663023D01*
X150771904Y-99939214D02*
X151571904Y-99748738D01*
X151000476Y-99596357D01*
X151571904Y-99443976D01*
X150771904Y-99253500D01*
X151571904Y-98491595D02*
X151190952Y-98758261D01*
X151571904Y-98948738D02*
X150771904Y-98948738D01*
X150771904Y-98643976D01*
X150810000Y-98567785D01*
X150848095Y-98529690D01*
X150924285Y-98491595D01*
X151038571Y-98491595D01*
X151114761Y-98529690D01*
X151152857Y-98567785D01*
X151190952Y-98643976D01*
X151190952Y-98948738D01*
X179660976Y-51245966D02*
X179803833Y-51293585D01*
X180041928Y-51293585D01*
X180137166Y-51245966D01*
X180184785Y-51198347D01*
X180232404Y-51103109D01*
X180232404Y-51007871D01*
X180184785Y-50912633D01*
X180137166Y-50865014D01*
X180041928Y-50817395D01*
X179851452Y-50769776D01*
X179756214Y-50722157D01*
X179708595Y-50674538D01*
X179660976Y-50579300D01*
X179660976Y-50484062D01*
X179708595Y-50388824D01*
X179756214Y-50341205D01*
X179851452Y-50293585D01*
X180089547Y-50293585D01*
X180232404Y-50341205D01*
X180565738Y-50293585D02*
X180803833Y-51293585D01*
X180994309Y-50579300D01*
X181184785Y-51293585D01*
X181422880Y-50293585D01*
X182327642Y-51293585D02*
X181756214Y-51293585D01*
X182041928Y-51293585D02*
X182041928Y-50293585D01*
X181946690Y-50436443D01*
X181851452Y-50531681D01*
X181756214Y-50579300D01*
X183280023Y-51293585D02*
X182708595Y-51293585D01*
X182994309Y-51293585D02*
X182994309Y-50293585D01*
X182899071Y-50436443D01*
X182803833Y-50531681D01*
X182708595Y-50579300D01*
X179660976Y-89370966D02*
X179803833Y-89418585D01*
X180041928Y-89418585D01*
X180137166Y-89370966D01*
X180184785Y-89323347D01*
X180232404Y-89228109D01*
X180232404Y-89132871D01*
X180184785Y-89037633D01*
X180137166Y-88990014D01*
X180041928Y-88942395D01*
X179851452Y-88894776D01*
X179756214Y-88847157D01*
X179708595Y-88799538D01*
X179660976Y-88704300D01*
X179660976Y-88609062D01*
X179708595Y-88513824D01*
X179756214Y-88466205D01*
X179851452Y-88418585D01*
X180089547Y-88418585D01*
X180232404Y-88466205D01*
X180565738Y-88418585D02*
X180803833Y-89418585D01*
X180994309Y-88704300D01*
X181184785Y-89418585D01*
X181422880Y-88418585D01*
X182327642Y-89418585D02*
X181756214Y-89418585D01*
X182041928Y-89418585D02*
X182041928Y-88418585D01*
X181946690Y-88561443D01*
X181851452Y-88656681D01*
X181756214Y-88704300D01*
X183280023Y-89418585D02*
X182708595Y-89418585D01*
X182994309Y-89418585D02*
X182994309Y-88418585D01*
X182899071Y-88561443D01*
X182803833Y-88656681D01*
X182708595Y-88704300D01*
X179660976Y-70335966D02*
X179803833Y-70383585D01*
X180041928Y-70383585D01*
X180137166Y-70335966D01*
X180184785Y-70288347D01*
X180232404Y-70193109D01*
X180232404Y-70097871D01*
X180184785Y-70002633D01*
X180137166Y-69955014D01*
X180041928Y-69907395D01*
X179851452Y-69859776D01*
X179756214Y-69812157D01*
X179708595Y-69764538D01*
X179660976Y-69669300D01*
X179660976Y-69574062D01*
X179708595Y-69478824D01*
X179756214Y-69431205D01*
X179851452Y-69383585D01*
X180089547Y-69383585D01*
X180232404Y-69431205D01*
X180565738Y-69383585D02*
X180803833Y-70383585D01*
X180994309Y-69669300D01*
X181184785Y-70383585D01*
X181422880Y-69383585D01*
X182327642Y-70383585D02*
X181756214Y-70383585D01*
X182041928Y-70383585D02*
X182041928Y-69383585D01*
X181946690Y-69526443D01*
X181851452Y-69621681D01*
X181756214Y-69669300D01*
X183280023Y-70383585D02*
X182708595Y-70383585D01*
X182994309Y-70383585D02*
X182994309Y-69383585D01*
X182899071Y-69526443D01*
X182803833Y-69621681D01*
X182708595Y-69669300D01*
X198660976Y-48720966D02*
X198803833Y-48768585D01*
X199041928Y-48768585D01*
X199137166Y-48720966D01*
X199184785Y-48673347D01*
X199232404Y-48578109D01*
X199232404Y-48482871D01*
X199184785Y-48387633D01*
X199137166Y-48340014D01*
X199041928Y-48292395D01*
X198851452Y-48244776D01*
X198756214Y-48197157D01*
X198708595Y-48149538D01*
X198660976Y-48054300D01*
X198660976Y-47959062D01*
X198708595Y-47863824D01*
X198756214Y-47816205D01*
X198851452Y-47768585D01*
X199089547Y-47768585D01*
X199232404Y-47816205D01*
X199565738Y-47768585D02*
X199803833Y-48768585D01*
X199994309Y-48054300D01*
X200184785Y-48768585D01*
X200422880Y-47768585D01*
X201327642Y-48768585D02*
X200756214Y-48768585D01*
X201041928Y-48768585D02*
X201041928Y-47768585D01*
X200946690Y-47911443D01*
X200851452Y-48006681D01*
X200756214Y-48054300D01*
X202280023Y-48768585D02*
X201708595Y-48768585D01*
X201994309Y-48768585D02*
X201994309Y-47768585D01*
X201899071Y-47911443D01*
X201803833Y-48006681D01*
X201708595Y-48054300D01*
X198660976Y-86845966D02*
X198803833Y-86893585D01*
X199041928Y-86893585D01*
X199137166Y-86845966D01*
X199184785Y-86798347D01*
X199232404Y-86703109D01*
X199232404Y-86607871D01*
X199184785Y-86512633D01*
X199137166Y-86465014D01*
X199041928Y-86417395D01*
X198851452Y-86369776D01*
X198756214Y-86322157D01*
X198708595Y-86274538D01*
X198660976Y-86179300D01*
X198660976Y-86084062D01*
X198708595Y-85988824D01*
X198756214Y-85941205D01*
X198851452Y-85893585D01*
X199089547Y-85893585D01*
X199232404Y-85941205D01*
X199565738Y-85893585D02*
X199803833Y-86893585D01*
X199994309Y-86179300D01*
X200184785Y-86893585D01*
X200422880Y-85893585D01*
X201327642Y-86893585D02*
X200756214Y-86893585D01*
X201041928Y-86893585D02*
X201041928Y-85893585D01*
X200946690Y-86036443D01*
X200851452Y-86131681D01*
X200756214Y-86179300D01*
X202280023Y-86893585D02*
X201708595Y-86893585D01*
X201994309Y-86893585D02*
X201994309Y-85893585D01*
X201899071Y-86036443D01*
X201803833Y-86131681D01*
X201708595Y-86179300D01*
X198660976Y-67810966D02*
X198803833Y-67858585D01*
X199041928Y-67858585D01*
X199137166Y-67810966D01*
X199184785Y-67763347D01*
X199232404Y-67668109D01*
X199232404Y-67572871D01*
X199184785Y-67477633D01*
X199137166Y-67430014D01*
X199041928Y-67382395D01*
X198851452Y-67334776D01*
X198756214Y-67287157D01*
X198708595Y-67239538D01*
X198660976Y-67144300D01*
X198660976Y-67049062D01*
X198708595Y-66953824D01*
X198756214Y-66906205D01*
X198851452Y-66858585D01*
X199089547Y-66858585D01*
X199232404Y-66906205D01*
X199565738Y-66858585D02*
X199803833Y-67858585D01*
X199994309Y-67144300D01*
X200184785Y-67858585D01*
X200422880Y-66858585D01*
X201327642Y-67858585D02*
X200756214Y-67858585D01*
X201041928Y-67858585D02*
X201041928Y-66858585D01*
X200946690Y-67001443D01*
X200851452Y-67096681D01*
X200756214Y-67144300D01*
X202280023Y-67858585D02*
X201708595Y-67858585D01*
X201994309Y-67858585D02*
X201994309Y-66858585D01*
X201899071Y-67001443D01*
X201803833Y-67096681D01*
X201708595Y-67144300D01*
X217650976Y-44128966D02*
X217793833Y-44176585D01*
X218031928Y-44176585D01*
X218127166Y-44128966D01*
X218174785Y-44081347D01*
X218222404Y-43986109D01*
X218222404Y-43890871D01*
X218174785Y-43795633D01*
X218127166Y-43748014D01*
X218031928Y-43700395D01*
X217841452Y-43652776D01*
X217746214Y-43605157D01*
X217698595Y-43557538D01*
X217650976Y-43462300D01*
X217650976Y-43367062D01*
X217698595Y-43271824D01*
X217746214Y-43224205D01*
X217841452Y-43176585D01*
X218079547Y-43176585D01*
X218222404Y-43224205D01*
X218555738Y-43176585D02*
X218793833Y-44176585D01*
X218984309Y-43462300D01*
X219174785Y-44176585D01*
X219412880Y-43176585D01*
X220317642Y-44176585D02*
X219746214Y-44176585D01*
X220031928Y-44176585D02*
X220031928Y-43176585D01*
X219936690Y-43319443D01*
X219841452Y-43414681D01*
X219746214Y-43462300D01*
X221270023Y-44176585D02*
X220698595Y-44176585D01*
X220984309Y-44176585D02*
X220984309Y-43176585D01*
X220889071Y-43319443D01*
X220793833Y-43414681D01*
X220698595Y-43462300D01*
X217650976Y-63218966D02*
X217793833Y-63266585D01*
X218031928Y-63266585D01*
X218127166Y-63218966D01*
X218174785Y-63171347D01*
X218222404Y-63076109D01*
X218222404Y-62980871D01*
X218174785Y-62885633D01*
X218127166Y-62838014D01*
X218031928Y-62790395D01*
X217841452Y-62742776D01*
X217746214Y-62695157D01*
X217698595Y-62647538D01*
X217650976Y-62552300D01*
X217650976Y-62457062D01*
X217698595Y-62361824D01*
X217746214Y-62314205D01*
X217841452Y-62266585D01*
X218079547Y-62266585D01*
X218222404Y-62314205D01*
X218555738Y-62266585D02*
X218793833Y-63266585D01*
X218984309Y-62552300D01*
X219174785Y-63266585D01*
X219412880Y-62266585D01*
X220317642Y-63266585D02*
X219746214Y-63266585D01*
X220031928Y-63266585D02*
X220031928Y-62266585D01*
X219936690Y-62409443D01*
X219841452Y-62504681D01*
X219746214Y-62552300D01*
X221270023Y-63266585D02*
X220698595Y-63266585D01*
X220984309Y-63266585D02*
X220984309Y-62266585D01*
X220889071Y-62409443D01*
X220793833Y-62504681D01*
X220698595Y-62552300D01*
X217650976Y-82253966D02*
X217793833Y-82301585D01*
X218031928Y-82301585D01*
X218127166Y-82253966D01*
X218174785Y-82206347D01*
X218222404Y-82111109D01*
X218222404Y-82015871D01*
X218174785Y-81920633D01*
X218127166Y-81873014D01*
X218031928Y-81825395D01*
X217841452Y-81777776D01*
X217746214Y-81730157D01*
X217698595Y-81682538D01*
X217650976Y-81587300D01*
X217650976Y-81492062D01*
X217698595Y-81396824D01*
X217746214Y-81349205D01*
X217841452Y-81301585D01*
X218079547Y-81301585D01*
X218222404Y-81349205D01*
X218555738Y-81301585D02*
X218793833Y-82301585D01*
X218984309Y-81587300D01*
X219174785Y-82301585D01*
X219412880Y-81301585D01*
X220317642Y-82301585D02*
X219746214Y-82301585D01*
X220031928Y-82301585D02*
X220031928Y-81301585D01*
X219936690Y-81444443D01*
X219841452Y-81539681D01*
X219746214Y-81587300D01*
X221270023Y-82301585D02*
X220698595Y-82301585D01*
X220984309Y-82301585D02*
X220984309Y-81301585D01*
X220889071Y-81444443D01*
X220793833Y-81539681D01*
X220698595Y-81587300D01*
X236650976Y-50378966D02*
X236793833Y-50426585D01*
X237031928Y-50426585D01*
X237127166Y-50378966D01*
X237174785Y-50331347D01*
X237222404Y-50236109D01*
X237222404Y-50140871D01*
X237174785Y-50045633D01*
X237127166Y-49998014D01*
X237031928Y-49950395D01*
X236841452Y-49902776D01*
X236746214Y-49855157D01*
X236698595Y-49807538D01*
X236650976Y-49712300D01*
X236650976Y-49617062D01*
X236698595Y-49521824D01*
X236746214Y-49474205D01*
X236841452Y-49426585D01*
X237079547Y-49426585D01*
X237222404Y-49474205D01*
X237555738Y-49426585D02*
X237793833Y-50426585D01*
X237984309Y-49712300D01*
X238174785Y-50426585D01*
X238412880Y-49426585D01*
X239317642Y-50426585D02*
X238746214Y-50426585D01*
X239031928Y-50426585D02*
X239031928Y-49426585D01*
X238936690Y-49569443D01*
X238841452Y-49664681D01*
X238746214Y-49712300D01*
X240270023Y-50426585D02*
X239698595Y-50426585D01*
X239984309Y-50426585D02*
X239984309Y-49426585D01*
X239889071Y-49569443D01*
X239793833Y-49664681D01*
X239698595Y-49712300D01*
X236650976Y-69468966D02*
X236793833Y-69516585D01*
X237031928Y-69516585D01*
X237127166Y-69468966D01*
X237174785Y-69421347D01*
X237222404Y-69326109D01*
X237222404Y-69230871D01*
X237174785Y-69135633D01*
X237127166Y-69088014D01*
X237031928Y-69040395D01*
X236841452Y-68992776D01*
X236746214Y-68945157D01*
X236698595Y-68897538D01*
X236650976Y-68802300D01*
X236650976Y-68707062D01*
X236698595Y-68611824D01*
X236746214Y-68564205D01*
X236841452Y-68516585D01*
X237079547Y-68516585D01*
X237222404Y-68564205D01*
X237555738Y-68516585D02*
X237793833Y-69516585D01*
X237984309Y-68802300D01*
X238174785Y-69516585D01*
X238412880Y-68516585D01*
X239317642Y-69516585D02*
X238746214Y-69516585D01*
X239031928Y-69516585D02*
X239031928Y-68516585D01*
X238936690Y-68659443D01*
X238841452Y-68754681D01*
X238746214Y-68802300D01*
X240270023Y-69516585D02*
X239698595Y-69516585D01*
X239984309Y-69516585D02*
X239984309Y-68516585D01*
X239889071Y-68659443D01*
X239793833Y-68754681D01*
X239698595Y-68802300D01*
X236650976Y-88503966D02*
X236793833Y-88551585D01*
X237031928Y-88551585D01*
X237127166Y-88503966D01*
X237174785Y-88456347D01*
X237222404Y-88361109D01*
X237222404Y-88265871D01*
X237174785Y-88170633D01*
X237127166Y-88123014D01*
X237031928Y-88075395D01*
X236841452Y-88027776D01*
X236746214Y-87980157D01*
X236698595Y-87932538D01*
X236650976Y-87837300D01*
X236650976Y-87742062D01*
X236698595Y-87646824D01*
X236746214Y-87599205D01*
X236841452Y-87551585D01*
X237079547Y-87551585D01*
X237222404Y-87599205D01*
X237555738Y-87551585D02*
X237793833Y-88551585D01*
X237984309Y-87837300D01*
X238174785Y-88551585D01*
X238412880Y-87551585D01*
X239317642Y-88551585D02*
X238746214Y-88551585D01*
X239031928Y-88551585D02*
X239031928Y-87551585D01*
X238936690Y-87694443D01*
X238841452Y-87789681D01*
X238746214Y-87837300D01*
X240270023Y-88551585D02*
X239698595Y-88551585D01*
X239984309Y-88551585D02*
X239984309Y-87551585D01*
X239889071Y-87694443D01*
X239793833Y-87789681D01*
X239698595Y-87837300D01*
X255553128Y-100435261D02*
X255695985Y-100482880D01*
X255934080Y-100482880D01*
X256029318Y-100435261D01*
X256076937Y-100387642D01*
X256124556Y-100292404D01*
X256124556Y-100197166D01*
X256076937Y-100101928D01*
X256029318Y-100054309D01*
X255934080Y-100006690D01*
X255743604Y-99959071D01*
X255648366Y-99911452D01*
X255600747Y-99863833D01*
X255553128Y-99768595D01*
X255553128Y-99673357D01*
X255600747Y-99578119D01*
X255648366Y-99530500D01*
X255743604Y-99482880D01*
X255981699Y-99482880D01*
X256124556Y-99530500D01*
X256457890Y-99482880D02*
X256695985Y-100482880D01*
X256886461Y-99768595D01*
X257076937Y-100482880D01*
X257315032Y-99482880D01*
X258219794Y-100482880D02*
X257648366Y-100482880D01*
X257934080Y-100482880D02*
X257934080Y-99482880D01*
X257838842Y-99625738D01*
X257743604Y-99720976D01*
X257648366Y-99768595D01*
X259172175Y-100482880D02*
X258600747Y-100482880D01*
X258886461Y-100482880D02*
X258886461Y-99482880D01*
X258791223Y-99625738D01*
X258695985Y-99720976D01*
X258600747Y-99768595D01*
X255553128Y-62310261D02*
X255695985Y-62357880D01*
X255934080Y-62357880D01*
X256029318Y-62310261D01*
X256076937Y-62262642D01*
X256124556Y-62167404D01*
X256124556Y-62072166D01*
X256076937Y-61976928D01*
X256029318Y-61929309D01*
X255934080Y-61881690D01*
X255743604Y-61834071D01*
X255648366Y-61786452D01*
X255600747Y-61738833D01*
X255553128Y-61643595D01*
X255553128Y-61548357D01*
X255600747Y-61453119D01*
X255648366Y-61405500D01*
X255743604Y-61357880D01*
X255981699Y-61357880D01*
X256124556Y-61405500D01*
X256457890Y-61357880D02*
X256695985Y-62357880D01*
X256886461Y-61643595D01*
X257076937Y-62357880D01*
X257315032Y-61357880D01*
X258219794Y-62357880D02*
X257648366Y-62357880D01*
X257934080Y-62357880D02*
X257934080Y-61357880D01*
X257838842Y-61500738D01*
X257743604Y-61595976D01*
X257648366Y-61643595D01*
X259172175Y-62357880D02*
X258600747Y-62357880D01*
X258886461Y-62357880D02*
X258886461Y-61357880D01*
X258791223Y-61500738D01*
X258695985Y-61595976D01*
X258600747Y-61643595D01*
X255553128Y-81400261D02*
X255695985Y-81447880D01*
X255934080Y-81447880D01*
X256029318Y-81400261D01*
X256076937Y-81352642D01*
X256124556Y-81257404D01*
X256124556Y-81162166D01*
X256076937Y-81066928D01*
X256029318Y-81019309D01*
X255934080Y-80971690D01*
X255743604Y-80924071D01*
X255648366Y-80876452D01*
X255600747Y-80828833D01*
X255553128Y-80733595D01*
X255553128Y-80638357D01*
X255600747Y-80543119D01*
X255648366Y-80495500D01*
X255743604Y-80447880D01*
X255981699Y-80447880D01*
X256124556Y-80495500D01*
X256457890Y-80447880D02*
X256695985Y-81447880D01*
X256886461Y-80733595D01*
X257076937Y-81447880D01*
X257315032Y-80447880D01*
X258219794Y-81447880D02*
X257648366Y-81447880D01*
X257934080Y-81447880D02*
X257934080Y-80447880D01*
X257838842Y-80590738D01*
X257743604Y-80685976D01*
X257648366Y-80733595D01*
X259172175Y-81447880D02*
X258600747Y-81447880D01*
X258886461Y-81447880D02*
X258886461Y-80447880D01*
X258791223Y-80590738D01*
X258695985Y-80685976D01*
X258600747Y-80733595D01*
X108123157Y-96843509D02*
X107997492Y-96760538D01*
X107767510Y-96698914D01*
X107663192Y-96720262D01*
X107604871Y-96753933D01*
X107534225Y-96833602D01*
X107509576Y-96925594D01*
X107530923Y-97029912D01*
X107564594Y-97088233D01*
X107644263Y-97158879D01*
X107815924Y-97254175D01*
X107895592Y-97324820D01*
X107929264Y-97383142D01*
X107950611Y-97487459D01*
X107925961Y-97579452D01*
X107855315Y-97659120D01*
X107796994Y-97692792D01*
X107692677Y-97714139D01*
X107462694Y-97652516D01*
X107337030Y-97569545D01*
X107002730Y-97529268D02*
X107031566Y-96501719D01*
X106662710Y-97142367D01*
X106663595Y-96403121D01*
X106174793Y-97307424D01*
X105559679Y-96107328D02*
X106111637Y-96255225D01*
X105835658Y-96181276D02*
X105576839Y-97147202D01*
X105705806Y-97033862D01*
X105822449Y-96966519D01*
X105926766Y-96945172D01*
X104472924Y-96851409D02*
X104656910Y-96900708D01*
X104761227Y-96879361D01*
X104819549Y-96845689D01*
X104948516Y-96732349D01*
X105043811Y-96560688D01*
X105142409Y-96192716D01*
X105121062Y-96088399D01*
X105087390Y-96030077D01*
X105007722Y-95959432D01*
X104823736Y-95910133D01*
X104719418Y-95931480D01*
X104661097Y-95965151D01*
X104590451Y-96044820D01*
X104528827Y-96274802D01*
X104550175Y-96379120D01*
X104583846Y-96437441D01*
X104663515Y-96508087D01*
X104847500Y-96557386D01*
X104951818Y-96536039D01*
X105010139Y-96502367D01*
X105080785Y-96422699D01*
X129524465Y-105290142D02*
X129424557Y-105177474D01*
X129218360Y-105058427D01*
X129112072Y-105052047D01*
X129047023Y-105069477D01*
X128958165Y-105128146D01*
X128910546Y-105210625D01*
X128904166Y-105316913D01*
X128921596Y-105381962D01*
X128980265Y-105470820D01*
X129121413Y-105607297D01*
X129180082Y-105696156D01*
X129197512Y-105761204D01*
X129191132Y-105867493D01*
X129143513Y-105949971D01*
X129054655Y-106008640D01*
X128989606Y-106026070D01*
X128883318Y-106019690D01*
X128677121Y-105900643D01*
X128577213Y-105787975D01*
X128264728Y-105662547D02*
X128558532Y-104677474D01*
X128036431Y-105200826D01*
X128228617Y-104486998D01*
X127522421Y-105233976D01*
X127238874Y-103915570D02*
X127733745Y-104201284D01*
X127486310Y-104058427D02*
X126986310Y-104924452D01*
X127140217Y-104848353D01*
X127270314Y-104813494D01*
X127376603Y-104819874D01*
X126450199Y-104614928D02*
X125872848Y-104281595D01*
X126744002Y-103629855D01*
X161989953Y-107733119D02*
X161842426Y-107763308D01*
X161636229Y-107882355D01*
X161577560Y-107971214D01*
X161560131Y-108036263D01*
X161566510Y-108142551D01*
X161614129Y-108225029D01*
X161702988Y-108283698D01*
X161768037Y-108301128D01*
X161874325Y-108294748D01*
X162063091Y-108240750D01*
X162169380Y-108234370D01*
X162234428Y-108251800D01*
X162323287Y-108310469D01*
X162370906Y-108392947D01*
X162377286Y-108499236D01*
X162359856Y-108564284D01*
X162301187Y-108653143D01*
X162094990Y-108772190D01*
X161947463Y-108802380D01*
X161682597Y-109010286D02*
X160976401Y-108263308D01*
X161168586Y-108977135D01*
X160646486Y-108453784D01*
X160940290Y-109438857D01*
X160692854Y-109581714D02*
X160156743Y-109891238D01*
X160254942Y-109394657D01*
X160131224Y-109466085D01*
X160024936Y-109472465D01*
X159959887Y-109455035D01*
X159871029Y-109396366D01*
X159751981Y-109190170D01*
X159745601Y-109083882D01*
X159763031Y-109018833D01*
X159821700Y-108929974D01*
X160069136Y-108787117D01*
X160175424Y-108780738D01*
X160240473Y-108798167D01*
X159868068Y-110057905D02*
X159331957Y-110367428D01*
X159430156Y-109870847D01*
X159306438Y-109942276D01*
X159200150Y-109948656D01*
X159135101Y-109931226D01*
X159046242Y-109872557D01*
X158927195Y-109666360D01*
X158920815Y-109560072D01*
X158938245Y-109495023D01*
X158996914Y-109406165D01*
X159244350Y-109263308D01*
X159350638Y-109256928D01*
X159415687Y-109274358D01*
X182600811Y-98015276D02*
X182450496Y-98006254D01*
X182220514Y-98067878D01*
X182140846Y-98138524D01*
X182107174Y-98196845D01*
X182085827Y-98301162D01*
X182110477Y-98393155D01*
X182181122Y-98472824D01*
X182239444Y-98506495D01*
X182343761Y-98527842D01*
X182540072Y-98524540D01*
X182644390Y-98545887D01*
X182702711Y-98579559D01*
X182773357Y-98659227D01*
X182798006Y-98751220D01*
X182776659Y-98855537D01*
X182742987Y-98913859D01*
X182663319Y-98984505D01*
X182433337Y-99046128D01*
X182283023Y-99037106D01*
X181973372Y-99169375D02*
X181484571Y-98265073D01*
X181485456Y-99004319D01*
X181116599Y-98363671D01*
X181145436Y-99391220D01*
X180869457Y-99465169D02*
X180271503Y-99625390D01*
X180494880Y-99171145D01*
X180356891Y-99208119D01*
X180252573Y-99186772D01*
X180194252Y-99153100D01*
X180123606Y-99073432D01*
X180061983Y-98843450D01*
X180083330Y-98739132D01*
X180117001Y-98680811D01*
X180196670Y-98610165D01*
X180472648Y-98536217D01*
X180576966Y-98557564D01*
X180635287Y-98591236D01*
X179357293Y-99525259D02*
X179184747Y-98881309D01*
X179685873Y-99831608D02*
X179730985Y-99080037D01*
X179133031Y-99240258D01*
X116168827Y-39158443D02*
X116025970Y-39110824D01*
X115787875Y-39110824D01*
X115692637Y-39158443D01*
X115645018Y-39206062D01*
X115597399Y-39301300D01*
X115597399Y-39396538D01*
X115645018Y-39491776D01*
X115692637Y-39539395D01*
X115787875Y-39587014D01*
X115978351Y-39634633D01*
X116073589Y-39682252D01*
X116121208Y-39729871D01*
X116168827Y-39825109D01*
X116168827Y-39920347D01*
X116121208Y-40015585D01*
X116073589Y-40063205D01*
X115978351Y-40110824D01*
X115740256Y-40110824D01*
X115597399Y-40063205D01*
X115264065Y-40110824D02*
X115025970Y-39110824D01*
X114835494Y-39825109D01*
X114645018Y-39110824D01*
X114406923Y-40110824D01*
X113502161Y-39110824D02*
X114073589Y-39110824D01*
X113787875Y-39110824D02*
X113787875Y-40110824D01*
X113883113Y-39967966D01*
X113978351Y-39872728D01*
X114073589Y-39825109D01*
X112549780Y-39110824D02*
X113121208Y-39110824D01*
X112835494Y-39110824D02*
X112835494Y-40110824D01*
X112930732Y-39967966D01*
X113025970Y-39872728D01*
X113121208Y-39825109D01*
X116168827Y-58248443D02*
X116025970Y-58200824D01*
X115787875Y-58200824D01*
X115692637Y-58248443D01*
X115645018Y-58296062D01*
X115597399Y-58391300D01*
X115597399Y-58486538D01*
X115645018Y-58581776D01*
X115692637Y-58629395D01*
X115787875Y-58677014D01*
X115978351Y-58724633D01*
X116073589Y-58772252D01*
X116121208Y-58819871D01*
X116168827Y-58915109D01*
X116168827Y-59010347D01*
X116121208Y-59105585D01*
X116073589Y-59153205D01*
X115978351Y-59200824D01*
X115740256Y-59200824D01*
X115597399Y-59153205D01*
X115264065Y-59200824D02*
X115025970Y-58200824D01*
X114835494Y-58915109D01*
X114645018Y-58200824D01*
X114406923Y-59200824D01*
X113502161Y-58200824D02*
X114073589Y-58200824D01*
X113787875Y-58200824D02*
X113787875Y-59200824D01*
X113883113Y-59057966D01*
X113978351Y-58962728D01*
X114073589Y-58915109D01*
X112549780Y-58200824D02*
X113121208Y-58200824D01*
X112835494Y-58200824D02*
X112835494Y-59200824D01*
X112930732Y-59057966D01*
X113025970Y-58962728D01*
X113121208Y-58915109D01*
X116168827Y-77283443D02*
X116025970Y-77235824D01*
X115787875Y-77235824D01*
X115692637Y-77283443D01*
X115645018Y-77331062D01*
X115597399Y-77426300D01*
X115597399Y-77521538D01*
X115645018Y-77616776D01*
X115692637Y-77664395D01*
X115787875Y-77712014D01*
X115978351Y-77759633D01*
X116073589Y-77807252D01*
X116121208Y-77854871D01*
X116168827Y-77950109D01*
X116168827Y-78045347D01*
X116121208Y-78140585D01*
X116073589Y-78188205D01*
X115978351Y-78235824D01*
X115740256Y-78235824D01*
X115597399Y-78188205D01*
X115264065Y-78235824D02*
X115025970Y-77235824D01*
X114835494Y-77950109D01*
X114645018Y-77235824D01*
X114406923Y-78235824D01*
X113502161Y-77235824D02*
X114073589Y-77235824D01*
X113787875Y-77235824D02*
X113787875Y-78235824D01*
X113883113Y-78092966D01*
X113978351Y-77997728D01*
X114073589Y-77950109D01*
X112549780Y-77235824D02*
X113121208Y-77235824D01*
X112835494Y-77235824D02*
X112835494Y-78235824D01*
X112930732Y-78092966D01*
X113025970Y-77997728D01*
X113121208Y-77950109D01*
X97168827Y-36633443D02*
X97025970Y-36585824D01*
X96787875Y-36585824D01*
X96692637Y-36633443D01*
X96645018Y-36681062D01*
X96597399Y-36776300D01*
X96597399Y-36871538D01*
X96645018Y-36966776D01*
X96692637Y-37014395D01*
X96787875Y-37062014D01*
X96978351Y-37109633D01*
X97073589Y-37157252D01*
X97121208Y-37204871D01*
X97168827Y-37300109D01*
X97168827Y-37395347D01*
X97121208Y-37490585D01*
X97073589Y-37538205D01*
X96978351Y-37585824D01*
X96740256Y-37585824D01*
X96597399Y-37538205D01*
X96264065Y-37585824D02*
X96025970Y-36585824D01*
X95835494Y-37300109D01*
X95645018Y-36585824D01*
X95406923Y-37585824D01*
X94502161Y-36585824D02*
X95073589Y-36585824D01*
X94787875Y-36585824D02*
X94787875Y-37585824D01*
X94883113Y-37442966D01*
X94978351Y-37347728D01*
X95073589Y-37300109D01*
X93549780Y-36585824D02*
X94121208Y-36585824D01*
X93835494Y-36585824D02*
X93835494Y-37585824D01*
X93930732Y-37442966D01*
X94025970Y-37347728D01*
X94121208Y-37300109D01*
X97168827Y-55723443D02*
X97025970Y-55675824D01*
X96787875Y-55675824D01*
X96692637Y-55723443D01*
X96645018Y-55771062D01*
X96597399Y-55866300D01*
X96597399Y-55961538D01*
X96645018Y-56056776D01*
X96692637Y-56104395D01*
X96787875Y-56152014D01*
X96978351Y-56199633D01*
X97073589Y-56247252D01*
X97121208Y-56294871D01*
X97168827Y-56390109D01*
X97168827Y-56485347D01*
X97121208Y-56580585D01*
X97073589Y-56628205D01*
X96978351Y-56675824D01*
X96740256Y-56675824D01*
X96597399Y-56628205D01*
X96264065Y-56675824D02*
X96025970Y-55675824D01*
X95835494Y-56390109D01*
X95645018Y-55675824D01*
X95406923Y-56675824D01*
X94502161Y-55675824D02*
X95073589Y-55675824D01*
X94787875Y-55675824D02*
X94787875Y-56675824D01*
X94883113Y-56532966D01*
X94978351Y-56437728D01*
X95073589Y-56390109D01*
X93549780Y-55675824D02*
X94121208Y-55675824D01*
X93835494Y-55675824D02*
X93835494Y-56675824D01*
X93930732Y-56532966D01*
X94025970Y-56437728D01*
X94121208Y-56390109D01*
X97168827Y-74758443D02*
X97025970Y-74710824D01*
X96787875Y-74710824D01*
X96692637Y-74758443D01*
X96645018Y-74806062D01*
X96597399Y-74901300D01*
X96597399Y-74996538D01*
X96645018Y-75091776D01*
X96692637Y-75139395D01*
X96787875Y-75187014D01*
X96978351Y-75234633D01*
X97073589Y-75282252D01*
X97121208Y-75329871D01*
X97168827Y-75425109D01*
X97168827Y-75520347D01*
X97121208Y-75615585D01*
X97073589Y-75663205D01*
X96978351Y-75710824D01*
X96740256Y-75710824D01*
X96597399Y-75663205D01*
X96264065Y-75710824D02*
X96025970Y-74710824D01*
X95835494Y-75425109D01*
X95645018Y-74710824D01*
X95406923Y-75710824D01*
X94502161Y-74710824D02*
X95073589Y-74710824D01*
X94787875Y-74710824D02*
X94787875Y-75710824D01*
X94883113Y-75567966D01*
X94978351Y-75472728D01*
X95073589Y-75425109D01*
X93549780Y-74710824D02*
X94121208Y-74710824D01*
X93835494Y-74710824D02*
X93835494Y-75710824D01*
X93930732Y-75567966D01*
X94025970Y-75472728D01*
X94121208Y-75425109D01*
X78178827Y-70166443D02*
X78035970Y-70118824D01*
X77797875Y-70118824D01*
X77702637Y-70166443D01*
X77655018Y-70214062D01*
X77607399Y-70309300D01*
X77607399Y-70404538D01*
X77655018Y-70499776D01*
X77702637Y-70547395D01*
X77797875Y-70595014D01*
X77988351Y-70642633D01*
X78083589Y-70690252D01*
X78131208Y-70737871D01*
X78178827Y-70833109D01*
X78178827Y-70928347D01*
X78131208Y-71023585D01*
X78083589Y-71071205D01*
X77988351Y-71118824D01*
X77750256Y-71118824D01*
X77607399Y-71071205D01*
X77274065Y-71118824D02*
X77035970Y-70118824D01*
X76845494Y-70833109D01*
X76655018Y-70118824D01*
X76416923Y-71118824D01*
X75512161Y-70118824D02*
X76083589Y-70118824D01*
X75797875Y-70118824D02*
X75797875Y-71118824D01*
X75893113Y-70975966D01*
X75988351Y-70880728D01*
X76083589Y-70833109D01*
X74559780Y-70118824D02*
X75131208Y-70118824D01*
X74845494Y-70118824D02*
X74845494Y-71118824D01*
X74940732Y-70975966D01*
X75035970Y-70880728D01*
X75131208Y-70833109D01*
X78178827Y-32041443D02*
X78035970Y-31993824D01*
X77797875Y-31993824D01*
X77702637Y-32041443D01*
X77655018Y-32089062D01*
X77607399Y-32184300D01*
X77607399Y-32279538D01*
X77655018Y-32374776D01*
X77702637Y-32422395D01*
X77797875Y-32470014D01*
X77988351Y-32517633D01*
X78083589Y-32565252D01*
X78131208Y-32612871D01*
X78178827Y-32708109D01*
X78178827Y-32803347D01*
X78131208Y-32898585D01*
X78083589Y-32946205D01*
X77988351Y-32993824D01*
X77750256Y-32993824D01*
X77607399Y-32946205D01*
X77274065Y-32993824D02*
X77035970Y-31993824D01*
X76845494Y-32708109D01*
X76655018Y-31993824D01*
X76416923Y-32993824D01*
X75512161Y-31993824D02*
X76083589Y-31993824D01*
X75797875Y-31993824D02*
X75797875Y-32993824D01*
X75893113Y-32850966D01*
X75988351Y-32755728D01*
X76083589Y-32708109D01*
X74559780Y-31993824D02*
X75131208Y-31993824D01*
X74845494Y-31993824D02*
X74845494Y-32993824D01*
X74940732Y-32850966D01*
X75035970Y-32755728D01*
X75131208Y-32708109D01*
X78178827Y-51131443D02*
X78035970Y-51083824D01*
X77797875Y-51083824D01*
X77702637Y-51131443D01*
X77655018Y-51179062D01*
X77607399Y-51274300D01*
X77607399Y-51369538D01*
X77655018Y-51464776D01*
X77702637Y-51512395D01*
X77797875Y-51560014D01*
X77988351Y-51607633D01*
X78083589Y-51655252D01*
X78131208Y-51702871D01*
X78178827Y-51798109D01*
X78178827Y-51893347D01*
X78131208Y-51988585D01*
X78083589Y-52036205D01*
X77988351Y-52083824D01*
X77750256Y-52083824D01*
X77607399Y-52036205D01*
X77274065Y-52083824D02*
X77035970Y-51083824D01*
X76845494Y-51798109D01*
X76655018Y-51083824D01*
X76416923Y-52083824D01*
X75512161Y-51083824D02*
X76083589Y-51083824D01*
X75797875Y-51083824D02*
X75797875Y-52083824D01*
X75893113Y-51940966D01*
X75988351Y-51845728D01*
X76083589Y-51798109D01*
X74559780Y-51083824D02*
X75131208Y-51083824D01*
X74845494Y-51083824D02*
X74845494Y-52083824D01*
X74940732Y-51940966D01*
X75035970Y-51845728D01*
X75131208Y-51798109D01*
X59178827Y-76416443D02*
X59035970Y-76368824D01*
X58797875Y-76368824D01*
X58702637Y-76416443D01*
X58655018Y-76464062D01*
X58607399Y-76559300D01*
X58607399Y-76654538D01*
X58655018Y-76749776D01*
X58702637Y-76797395D01*
X58797875Y-76845014D01*
X58988351Y-76892633D01*
X59083589Y-76940252D01*
X59131208Y-76987871D01*
X59178827Y-77083109D01*
X59178827Y-77178347D01*
X59131208Y-77273585D01*
X59083589Y-77321205D01*
X58988351Y-77368824D01*
X58750256Y-77368824D01*
X58607399Y-77321205D01*
X58274065Y-77368824D02*
X58035970Y-76368824D01*
X57845494Y-77083109D01*
X57655018Y-76368824D01*
X57416923Y-77368824D01*
X56512161Y-76368824D02*
X57083589Y-76368824D01*
X56797875Y-76368824D02*
X56797875Y-77368824D01*
X56893113Y-77225966D01*
X56988351Y-77130728D01*
X57083589Y-77083109D01*
X55559780Y-76368824D02*
X56131208Y-76368824D01*
X55845494Y-76368824D02*
X55845494Y-77368824D01*
X55940732Y-77225966D01*
X56035970Y-77130728D01*
X56131208Y-77083109D01*
X59178827Y-38291443D02*
X59035970Y-38243824D01*
X58797875Y-38243824D01*
X58702637Y-38291443D01*
X58655018Y-38339062D01*
X58607399Y-38434300D01*
X58607399Y-38529538D01*
X58655018Y-38624776D01*
X58702637Y-38672395D01*
X58797875Y-38720014D01*
X58988351Y-38767633D01*
X59083589Y-38815252D01*
X59131208Y-38862871D01*
X59178827Y-38958109D01*
X59178827Y-39053347D01*
X59131208Y-39148585D01*
X59083589Y-39196205D01*
X58988351Y-39243824D01*
X58750256Y-39243824D01*
X58607399Y-39196205D01*
X58274065Y-39243824D02*
X58035970Y-38243824D01*
X57845494Y-38958109D01*
X57655018Y-38243824D01*
X57416923Y-39243824D01*
X56512161Y-38243824D02*
X57083589Y-38243824D01*
X56797875Y-38243824D02*
X56797875Y-39243824D01*
X56893113Y-39100966D01*
X56988351Y-39005728D01*
X57083589Y-38958109D01*
X55559780Y-38243824D02*
X56131208Y-38243824D01*
X55845494Y-38243824D02*
X55845494Y-39243824D01*
X55940732Y-39100966D01*
X56035970Y-39005728D01*
X56131208Y-38958109D01*
X59178827Y-57381443D02*
X59035970Y-57333824D01*
X58797875Y-57333824D01*
X58702637Y-57381443D01*
X58655018Y-57429062D01*
X58607399Y-57524300D01*
X58607399Y-57619538D01*
X58655018Y-57714776D01*
X58702637Y-57762395D01*
X58797875Y-57810014D01*
X58988351Y-57857633D01*
X59083589Y-57905252D01*
X59131208Y-57952871D01*
X59178827Y-58048109D01*
X59178827Y-58143347D01*
X59131208Y-58238585D01*
X59083589Y-58286205D01*
X58988351Y-58333824D01*
X58750256Y-58333824D01*
X58607399Y-58286205D01*
X58274065Y-58333824D02*
X58035970Y-57333824D01*
X57845494Y-58048109D01*
X57655018Y-57333824D01*
X57416923Y-58333824D01*
X56512161Y-57333824D02*
X57083589Y-57333824D01*
X56797875Y-57333824D02*
X56797875Y-58333824D01*
X56893113Y-58190966D01*
X56988351Y-58095728D01*
X57083589Y-58048109D01*
X55559780Y-57333824D02*
X56131208Y-57333824D01*
X55845494Y-57333824D02*
X55845494Y-58333824D01*
X55940732Y-58190966D01*
X56035970Y-58095728D01*
X56131208Y-58048109D01*
X40276675Y-50222738D02*
X40133818Y-50175119D01*
X39895723Y-50175119D01*
X39800485Y-50222738D01*
X39752866Y-50270357D01*
X39705247Y-50365595D01*
X39705247Y-50460833D01*
X39752866Y-50556071D01*
X39800485Y-50603690D01*
X39895723Y-50651309D01*
X40086199Y-50698928D01*
X40181437Y-50746547D01*
X40229056Y-50794166D01*
X40276675Y-50889404D01*
X40276675Y-50984642D01*
X40229056Y-51079880D01*
X40181437Y-51127500D01*
X40086199Y-51175119D01*
X39848104Y-51175119D01*
X39705247Y-51127500D01*
X39371913Y-51175119D02*
X39133818Y-50175119D01*
X38943342Y-50889404D01*
X38752866Y-50175119D01*
X38514771Y-51175119D01*
X37610009Y-50175119D02*
X38181437Y-50175119D01*
X37895723Y-50175119D02*
X37895723Y-51175119D01*
X37990961Y-51032261D01*
X38086199Y-50937023D01*
X38181437Y-50889404D01*
X36657628Y-50175119D02*
X37229056Y-50175119D01*
X36943342Y-50175119D02*
X36943342Y-51175119D01*
X37038580Y-51032261D01*
X37133818Y-50937023D01*
X37229056Y-50889404D01*
X40276675Y-69312738D02*
X40133818Y-69265119D01*
X39895723Y-69265119D01*
X39800485Y-69312738D01*
X39752866Y-69360357D01*
X39705247Y-69455595D01*
X39705247Y-69550833D01*
X39752866Y-69646071D01*
X39800485Y-69693690D01*
X39895723Y-69741309D01*
X40086199Y-69788928D01*
X40181437Y-69836547D01*
X40229056Y-69884166D01*
X40276675Y-69979404D01*
X40276675Y-70074642D01*
X40229056Y-70169880D01*
X40181437Y-70217500D01*
X40086199Y-70265119D01*
X39848104Y-70265119D01*
X39705247Y-70217500D01*
X39371913Y-70265119D02*
X39133818Y-69265119D01*
X38943342Y-69979404D01*
X38752866Y-69265119D01*
X38514771Y-70265119D01*
X37610009Y-69265119D02*
X38181437Y-69265119D01*
X37895723Y-69265119D02*
X37895723Y-70265119D01*
X37990961Y-70122261D01*
X38086199Y-70027023D01*
X38181437Y-69979404D01*
X36657628Y-69265119D02*
X37229056Y-69265119D01*
X36943342Y-69265119D02*
X36943342Y-70265119D01*
X37038580Y-70122261D01*
X37133818Y-70027023D01*
X37229056Y-69979404D01*
X40276675Y-88347738D02*
X40133818Y-88300119D01*
X39895723Y-88300119D01*
X39800485Y-88347738D01*
X39752866Y-88395357D01*
X39705247Y-88490595D01*
X39705247Y-88585833D01*
X39752866Y-88681071D01*
X39800485Y-88728690D01*
X39895723Y-88776309D01*
X40086199Y-88823928D01*
X40181437Y-88871547D01*
X40229056Y-88919166D01*
X40276675Y-89014404D01*
X40276675Y-89109642D01*
X40229056Y-89204880D01*
X40181437Y-89252500D01*
X40086199Y-89300119D01*
X39848104Y-89300119D01*
X39705247Y-89252500D01*
X39371913Y-89300119D02*
X39133818Y-88300119D01*
X38943342Y-89014404D01*
X38752866Y-88300119D01*
X38514771Y-89300119D01*
X37610009Y-88300119D02*
X38181437Y-88300119D01*
X37895723Y-88300119D02*
X37895723Y-89300119D01*
X37990961Y-89157261D01*
X38086199Y-89062023D01*
X38181437Y-89014404D01*
X36657628Y-88300119D02*
X37229056Y-88300119D01*
X36943342Y-88300119D02*
X36943342Y-89300119D01*
X37038580Y-89157261D01*
X37133818Y-89062023D01*
X37229056Y-89014404D01*
X176500000Y-103074038D02*
X176000000Y-103974038D01*
X176000000Y-103974038D02*
X175500000Y-103074038D01*
X175500000Y-104074038D02*
X176500000Y-104074038D01*
X175500000Y-103074038D02*
X176500000Y-103074038D01*
X253500000Y-103500000D02*
X252600000Y-103000000D01*
X253500000Y-102500000D02*
X253500000Y-103500000D01*
X252600000Y-103000000D02*
X253500000Y-102500000D01*
X252500000Y-102500000D02*
X252500000Y-103500000D01*
X234500000Y-91500000D02*
X233600000Y-91000000D01*
X234500000Y-90500000D02*
X234500000Y-91500000D01*
X233600000Y-91000000D02*
X234500000Y-90500000D01*
X233500000Y-90500000D02*
X233500000Y-91500000D01*
X215500000Y-85500000D02*
X214600000Y-85000000D01*
X215500000Y-84500000D02*
X215500000Y-85500000D01*
X214600000Y-85000000D02*
X215500000Y-84500000D01*
X214500000Y-84500000D02*
X214500000Y-85500000D01*
X196500000Y-89500000D02*
X195600000Y-89000000D01*
X196500000Y-88500000D02*
X196500000Y-89500000D01*
X195600000Y-89000000D02*
X196500000Y-88500000D01*
X195500000Y-88500000D02*
X195500000Y-89500000D01*
X253500000Y-85500000D02*
X252600000Y-85000000D01*
X253500000Y-84500000D02*
X253500000Y-85500000D01*
X252600000Y-85000000D02*
X253500000Y-84500000D01*
X252500000Y-84500000D02*
X252500000Y-85500000D01*
X234500000Y-73500000D02*
X233600000Y-73000000D01*
X234500000Y-72500000D02*
X234500000Y-73500000D01*
X233600000Y-73000000D02*
X234500000Y-72500000D01*
X233500000Y-72500000D02*
X233500000Y-73500000D01*
X215500000Y-67500000D02*
X214600000Y-67000000D01*
X215500000Y-66500000D02*
X215500000Y-67500000D01*
X214600000Y-67000000D02*
X215500000Y-66500000D01*
X214500000Y-66500000D02*
X214500000Y-67500000D01*
X196688848Y-71500000D02*
X195788848Y-71000000D01*
X196688848Y-70500000D02*
X196688848Y-71500000D01*
X195788848Y-71000000D02*
X196688848Y-70500000D01*
X195688848Y-70500000D02*
X195688848Y-71500000D01*
G36*
X184820371Y-96201398D02*
G01*
X183104272Y-96661226D01*
X182664017Y-96779192D01*
X182408449Y-96847671D01*
X182233765Y-96885399D01*
X182056224Y-96905824D01*
X181877536Y-96908747D01*
X181699422Y-96894143D01*
X181523596Y-96862151D01*
X181351753Y-96813078D01*
X181185548Y-96747399D01*
X181026581Y-96665745D01*
X180876383Y-96568902D01*
X180736400Y-96457804D01*
X180607981Y-96333520D01*
X180492362Y-96197247D01*
X180390656Y-96050298D01*
X180303845Y-95894088D01*
X180232762Y-95730120D01*
X180178094Y-95559975D01*
X180140365Y-95385291D01*
X180119941Y-95207749D01*
X180117017Y-95029061D01*
X180131622Y-94850947D01*
X180163614Y-94675122D01*
X180212686Y-94503280D01*
X180278366Y-94337074D01*
X180360021Y-94178107D01*
X180456862Y-94027909D01*
X180534561Y-93930010D01*
X181900581Y-93930010D01*
X182484794Y-96110323D01*
X182925049Y-95992357D01*
X182711587Y-95195704D01*
X182930217Y-95137122D01*
X183471625Y-95845902D01*
X183944826Y-95719108D01*
X183939208Y-95698144D01*
X183318212Y-94907971D01*
X183428810Y-94767793D01*
X183491187Y-94605628D01*
X183505341Y-94421476D01*
X183471272Y-94215336D01*
X183399083Y-94026121D01*
X183295399Y-93879762D01*
X183160221Y-93776260D01*
X182997680Y-93717718D01*
X182811904Y-93706240D01*
X182602893Y-93741826D01*
X181900581Y-93930010D01*
X180534561Y-93930010D01*
X180567961Y-93887926D01*
X180692245Y-93759506D01*
X180828518Y-93643888D01*
X180975467Y-93542183D01*
X181105025Y-93470183D01*
X183616680Y-93470183D01*
X184200893Y-95650496D01*
X184641148Y-95532529D01*
X184199986Y-93886091D01*
X184584557Y-93886091D01*
X184637020Y-94169401D01*
X184742146Y-94561738D01*
X184841739Y-94827605D01*
X184973640Y-95034347D01*
X185137848Y-95181965D01*
X185329912Y-95269154D01*
X185545380Y-95294611D01*
X185784254Y-95258335D01*
X185990919Y-95184301D01*
X186170661Y-95080167D01*
X186317963Y-94947808D01*
X186427310Y-94789107D01*
X186186162Y-93889129D01*
X185435931Y-94090153D01*
X185525008Y-94422591D01*
X185833486Y-94339934D01*
X185940618Y-94739758D01*
X185908906Y-94777144D01*
X185711807Y-94886132D01*
X185527712Y-94899147D01*
X185382739Y-94829054D01*
X185268718Y-94670820D01*
X185177479Y-94419411D01*
X185071550Y-94024080D01*
X185028108Y-93772102D01*
X185044264Y-93586812D01*
X185123280Y-93460914D01*
X185268417Y-93387116D01*
X185504316Y-93404959D01*
X185589611Y-93498666D01*
X185667204Y-93665458D01*
X186095480Y-93550701D01*
X185998679Y-93332860D01*
X185879962Y-93168328D01*
X185739326Y-93057104D01*
X185573566Y-92997196D01*
X185379468Y-92986610D01*
X185157037Y-93025345D01*
X184932756Y-93114420D01*
X184763063Y-93246825D01*
X184647959Y-93422561D01*
X184588204Y-93637145D01*
X184584557Y-93886091D01*
X184199986Y-93886091D01*
X184056935Y-93352217D01*
X183616680Y-93470183D01*
X181105025Y-93470183D01*
X181131678Y-93455371D01*
X181295645Y-93384289D01*
X181465790Y-93329620D01*
X181721358Y-93261141D01*
X183545300Y-92772417D01*
X186220776Y-92772417D01*
X186804989Y-94952730D01*
X187245244Y-94834764D01*
X186995269Y-93901842D01*
X187645171Y-93727701D01*
X187895146Y-94660623D01*
X188333904Y-94543059D01*
X187749691Y-92362746D01*
X187310933Y-92480310D01*
X187547267Y-93362318D01*
X186897365Y-93536459D01*
X186661031Y-92654451D01*
X186220776Y-92772417D01*
X183545300Y-92772417D01*
X185328783Y-92294534D01*
X188004260Y-92294534D01*
X188102565Y-92661413D01*
X188632669Y-92519372D01*
X189118577Y-94332806D01*
X189560330Y-94214439D01*
X189074422Y-92401005D01*
X189613511Y-92256556D01*
X189515206Y-91889677D01*
X188004260Y-92294534D01*
X185328783Y-92294534D01*
X189335983Y-91220808D01*
X189591551Y-91152329D01*
X189766235Y-91114601D01*
X189943776Y-91094176D01*
X190122464Y-91091253D01*
X190300578Y-91105857D01*
X190476404Y-91137849D01*
X190648247Y-91186921D01*
X190814451Y-91252601D01*
X190973419Y-91334255D01*
X191123617Y-91431098D01*
X191263600Y-91542196D01*
X191392019Y-91666480D01*
X191507638Y-91802753D01*
X191609344Y-91949702D01*
X191696155Y-92105912D01*
X191767238Y-92269880D01*
X191821906Y-92440025D01*
X191859635Y-92614709D01*
X191880059Y-92792251D01*
X191882983Y-92970939D01*
X191868378Y-93149053D01*
X191836386Y-93324878D01*
X191787314Y-93496720D01*
X191721634Y-93662926D01*
X191639979Y-93821893D01*
X191543137Y-93972092D01*
X191432039Y-94112075D01*
X191307755Y-94240494D01*
X191171482Y-94356112D01*
X191024533Y-94457817D01*
X190868322Y-94544629D01*
X190704355Y-94615711D01*
X190534210Y-94670380D01*
X190278642Y-94738859D01*
X189739553Y-94883307D01*
X188513127Y-95211927D01*
X185955452Y-95897254D01*
X184820371Y-96201398D01*
G37*
G36*
X182963376Y-94194674D02*
G01*
X183040646Y-94369242D01*
X183059533Y-94505619D01*
X183037552Y-94621250D01*
X182863359Y-94761817D01*
X182613282Y-94828825D01*
X182439141Y-94178923D01*
X182696706Y-94109908D01*
X182848729Y-94108229D01*
X182963376Y-94194674D01*
G37*
X198500000Y-100500000D02*
X198000000Y-101400000D01*
X198000000Y-101400000D02*
X197500000Y-100500000D01*
X197500000Y-101500000D02*
X198500000Y-101500000D01*
X197500000Y-100500000D02*
X198500000Y-100500000D01*
X120500000Y-103500000D02*
X119500000Y-103500000D01*
X119500000Y-104500000D02*
X120000000Y-103600000D01*
X120500000Y-104500000D02*
X119500000Y-104500000D01*
X120000000Y-103600000D02*
X120500000Y-104500000D01*
X96500000Y-104500000D02*
X97000000Y-103600000D01*
X97000000Y-103600000D02*
X97500000Y-104500000D01*
X97500000Y-103500000D02*
X96500000Y-103500000D01*
X97500000Y-104500000D02*
X96500000Y-104500000D01*
G36*
X108334538Y-95674909D02*
G01*
X106828085Y-95271256D01*
X106203128Y-95103799D01*
X108758807Y-95103799D01*
X109199063Y-95221765D01*
X109437403Y-94332269D01*
X110121746Y-94515638D01*
X110219649Y-94150256D01*
X109535306Y-93966887D01*
X109618958Y-93654696D01*
X110604417Y-93654696D01*
X111134520Y-93796737D01*
X110648612Y-95610170D01*
X111090365Y-95728538D01*
X111576273Y-93915104D01*
X112115362Y-94059552D01*
X112213667Y-93692673D01*
X110702721Y-93287817D01*
X110604417Y-93654696D01*
X109618958Y-93654696D01*
X109684971Y-93408331D01*
X110451675Y-93613769D01*
X110549980Y-93246890D01*
X109343020Y-92923486D01*
X108758807Y-95103799D01*
X106203128Y-95103799D01*
X105615136Y-94946247D01*
X105359567Y-94877768D01*
X105192320Y-94824030D01*
X105031144Y-94754158D01*
X104934676Y-94700547D01*
X107253852Y-94700547D01*
X108505736Y-95035988D01*
X108603640Y-94670607D01*
X107792012Y-94453132D01*
X107946892Y-93875109D01*
X108632733Y-94058879D01*
X108727828Y-93703979D01*
X108041988Y-93520209D01*
X108180016Y-93005079D01*
X108988649Y-93221752D01*
X109086954Y-92854873D01*
X107838066Y-92520234D01*
X107253852Y-94700547D01*
X104934676Y-94700547D01*
X104877593Y-94668824D01*
X104733145Y-94568851D01*
X104599193Y-94455200D01*
X104477025Y-94328967D01*
X104459850Y-94307327D01*
X105786334Y-94307327D01*
X106999283Y-94632336D01*
X107097186Y-94266954D01*
X106324493Y-94059911D01*
X106810802Y-92244980D01*
X106370547Y-92127014D01*
X105786334Y-94307327D01*
X104459850Y-94307327D01*
X104367819Y-94191368D01*
X104272624Y-94043727D01*
X104192361Y-93887466D01*
X104127799Y-93724091D01*
X104079563Y-93555174D01*
X104048115Y-93382343D01*
X104033759Y-93207260D01*
X104036633Y-93031615D01*
X104056710Y-92857097D01*
X104093796Y-92685387D01*
X104147533Y-92518138D01*
X104217405Y-92356962D01*
X104302739Y-92203412D01*
X104402713Y-92058964D01*
X104516363Y-91925012D01*
X104642596Y-91802844D01*
X104780195Y-91693638D01*
X104927836Y-91598443D01*
X105084097Y-91518180D01*
X105247473Y-91453619D01*
X105416389Y-91405382D01*
X105589221Y-91373933D01*
X105764303Y-91359578D01*
X105939949Y-91362452D01*
X106114467Y-91382529D01*
X106286177Y-91419614D01*
X106541745Y-91488094D01*
X112384865Y-93053753D01*
X112640433Y-93122232D01*
X112807681Y-93175970D01*
X112968857Y-93245842D01*
X113122407Y-93331176D01*
X113266855Y-93431150D01*
X113400807Y-93544800D01*
X113522975Y-93671033D01*
X113632181Y-93808632D01*
X113727376Y-93956273D01*
X113807639Y-94112534D01*
X113872201Y-94275910D01*
X113920437Y-94444826D01*
X113951885Y-94617657D01*
X113966241Y-94792740D01*
X113963367Y-94968385D01*
X113943290Y-95142903D01*
X113906204Y-95314613D01*
X113852467Y-95481862D01*
X113782595Y-95643038D01*
X113697261Y-95796588D01*
X113597287Y-95941036D01*
X113483637Y-96074988D01*
X113357404Y-96197155D01*
X113219805Y-96306362D01*
X113072164Y-96401557D01*
X112915903Y-96481820D01*
X112752527Y-96546381D01*
X112583611Y-96594618D01*
X112410780Y-96626066D01*
X112235697Y-96640422D01*
X112060052Y-96637548D01*
X111885534Y-96617471D01*
X111713823Y-96580386D01*
X111458256Y-96511907D01*
X110919167Y-96367458D01*
X109027865Y-95860685D01*
X108334538Y-95674909D01*
G37*
D10*
X142630000Y-95915000D02*
X142630000Y-95335000D01*
X142640000Y-94415000D02*
X142640000Y-93625000D01*
X142630000Y-99845000D02*
X142630000Y-100375000D01*
X142630000Y-98885000D02*
X142630000Y-96845000D01*
X145600000Y-93625000D02*
X145600000Y-100375000D01*
X153510000Y-100210000D02*
X153510000Y-101000000D01*
X150550000Y-101000000D02*
X150550000Y-94250000D01*
X153520000Y-95740000D02*
X153520000Y-97780000D01*
X153520000Y-98710000D02*
X153520000Y-99290000D01*
X153520000Y-94780000D02*
X153520000Y-94250000D01*
D11*
X177613848Y-53940000D02*
X176713848Y-53440000D01*
X177613848Y-52940000D02*
X177613848Y-53940000D01*
X176713848Y-53440000D02*
X177613848Y-52940000D01*
X176613848Y-52940000D02*
X176613848Y-53940000D01*
D10*
X184091000Y-51626205D02*
X184091000Y-38626205D01*
X183591000Y-38126205D02*
X170591000Y-38126205D01*
X170091000Y-38626205D02*
X170091000Y-51626205D01*
X170591000Y-52126205D02*
X183591000Y-52126205D01*
X170591000Y-38126205D02*
G75*
G03*
X170091000Y-38626205I1J-500001D01*
G01*
X184091000Y-38626205D02*
G75*
G03*
X183591000Y-38126205I-500000J0D01*
G01*
X170091000Y-51626205D02*
G75*
G03*
X170591000Y-52126205I500001J1D01*
G01*
X183591000Y-52126205D02*
G75*
G03*
X184091000Y-51626205I0J500000D01*
G01*
D11*
X177688848Y-73040000D02*
X176788848Y-72540000D01*
X177688848Y-72040000D02*
X177688848Y-73040000D01*
X176788848Y-72540000D02*
X177688848Y-72040000D01*
X176688848Y-72040000D02*
X176688848Y-73040000D01*
D10*
X184091000Y-89751205D02*
X184091000Y-76751205D01*
X183591000Y-76251205D02*
X170591000Y-76251205D01*
X170091000Y-76751205D02*
X170091000Y-89751205D01*
X170591000Y-90251205D02*
X183591000Y-90251205D01*
X170591000Y-76251205D02*
G75*
G03*
X170091000Y-76751205I1J-500001D01*
G01*
X184091000Y-76751205D02*
G75*
G03*
X183591000Y-76251205I-500000J0D01*
G01*
X170091000Y-89751205D02*
G75*
G03*
X170591000Y-90251205I500001J1D01*
G01*
X183591000Y-90251205D02*
G75*
G03*
X184091000Y-89751205I0J500000D01*
G01*
X184091000Y-70716205D02*
X184091000Y-57716205D01*
X183591000Y-57216205D02*
X170591000Y-57216205D01*
X170091000Y-57716205D02*
X170091000Y-70716205D01*
X170591000Y-71216205D02*
X183591000Y-71216205D01*
X170591000Y-57216205D02*
G75*
G03*
X170091000Y-57716205I1J-500001D01*
G01*
X184091000Y-57716205D02*
G75*
G03*
X183591000Y-57216205I-500000J0D01*
G01*
X170091000Y-70716205D02*
G75*
G03*
X170591000Y-71216205I500001J1D01*
G01*
X183591000Y-71216205D02*
G75*
G03*
X184091000Y-70716205I0J500000D01*
G01*
D11*
X177613848Y-91990000D02*
X176713848Y-91490000D01*
X177613848Y-90990000D02*
X177613848Y-91990000D01*
X176713848Y-91490000D02*
X177613848Y-90990000D01*
X176613848Y-90990000D02*
X176613848Y-91990000D01*
D10*
X203091000Y-49101205D02*
X203091000Y-36101205D01*
X202591000Y-35601205D02*
X189591000Y-35601205D01*
X189091000Y-36101205D02*
X189091000Y-49101205D01*
X189591000Y-49601205D02*
X202591000Y-49601205D01*
X189591000Y-35601205D02*
G75*
G03*
X189091000Y-36101205I1J-500001D01*
G01*
X203091000Y-36101205D02*
G75*
G03*
X202591000Y-35601205I-500000J0D01*
G01*
X189091000Y-49101205D02*
G75*
G03*
X189591000Y-49601205I500001J1D01*
G01*
X202591000Y-49601205D02*
G75*
G03*
X203091000Y-49101205I0J500000D01*
G01*
D11*
X196613848Y-51415000D02*
X195713848Y-50915000D01*
X196613848Y-50415000D02*
X196613848Y-51415000D01*
X195713848Y-50915000D02*
X196613848Y-50415000D01*
X195613848Y-50415000D02*
X195613848Y-51415000D01*
D10*
X203091000Y-87226205D02*
X203091000Y-74226205D01*
X202591000Y-73726205D02*
X189591000Y-73726205D01*
X189091000Y-74226205D02*
X189091000Y-87226205D01*
X189591000Y-87726205D02*
X202591000Y-87726205D01*
X189591000Y-73726205D02*
G75*
G03*
X189091000Y-74226205I1J-500001D01*
G01*
X203091000Y-74226205D02*
G75*
G03*
X202591000Y-73726205I-500000J0D01*
G01*
X189091000Y-87226205D02*
G75*
G03*
X189591000Y-87726205I500001J1D01*
G01*
X202591000Y-87726205D02*
G75*
G03*
X203091000Y-87226205I0J500000D01*
G01*
X203091000Y-68191205D02*
X203091000Y-55191205D01*
X202591000Y-54691205D02*
X189591000Y-54691205D01*
X189091000Y-55191205D02*
X189091000Y-68191205D01*
X189591000Y-68691205D02*
X202591000Y-68691205D01*
X189591000Y-54691205D02*
G75*
G03*
X189091000Y-55191205I1J-500001D01*
G01*
X203091000Y-55191205D02*
G75*
G03*
X202591000Y-54691205I-500000J0D01*
G01*
X189091000Y-68191205D02*
G75*
G03*
X189591000Y-68691205I500001J1D01*
G01*
X202591000Y-68691205D02*
G75*
G03*
X203091000Y-68191205I0J500000D01*
G01*
X222081000Y-44509205D02*
X222081000Y-31509205D01*
X221581000Y-31009205D02*
X208581000Y-31009205D01*
X208081000Y-31509205D02*
X208081000Y-44509205D01*
X208581000Y-45009205D02*
X221581000Y-45009205D01*
X208581000Y-31009205D02*
G75*
G03*
X208081000Y-31509205I1J-500001D01*
G01*
X222081000Y-31509205D02*
G75*
G03*
X221581000Y-31009205I-500000J0D01*
G01*
X208081000Y-44509205D02*
G75*
G03*
X208581000Y-45009205I500001J1D01*
G01*
X221581000Y-45009205D02*
G75*
G03*
X222081000Y-44509205I0J500000D01*
G01*
X222081000Y-63599205D02*
X222081000Y-50599205D01*
X221581000Y-50099205D02*
X208581000Y-50099205D01*
X208081000Y-50599205D02*
X208081000Y-63599205D01*
X208581000Y-64099205D02*
X221581000Y-64099205D01*
X208581000Y-50099205D02*
G75*
G03*
X208081000Y-50599205I1J-500001D01*
G01*
X222081000Y-50599205D02*
G75*
G03*
X221581000Y-50099205I-500000J0D01*
G01*
X208081000Y-63599205D02*
G75*
G03*
X208581000Y-64099205I500001J1D01*
G01*
X221581000Y-64099205D02*
G75*
G03*
X222081000Y-63599205I0J500000D01*
G01*
D11*
X215603848Y-46823000D02*
X214703848Y-46323000D01*
X215603848Y-45823000D02*
X215603848Y-46823000D01*
X214703848Y-46323000D02*
X215603848Y-45823000D01*
X214603848Y-45823000D02*
X214603848Y-46823000D01*
D10*
X222081000Y-82634205D02*
X222081000Y-69634205D01*
X221581000Y-69134205D02*
X208581000Y-69134205D01*
X208081000Y-69634205D02*
X208081000Y-82634205D01*
X208581000Y-83134205D02*
X221581000Y-83134205D01*
X208581000Y-69134205D02*
G75*
G03*
X208081000Y-69634205I1J-500001D01*
G01*
X222081000Y-69634205D02*
G75*
G03*
X221581000Y-69134205I-500000J0D01*
G01*
X208081000Y-82634205D02*
G75*
G03*
X208581000Y-83134205I500001J1D01*
G01*
X221581000Y-83134205D02*
G75*
G03*
X222081000Y-82634205I0J500000D01*
G01*
D11*
X234603848Y-53073000D02*
X233703848Y-52573000D01*
X234603848Y-52073000D02*
X234603848Y-53073000D01*
X233703848Y-52573000D02*
X234603848Y-52073000D01*
X233603848Y-52073000D02*
X233603848Y-53073000D01*
D10*
X240581000Y-51259205D02*
G75*
G03*
X241081000Y-50759205I0J500000D01*
G01*
X227081000Y-50759205D02*
G75*
G03*
X227581000Y-51259205I500001J1D01*
G01*
X241081000Y-37759205D02*
G75*
G03*
X240581000Y-37259205I-500000J0D01*
G01*
X227581000Y-37259205D02*
G75*
G03*
X227081000Y-37759205I1J-500001D01*
G01*
X227581000Y-51259205D02*
X240581000Y-51259205D01*
X227081000Y-37759205D02*
X227081000Y-50759205D01*
X240581000Y-37259205D02*
X227581000Y-37259205D01*
X241081000Y-50759205D02*
X241081000Y-37759205D01*
X241081000Y-69849205D02*
X241081000Y-56849205D01*
X240581000Y-56349205D02*
X227581000Y-56349205D01*
X227081000Y-56849205D02*
X227081000Y-69849205D01*
X227581000Y-70349205D02*
X240581000Y-70349205D01*
X227581000Y-56349205D02*
G75*
G03*
X227081000Y-56849205I1J-500001D01*
G01*
X241081000Y-56849205D02*
G75*
G03*
X240581000Y-56349205I-500000J0D01*
G01*
X227081000Y-69849205D02*
G75*
G03*
X227581000Y-70349205I500001J1D01*
G01*
X240581000Y-70349205D02*
G75*
G03*
X241081000Y-69849205I0J500000D01*
G01*
X241081000Y-88884205D02*
X241081000Y-75884205D01*
X240581000Y-75384205D02*
X227581000Y-75384205D01*
X227081000Y-75884205D02*
X227081000Y-88884205D01*
X227581000Y-89384205D02*
X240581000Y-89384205D01*
X227581000Y-75384205D02*
G75*
G03*
X227081000Y-75884205I1J-500001D01*
G01*
X241081000Y-75884205D02*
G75*
G03*
X240581000Y-75384205I-500000J0D01*
G01*
X227081000Y-88884205D02*
G75*
G03*
X227581000Y-89384205I500001J1D01*
G01*
X240581000Y-89384205D02*
G75*
G03*
X241081000Y-88884205I0J500000D01*
G01*
X259483152Y-101315500D02*
G75*
G03*
X259983152Y-100815500I0J500000D01*
G01*
X245983152Y-100815500D02*
G75*
G03*
X246483152Y-101315500I500001J1D01*
G01*
X259983152Y-87815500D02*
G75*
G03*
X259483152Y-87315500I-500000J0D01*
G01*
X246483152Y-87315500D02*
G75*
G03*
X245983152Y-87815500I1J-500001D01*
G01*
X246483152Y-101315500D02*
X259483152Y-101315500D01*
X245983152Y-87815500D02*
X245983152Y-100815500D01*
X259483152Y-87315500D02*
X246483152Y-87315500D01*
X259983152Y-100815500D02*
X259983152Y-87815500D01*
X259483152Y-63190500D02*
G75*
G03*
X259983152Y-62690500I0J500000D01*
G01*
X245983152Y-62690500D02*
G75*
G03*
X246483152Y-63190500I500001J1D01*
G01*
X259983152Y-49690500D02*
G75*
G03*
X259483152Y-49190500I-500000J0D01*
G01*
X246483152Y-49190500D02*
G75*
G03*
X245983152Y-49690500I1J-500001D01*
G01*
X246483152Y-63190500D02*
X259483152Y-63190500D01*
X245983152Y-49690500D02*
X245983152Y-62690500D01*
X259483152Y-49190500D02*
X246483152Y-49190500D01*
X259983152Y-62690500D02*
X259983152Y-49690500D01*
D11*
X252506000Y-64004295D02*
X252506000Y-65004295D01*
X252606000Y-64504295D02*
X253506000Y-64004295D01*
X253506000Y-64004295D02*
X253506000Y-65004295D01*
X253506000Y-65004295D02*
X252606000Y-64504295D01*
D10*
X259983152Y-81780500D02*
X259983152Y-68780500D01*
X259483152Y-68280500D02*
X246483152Y-68280500D01*
X245983152Y-68780500D02*
X245983152Y-81780500D01*
X246483152Y-82280500D02*
X259483152Y-82280500D01*
X246483152Y-68280500D02*
G75*
G03*
X245983152Y-68780500I1J-500001D01*
G01*
X259983152Y-68780500D02*
G75*
G03*
X259483152Y-68280500I-500000J0D01*
G01*
X245983152Y-81780500D02*
G75*
G03*
X246483152Y-82280500I500001J1D01*
G01*
X259483152Y-82280500D02*
G75*
G03*
X259983152Y-81780500I0J500000D01*
G01*
D11*
X169057008Y-109993412D02*
G75*
G03*
X165961000Y-109559295I-1826008J-1765587D01*
G01*
X170507760Y-104734517D02*
G75*
G03*
X167038057Y-103804813I-2199704J-1270001D01*
G01*
X169793178Y-102196822D02*
X168927152Y-102696822D01*
X169047527Y-109976993D02*
X170543012Y-109113574D01*
X158534848Y-108696822D02*
X157668822Y-109196822D01*
X170507761Y-104734517D02*
X170698261Y-105064473D01*
X164668822Y-121321178D02*
X164168822Y-120455152D01*
X172082806Y-108224574D02*
X172412761Y-108034074D01*
X161053591Y-111219414D02*
X161561591Y-112099295D01*
X167038057Y-103804813D02*
X159339091Y-108249813D01*
X159339091Y-108249813D02*
X159529591Y-108579768D01*
X169793178Y-102196822D02*
X170293178Y-103062848D01*
X175927152Y-114821178D02*
X176793178Y-114321178D01*
X161561591Y-112099295D02*
X165961000Y-109559295D01*
X158168822Y-110062848D02*
X157668822Y-109196822D01*
X164668822Y-121321178D02*
X165534848Y-120821178D01*
X172222261Y-107704118D02*
X172412761Y-108034074D01*
X176293178Y-113455152D02*
X176793178Y-114321178D01*
X179301712Y-98334433D02*
X178335786Y-98593253D01*
X195223395Y-107526822D02*
X195482214Y-108492747D01*
X192510261Y-101384746D02*
X192878279Y-101286136D01*
X181959253Y-112116214D02*
X182925178Y-111857395D01*
X181081736Y-101422969D02*
X181344696Y-102404349D01*
X192779669Y-100918118D02*
X192878279Y-101286136D01*
X181959253Y-112116214D02*
X181700433Y-111150288D01*
X178594605Y-99559178D02*
X178335786Y-98593253D01*
X189124848Y-102291865D02*
X190792845Y-101844926D01*
X191858747Y-94969786D02*
X190892822Y-95228605D01*
X191892178Y-97605959D02*
X191990788Y-97973977D01*
X194516288Y-108751567D02*
X195482214Y-108492747D01*
X188781326Y-95809908D02*
X180194246Y-98110809D01*
X191858747Y-94969786D02*
X192117567Y-95935712D01*
X181344696Y-102404349D02*
X186251600Y-101089548D01*
X180194246Y-98110809D02*
X180292856Y-98478827D01*
X189129755Y-102310179D02*
G75*
G03*
X186251600Y-101089548I-2220756J-1232823D01*
G01*
X191892178Y-97605959D02*
G75*
G03*
X188781326Y-95809908I-2453451J-657399D01*
G01*
D10*
X164792000Y-96363000D02*
X164492000Y-96363000D01*
X167292000Y-99663000D02*
X166992000Y-99663000D01*
X164492000Y-96363000D02*
X164492000Y-99663000D01*
X166992000Y-96363000D02*
X167292000Y-96363000D01*
X167292000Y-96363000D02*
X167292000Y-99663000D01*
X164492000Y-99663000D02*
X164792000Y-99663000D01*
X114100809Y-111740251D02*
X117465457Y-99183215D01*
X117111903Y-98570843D02*
X104554867Y-95206195D01*
X103942495Y-95559749D02*
X100577847Y-108116785D01*
X100931401Y-108729157D02*
X113488437Y-112093805D01*
X104554867Y-95206195D02*
G75*
G03*
X103942495Y-95559749I-129409J-482963D01*
G01*
X100577847Y-108116785D02*
G75*
G03*
X100931401Y-108729157I482963J-129409D01*
G01*
X117465456Y-99183215D02*
G75*
G03*
X117111903Y-98570843I-482964J129408D01*
G01*
X113488437Y-112093804D02*
G75*
G03*
X114100809Y-111740251I129408J482964D01*
G01*
X125878072Y-102745835D02*
X119378072Y-114004165D01*
X119561085Y-114687178D02*
X130819415Y-121187178D01*
X137819415Y-109062822D02*
X126561085Y-102562822D01*
X131502428Y-121004165D02*
X138002428Y-109745835D01*
X130819415Y-121187178D02*
G75*
G03*
X131502428Y-121004165I250000J433014D01*
G01*
X126561085Y-102562822D02*
G75*
G03*
X125878072Y-102745835I-250000J-433013D01*
G01*
X119378072Y-114004165D02*
G75*
G03*
X119561085Y-114687178I433013J-250000D01*
G01*
X138002428Y-109745835D02*
G75*
G03*
X137819415Y-109062822I-433014J250000D01*
G01*
X169404665Y-102435822D02*
X158146335Y-108935822D01*
X176587678Y-113877165D02*
X170087678Y-102618835D01*
X165146335Y-121060178D02*
X176404665Y-114560178D01*
X157963322Y-109618835D02*
X164463322Y-120877165D01*
X176404665Y-114560178D02*
G75*
G03*
X176587678Y-113877165I-250001J433013D01*
G01*
X170087678Y-102618835D02*
G75*
G03*
X169404665Y-102435822I-433013J-250001D01*
G01*
X158146335Y-108935822D02*
G75*
G03*
X157963322Y-109618835I250000J-433013D01*
G01*
X164463322Y-120877165D02*
G75*
G03*
X165146335Y-121060178I433013J250000D01*
G01*
X191390253Y-95130233D02*
X178833217Y-98494881D01*
X195367273Y-108040823D02*
X192002625Y-95483787D01*
X178479663Y-99107253D02*
X181844311Y-111664289D01*
X182456683Y-112017843D02*
X195013719Y-108653195D01*
X195013719Y-108653196D02*
G75*
G03*
X195367273Y-108040823I-129411J482965D01*
G01*
X192002626Y-95483787D02*
G75*
G03*
X191390253Y-95130233I-482965J-129411D01*
G01*
X181844311Y-111664289D02*
G75*
G03*
X182456683Y-112017843I482963J129409D01*
G01*
X178833217Y-98494881D02*
G75*
G03*
X178479663Y-99107253I129409J-482963D01*
G01*
D11*
X119261652Y-93500000D02*
X118361652Y-93000000D01*
X119261652Y-92500000D02*
X119261652Y-93500000D01*
X118361652Y-93000000D02*
X119261652Y-92500000D01*
X118261652Y-92500000D02*
X118261652Y-93500000D01*
X118261652Y-53500000D02*
X118261652Y-54500000D01*
X118361652Y-54000000D02*
X119261652Y-53500000D01*
X119261652Y-53500000D02*
X119261652Y-54500000D01*
X119261652Y-54500000D02*
X118361652Y-54000000D01*
X119336652Y-73500000D02*
X118436652Y-73000000D01*
X119336652Y-72500000D02*
X119336652Y-73500000D01*
X118436652Y-73000000D02*
X119336652Y-72500000D01*
X118336652Y-72500000D02*
X118336652Y-73500000D01*
D10*
X111738804Y-38778205D02*
X111738804Y-51778205D01*
X112238804Y-52278205D02*
X125238804Y-52278205D01*
X125738804Y-51778205D02*
X125738804Y-38778205D01*
X125238804Y-38278205D02*
X112238804Y-38278205D01*
X125238804Y-52278205D02*
G75*
G03*
X125738804Y-51778205I-1J500001D01*
G01*
X111738804Y-51778205D02*
G75*
G03*
X112238804Y-52278205I500000J0D01*
G01*
X125738804Y-38778205D02*
G75*
G03*
X125238804Y-38278205I-500001J-1D01*
G01*
X112238804Y-38278205D02*
G75*
G03*
X111738804Y-38778205I0J-500000D01*
G01*
X112238804Y-57368205D02*
G75*
G03*
X111738804Y-57868205I0J-500000D01*
G01*
X125738804Y-57868205D02*
G75*
G03*
X125238804Y-57368205I-500001J-1D01*
G01*
X111738804Y-70868205D02*
G75*
G03*
X112238804Y-71368205I500000J0D01*
G01*
X125238804Y-71368205D02*
G75*
G03*
X125738804Y-70868205I-1J500001D01*
G01*
X125238804Y-57368205D02*
X112238804Y-57368205D01*
X125738804Y-70868205D02*
X125738804Y-57868205D01*
X112238804Y-71368205D02*
X125238804Y-71368205D01*
X111738804Y-57868205D02*
X111738804Y-70868205D01*
X111738804Y-76903205D02*
X111738804Y-89903205D01*
X112238804Y-90403205D02*
X125238804Y-90403205D01*
X125738804Y-89903205D02*
X125738804Y-76903205D01*
X125238804Y-76403205D02*
X112238804Y-76403205D01*
X125238804Y-90403205D02*
G75*
G03*
X125738804Y-89903205I-1J500001D01*
G01*
X111738804Y-89903205D02*
G75*
G03*
X112238804Y-90403205I500000J0D01*
G01*
X125738804Y-76903205D02*
G75*
G03*
X125238804Y-76403205I-500001J-1D01*
G01*
X112238804Y-76403205D02*
G75*
G03*
X111738804Y-76903205I0J-500000D01*
G01*
D11*
X100261652Y-90500000D02*
X99361652Y-90000000D01*
X100261652Y-89500000D02*
X100261652Y-90500000D01*
X99361652Y-90000000D02*
X100261652Y-89500000D01*
X99261652Y-89500000D02*
X99261652Y-90500000D01*
X99261652Y-51500000D02*
X99261652Y-52500000D01*
X99361652Y-52000000D02*
X100261652Y-51500000D01*
X100261652Y-51500000D02*
X100261652Y-52500000D01*
X100261652Y-52500000D02*
X99361652Y-52000000D01*
X100336652Y-71500000D02*
X99436652Y-71000000D01*
X100336652Y-70500000D02*
X100336652Y-71500000D01*
X99436652Y-71000000D02*
X100336652Y-70500000D01*
X99336652Y-70500000D02*
X99336652Y-71500000D01*
D10*
X92738804Y-36253205D02*
X92738804Y-49253205D01*
X93238804Y-49753205D02*
X106238804Y-49753205D01*
X106738804Y-49253205D02*
X106738804Y-36253205D01*
X106238804Y-35753205D02*
X93238804Y-35753205D01*
X106238804Y-49753205D02*
G75*
G03*
X106738804Y-49253205I-1J500001D01*
G01*
X92738804Y-49253205D02*
G75*
G03*
X93238804Y-49753205I500000J0D01*
G01*
X106738804Y-36253205D02*
G75*
G03*
X106238804Y-35753205I-500001J-1D01*
G01*
X93238804Y-35753205D02*
G75*
G03*
X92738804Y-36253205I0J-500000D01*
G01*
X92738804Y-55343205D02*
X92738804Y-68343205D01*
X93238804Y-68843205D02*
X106238804Y-68843205D01*
X106738804Y-68343205D02*
X106738804Y-55343205D01*
X106238804Y-54843205D02*
X93238804Y-54843205D01*
X106238804Y-68843205D02*
G75*
G03*
X106738804Y-68343205I-1J500001D01*
G01*
X92738804Y-68343205D02*
G75*
G03*
X93238804Y-68843205I500000J0D01*
G01*
X106738804Y-55343205D02*
G75*
G03*
X106238804Y-54843205I-500001J-1D01*
G01*
X93238804Y-54843205D02*
G75*
G03*
X92738804Y-55343205I0J-500000D01*
G01*
X92738804Y-74378205D02*
X92738804Y-87378205D01*
X93238804Y-87878205D02*
X106238804Y-87878205D01*
X106738804Y-87378205D02*
X106738804Y-74378205D01*
X106238804Y-73878205D02*
X93238804Y-73878205D01*
X106238804Y-87878205D02*
G75*
G03*
X106738804Y-87378205I-1J500001D01*
G01*
X92738804Y-87378205D02*
G75*
G03*
X93238804Y-87878205I500000J0D01*
G01*
X106738804Y-74378205D02*
G75*
G03*
X106238804Y-73878205I-500001J-1D01*
G01*
X93238804Y-73878205D02*
G75*
G03*
X92738804Y-74378205I0J-500000D01*
G01*
X73748804Y-69786205D02*
X73748804Y-82786205D01*
X74248804Y-83286205D02*
X87248804Y-83286205D01*
X87748804Y-82786205D02*
X87748804Y-69786205D01*
X87248804Y-69286205D02*
X74248804Y-69286205D01*
X87248804Y-83286205D02*
G75*
G03*
X87748804Y-82786205I-1J500001D01*
G01*
X73748804Y-82786205D02*
G75*
G03*
X74248804Y-83286205I500000J0D01*
G01*
X87748804Y-69786205D02*
G75*
G03*
X87248804Y-69286205I-500001J-1D01*
G01*
X74248804Y-69286205D02*
G75*
G03*
X73748804Y-69786205I0J-500000D01*
G01*
X73748804Y-31661205D02*
X73748804Y-44661205D01*
X74248804Y-45161205D02*
X87248804Y-45161205D01*
X87748804Y-44661205D02*
X87748804Y-31661205D01*
X87248804Y-31161205D02*
X74248804Y-31161205D01*
X87248804Y-45161205D02*
G75*
G03*
X87748804Y-44661205I-1J500001D01*
G01*
X73748804Y-44661205D02*
G75*
G03*
X74248804Y-45161205I500000J0D01*
G01*
X87748804Y-31661205D02*
G75*
G03*
X87248804Y-31161205I-500001J-1D01*
G01*
X74248804Y-31161205D02*
G75*
G03*
X73748804Y-31661205I0J-500000D01*
G01*
X73748804Y-50751205D02*
X73748804Y-63751205D01*
X74248804Y-64251205D02*
X87248804Y-64251205D01*
X87748804Y-63751205D02*
X87748804Y-50751205D01*
X87248804Y-50251205D02*
X74248804Y-50251205D01*
X87248804Y-64251205D02*
G75*
G03*
X87748804Y-63751205I-1J500001D01*
G01*
X73748804Y-63751205D02*
G75*
G03*
X74248804Y-64251205I500000J0D01*
G01*
X87748804Y-50751205D02*
G75*
G03*
X87248804Y-50251205I-500001J-1D01*
G01*
X74248804Y-50251205D02*
G75*
G03*
X73748804Y-50751205I0J-500000D01*
G01*
D11*
X81500000Y-85500000D02*
X80600000Y-85000000D01*
X81500000Y-84500000D02*
X81500000Y-85500000D01*
X80600000Y-85000000D02*
X81500000Y-84500000D01*
X80500000Y-84500000D02*
X80500000Y-85500000D01*
X81346652Y-67500000D02*
X80446652Y-67000000D01*
X81346652Y-66500000D02*
X81346652Y-67500000D01*
X80446652Y-67000000D02*
X81346652Y-66500000D01*
X80346652Y-66500000D02*
X80346652Y-67500000D01*
X80271652Y-47500000D02*
X80271652Y-48500000D01*
X80371652Y-48000000D02*
X81271652Y-47500000D01*
X81271652Y-47500000D02*
X81271652Y-48500000D01*
X81271652Y-48500000D02*
X80371652Y-48000000D01*
D10*
X54748804Y-76036205D02*
X54748804Y-89036205D01*
X55248804Y-89536205D02*
X68248804Y-89536205D01*
X68748804Y-89036205D02*
X68748804Y-76036205D01*
X68248804Y-75536205D02*
X55248804Y-75536205D01*
X68248804Y-89536205D02*
G75*
G03*
X68748804Y-89036205I-1J500001D01*
G01*
X54748804Y-89036205D02*
G75*
G03*
X55248804Y-89536205I500000J0D01*
G01*
X68748804Y-76036205D02*
G75*
G03*
X68248804Y-75536205I-500001J-1D01*
G01*
X55248804Y-75536205D02*
G75*
G03*
X54748804Y-76036205I0J-500000D01*
G01*
X54748804Y-37911205D02*
X54748804Y-50911205D01*
X55248804Y-51411205D02*
X68248804Y-51411205D01*
X68748804Y-50911205D02*
X68748804Y-37911205D01*
X68248804Y-37411205D02*
X55248804Y-37411205D01*
X68248804Y-51411205D02*
G75*
G03*
X68748804Y-50911205I-1J500001D01*
G01*
X54748804Y-50911205D02*
G75*
G03*
X55248804Y-51411205I500000J0D01*
G01*
X68748804Y-37911205D02*
G75*
G03*
X68248804Y-37411205I-500001J-1D01*
G01*
X55248804Y-37411205D02*
G75*
G03*
X54748804Y-37911205I0J-500000D01*
G01*
X54748804Y-57001205D02*
X54748804Y-70001205D01*
X55248804Y-70501205D02*
X68248804Y-70501205D01*
X68748804Y-70001205D02*
X68748804Y-57001205D01*
X68248804Y-56501205D02*
X55248804Y-56501205D01*
X68248804Y-70501205D02*
G75*
G03*
X68748804Y-70001205I-1J500001D01*
G01*
X54748804Y-70001205D02*
G75*
G03*
X55248804Y-70501205I500000J0D01*
G01*
X68748804Y-57001205D02*
G75*
G03*
X68248804Y-56501205I-500001J-1D01*
G01*
X55248804Y-56501205D02*
G75*
G03*
X54748804Y-57001205I0J-500000D01*
G01*
D11*
X62500000Y-92500000D02*
X61600000Y-92000000D01*
X62500000Y-91500000D02*
X62500000Y-92500000D01*
X61600000Y-92000000D02*
X62500000Y-91500000D01*
X61500000Y-91500000D02*
X61500000Y-92500000D01*
X62346652Y-73500000D02*
X61446652Y-73000000D01*
X62346652Y-72500000D02*
X62346652Y-73500000D01*
X61446652Y-73000000D02*
X62346652Y-72500000D01*
X61346652Y-72500000D02*
X61346652Y-73500000D01*
X61271652Y-53500000D02*
X61271652Y-54500000D01*
X61371652Y-54000000D02*
X62271652Y-53500000D01*
X62271652Y-53500000D02*
X62271652Y-54500000D01*
X62271652Y-54500000D02*
X61371652Y-54000000D01*
D10*
X36346652Y-49342500D02*
G75*
G03*
X35846652Y-49842500I0J-500000D01*
G01*
X49846652Y-49842500D02*
G75*
G03*
X49346652Y-49342500I-500001J-1D01*
G01*
X35846652Y-62842500D02*
G75*
G03*
X36346652Y-63342500I500000J0D01*
G01*
X49346652Y-63342500D02*
G75*
G03*
X49846652Y-62842500I-1J500001D01*
G01*
X49346652Y-49342500D02*
X36346652Y-49342500D01*
X49846652Y-62842500D02*
X49846652Y-49842500D01*
X36346652Y-63342500D02*
X49346652Y-63342500D01*
X35846652Y-49842500D02*
X35846652Y-62842500D01*
X35846652Y-68932500D02*
X35846652Y-81932500D01*
X36346652Y-82432500D02*
X49346652Y-82432500D01*
X49846652Y-81932500D02*
X49846652Y-68932500D01*
X49346652Y-68432500D02*
X36346652Y-68432500D01*
X49346652Y-82432500D02*
G75*
G03*
X49846652Y-81932500I-1J500001D01*
G01*
X35846652Y-81932500D02*
G75*
G03*
X36346652Y-82432500I500000J0D01*
G01*
X49846652Y-68932500D02*
G75*
G03*
X49346652Y-68432500I-500001J-1D01*
G01*
X36346652Y-68432500D02*
G75*
G03*
X35846652Y-68932500I0J-500000D01*
G01*
X36346652Y-87467500D02*
G75*
G03*
X35846652Y-87967500I0J-500000D01*
G01*
X49846652Y-87967500D02*
G75*
G03*
X49346652Y-87467500I-500001J-1D01*
G01*
X35846652Y-100967500D02*
G75*
G03*
X36346652Y-101467500I500000J0D01*
G01*
X49346652Y-101467500D02*
G75*
G03*
X49846652Y-100967500I-1J500001D01*
G01*
X49346652Y-87467500D02*
X36346652Y-87467500D01*
X49846652Y-100967500D02*
X49846652Y-87967500D01*
X36346652Y-101467500D02*
X49346652Y-101467500D01*
X35846652Y-87967500D02*
X35846652Y-100967500D01*
D11*
X42444500Y-84500000D02*
X42444500Y-85500000D01*
X42544500Y-85000000D02*
X43444500Y-84500000D01*
X43444500Y-84500000D02*
X43444500Y-85500000D01*
X43444500Y-85500000D02*
X42544500Y-85000000D01*
X42369500Y-102500000D02*
X42369500Y-103500000D01*
X42469500Y-103000000D02*
X43369500Y-102500000D01*
X43369500Y-102500000D02*
X43369500Y-103500000D01*
X43369500Y-103500000D02*
X42469500Y-103000000D01*
X42369500Y-65500000D02*
X42369500Y-66500000D01*
X42469500Y-66000000D02*
X43369500Y-65500000D01*
X43369500Y-65500000D02*
X43369500Y-66500000D01*
X43369500Y-66500000D02*
X42469500Y-66000000D01*
X111558293Y-103737723D02*
G75*
G03*
X109676052Y-101241548I-2539641J42723D01*
G01*
X116302731Y-101044961D02*
G75*
G03*
X114506680Y-97934109I-2453451J657401D01*
G01*
X117591866Y-98745253D02*
X117333047Y-99711178D01*
X100445438Y-108644747D02*
X101411364Y-108903567D01*
X111563200Y-103719409D02*
X113231197Y-104166348D01*
X114506680Y-97934109D02*
X105919600Y-95633207D01*
X105919600Y-95633207D02*
X105820990Y-96001225D01*
X116302732Y-101044961D02*
X116204122Y-101412978D01*
X104769149Y-99926748D02*
X109676052Y-101241548D01*
X103810085Y-96087712D02*
X104068905Y-95121786D01*
X117591866Y-98745253D02*
X116625940Y-98486433D01*
X105032109Y-98945367D02*
X104769149Y-99926748D01*
X114227219Y-111302288D02*
X113968399Y-112268214D01*
X100445438Y-108644747D02*
X100704257Y-107678822D01*
X115415241Y-104357120D02*
X115316631Y-104725138D01*
X113002474Y-112009395D02*
X113968399Y-112268214D01*
X105034830Y-95380605D02*
X104068905Y-95121786D01*
X114948613Y-104626528D02*
X115316631Y-104725138D01*
D10*
X131437652Y-99815000D02*
X131137652Y-99815000D01*
X128937652Y-96515000D02*
X128637652Y-96515000D01*
X128637652Y-96515000D02*
X128637652Y-99815000D01*
X131137652Y-96515000D02*
X131437652Y-96515000D01*
X131437652Y-96515000D02*
X131437652Y-99815000D01*
X128637652Y-99815000D02*
X128937652Y-99815000D01*
D11*
X131138699Y-112609575D02*
G75*
G03*
X129966652Y-109711295I-2442047J698575D01*
G01*
X136418413Y-111236517D02*
G75*
G03*
X135488709Y-107766813I-2199704J1270000D01*
G01*
X127000500Y-102848822D02*
X126134474Y-102348822D01*
X119134474Y-114473178D02*
X119634474Y-113607152D01*
X138258830Y-109348822D02*
X137758830Y-110214848D01*
X131758830Y-120607152D02*
X131258830Y-121473178D01*
X131148179Y-112593155D02*
X132643664Y-113456574D01*
X138258830Y-109348822D02*
X137392804Y-108848822D01*
X136418413Y-111236517D02*
X136227913Y-111566473D01*
X130392804Y-120973178D02*
X131258830Y-121473178D01*
X126075243Y-106291414D02*
X125567243Y-107171295D01*
X134183458Y-114345574D02*
X134513413Y-114536074D01*
X135488709Y-107766813D02*
X127789743Y-103321813D01*
X125634474Y-103214848D02*
X126134474Y-102348822D01*
X134703913Y-114206118D02*
X134513413Y-114536074D01*
X125567243Y-107171295D02*
X129966652Y-109711295D01*
X127789743Y-103321813D02*
X127599243Y-103651768D01*
X119134474Y-114473178D02*
X120000500Y-114973178D01*
D12*
X140000000Y-90000000D03*
X157075000Y-89900000D03*
X135000000Y-90000000D03*
X162000000Y-90000000D03*
%LPC*%
G36*
X176425000Y-105949038D02*
G01*
X175575000Y-105949038D01*
X175575000Y-104749038D01*
X176425000Y-104749038D01*
X176425000Y-105949038D01*
G37*
D13*
X176425000Y-105949038D02*
X175575000Y-105949038D01*
X175575000Y-104749038D01*
X176425000Y-104749038D01*
X176425000Y-105949038D01*
G36*
X176425000Y-102399038D02*
G01*
X175575000Y-102399038D01*
X175575000Y-101199038D01*
X176425000Y-101199038D01*
X176425000Y-102399038D01*
G37*
X176425000Y-102399038D02*
X175575000Y-102399038D01*
X175575000Y-101199038D01*
X176425000Y-101199038D01*
X176425000Y-102399038D01*
G36*
X251825000Y-103425000D02*
G01*
X250625000Y-103425000D01*
X250625000Y-102575000D01*
X251825000Y-102575000D01*
X251825000Y-103425000D01*
G37*
X251825000Y-103425000D02*
X250625000Y-103425000D01*
X250625000Y-102575000D01*
X251825000Y-102575000D01*
X251825000Y-103425000D01*
G36*
X255375000Y-103425000D02*
G01*
X254175000Y-103425000D01*
X254175000Y-102575000D01*
X255375000Y-102575000D01*
X255375000Y-103425000D01*
G37*
X255375000Y-103425000D02*
X254175000Y-103425000D01*
X254175000Y-102575000D01*
X255375000Y-102575000D01*
X255375000Y-103425000D01*
G36*
X232825000Y-91425000D02*
G01*
X231625000Y-91425000D01*
X231625000Y-90575000D01*
X232825000Y-90575000D01*
X232825000Y-91425000D01*
G37*
X232825000Y-91425000D02*
X231625000Y-91425000D01*
X231625000Y-90575000D01*
X232825000Y-90575000D01*
X232825000Y-91425000D01*
G36*
X236375000Y-91425000D02*
G01*
X235175000Y-91425000D01*
X235175000Y-90575000D01*
X236375000Y-90575000D01*
X236375000Y-91425000D01*
G37*
X236375000Y-91425000D02*
X235175000Y-91425000D01*
X235175000Y-90575000D01*
X236375000Y-90575000D01*
X236375000Y-91425000D01*
G36*
X213825000Y-85425000D02*
G01*
X212625000Y-85425000D01*
X212625000Y-84575000D01*
X213825000Y-84575000D01*
X213825000Y-85425000D01*
G37*
X213825000Y-85425000D02*
X212625000Y-85425000D01*
X212625000Y-84575000D01*
X213825000Y-84575000D01*
X213825000Y-85425000D01*
G36*
X217375000Y-85425000D02*
G01*
X216175000Y-85425000D01*
X216175000Y-84575000D01*
X217375000Y-84575000D01*
X217375000Y-85425000D01*
G37*
X217375000Y-85425000D02*
X216175000Y-85425000D01*
X216175000Y-84575000D01*
X217375000Y-84575000D01*
X217375000Y-85425000D01*
G36*
X194825000Y-89425000D02*
G01*
X193625000Y-89425000D01*
X193625000Y-88575000D01*
X194825000Y-88575000D01*
X194825000Y-89425000D01*
G37*
X194825000Y-89425000D02*
X193625000Y-89425000D01*
X193625000Y-88575000D01*
X194825000Y-88575000D01*
X194825000Y-89425000D01*
G36*
X198375000Y-89425000D02*
G01*
X197175000Y-89425000D01*
X197175000Y-88575000D01*
X198375000Y-88575000D01*
X198375000Y-89425000D01*
G37*
X198375000Y-89425000D02*
X197175000Y-89425000D01*
X197175000Y-88575000D01*
X198375000Y-88575000D01*
X198375000Y-89425000D01*
G36*
X251825000Y-85425000D02*
G01*
X250625000Y-85425000D01*
X250625000Y-84575000D01*
X251825000Y-84575000D01*
X251825000Y-85425000D01*
G37*
X251825000Y-85425000D02*
X250625000Y-85425000D01*
X250625000Y-84575000D01*
X251825000Y-84575000D01*
X251825000Y-85425000D01*
G36*
X255375000Y-85425000D02*
G01*
X254175000Y-85425000D01*
X254175000Y-84575000D01*
X255375000Y-84575000D01*
X255375000Y-85425000D01*
G37*
X255375000Y-85425000D02*
X254175000Y-85425000D01*
X254175000Y-84575000D01*
X255375000Y-84575000D01*
X255375000Y-85425000D01*
G36*
X232825000Y-73425000D02*
G01*
X231625000Y-73425000D01*
X231625000Y-72575000D01*
X232825000Y-72575000D01*
X232825000Y-73425000D01*
G37*
X232825000Y-73425000D02*
X231625000Y-73425000D01*
X231625000Y-72575000D01*
X232825000Y-72575000D01*
X232825000Y-73425000D01*
G36*
X236375000Y-73425000D02*
G01*
X235175000Y-73425000D01*
X235175000Y-72575000D01*
X236375000Y-72575000D01*
X236375000Y-73425000D01*
G37*
X236375000Y-73425000D02*
X235175000Y-73425000D01*
X235175000Y-72575000D01*
X236375000Y-72575000D01*
X236375000Y-73425000D01*
G36*
X213825000Y-67425000D02*
G01*
X212625000Y-67425000D01*
X212625000Y-66575000D01*
X213825000Y-66575000D01*
X213825000Y-67425000D01*
G37*
X213825000Y-67425000D02*
X212625000Y-67425000D01*
X212625000Y-66575000D01*
X213825000Y-66575000D01*
X213825000Y-67425000D01*
G36*
X217375000Y-67425000D02*
G01*
X216175000Y-67425000D01*
X216175000Y-66575000D01*
X217375000Y-66575000D01*
X217375000Y-67425000D01*
G37*
X217375000Y-67425000D02*
X216175000Y-67425000D01*
X216175000Y-66575000D01*
X217375000Y-66575000D01*
X217375000Y-67425000D01*
G36*
X195013848Y-71425000D02*
G01*
X193813848Y-71425000D01*
X193813848Y-70575000D01*
X195013848Y-70575000D01*
X195013848Y-71425000D01*
G37*
X195013848Y-71425000D02*
X193813848Y-71425000D01*
X193813848Y-70575000D01*
X195013848Y-70575000D01*
X195013848Y-71425000D01*
G36*
X198563848Y-71425000D02*
G01*
X197363848Y-71425000D01*
X197363848Y-70575000D01*
X198563848Y-70575000D01*
X198563848Y-71425000D01*
G37*
X198563848Y-71425000D02*
X197363848Y-71425000D01*
X197363848Y-70575000D01*
X198563848Y-70575000D01*
X198563848Y-71425000D01*
G36*
X198425000Y-103375000D02*
G01*
X197575000Y-103375000D01*
X197575000Y-102175000D01*
X198425000Y-102175000D01*
X198425000Y-103375000D01*
G37*
X198425000Y-103375000D02*
X197575000Y-103375000D01*
X197575000Y-102175000D01*
X198425000Y-102175000D01*
X198425000Y-103375000D01*
G36*
X198425000Y-99825000D02*
G01*
X197575000Y-99825000D01*
X197575000Y-98625000D01*
X198425000Y-98625000D01*
X198425000Y-99825000D01*
G37*
X198425000Y-99825000D02*
X197575000Y-99825000D01*
X197575000Y-98625000D01*
X198425000Y-98625000D01*
X198425000Y-99825000D01*
G36*
X120425000Y-106375000D02*
G01*
X119575000Y-106375000D01*
X119575000Y-105175000D01*
X120425000Y-105175000D01*
X120425000Y-106375000D01*
G37*
X120425000Y-106375000D02*
X119575000Y-106375000D01*
X119575000Y-105175000D01*
X120425000Y-105175000D01*
X120425000Y-106375000D01*
G36*
X120425000Y-102825000D02*
G01*
X119575000Y-102825000D01*
X119575000Y-101625000D01*
X120425000Y-101625000D01*
X120425000Y-102825000D01*
G37*
X120425000Y-102825000D02*
X119575000Y-102825000D01*
X119575000Y-101625000D01*
X120425000Y-101625000D01*
X120425000Y-102825000D01*
G36*
X97425000Y-102825000D02*
G01*
X96575000Y-102825000D01*
X96575000Y-101625000D01*
X97425000Y-101625000D01*
X97425000Y-102825000D01*
G37*
X97425000Y-102825000D02*
X96575000Y-102825000D01*
X96575000Y-101625000D01*
X97425000Y-101625000D01*
X97425000Y-102825000D01*
G36*
X97425000Y-106375000D02*
G01*
X96575000Y-106375000D01*
X96575000Y-105175000D01*
X97425000Y-105175000D01*
X97425000Y-106375000D01*
G37*
X97425000Y-106375000D02*
X96575000Y-106375000D01*
X96575000Y-105175000D01*
X97425000Y-105175000D01*
X97425000Y-106375000D01*
G36*
X175938848Y-53865000D02*
G01*
X174738848Y-53865000D01*
X174738848Y-53015000D01*
X175938848Y-53015000D01*
X175938848Y-53865000D01*
G37*
X175938848Y-53865000D02*
X174738848Y-53865000D01*
X174738848Y-53015000D01*
X175938848Y-53015000D01*
X175938848Y-53865000D01*
G36*
X179488848Y-53865000D02*
G01*
X178288848Y-53865000D01*
X178288848Y-53015000D01*
X179488848Y-53015000D01*
X179488848Y-53865000D01*
G37*
X179488848Y-53865000D02*
X178288848Y-53865000D01*
X178288848Y-53015000D01*
X179488848Y-53015000D01*
X179488848Y-53865000D01*
G36*
X176013848Y-72965000D02*
G01*
X174813848Y-72965000D01*
X174813848Y-72115000D01*
X176013848Y-72115000D01*
X176013848Y-72965000D01*
G37*
X176013848Y-72965000D02*
X174813848Y-72965000D01*
X174813848Y-72115000D01*
X176013848Y-72115000D01*
X176013848Y-72965000D01*
G36*
X179563848Y-72965000D02*
G01*
X178363848Y-72965000D01*
X178363848Y-72115000D01*
X179563848Y-72115000D01*
X179563848Y-72965000D01*
G37*
X179563848Y-72965000D02*
X178363848Y-72965000D01*
X178363848Y-72115000D01*
X179563848Y-72115000D01*
X179563848Y-72965000D01*
G36*
X175938848Y-91915000D02*
G01*
X174738848Y-91915000D01*
X174738848Y-91065000D01*
X175938848Y-91065000D01*
X175938848Y-91915000D01*
G37*
X175938848Y-91915000D02*
X174738848Y-91915000D01*
X174738848Y-91065000D01*
X175938848Y-91065000D01*
X175938848Y-91915000D01*
G36*
X179488848Y-91915000D02*
G01*
X178288848Y-91915000D01*
X178288848Y-91065000D01*
X179488848Y-91065000D01*
X179488848Y-91915000D01*
G37*
X179488848Y-91915000D02*
X178288848Y-91915000D01*
X178288848Y-91065000D01*
X179488848Y-91065000D01*
X179488848Y-91915000D01*
G36*
X194938848Y-51340000D02*
G01*
X193738848Y-51340000D01*
X193738848Y-50490000D01*
X194938848Y-50490000D01*
X194938848Y-51340000D01*
G37*
X194938848Y-51340000D02*
X193738848Y-51340000D01*
X193738848Y-50490000D01*
X194938848Y-50490000D01*
X194938848Y-51340000D01*
G36*
X198488848Y-51340000D02*
G01*
X197288848Y-51340000D01*
X197288848Y-50490000D01*
X198488848Y-50490000D01*
X198488848Y-51340000D01*
G37*
X198488848Y-51340000D02*
X197288848Y-51340000D01*
X197288848Y-50490000D01*
X198488848Y-50490000D01*
X198488848Y-51340000D01*
G36*
X213928848Y-46748000D02*
G01*
X212728848Y-46748000D01*
X212728848Y-45898000D01*
X213928848Y-45898000D01*
X213928848Y-46748000D01*
G37*
X213928848Y-46748000D02*
X212728848Y-46748000D01*
X212728848Y-45898000D01*
X213928848Y-45898000D01*
X213928848Y-46748000D01*
G36*
X217478848Y-46748000D02*
G01*
X216278848Y-46748000D01*
X216278848Y-45898000D01*
X217478848Y-45898000D01*
X217478848Y-46748000D01*
G37*
X217478848Y-46748000D02*
X216278848Y-46748000D01*
X216278848Y-45898000D01*
X217478848Y-45898000D01*
X217478848Y-46748000D01*
G36*
X232928848Y-52998000D02*
G01*
X231728848Y-52998000D01*
X231728848Y-52148000D01*
X232928848Y-52148000D01*
X232928848Y-52998000D01*
G37*
X232928848Y-52998000D02*
X231728848Y-52998000D01*
X231728848Y-52148000D01*
X232928848Y-52148000D01*
X232928848Y-52998000D01*
G36*
X236478848Y-52998000D02*
G01*
X235278848Y-52998000D01*
X235278848Y-52148000D01*
X236478848Y-52148000D01*
X236478848Y-52998000D01*
G37*
X236478848Y-52998000D02*
X235278848Y-52998000D01*
X235278848Y-52148000D01*
X236478848Y-52148000D01*
X236478848Y-52998000D01*
G36*
X255381000Y-64929295D02*
G01*
X254181000Y-64929295D01*
X254181000Y-64079295D01*
X255381000Y-64079295D01*
X255381000Y-64929295D01*
G37*
X255381000Y-64929295D02*
X254181000Y-64929295D01*
X254181000Y-64079295D01*
X255381000Y-64079295D01*
X255381000Y-64929295D01*
G36*
X251831000Y-64929295D02*
G01*
X250631000Y-64929295D01*
X250631000Y-64079295D01*
X251831000Y-64079295D01*
X251831000Y-64929295D01*
G37*
X251831000Y-64929295D02*
X250631000Y-64929295D01*
X250631000Y-64079295D01*
X251831000Y-64079295D01*
X251831000Y-64929295D01*
G36*
X117586652Y-93425000D02*
G01*
X116386652Y-93425000D01*
X116386652Y-92575000D01*
X117586652Y-92575000D01*
X117586652Y-93425000D01*
G37*
X117586652Y-93425000D02*
X116386652Y-93425000D01*
X116386652Y-92575000D01*
X117586652Y-92575000D01*
X117586652Y-93425000D01*
G36*
X121136652Y-93425000D02*
G01*
X119936652Y-93425000D01*
X119936652Y-92575000D01*
X121136652Y-92575000D01*
X121136652Y-93425000D01*
G37*
X121136652Y-93425000D02*
X119936652Y-93425000D01*
X119936652Y-92575000D01*
X121136652Y-92575000D01*
X121136652Y-93425000D01*
G36*
X121136652Y-54425000D02*
G01*
X119936652Y-54425000D01*
X119936652Y-53575000D01*
X121136652Y-53575000D01*
X121136652Y-54425000D01*
G37*
X121136652Y-54425000D02*
X119936652Y-54425000D01*
X119936652Y-53575000D01*
X121136652Y-53575000D01*
X121136652Y-54425000D01*
G36*
X117586652Y-54425000D02*
G01*
X116386652Y-54425000D01*
X116386652Y-53575000D01*
X117586652Y-53575000D01*
X117586652Y-54425000D01*
G37*
X117586652Y-54425000D02*
X116386652Y-54425000D01*
X116386652Y-53575000D01*
X117586652Y-53575000D01*
X117586652Y-54425000D01*
G36*
X117661652Y-73425000D02*
G01*
X116461652Y-73425000D01*
X116461652Y-72575000D01*
X117661652Y-72575000D01*
X117661652Y-73425000D01*
G37*
X117661652Y-73425000D02*
X116461652Y-73425000D01*
X116461652Y-72575000D01*
X117661652Y-72575000D01*
X117661652Y-73425000D01*
G36*
X121211652Y-73425000D02*
G01*
X120011652Y-73425000D01*
X120011652Y-72575000D01*
X121211652Y-72575000D01*
X121211652Y-73425000D01*
G37*
X121211652Y-73425000D02*
X120011652Y-73425000D01*
X120011652Y-72575000D01*
X121211652Y-72575000D01*
X121211652Y-73425000D01*
G36*
X98586652Y-90425000D02*
G01*
X97386652Y-90425000D01*
X97386652Y-89575000D01*
X98586652Y-89575000D01*
X98586652Y-90425000D01*
G37*
X98586652Y-90425000D02*
X97386652Y-90425000D01*
X97386652Y-89575000D01*
X98586652Y-89575000D01*
X98586652Y-90425000D01*
G36*
X102136652Y-90425000D02*
G01*
X100936652Y-90425000D01*
X100936652Y-89575000D01*
X102136652Y-89575000D01*
X102136652Y-90425000D01*
G37*
X102136652Y-90425000D02*
X100936652Y-90425000D01*
X100936652Y-89575000D01*
X102136652Y-89575000D01*
X102136652Y-90425000D01*
G36*
X102136652Y-52425000D02*
G01*
X100936652Y-52425000D01*
X100936652Y-51575000D01*
X102136652Y-51575000D01*
X102136652Y-52425000D01*
G37*
X102136652Y-52425000D02*
X100936652Y-52425000D01*
X100936652Y-51575000D01*
X102136652Y-51575000D01*
X102136652Y-52425000D01*
G36*
X98586652Y-52425000D02*
G01*
X97386652Y-52425000D01*
X97386652Y-51575000D01*
X98586652Y-51575000D01*
X98586652Y-52425000D01*
G37*
X98586652Y-52425000D02*
X97386652Y-52425000D01*
X97386652Y-51575000D01*
X98586652Y-51575000D01*
X98586652Y-52425000D01*
G36*
X98661652Y-71425000D02*
G01*
X97461652Y-71425000D01*
X97461652Y-70575000D01*
X98661652Y-70575000D01*
X98661652Y-71425000D01*
G37*
X98661652Y-71425000D02*
X97461652Y-71425000D01*
X97461652Y-70575000D01*
X98661652Y-70575000D01*
X98661652Y-71425000D01*
G36*
X102211652Y-71425000D02*
G01*
X101011652Y-71425000D01*
X101011652Y-70575000D01*
X102211652Y-70575000D01*
X102211652Y-71425000D01*
G37*
X102211652Y-71425000D02*
X101011652Y-71425000D01*
X101011652Y-70575000D01*
X102211652Y-70575000D01*
X102211652Y-71425000D01*
G36*
X79825000Y-85425000D02*
G01*
X78625000Y-85425000D01*
X78625000Y-84575000D01*
X79825000Y-84575000D01*
X79825000Y-85425000D01*
G37*
X79825000Y-85425000D02*
X78625000Y-85425000D01*
X78625000Y-84575000D01*
X79825000Y-84575000D01*
X79825000Y-85425000D01*
G36*
X83375000Y-85425000D02*
G01*
X82175000Y-85425000D01*
X82175000Y-84575000D01*
X83375000Y-84575000D01*
X83375000Y-85425000D01*
G37*
X83375000Y-85425000D02*
X82175000Y-85425000D01*
X82175000Y-84575000D01*
X83375000Y-84575000D01*
X83375000Y-85425000D01*
G36*
X79671652Y-67425000D02*
G01*
X78471652Y-67425000D01*
X78471652Y-66575000D01*
X79671652Y-66575000D01*
X79671652Y-67425000D01*
G37*
X79671652Y-67425000D02*
X78471652Y-67425000D01*
X78471652Y-66575000D01*
X79671652Y-66575000D01*
X79671652Y-67425000D01*
G36*
X83221652Y-67425000D02*
G01*
X82021652Y-67425000D01*
X82021652Y-66575000D01*
X83221652Y-66575000D01*
X83221652Y-67425000D01*
G37*
X83221652Y-67425000D02*
X82021652Y-67425000D01*
X82021652Y-66575000D01*
X83221652Y-66575000D01*
X83221652Y-67425000D01*
G36*
X83146652Y-48425000D02*
G01*
X81946652Y-48425000D01*
X81946652Y-47575000D01*
X83146652Y-47575000D01*
X83146652Y-48425000D01*
G37*
X83146652Y-48425000D02*
X81946652Y-48425000D01*
X81946652Y-47575000D01*
X83146652Y-47575000D01*
X83146652Y-48425000D01*
G36*
X79596652Y-48425000D02*
G01*
X78396652Y-48425000D01*
X78396652Y-47575000D01*
X79596652Y-47575000D01*
X79596652Y-48425000D01*
G37*
X79596652Y-48425000D02*
X78396652Y-48425000D01*
X78396652Y-47575000D01*
X79596652Y-47575000D01*
X79596652Y-48425000D01*
G36*
X60825000Y-92425000D02*
G01*
X59625000Y-92425000D01*
X59625000Y-91575000D01*
X60825000Y-91575000D01*
X60825000Y-92425000D01*
G37*
X60825000Y-92425000D02*
X59625000Y-92425000D01*
X59625000Y-91575000D01*
X60825000Y-91575000D01*
X60825000Y-92425000D01*
G36*
X64375000Y-92425000D02*
G01*
X63175000Y-92425000D01*
X63175000Y-91575000D01*
X64375000Y-91575000D01*
X64375000Y-92425000D01*
G37*
X64375000Y-92425000D02*
X63175000Y-92425000D01*
X63175000Y-91575000D01*
X64375000Y-91575000D01*
X64375000Y-92425000D01*
G36*
X60671652Y-73425000D02*
G01*
X59471652Y-73425000D01*
X59471652Y-72575000D01*
X60671652Y-72575000D01*
X60671652Y-73425000D01*
G37*
X60671652Y-73425000D02*
X59471652Y-73425000D01*
X59471652Y-72575000D01*
X60671652Y-72575000D01*
X60671652Y-73425000D01*
G36*
X64221652Y-73425000D02*
G01*
X63021652Y-73425000D01*
X63021652Y-72575000D01*
X64221652Y-72575000D01*
X64221652Y-73425000D01*
G37*
X64221652Y-73425000D02*
X63021652Y-73425000D01*
X63021652Y-72575000D01*
X64221652Y-72575000D01*
X64221652Y-73425000D01*
G36*
X64146652Y-54425000D02*
G01*
X62946652Y-54425000D01*
X62946652Y-53575000D01*
X64146652Y-53575000D01*
X64146652Y-54425000D01*
G37*
X64146652Y-54425000D02*
X62946652Y-54425000D01*
X62946652Y-53575000D01*
X64146652Y-53575000D01*
X64146652Y-54425000D01*
G36*
X60596652Y-54425000D02*
G01*
X59396652Y-54425000D01*
X59396652Y-53575000D01*
X60596652Y-53575000D01*
X60596652Y-54425000D01*
G37*
X60596652Y-54425000D02*
X59396652Y-54425000D01*
X59396652Y-53575000D01*
X60596652Y-53575000D01*
X60596652Y-54425000D01*
G36*
X45319500Y-85425000D02*
G01*
X44119500Y-85425000D01*
X44119500Y-84575000D01*
X45319500Y-84575000D01*
X45319500Y-85425000D01*
G37*
X45319500Y-85425000D02*
X44119500Y-85425000D01*
X44119500Y-84575000D01*
X45319500Y-84575000D01*
X45319500Y-85425000D01*
G36*
X41769500Y-85425000D02*
G01*
X40569500Y-85425000D01*
X40569500Y-84575000D01*
X41769500Y-84575000D01*
X41769500Y-85425000D01*
G37*
X41769500Y-85425000D02*
X40569500Y-85425000D01*
X40569500Y-84575000D01*
X41769500Y-84575000D01*
X41769500Y-85425000D01*
G36*
X45244500Y-103425000D02*
G01*
X44044500Y-103425000D01*
X44044500Y-102575000D01*
X45244500Y-102575000D01*
X45244500Y-103425000D01*
G37*
X45244500Y-103425000D02*
X44044500Y-103425000D01*
X44044500Y-102575000D01*
X45244500Y-102575000D01*
X45244500Y-103425000D01*
G36*
X41694500Y-103425000D02*
G01*
X40494500Y-103425000D01*
X40494500Y-102575000D01*
X41694500Y-102575000D01*
X41694500Y-103425000D01*
G37*
X41694500Y-103425000D02*
X40494500Y-103425000D01*
X40494500Y-102575000D01*
X41694500Y-102575000D01*
X41694500Y-103425000D01*
G36*
X45244500Y-66425000D02*
G01*
X44044500Y-66425000D01*
X44044500Y-65575000D01*
X45244500Y-65575000D01*
X45244500Y-66425000D01*
G37*
X45244500Y-66425000D02*
X44044500Y-66425000D01*
X44044500Y-65575000D01*
X45244500Y-65575000D01*
X45244500Y-66425000D01*
G36*
X41694500Y-66425000D02*
G01*
X40494500Y-66425000D01*
X40494500Y-65575000D01*
X41694500Y-65575000D01*
X41694500Y-66425000D01*
G37*
X41694500Y-66425000D02*
X40494500Y-66425000D01*
X40494500Y-65575000D01*
X41694500Y-65575000D01*
X41694500Y-66425000D01*
D14*
X150255000Y-64454907D03*
X150255000Y-66994907D03*
X150255000Y-69534907D03*
X150255000Y-72074907D03*
X150255000Y-74614907D03*
X150255000Y-77154907D03*
X150255000Y-79694907D03*
X166445000Y-79694907D03*
X166445000Y-77154907D03*
X166445000Y-74614907D03*
X166445000Y-72074907D03*
X166445000Y-69534907D03*
X166445000Y-66994907D03*
X166445000Y-64454907D03*
D15*
X157080000Y-63502907D03*
X159620000Y-63502907D03*
X157080000Y-66042907D03*
X159620000Y-66042907D03*
X153905000Y-71757907D03*
X153905000Y-69852907D03*
D16*
X176000000Y-107150038D03*
D17*
X176000000Y-99998038D03*
D16*
X249424000Y-103000000D03*
D17*
X256576000Y-103000000D03*
D16*
X230424000Y-91000000D03*
D17*
X237576000Y-91000000D03*
D16*
X211424000Y-85000000D03*
D17*
X218576000Y-85000000D03*
D16*
X192424000Y-89000000D03*
D17*
X199576000Y-89000000D03*
D16*
X249424000Y-85000000D03*
D17*
X256576000Y-85000000D03*
D16*
X230424000Y-73000000D03*
D17*
X237576000Y-73000000D03*
D16*
X211424000Y-67000000D03*
D17*
X218576000Y-67000000D03*
D16*
X192612848Y-71000000D03*
D17*
X199764848Y-71000000D03*
D16*
X198000000Y-104576000D03*
D17*
X198000000Y-97424000D03*
D16*
X120000000Y-100424000D03*
D17*
X120000000Y-107576000D03*
D16*
X97000000Y-100424000D03*
D17*
X97000000Y-107576000D03*
D12*
X140000000Y-90000000D03*
X157075000Y-89900000D03*
X135000000Y-90000000D03*
X162000000Y-90000000D03*
D18*
X144000000Y-98625000D03*
X144050000Y-95625000D03*
D19*
X142200000Y-99375000D03*
X142200000Y-96375000D03*
X142200000Y-94875000D03*
D20*
X144100000Y-100975000D03*
X144100000Y-93025000D03*
D18*
X152150000Y-96000000D03*
X152100000Y-99000000D03*
D19*
X153950000Y-95250000D03*
X153950000Y-98250000D03*
X153950000Y-99750000D03*
D20*
X152050000Y-101600000D03*
X152050000Y-93650000D03*
D21*
X174473848Y-69328000D03*
D22*
X177013848Y-64248000D03*
D23*
X171933848Y-64248000D03*
D21*
X180823848Y-66788000D03*
D23*
X182093848Y-64248000D03*
D16*
X173537848Y-53440000D03*
D17*
X180689848Y-53440000D03*
D21*
X174473848Y-88363000D03*
D22*
X177013848Y-83283000D03*
D23*
X171933848Y-83283000D03*
D21*
X180823848Y-85823000D03*
D23*
X182093848Y-83283000D03*
D24*
X177091000Y-45126205D03*
D25*
X182091000Y-41326205D03*
D26*
X182591000Y-45126205D03*
X171591000Y-45126205D03*
D25*
X177091000Y-39226205D03*
D16*
X173612848Y-72540000D03*
D17*
X180764848Y-72540000D03*
D24*
X177091000Y-83251205D03*
D25*
X182091000Y-79451205D03*
D26*
X182591000Y-83251205D03*
X171591000Y-83251205D03*
D25*
X177091000Y-77351205D03*
D24*
X177091000Y-64216205D03*
D25*
X182091000Y-60416205D03*
D26*
X182591000Y-64216205D03*
X171591000Y-64216205D03*
D25*
X177091000Y-58316205D03*
D16*
X173537848Y-91490000D03*
D17*
X180689848Y-91490000D03*
D21*
X174473848Y-50238000D03*
D22*
X177013848Y-45158000D03*
D23*
X171933848Y-45158000D03*
D21*
X180823848Y-47698000D03*
D23*
X182093848Y-45158000D03*
D21*
X193473848Y-66803000D03*
D22*
X196013848Y-61723000D03*
D23*
X190933848Y-61723000D03*
D21*
X199823848Y-64263000D03*
D23*
X201093848Y-61723000D03*
D21*
X193473848Y-47713000D03*
D22*
X196013848Y-42633000D03*
D23*
X190933848Y-42633000D03*
D21*
X199823848Y-45173000D03*
D23*
X201093848Y-42633000D03*
D21*
X193473848Y-85838000D03*
D22*
X196013848Y-80758000D03*
D23*
X190933848Y-80758000D03*
D21*
X199823848Y-83298000D03*
D23*
X201093848Y-80758000D03*
D24*
X196091000Y-42601205D03*
D25*
X201091000Y-38801205D03*
D26*
X201591000Y-42601205D03*
X190591000Y-42601205D03*
D25*
X196091000Y-36701205D03*
D16*
X192537848Y-50915000D03*
D17*
X199689848Y-50915000D03*
D24*
X196091000Y-80726205D03*
D25*
X201091000Y-76926205D03*
D26*
X201591000Y-80726205D03*
X190591000Y-80726205D03*
D25*
X196091000Y-74826205D03*
D24*
X196091000Y-61691205D03*
D25*
X201091000Y-57891205D03*
D26*
X201591000Y-61691205D03*
X190591000Y-61691205D03*
D25*
X196091000Y-55791205D03*
D21*
X212463848Y-43121000D03*
D22*
X215003848Y-38041000D03*
D23*
X209923848Y-38041000D03*
D21*
X218813848Y-40581000D03*
D23*
X220083848Y-38041000D03*
D24*
X215081000Y-38009205D03*
D25*
X220081000Y-34209205D03*
D26*
X220581000Y-38009205D03*
X209581000Y-38009205D03*
D25*
X215081000Y-32109205D03*
D24*
X215081000Y-57099205D03*
D25*
X220081000Y-53299205D03*
D26*
X220581000Y-57099205D03*
X209581000Y-57099205D03*
D25*
X215081000Y-51199205D03*
D16*
X211527848Y-46323000D03*
D17*
X218679848Y-46323000D03*
D21*
X212463848Y-62211000D03*
D22*
X215003848Y-57131000D03*
D23*
X209923848Y-57131000D03*
D21*
X218813848Y-59671000D03*
D23*
X220083848Y-57131000D03*
D24*
X215081000Y-76134205D03*
D25*
X220081000Y-72334205D03*
D26*
X220581000Y-76134205D03*
X209581000Y-76134205D03*
D25*
X215081000Y-70234205D03*
D21*
X212463848Y-81246000D03*
D22*
X215003848Y-76166000D03*
D23*
X209923848Y-76166000D03*
D21*
X218813848Y-78706000D03*
D23*
X220083848Y-76166000D03*
D16*
X230527848Y-52573000D03*
D17*
X237679848Y-52573000D03*
D23*
X239083848Y-44291000D03*
D21*
X237813848Y-46831000D03*
D23*
X228923848Y-44291000D03*
D22*
X234003848Y-44291000D03*
D21*
X231463848Y-49371000D03*
X231463848Y-68461000D03*
D22*
X234003848Y-63381000D03*
D23*
X228923848Y-63381000D03*
D21*
X237813848Y-65921000D03*
D23*
X239083848Y-63381000D03*
D25*
X234081000Y-38359205D03*
D26*
X228581000Y-44259205D03*
X239581000Y-44259205D03*
D25*
X239081000Y-40459205D03*
D24*
X234081000Y-44259205D03*
X234081000Y-63349205D03*
D25*
X239081000Y-59549205D03*
D26*
X239581000Y-63349205D03*
X228581000Y-63349205D03*
D25*
X234081000Y-57449205D03*
D21*
X231463848Y-87496000D03*
D22*
X234003848Y-82416000D03*
D23*
X228923848Y-82416000D03*
D21*
X237813848Y-84956000D03*
D23*
X239083848Y-82416000D03*
D24*
X234081000Y-82384205D03*
D25*
X239081000Y-78584205D03*
D26*
X239581000Y-82384205D03*
X228581000Y-82384205D03*
D25*
X234081000Y-76484205D03*
X252983152Y-88415500D03*
D26*
X247483152Y-94315500D03*
X258483152Y-94315500D03*
D25*
X257983152Y-90515500D03*
D24*
X252983152Y-94315500D03*
D23*
X257986000Y-56222295D03*
D21*
X256716000Y-58762295D03*
D23*
X247826000Y-56222295D03*
D22*
X252906000Y-56222295D03*
D21*
X250366000Y-61302295D03*
X250366000Y-80392295D03*
D22*
X252906000Y-75312295D03*
D23*
X247826000Y-75312295D03*
D21*
X256716000Y-77852295D03*
D23*
X257986000Y-75312295D03*
D25*
X252983152Y-50290500D03*
D26*
X247483152Y-56190500D03*
X258483152Y-56190500D03*
D25*
X257983152Y-52390500D03*
D24*
X252983152Y-56190500D03*
D23*
X257986000Y-94347295D03*
D21*
X256716000Y-96887295D03*
D23*
X247826000Y-94347295D03*
D22*
X252906000Y-94347295D03*
D21*
X250366000Y-99427295D03*
D17*
X256582000Y-64504295D03*
D16*
X249430000Y-64504295D03*
D24*
X252983152Y-75280500D03*
D25*
X257983152Y-71480500D03*
D26*
X258483152Y-75280500D03*
X247483152Y-75280500D03*
D25*
X252983152Y-69380500D03*
D27*
X172508152Y-105779295D03*
X159243700Y-110504591D03*
D28*
X162831591Y-114299000D03*
X171630409Y-109219000D03*
D21*
X162491295Y-108629591D03*
D29*
X167231000Y-111759000D03*
D21*
X166890705Y-106089591D03*
X162661443Y-111464295D03*
X169260557Y-107654295D03*
D30*
X158989000Y-104477000D03*
D28*
X191815903Y-102228199D03*
D21*
X182571422Y-102075649D03*
D29*
X186909000Y-103543000D03*
D21*
X183140748Y-99293497D03*
X189931777Y-100103448D03*
X188047651Y-97978696D03*
D28*
X182002097Y-104857801D03*
D31*
X179518526Y-100264069D03*
X193553999Y-99132876D03*
D30*
X240777000Y-92793000D03*
X245984000Y-45549000D03*
D32*
X165892000Y-96313000D03*
X165892000Y-99713000D03*
D30*
X185405000Y-35643000D03*
D25*
X107494620Y-109348962D03*
D26*
X103709060Y-102226495D03*
D24*
X109021652Y-103650000D03*
D26*
X114334244Y-105073505D03*
D25*
X103208510Y-106026423D03*
D24*
X128690250Y-111875000D03*
D25*
X125740250Y-116984550D03*
X122460123Y-112665897D03*
D26*
X133453390Y-114625000D03*
X123927110Y-109125000D03*
D25*
X170225500Y-116857550D03*
D26*
X162512360Y-114498000D03*
X172038640Y-108998000D03*
D24*
X167275500Y-111748000D03*
D25*
X164845373Y-117538897D03*
X183077351Y-108538651D03*
D26*
X192236060Y-102150533D03*
D24*
X186923468Y-103574038D03*
D26*
X181610876Y-104997543D03*
D25*
X188450500Y-109273000D03*
D16*
X115185652Y-93000000D03*
D17*
X122337652Y-93000000D03*
X122337652Y-54000000D03*
D16*
X115185652Y-54000000D03*
X115260652Y-73000000D03*
D17*
X122412652Y-73000000D03*
D24*
X118738804Y-45278205D03*
D25*
X113738804Y-49078205D03*
D26*
X113238804Y-45278205D03*
X124238804Y-45278205D03*
D25*
X118738804Y-51178205D03*
D21*
X121201652Y-40230000D03*
D22*
X118661652Y-45310000D03*
D23*
X123741652Y-45310000D03*
D21*
X114851652Y-42770000D03*
D23*
X113581652Y-45310000D03*
X113581652Y-64400000D03*
D21*
X114851652Y-61860000D03*
D23*
X123741652Y-64400000D03*
D22*
X118661652Y-64400000D03*
D21*
X121201652Y-59320000D03*
D25*
X118738804Y-70268205D03*
D26*
X124238804Y-64368205D03*
X113238804Y-64368205D03*
D25*
X113738804Y-68168205D03*
D24*
X118738804Y-64368205D03*
X118738804Y-83403205D03*
D25*
X113738804Y-87203205D03*
D26*
X113238804Y-83403205D03*
X124238804Y-83403205D03*
D25*
X118738804Y-89303205D03*
D23*
X113581652Y-83435000D03*
D21*
X114851652Y-80895000D03*
D23*
X123741652Y-83435000D03*
D22*
X118661652Y-83435000D03*
D21*
X121201652Y-78355000D03*
D16*
X96185652Y-90000000D03*
D17*
X103337652Y-90000000D03*
X103337652Y-52000000D03*
D16*
X96185652Y-52000000D03*
X96260652Y-71000000D03*
D17*
X103412652Y-71000000D03*
D24*
X99738804Y-42753205D03*
D25*
X94738804Y-46553205D03*
D26*
X94238804Y-42753205D03*
X105238804Y-42753205D03*
D25*
X99738804Y-48653205D03*
D21*
X102201652Y-37705000D03*
D22*
X99661652Y-42785000D03*
D23*
X104741652Y-42785000D03*
D21*
X95851652Y-40245000D03*
D23*
X94581652Y-42785000D03*
D21*
X102201652Y-56795000D03*
D22*
X99661652Y-61875000D03*
D23*
X104741652Y-61875000D03*
D21*
X95851652Y-59335000D03*
D23*
X94581652Y-61875000D03*
D24*
X99738804Y-61843205D03*
D25*
X94738804Y-65643205D03*
D26*
X94238804Y-61843205D03*
X105238804Y-61843205D03*
D25*
X99738804Y-67743205D03*
D24*
X99738804Y-80878205D03*
D25*
X94738804Y-84678205D03*
D26*
X94238804Y-80878205D03*
X105238804Y-80878205D03*
D25*
X99738804Y-86778205D03*
D21*
X102201652Y-75830000D03*
D22*
X99661652Y-80910000D03*
D23*
X104741652Y-80910000D03*
D21*
X95851652Y-78370000D03*
D23*
X94581652Y-80910000D03*
D24*
X80748804Y-76286205D03*
D25*
X75748804Y-80086205D03*
D26*
X75248804Y-76286205D03*
X86248804Y-76286205D03*
D25*
X80748804Y-82186205D03*
D21*
X83211652Y-52203000D03*
D22*
X80671652Y-57283000D03*
D23*
X85751652Y-57283000D03*
D21*
X76861652Y-54743000D03*
D23*
X75591652Y-57283000D03*
D21*
X83211652Y-33113000D03*
D22*
X80671652Y-38193000D03*
D23*
X85751652Y-38193000D03*
D21*
X76861652Y-35653000D03*
D23*
X75591652Y-38193000D03*
D24*
X80748804Y-38161205D03*
D25*
X75748804Y-41961205D03*
D26*
X75248804Y-38161205D03*
X86248804Y-38161205D03*
D25*
X80748804Y-44061205D03*
D24*
X80748804Y-57251205D03*
D25*
X75748804Y-61051205D03*
D26*
X75248804Y-57251205D03*
X86248804Y-57251205D03*
D25*
X80748804Y-63151205D03*
D16*
X77424000Y-85000000D03*
D17*
X84576000Y-85000000D03*
D21*
X83211652Y-71238000D03*
D22*
X80671652Y-76318000D03*
D23*
X85751652Y-76318000D03*
D21*
X76861652Y-73778000D03*
D23*
X75591652Y-76318000D03*
D16*
X77270652Y-67000000D03*
D17*
X84422652Y-67000000D03*
X84347652Y-48000000D03*
D16*
X77195652Y-48000000D03*
D24*
X61748804Y-82536205D03*
D25*
X56748804Y-86336205D03*
D26*
X56248804Y-82536205D03*
X67248804Y-82536205D03*
D25*
X61748804Y-88436205D03*
D21*
X64211652Y-58453000D03*
D22*
X61671652Y-63533000D03*
D23*
X66751652Y-63533000D03*
D21*
X57861652Y-60993000D03*
D23*
X56591652Y-63533000D03*
D21*
X64211652Y-39363000D03*
D22*
X61671652Y-44443000D03*
D23*
X66751652Y-44443000D03*
D21*
X57861652Y-41903000D03*
D23*
X56591652Y-44443000D03*
D24*
X61748804Y-44411205D03*
D25*
X56748804Y-48211205D03*
D26*
X56248804Y-44411205D03*
X67248804Y-44411205D03*
D25*
X61748804Y-50311205D03*
D24*
X61748804Y-63501205D03*
D25*
X56748804Y-67301205D03*
D26*
X56248804Y-63501205D03*
X67248804Y-63501205D03*
D25*
X61748804Y-69401205D03*
D16*
X58424000Y-92000000D03*
D17*
X65576000Y-92000000D03*
D21*
X64211652Y-77488000D03*
D22*
X61671652Y-82568000D03*
D23*
X66751652Y-82568000D03*
D21*
X57861652Y-80028000D03*
D23*
X56591652Y-82568000D03*
D16*
X58270652Y-73000000D03*
D17*
X65422652Y-73000000D03*
X65347652Y-54000000D03*
D16*
X58195652Y-54000000D03*
D25*
X42846652Y-62242500D03*
D26*
X48346652Y-56342500D03*
X37346652Y-56342500D03*
D25*
X37846652Y-60142500D03*
D24*
X42846652Y-56342500D03*
D23*
X37689500Y-56374295D03*
D21*
X38959500Y-53834295D03*
D23*
X47849500Y-56374295D03*
D22*
X42769500Y-56374295D03*
D21*
X45309500Y-51294295D03*
D24*
X42846652Y-75432500D03*
D25*
X37846652Y-79232500D03*
D26*
X37346652Y-75432500D03*
X48346652Y-75432500D03*
D25*
X42846652Y-81332500D03*
D21*
X45309500Y-70384295D03*
D22*
X42769500Y-75464295D03*
D23*
X47849500Y-75464295D03*
D21*
X38959500Y-72924295D03*
D23*
X37689500Y-75464295D03*
D25*
X42846652Y-100367500D03*
D26*
X48346652Y-94467500D03*
X37346652Y-94467500D03*
D25*
X37846652Y-98267500D03*
D24*
X42846652Y-94467500D03*
D17*
X46520500Y-85000000D03*
D16*
X39368500Y-85000000D03*
D17*
X46445500Y-103000000D03*
D16*
X39293500Y-103000000D03*
D23*
X37689500Y-94499295D03*
D21*
X38959500Y-91959295D03*
D23*
X47849500Y-94499295D03*
D22*
X42769500Y-94499295D03*
D21*
X45309500Y-89419295D03*
D17*
X46445500Y-66000000D03*
D16*
X39293500Y-66000000D03*
D33*
X116978452Y-103198220D03*
X104257779Y-97160125D03*
D28*
X113925555Y-105009801D03*
D21*
X107880001Y-98130696D03*
X105995875Y-100255448D03*
X112786904Y-99445497D03*
D29*
X109018652Y-103695000D03*
D21*
X113356230Y-102227649D03*
D28*
X104111749Y-102380199D03*
D32*
X130037652Y-99865000D03*
X130037652Y-96465000D03*
D34*
X136513804Y-113491295D03*
X125789352Y-104366591D03*
D28*
X133096061Y-114451000D03*
X124297243Y-109371000D03*
D21*
X133436357Y-108781591D03*
D29*
X128696652Y-111911000D03*
D21*
X129036947Y-106241591D03*
X133266209Y-111616295D03*
X126667095Y-107806295D03*
D30*
X136938652Y-104629000D03*
X49943652Y-45701000D03*
X110522652Y-35795000D03*
X55150652Y-92945000D03*
D14*
X129530000Y-64604907D03*
X129530000Y-67144907D03*
X129530000Y-69684907D03*
X129530000Y-72224907D03*
X129530000Y-74764907D03*
X129530000Y-77304907D03*
X129530000Y-79844907D03*
X145720000Y-79844907D03*
X145720000Y-77304907D03*
X145720000Y-74764907D03*
X145720000Y-72224907D03*
X145720000Y-69684907D03*
X145720000Y-67144907D03*
X145720000Y-64604907D03*
D15*
X136355000Y-63652907D03*
X138895000Y-63652907D03*
X136355000Y-66192907D03*
X138895000Y-66192907D03*
X133180000Y-71907907D03*
X133180000Y-70002907D03*
M02*
