M48
; DRILL file {KiCad (6.0.9)} date Thu Dec 29 20:14:10 2022
; FORMAT={-:-/ absolute / inch / decimal}
; #@! TF.CreationDate,2022-12-29T20:14:10-03:00
; #@! TF.GenerationSoftware,Kicad,Pcbnew,(6.0.9)
; #@! TF.FileFunction,Plated,1,2,PTH
FMAT,2
INCH
; #@! TA.AperFunction,Plated,PTH,ViaDrill
T1C0.0157
; #@! TA.AperFunction,Plated,PTH,ComponentDrill
T2C0.0394
; #@! TA.AperFunction,Plated,PTH,ComponentDrill
T3C0.0400
; #@! TA.AperFunction,Plated,PTH,ComponentDrill
T4C0.0492
%
G90
G05
T1
X1.378Y-1.9685
X1.4173Y-2.0079
X1.9685Y-1.5354
X3.5433Y-3.189
X4.0157Y-3.7008
X4.3307Y-3.937
X4.3307Y-4.1732
X4.4882Y-4.252
X4.8031Y-3.8976
X4.8031Y-4.0157
X5.0Y-4.4882
X5.114Y-3.4229
X5.1575Y-3.3071
X5.2362Y-3.7795
X5.315Y-3.3858
X5.3937Y-3.7795
X5.5118Y-3.7402
X5.5118Y-3.7795
X5.5512Y-2.7559
X6.1417Y-3.4252
X6.1811Y-3.8583
X6.2598Y-3.1102
X6.2992Y-2.8346
X6.378Y-2.4409
X6.378Y-2.9528
X6.378Y-3.8189
X6.4173Y-2.8346
X6.4567Y-2.4803
X6.4567Y-3.9764
X6.6535Y-3.7795
X6.6535Y-4.5276
X6.7323Y-2.9921
X6.7717Y-3.7008
X6.8898Y-4.4094
X6.9685Y-2.0079
X7.0079Y-3.4646
X7.126Y-3.7795
X7.2047Y-3.5433
X7.4803Y-4.1339
X7.6378Y-3.7008
X7.7165Y-4.0945
X7.7953Y-1.5748
X8.5827Y-2.4803
X10.2756Y-1.8898
T2
X1.547Y-2.5984
X1.547Y-4.0551
X1.5499Y-3.3465
X1.8286Y-2.5984
X1.8286Y-4.0551
X1.8315Y-3.3465
X2.2912Y-2.126
X2.2941Y-2.874
X2.3002Y-3.622
X2.5727Y-2.126
X2.5757Y-2.874
X2.5817Y-3.622
X3.0392Y-1.8898
X3.0422Y-2.6378
X3.0482Y-3.3465
X3.3208Y-1.8898
X3.3237Y-2.6378
X3.3298Y-3.3465
X3.7868Y-2.0472
X3.7868Y-3.5433
X3.7898Y-2.7953
X3.8189Y-3.9537
X3.8189Y-4.2353
X4.0684Y-2.0472
X4.0684Y-3.5433
X4.0714Y-2.7953
X4.5349Y-2.126
X4.5349Y-3.6614
X4.5378Y-2.874
X4.7244Y-3.9537
X4.7244Y-4.2353
X4.8164Y-2.126
X4.8164Y-3.6614
X4.8194Y-2.874
X5.1183Y-2.5435
X5.1183Y-2.6435
X5.1183Y-2.7435
X5.1183Y-2.8435
X5.1183Y-2.9435
X5.1183Y-3.0435
X5.1183Y-3.1435
X5.7183Y-2.5435
X5.7183Y-2.6435
X5.7183Y-2.7435
X5.7183Y-2.8435
X5.7183Y-2.9435
X5.7183Y-3.0435
X5.7183Y-3.1435
X5.9343Y-2.5376
X5.9343Y-2.6376
X5.9343Y-2.7376
X5.9343Y-2.8376
X5.9343Y-2.9376
X5.9343Y-3.0376
X5.9343Y-3.1376
X6.5343Y-2.5376
X6.5343Y-2.6376
X6.5343Y-2.7376
X6.5343Y-2.8376
X6.5343Y-2.9376
X6.5343Y-3.0376
X6.5343Y-3.1376
X6.8322Y-2.1039
X6.8322Y-3.602
X6.8352Y-2.8559
X6.9291Y-3.9369
X6.9291Y-4.2185
X7.1138Y-2.1039
X7.1138Y-3.602
X7.1167Y-2.8559
X7.5757Y-3.5039
X7.5802Y-2.0045
X7.5832Y-2.7953
X7.7953Y-3.8356
X7.7953Y-4.1172
X7.8573Y-3.5039
X7.8618Y-2.0045
X7.8648Y-2.7953
X8.3238Y-2.6378
X8.3238Y-3.3465
X8.3279Y-1.8237
X8.6054Y-2.6378
X8.6054Y-3.3465
X8.6094Y-1.8237
X9.0718Y-2.874
X9.0718Y-3.5827
X9.0759Y-2.0698
X9.3534Y-2.874
X9.3534Y-3.5827
X9.3575Y-2.0698
X9.8198Y-3.3465
X9.8198Y-4.0551
X9.8201Y-2.5395
X10.1014Y-3.3465
X10.1014Y-4.0551
X10.1017Y-2.5395
T3
X5.2433Y-2.756
X5.2433Y-2.831
X5.3683Y-2.506
X5.3683Y-2.606
X5.4683Y-2.506
X5.4683Y-2.606
X6.0593Y-2.7501
X6.0593Y-2.8251
X6.1843Y-2.5001
X6.1843Y-2.6001
X6.2843Y-2.5001
X6.2843Y-2.6001
T4
X5.315Y-3.5433
X5.5118Y-3.5433
X6.1841Y-3.5394
X6.378Y-3.5433
T0
M30
