G04 #@! TF.GenerationSoftware,KiCad,Pcbnew,(6.0.9)*
G04 #@! TF.CreationDate,2022-12-29T20:14:13-03:00*
G04 #@! TF.ProjectId,pulso - high,70756c73-6f20-42d2-9068-6967682e6b69,0.3*
G04 #@! TF.SameCoordinates,Original*
G04 #@! TF.FileFunction,Legend,Bot*
G04 #@! TF.FilePolarity,Positive*
%FSLAX46Y46*%
G04 Gerber Fmt 4.6, Leading zero omitted, Abs format (unit mm)*
G04 Created by KiCad (PCBNEW (6.0.9)) date 2022-12-29 20:14:13*
%MOMM*%
%LPD*%
G01*
G04 APERTURE LIST*
G04 Aperture macros list*
%AMRoundRect*
0 Rectangle with rounded corners*
0 $1 Rounding radius*
0 $2 $3 $4 $5 $6 $7 $8 $9 X,Y pos of 4 corners*
0 Add a 4 corners polygon primitive as box body*
4,1,4,$2,$3,$4,$5,$6,$7,$8,$9,$2,$3,0*
0 Add four circle primitives for the rounded corners*
1,1,$1+$1,$2,$3*
1,1,$1+$1,$4,$5*
1,1,$1+$1,$6,$7*
1,1,$1+$1,$8,$9*
0 Add four rect primitives between the rounded corners*
20,1,$1+$1,$2,$3,$4,$5,0*
20,1,$1+$1,$4,$5,$6,$7,0*
20,1,$1+$1,$6,$7,$8,$9,0*
20,1,$1+$1,$8,$9,$2,$3,0*%
%AMRotRect*
0 Rectangle, with rotation*
0 The origin of the aperture is its center*
0 $1 length*
0 $2 width*
0 $3 Rotation angle, in degrees counterclockwise*
0 Add horizontal line*
21,1,$1,$2,0,0,$3*%
G04 Aperture macros list end*
%ADD10C,0.150000*%
%ADD11C,0.120000*%
%ADD12C,3.500000*%
%ADD13C,0.500000*%
%ADD14C,0.800000*%
%ADD15C,1.000000*%
%ADD16C,3.000000*%
%ADD17C,0.400000*%
%ADD18C,0.300000*%
%ADD19C,2.500000*%
%ADD20C,0.100000*%
%ADD21O,2.750000X1.800000*%
%ADD22C,1.397000*%
%ADD23R,1.600000X1.600000*%
%ADD24C,1.600000*%
%ADD25C,0.900000*%
%ADD26C,17.800000*%
%ADD27R,1.270000X5.080000*%
%ADD28C,3.000000*%
%ADD29C,4.100000*%
%ADD30C,1.900000*%
%ADD31R,2.550000X2.500000*%
%ADD32C,3.400000*%
%ADD33C,3.050000*%
%ADD34C,1.800000*%
%ADD35RoundRect,0.250000X-1.025000X-1.000000X1.025000X-1.000000X1.025000X1.000000X-1.025000X1.000000X0*%
%ADD36RotRect,2.550000X2.500000X210.000000*%
%ADD37C,1.701800*%
%ADD38C,3.987800*%
%ADD39C,3.200000*%
%ADD40R,1.700000X0.900000*%
%ADD41RotRect,2.550000X2.500000X195.000000*%
%ADD42RoundRect,0.250000X1.248893X0.700636X-0.731255X1.231215X-1.248893X-0.700636X0.731255X-1.231215X0*%
%ADD43RoundRect,0.250000X1.387676X0.353525X-0.387676X1.378525X-1.387676X-0.353525X0.387676X-1.378525X0*%
%ADD44RoundRect,0.250000X0.387676X1.378525X-1.387676X0.353525X-0.387676X-1.378525X1.387676X-0.353525X0*%
%ADD45RoundRect,0.250000X0.731255X1.231215X-1.248893X0.700636X-0.731255X-1.231215X1.248893X-0.700636X0*%
%ADD46RoundRect,0.250000X1.025000X1.000000X-1.025000X1.000000X-1.025000X-1.000000X1.025000X-1.000000X0*%
%ADD47RotRect,2.550000X2.500000X345.000000*%
%ADD48RotRect,2.550000X2.500000X330.000000*%
G04 APERTURE END LIST*
D10*
X121219032Y-50582809D02*
X120219032Y-50582809D01*
X120219032Y-50963761D01*
X120266652Y-51059000D01*
X120314271Y-51106619D01*
X120409509Y-51154238D01*
X120552366Y-51154238D01*
X120647604Y-51106619D01*
X120695223Y-51059000D01*
X120742842Y-50963761D01*
X120742842Y-50582809D01*
X121219032Y-51725666D02*
X121171413Y-51630428D01*
X121123794Y-51582809D01*
X121028556Y-51535190D01*
X120742842Y-51535190D01*
X120647604Y-51582809D01*
X120599985Y-51630428D01*
X120552366Y-51725666D01*
X120552366Y-51868523D01*
X120599985Y-51963761D01*
X120647604Y-52011380D01*
X120742842Y-52059000D01*
X121028556Y-52059000D01*
X121123794Y-52011380D01*
X121171413Y-51963761D01*
X121219032Y-51868523D01*
X121219032Y-51725666D01*
X120552366Y-52392333D02*
X121219032Y-52582809D01*
X120742842Y-52773285D01*
X121219032Y-52963761D01*
X120552366Y-53154238D01*
X121171413Y-53916142D02*
X121219032Y-53820904D01*
X121219032Y-53630428D01*
X121171413Y-53535190D01*
X121076175Y-53487571D01*
X120695223Y-53487571D01*
X120599985Y-53535190D01*
X120552366Y-53630428D01*
X120552366Y-53820904D01*
X120599985Y-53916142D01*
X120695223Y-53963761D01*
X120790461Y-53963761D01*
X120885699Y-53487571D01*
X121219032Y-54392333D02*
X120552366Y-54392333D01*
X120742842Y-54392333D02*
X120647604Y-54439952D01*
X120599985Y-54487571D01*
X120552366Y-54582809D01*
X120552366Y-54678047D01*
X122781413Y-50344714D02*
X122829032Y-50487571D01*
X122829032Y-50725666D01*
X122781413Y-50820904D01*
X122733794Y-50868523D01*
X122638556Y-50916142D01*
X122543318Y-50916142D01*
X122448080Y-50868523D01*
X122400461Y-50820904D01*
X122352842Y-50725666D01*
X122305223Y-50535190D01*
X122257604Y-50439952D01*
X122209985Y-50392333D01*
X122114747Y-50344714D01*
X122019509Y-50344714D01*
X121924271Y-50392333D01*
X121876652Y-50439952D01*
X121829032Y-50535190D01*
X121829032Y-50773285D01*
X121876652Y-50916142D01*
X122162366Y-51249476D02*
X122829032Y-51439952D01*
X122352842Y-51630428D01*
X122829032Y-51820904D01*
X122162366Y-52011380D01*
X122829032Y-52392333D02*
X122162366Y-52392333D01*
X121829032Y-52392333D02*
X121876652Y-52344714D01*
X121924271Y-52392333D01*
X121876652Y-52439952D01*
X121829032Y-52392333D01*
X121924271Y-52392333D01*
X122162366Y-52725666D02*
X122162366Y-53106619D01*
X121829032Y-52868523D02*
X122686175Y-52868523D01*
X122781413Y-52916142D01*
X122829032Y-53011380D01*
X122829032Y-53106619D01*
X122781413Y-53868523D02*
X122829032Y-53773285D01*
X122829032Y-53582809D01*
X122781413Y-53487571D01*
X122733794Y-53439952D01*
X122638556Y-53392333D01*
X122352842Y-53392333D01*
X122257604Y-53439952D01*
X122209985Y-53487571D01*
X122162366Y-53582809D01*
X122162366Y-53773285D01*
X122209985Y-53868523D01*
X122829032Y-54297095D02*
X121829032Y-54297095D01*
X122829032Y-54725666D02*
X122305223Y-54725666D01*
X122209985Y-54678047D01*
X122162366Y-54582809D01*
X122162366Y-54439952D01*
X122209985Y-54344714D01*
X122257604Y-54297095D01*
X174708619Y-54383190D02*
X175708619Y-54383190D01*
X175708619Y-54002238D01*
X175661000Y-53907000D01*
X175613380Y-53859380D01*
X175518142Y-53811761D01*
X175375285Y-53811761D01*
X175280047Y-53859380D01*
X175232428Y-53907000D01*
X175184809Y-54002238D01*
X175184809Y-54383190D01*
X174708619Y-53240333D02*
X174756238Y-53335571D01*
X174803857Y-53383190D01*
X174899095Y-53430809D01*
X175184809Y-53430809D01*
X175280047Y-53383190D01*
X175327666Y-53335571D01*
X175375285Y-53240333D01*
X175375285Y-53097476D01*
X175327666Y-53002238D01*
X175280047Y-52954619D01*
X175184809Y-52907000D01*
X174899095Y-52907000D01*
X174803857Y-52954619D01*
X174756238Y-53002238D01*
X174708619Y-53097476D01*
X174708619Y-53240333D01*
X175375285Y-52573666D02*
X174708619Y-52383190D01*
X175184809Y-52192714D01*
X174708619Y-52002238D01*
X175375285Y-51811761D01*
X174756238Y-51049857D02*
X174708619Y-51145095D01*
X174708619Y-51335571D01*
X174756238Y-51430809D01*
X174851476Y-51478428D01*
X175232428Y-51478428D01*
X175327666Y-51430809D01*
X175375285Y-51335571D01*
X175375285Y-51145095D01*
X175327666Y-51049857D01*
X175232428Y-51002238D01*
X175137190Y-51002238D01*
X175041952Y-51478428D01*
X174708619Y-50573666D02*
X175375285Y-50573666D01*
X175184809Y-50573666D02*
X175280047Y-50526047D01*
X175327666Y-50478428D01*
X175375285Y-50383190D01*
X175375285Y-50287952D01*
X173146238Y-54621285D02*
X173098619Y-54478428D01*
X173098619Y-54240333D01*
X173146238Y-54145095D01*
X173193857Y-54097476D01*
X173289095Y-54049857D01*
X173384333Y-54049857D01*
X173479571Y-54097476D01*
X173527190Y-54145095D01*
X173574809Y-54240333D01*
X173622428Y-54430809D01*
X173670047Y-54526047D01*
X173717666Y-54573666D01*
X173812904Y-54621285D01*
X173908142Y-54621285D01*
X174003380Y-54573666D01*
X174051000Y-54526047D01*
X174098619Y-54430809D01*
X174098619Y-54192714D01*
X174051000Y-54049857D01*
X173765285Y-53716523D02*
X173098619Y-53526047D01*
X173574809Y-53335571D01*
X173098619Y-53145095D01*
X173765285Y-52954619D01*
X173098619Y-52573666D02*
X173765285Y-52573666D01*
X174098619Y-52573666D02*
X174051000Y-52621285D01*
X174003380Y-52573666D01*
X174051000Y-52526047D01*
X174098619Y-52573666D01*
X174003380Y-52573666D01*
X173765285Y-52240333D02*
X173765285Y-51859380D01*
X174098619Y-52097476D02*
X173241476Y-52097476D01*
X173146238Y-52049857D01*
X173098619Y-51954619D01*
X173098619Y-51859380D01*
X173146238Y-51097476D02*
X173098619Y-51192714D01*
X173098619Y-51383190D01*
X173146238Y-51478428D01*
X173193857Y-51526047D01*
X173289095Y-51573666D01*
X173574809Y-51573666D01*
X173670047Y-51526047D01*
X173717666Y-51478428D01*
X173765285Y-51383190D01*
X173765285Y-51192714D01*
X173717666Y-51097476D01*
X173098619Y-50668904D02*
X174098619Y-50668904D01*
X173098619Y-50240333D02*
X173622428Y-50240333D01*
X173717666Y-50287952D01*
X173765285Y-50383190D01*
X173765285Y-50526047D01*
X173717666Y-50621285D01*
X173670047Y-50668904D01*
X215441485Y-85456675D02*
X215774818Y-84980485D01*
X216012913Y-85456675D02*
X216012913Y-84456675D01*
X215631961Y-84456675D01*
X215536723Y-84504295D01*
X215489104Y-84551914D01*
X215441485Y-84647152D01*
X215441485Y-84790009D01*
X215489104Y-84885247D01*
X215536723Y-84932866D01*
X215631961Y-84980485D01*
X216012913Y-84980485D01*
X215012913Y-84932866D02*
X214679580Y-84932866D01*
X214536723Y-85456675D02*
X215012913Y-85456675D01*
X215012913Y-84456675D01*
X214536723Y-84456675D01*
X213774818Y-84932866D02*
X214108152Y-84932866D01*
X214108152Y-85456675D02*
X214108152Y-84456675D01*
X213631961Y-84456675D01*
X213108152Y-84456675D02*
X213108152Y-84694771D01*
X213346247Y-84599533D02*
X213108152Y-84694771D01*
X212870056Y-84599533D01*
X213251009Y-84885247D02*
X213108152Y-84694771D01*
X212965294Y-84885247D01*
X212346247Y-84456675D02*
X212346247Y-84694771D01*
X212584342Y-84599533D02*
X212346247Y-84694771D01*
X212108152Y-84599533D01*
X212489104Y-84885247D02*
X212346247Y-84694771D01*
X212203390Y-84885247D01*
X178073023Y-42609966D02*
X177930166Y-42657585D01*
X177692071Y-42657585D01*
X177596833Y-42609966D01*
X177549214Y-42562347D01*
X177501595Y-42467109D01*
X177501595Y-42371871D01*
X177549214Y-42276633D01*
X177596833Y-42229014D01*
X177692071Y-42181395D01*
X177882547Y-42133776D01*
X177977785Y-42086157D01*
X178025404Y-42038538D01*
X178073023Y-41943300D01*
X178073023Y-41848062D01*
X178025404Y-41752824D01*
X177977785Y-41705205D01*
X177882547Y-41657585D01*
X177644452Y-41657585D01*
X177501595Y-41705205D01*
X177168261Y-41657585D02*
X176930166Y-42657585D01*
X176739690Y-41943300D01*
X176549214Y-42657585D01*
X176311119Y-41657585D01*
X175406357Y-42657585D02*
X175977785Y-42657585D01*
X175692071Y-42657585D02*
X175692071Y-41657585D01*
X175787309Y-41800443D01*
X175882547Y-41895681D01*
X175977785Y-41943300D01*
X174453976Y-42657585D02*
X175025404Y-42657585D01*
X174739690Y-42657585D02*
X174739690Y-41657585D01*
X174834928Y-41800443D01*
X174930166Y-41895681D01*
X175025404Y-41943300D01*
X178073023Y-80734966D02*
X177930166Y-80782585D01*
X177692071Y-80782585D01*
X177596833Y-80734966D01*
X177549214Y-80687347D01*
X177501595Y-80592109D01*
X177501595Y-80496871D01*
X177549214Y-80401633D01*
X177596833Y-80354014D01*
X177692071Y-80306395D01*
X177882547Y-80258776D01*
X177977785Y-80211157D01*
X178025404Y-80163538D01*
X178073023Y-80068300D01*
X178073023Y-79973062D01*
X178025404Y-79877824D01*
X177977785Y-79830205D01*
X177882547Y-79782585D01*
X177644452Y-79782585D01*
X177501595Y-79830205D01*
X177168261Y-79782585D02*
X176930166Y-80782585D01*
X176739690Y-80068300D01*
X176549214Y-80782585D01*
X176311119Y-79782585D01*
X175406357Y-80782585D02*
X175977785Y-80782585D01*
X175692071Y-80782585D02*
X175692071Y-79782585D01*
X175787309Y-79925443D01*
X175882547Y-80020681D01*
X175977785Y-80068300D01*
X174453976Y-80782585D02*
X175025404Y-80782585D01*
X174739690Y-80782585D02*
X174739690Y-79782585D01*
X174834928Y-79925443D01*
X174930166Y-80020681D01*
X175025404Y-80068300D01*
X178073023Y-61699966D02*
X177930166Y-61747585D01*
X177692071Y-61747585D01*
X177596833Y-61699966D01*
X177549214Y-61652347D01*
X177501595Y-61557109D01*
X177501595Y-61461871D01*
X177549214Y-61366633D01*
X177596833Y-61319014D01*
X177692071Y-61271395D01*
X177882547Y-61223776D01*
X177977785Y-61176157D01*
X178025404Y-61128538D01*
X178073023Y-61033300D01*
X178073023Y-60938062D01*
X178025404Y-60842824D01*
X177977785Y-60795205D01*
X177882547Y-60747585D01*
X177644452Y-60747585D01*
X177501595Y-60795205D01*
X177168261Y-60747585D02*
X176930166Y-61747585D01*
X176739690Y-61033300D01*
X176549214Y-61747585D01*
X176311119Y-60747585D01*
X175406357Y-61747585D02*
X175977785Y-61747585D01*
X175692071Y-61747585D02*
X175692071Y-60747585D01*
X175787309Y-60890443D01*
X175882547Y-60985681D01*
X175977785Y-61033300D01*
X174453976Y-61747585D02*
X175025404Y-61747585D01*
X174739690Y-61747585D02*
X174739690Y-60747585D01*
X174834928Y-60890443D01*
X174930166Y-60985681D01*
X175025404Y-61033300D01*
X197073023Y-40084966D02*
X196930166Y-40132585D01*
X196692071Y-40132585D01*
X196596833Y-40084966D01*
X196549214Y-40037347D01*
X196501595Y-39942109D01*
X196501595Y-39846871D01*
X196549214Y-39751633D01*
X196596833Y-39704014D01*
X196692071Y-39656395D01*
X196882547Y-39608776D01*
X196977785Y-39561157D01*
X197025404Y-39513538D01*
X197073023Y-39418300D01*
X197073023Y-39323062D01*
X197025404Y-39227824D01*
X196977785Y-39180205D01*
X196882547Y-39132585D01*
X196644452Y-39132585D01*
X196501595Y-39180205D01*
X196168261Y-39132585D02*
X195930166Y-40132585D01*
X195739690Y-39418300D01*
X195549214Y-40132585D01*
X195311119Y-39132585D01*
X194406357Y-40132585D02*
X194977785Y-40132585D01*
X194692071Y-40132585D02*
X194692071Y-39132585D01*
X194787309Y-39275443D01*
X194882547Y-39370681D01*
X194977785Y-39418300D01*
X193453976Y-40132585D02*
X194025404Y-40132585D01*
X193739690Y-40132585D02*
X193739690Y-39132585D01*
X193834928Y-39275443D01*
X193930166Y-39370681D01*
X194025404Y-39418300D01*
X197073023Y-78209966D02*
X196930166Y-78257585D01*
X196692071Y-78257585D01*
X196596833Y-78209966D01*
X196549214Y-78162347D01*
X196501595Y-78067109D01*
X196501595Y-77971871D01*
X196549214Y-77876633D01*
X196596833Y-77829014D01*
X196692071Y-77781395D01*
X196882547Y-77733776D01*
X196977785Y-77686157D01*
X197025404Y-77638538D01*
X197073023Y-77543300D01*
X197073023Y-77448062D01*
X197025404Y-77352824D01*
X196977785Y-77305205D01*
X196882547Y-77257585D01*
X196644452Y-77257585D01*
X196501595Y-77305205D01*
X196168261Y-77257585D02*
X195930166Y-78257585D01*
X195739690Y-77543300D01*
X195549214Y-78257585D01*
X195311119Y-77257585D01*
X194406357Y-78257585D02*
X194977785Y-78257585D01*
X194692071Y-78257585D02*
X194692071Y-77257585D01*
X194787309Y-77400443D01*
X194882547Y-77495681D01*
X194977785Y-77543300D01*
X193453976Y-78257585D02*
X194025404Y-78257585D01*
X193739690Y-78257585D02*
X193739690Y-77257585D01*
X193834928Y-77400443D01*
X193930166Y-77495681D01*
X194025404Y-77543300D01*
X197073023Y-59174966D02*
X196930166Y-59222585D01*
X196692071Y-59222585D01*
X196596833Y-59174966D01*
X196549214Y-59127347D01*
X196501595Y-59032109D01*
X196501595Y-58936871D01*
X196549214Y-58841633D01*
X196596833Y-58794014D01*
X196692071Y-58746395D01*
X196882547Y-58698776D01*
X196977785Y-58651157D01*
X197025404Y-58603538D01*
X197073023Y-58508300D01*
X197073023Y-58413062D01*
X197025404Y-58317824D01*
X196977785Y-58270205D01*
X196882547Y-58222585D01*
X196644452Y-58222585D01*
X196501595Y-58270205D01*
X196168261Y-58222585D02*
X195930166Y-59222585D01*
X195739690Y-58508300D01*
X195549214Y-59222585D01*
X195311119Y-58222585D01*
X194406357Y-59222585D02*
X194977785Y-59222585D01*
X194692071Y-59222585D02*
X194692071Y-58222585D01*
X194787309Y-58365443D01*
X194882547Y-58460681D01*
X194977785Y-58508300D01*
X193453976Y-59222585D02*
X194025404Y-59222585D01*
X193739690Y-59222585D02*
X193739690Y-58222585D01*
X193834928Y-58365443D01*
X193930166Y-58460681D01*
X194025404Y-58508300D01*
X216063023Y-35492966D02*
X215920166Y-35540585D01*
X215682071Y-35540585D01*
X215586833Y-35492966D01*
X215539214Y-35445347D01*
X215491595Y-35350109D01*
X215491595Y-35254871D01*
X215539214Y-35159633D01*
X215586833Y-35112014D01*
X215682071Y-35064395D01*
X215872547Y-35016776D01*
X215967785Y-34969157D01*
X216015404Y-34921538D01*
X216063023Y-34826300D01*
X216063023Y-34731062D01*
X216015404Y-34635824D01*
X215967785Y-34588205D01*
X215872547Y-34540585D01*
X215634452Y-34540585D01*
X215491595Y-34588205D01*
X215158261Y-34540585D02*
X214920166Y-35540585D01*
X214729690Y-34826300D01*
X214539214Y-35540585D01*
X214301119Y-34540585D01*
X213396357Y-35540585D02*
X213967785Y-35540585D01*
X213682071Y-35540585D02*
X213682071Y-34540585D01*
X213777309Y-34683443D01*
X213872547Y-34778681D01*
X213967785Y-34826300D01*
X212443976Y-35540585D02*
X213015404Y-35540585D01*
X212729690Y-35540585D02*
X212729690Y-34540585D01*
X212824928Y-34683443D01*
X212920166Y-34778681D01*
X213015404Y-34826300D01*
X216063023Y-54582966D02*
X215920166Y-54630585D01*
X215682071Y-54630585D01*
X215586833Y-54582966D01*
X215539214Y-54535347D01*
X215491595Y-54440109D01*
X215491595Y-54344871D01*
X215539214Y-54249633D01*
X215586833Y-54202014D01*
X215682071Y-54154395D01*
X215872547Y-54106776D01*
X215967785Y-54059157D01*
X216015404Y-54011538D01*
X216063023Y-53916300D01*
X216063023Y-53821062D01*
X216015404Y-53725824D01*
X215967785Y-53678205D01*
X215872547Y-53630585D01*
X215634452Y-53630585D01*
X215491595Y-53678205D01*
X215158261Y-53630585D02*
X214920166Y-54630585D01*
X214729690Y-53916300D01*
X214539214Y-54630585D01*
X214301119Y-53630585D01*
X213396357Y-54630585D02*
X213967785Y-54630585D01*
X213682071Y-54630585D02*
X213682071Y-53630585D01*
X213777309Y-53773443D01*
X213872547Y-53868681D01*
X213967785Y-53916300D01*
X212443976Y-54630585D02*
X213015404Y-54630585D01*
X212729690Y-54630585D02*
X212729690Y-53630585D01*
X212824928Y-53773443D01*
X212920166Y-53868681D01*
X213015404Y-53916300D01*
X216063023Y-73617966D02*
X215920166Y-73665585D01*
X215682071Y-73665585D01*
X215586833Y-73617966D01*
X215539214Y-73570347D01*
X215491595Y-73475109D01*
X215491595Y-73379871D01*
X215539214Y-73284633D01*
X215586833Y-73237014D01*
X215682071Y-73189395D01*
X215872547Y-73141776D01*
X215967785Y-73094157D01*
X216015404Y-73046538D01*
X216063023Y-72951300D01*
X216063023Y-72856062D01*
X216015404Y-72760824D01*
X215967785Y-72713205D01*
X215872547Y-72665585D01*
X215634452Y-72665585D01*
X215491595Y-72713205D01*
X215158261Y-72665585D02*
X214920166Y-73665585D01*
X214729690Y-72951300D01*
X214539214Y-73665585D01*
X214301119Y-72665585D01*
X213396357Y-73665585D02*
X213967785Y-73665585D01*
X213682071Y-73665585D02*
X213682071Y-72665585D01*
X213777309Y-72808443D01*
X213872547Y-72903681D01*
X213967785Y-72951300D01*
X212443976Y-73665585D02*
X213015404Y-73665585D01*
X212729690Y-73665585D02*
X212729690Y-72665585D01*
X212824928Y-72808443D01*
X212920166Y-72903681D01*
X213015404Y-72951300D01*
X235063023Y-41742966D02*
X234920166Y-41790585D01*
X234682071Y-41790585D01*
X234586833Y-41742966D01*
X234539214Y-41695347D01*
X234491595Y-41600109D01*
X234491595Y-41504871D01*
X234539214Y-41409633D01*
X234586833Y-41362014D01*
X234682071Y-41314395D01*
X234872547Y-41266776D01*
X234967785Y-41219157D01*
X235015404Y-41171538D01*
X235063023Y-41076300D01*
X235063023Y-40981062D01*
X235015404Y-40885824D01*
X234967785Y-40838205D01*
X234872547Y-40790585D01*
X234634452Y-40790585D01*
X234491595Y-40838205D01*
X234158261Y-40790585D02*
X233920166Y-41790585D01*
X233729690Y-41076300D01*
X233539214Y-41790585D01*
X233301119Y-40790585D01*
X232396357Y-41790585D02*
X232967785Y-41790585D01*
X232682071Y-41790585D02*
X232682071Y-40790585D01*
X232777309Y-40933443D01*
X232872547Y-41028681D01*
X232967785Y-41076300D01*
X231443976Y-41790585D02*
X232015404Y-41790585D01*
X231729690Y-41790585D02*
X231729690Y-40790585D01*
X231824928Y-40933443D01*
X231920166Y-41028681D01*
X232015404Y-41076300D01*
X235063023Y-60832966D02*
X234920166Y-60880585D01*
X234682071Y-60880585D01*
X234586833Y-60832966D01*
X234539214Y-60785347D01*
X234491595Y-60690109D01*
X234491595Y-60594871D01*
X234539214Y-60499633D01*
X234586833Y-60452014D01*
X234682071Y-60404395D01*
X234872547Y-60356776D01*
X234967785Y-60309157D01*
X235015404Y-60261538D01*
X235063023Y-60166300D01*
X235063023Y-60071062D01*
X235015404Y-59975824D01*
X234967785Y-59928205D01*
X234872547Y-59880585D01*
X234634452Y-59880585D01*
X234491595Y-59928205D01*
X234158261Y-59880585D02*
X233920166Y-60880585D01*
X233729690Y-60166300D01*
X233539214Y-60880585D01*
X233301119Y-59880585D01*
X232396357Y-60880585D02*
X232967785Y-60880585D01*
X232682071Y-60880585D02*
X232682071Y-59880585D01*
X232777309Y-60023443D01*
X232872547Y-60118681D01*
X232967785Y-60166300D01*
X231443976Y-60880585D02*
X232015404Y-60880585D01*
X231729690Y-60880585D02*
X231729690Y-59880585D01*
X231824928Y-60023443D01*
X231920166Y-60118681D01*
X232015404Y-60166300D01*
X235063023Y-79867966D02*
X234920166Y-79915585D01*
X234682071Y-79915585D01*
X234586833Y-79867966D01*
X234539214Y-79820347D01*
X234491595Y-79725109D01*
X234491595Y-79629871D01*
X234539214Y-79534633D01*
X234586833Y-79487014D01*
X234682071Y-79439395D01*
X234872547Y-79391776D01*
X234967785Y-79344157D01*
X235015404Y-79296538D01*
X235063023Y-79201300D01*
X235063023Y-79106062D01*
X235015404Y-79010824D01*
X234967785Y-78963205D01*
X234872547Y-78915585D01*
X234634452Y-78915585D01*
X234491595Y-78963205D01*
X234158261Y-78915585D02*
X233920166Y-79915585D01*
X233729690Y-79201300D01*
X233539214Y-79915585D01*
X233301119Y-78915585D01*
X232396357Y-79915585D02*
X232967785Y-79915585D01*
X232682071Y-79915585D02*
X232682071Y-78915585D01*
X232777309Y-79058443D01*
X232872547Y-79153681D01*
X232967785Y-79201300D01*
X231443976Y-79915585D02*
X232015404Y-79915585D01*
X231729690Y-79915585D02*
X231729690Y-78915585D01*
X231824928Y-79058443D01*
X231920166Y-79153681D01*
X232015404Y-79201300D01*
X253965175Y-91799261D02*
X253822318Y-91846880D01*
X253584223Y-91846880D01*
X253488985Y-91799261D01*
X253441366Y-91751642D01*
X253393747Y-91656404D01*
X253393747Y-91561166D01*
X253441366Y-91465928D01*
X253488985Y-91418309D01*
X253584223Y-91370690D01*
X253774699Y-91323071D01*
X253869937Y-91275452D01*
X253917556Y-91227833D01*
X253965175Y-91132595D01*
X253965175Y-91037357D01*
X253917556Y-90942119D01*
X253869937Y-90894500D01*
X253774699Y-90846880D01*
X253536604Y-90846880D01*
X253393747Y-90894500D01*
X253060413Y-90846880D02*
X252822318Y-91846880D01*
X252631842Y-91132595D01*
X252441366Y-91846880D01*
X252203271Y-90846880D01*
X251298509Y-91846880D02*
X251869937Y-91846880D01*
X251584223Y-91846880D02*
X251584223Y-90846880D01*
X251679461Y-90989738D01*
X251774699Y-91084976D01*
X251869937Y-91132595D01*
X250346128Y-91846880D02*
X250917556Y-91846880D01*
X250631842Y-91846880D02*
X250631842Y-90846880D01*
X250727080Y-90989738D01*
X250822318Y-91084976D01*
X250917556Y-91132595D01*
X253965175Y-53674261D02*
X253822318Y-53721880D01*
X253584223Y-53721880D01*
X253488985Y-53674261D01*
X253441366Y-53626642D01*
X253393747Y-53531404D01*
X253393747Y-53436166D01*
X253441366Y-53340928D01*
X253488985Y-53293309D01*
X253584223Y-53245690D01*
X253774699Y-53198071D01*
X253869937Y-53150452D01*
X253917556Y-53102833D01*
X253965175Y-53007595D01*
X253965175Y-52912357D01*
X253917556Y-52817119D01*
X253869937Y-52769500D01*
X253774699Y-52721880D01*
X253536604Y-52721880D01*
X253393747Y-52769500D01*
X253060413Y-52721880D02*
X252822318Y-53721880D01*
X252631842Y-53007595D01*
X252441366Y-53721880D01*
X252203271Y-52721880D01*
X251298509Y-53721880D02*
X251869937Y-53721880D01*
X251584223Y-53721880D02*
X251584223Y-52721880D01*
X251679461Y-52864738D01*
X251774699Y-52959976D01*
X251869937Y-53007595D01*
X250346128Y-53721880D02*
X250917556Y-53721880D01*
X250631842Y-53721880D02*
X250631842Y-52721880D01*
X250727080Y-52864738D01*
X250822318Y-52959976D01*
X250917556Y-53007595D01*
X253965175Y-72764261D02*
X253822318Y-72811880D01*
X253584223Y-72811880D01*
X253488985Y-72764261D01*
X253441366Y-72716642D01*
X253393747Y-72621404D01*
X253393747Y-72526166D01*
X253441366Y-72430928D01*
X253488985Y-72383309D01*
X253584223Y-72335690D01*
X253774699Y-72288071D01*
X253869937Y-72240452D01*
X253917556Y-72192833D01*
X253965175Y-72097595D01*
X253965175Y-72002357D01*
X253917556Y-71907119D01*
X253869937Y-71859500D01*
X253774699Y-71811880D01*
X253536604Y-71811880D01*
X253393747Y-71859500D01*
X253060413Y-71811880D02*
X252822318Y-72811880D01*
X252631842Y-72097595D01*
X252441366Y-72811880D01*
X252203271Y-71811880D01*
X251298509Y-72811880D02*
X251869937Y-72811880D01*
X251584223Y-72811880D02*
X251584223Y-71811880D01*
X251679461Y-71954738D01*
X251774699Y-72049976D01*
X251869937Y-72097595D01*
X250346128Y-72811880D02*
X250917556Y-72811880D01*
X250631842Y-72811880D02*
X250631842Y-71811880D01*
X250727080Y-71954738D01*
X250822318Y-72049976D01*
X250917556Y-72097595D01*
X107421839Y-105826332D02*
X107572153Y-105817310D01*
X107802136Y-105878934D01*
X107881804Y-105949579D01*
X107915476Y-106007901D01*
X107936823Y-106112218D01*
X107912173Y-106204211D01*
X107841527Y-106283879D01*
X107783206Y-106317551D01*
X107678889Y-106338898D01*
X107482578Y-106335596D01*
X107378260Y-106356943D01*
X107319939Y-106390615D01*
X107249293Y-106470283D01*
X107224644Y-106562276D01*
X107245991Y-106666593D01*
X107279663Y-106724915D01*
X107359331Y-106795560D01*
X107589313Y-106857184D01*
X107739627Y-106848162D01*
X108049278Y-106980431D02*
X108538079Y-106076129D01*
X108537194Y-106815375D01*
X108906051Y-106174727D01*
X108877214Y-107202276D01*
X110009966Y-106470520D02*
X109458009Y-106322623D01*
X109733987Y-106396572D02*
X109475168Y-107362497D01*
X109420150Y-107199859D01*
X109352806Y-107083216D01*
X109273138Y-107012570D01*
X110579084Y-107658291D02*
X110395098Y-107608992D01*
X110315429Y-107538346D01*
X110281758Y-107480025D01*
X110226739Y-107317386D01*
X110230041Y-107121075D01*
X110328639Y-106753104D01*
X110399285Y-106673435D01*
X110457606Y-106639764D01*
X110561924Y-106618416D01*
X110745910Y-106667715D01*
X110825578Y-106738361D01*
X110859250Y-106796682D01*
X110880597Y-106901000D01*
X110818973Y-107130982D01*
X110748327Y-107210651D01*
X110690006Y-107244322D01*
X110585688Y-107265669D01*
X110401702Y-107216371D01*
X110322034Y-107145725D01*
X110288362Y-107087403D01*
X110267015Y-106983086D01*
X126581673Y-113563114D02*
X126729201Y-113593303D01*
X126935397Y-113712350D01*
X126994066Y-113801209D01*
X127011496Y-113866258D01*
X127005116Y-113972546D01*
X126957497Y-114055024D01*
X126868639Y-114113693D01*
X126803590Y-114131123D01*
X126697302Y-114124743D01*
X126508535Y-114070745D01*
X126402247Y-114064365D01*
X126337198Y-114081795D01*
X126248340Y-114140464D01*
X126200721Y-114222942D01*
X126194341Y-114329231D01*
X126211771Y-114394279D01*
X126270440Y-114483138D01*
X126476636Y-114602185D01*
X126624164Y-114632375D01*
X126889029Y-114840281D02*
X127595226Y-114093303D01*
X127403040Y-114807130D01*
X127925140Y-114283779D01*
X127631337Y-115268852D01*
X128914884Y-114855208D02*
X128420012Y-114569493D01*
X128667448Y-114712350D02*
X128167448Y-115578376D01*
X128156398Y-115407039D01*
X128121538Y-115276941D01*
X128062869Y-115188083D01*
X128703559Y-115887900D02*
X129280909Y-116221233D01*
X129409755Y-115140922D01*
X167683161Y-114418137D02*
X167783070Y-114305469D01*
X167989266Y-114186422D01*
X168095554Y-114180042D01*
X168160603Y-114197472D01*
X168249461Y-114256141D01*
X168297081Y-114338620D01*
X168303460Y-114444908D01*
X168286030Y-114509957D01*
X168227361Y-114598815D01*
X168086214Y-114735292D01*
X168027545Y-114824151D01*
X168010115Y-114889199D01*
X168016495Y-114995488D01*
X168064114Y-115077966D01*
X168152972Y-115136635D01*
X168218021Y-115154065D01*
X168324309Y-115147685D01*
X168530505Y-115028638D01*
X168630414Y-114915970D01*
X168942899Y-114790542D02*
X168649095Y-113805469D01*
X169171195Y-114328821D01*
X168979009Y-113614993D01*
X169685206Y-114361971D01*
X169932642Y-114219114D02*
X170468753Y-113909590D01*
X169989601Y-113746342D01*
X170113319Y-113674914D01*
X170171988Y-113586055D01*
X170189418Y-113521007D01*
X170183039Y-113414718D01*
X170063991Y-113208522D01*
X169975133Y-113149853D01*
X169910084Y-113132423D01*
X169803796Y-113138803D01*
X169556360Y-113281660D01*
X169497691Y-113370518D01*
X169480261Y-113435567D01*
X170757428Y-113742923D02*
X171293539Y-113433400D01*
X170814388Y-113270152D01*
X170938105Y-113198723D01*
X170996775Y-113109865D01*
X171014204Y-113044816D01*
X171007825Y-112938528D01*
X170888777Y-112732331D01*
X170799919Y-112673662D01*
X170734870Y-112656233D01*
X170628582Y-112662612D01*
X170381146Y-112805469D01*
X170322477Y-112894328D01*
X170305047Y-112959377D01*
X186626156Y-106258704D02*
X186751821Y-106175733D01*
X186981803Y-106114110D01*
X187086121Y-106135457D01*
X187144442Y-106169128D01*
X187215088Y-106248797D01*
X187239737Y-106340790D01*
X187218390Y-106445107D01*
X187184718Y-106503428D01*
X187105050Y-106574074D01*
X186933389Y-106669370D01*
X186853721Y-106740016D01*
X186820049Y-106798337D01*
X186798702Y-106902654D01*
X186823352Y-106994647D01*
X186893997Y-107074316D01*
X186952319Y-107107987D01*
X187056636Y-107129334D01*
X187286619Y-107067711D01*
X187412283Y-106984740D01*
X187746583Y-106944464D02*
X187717747Y-105916914D01*
X188086603Y-106557562D01*
X188085718Y-105818316D01*
X188574520Y-106722619D01*
X188850498Y-106648670D02*
X189448453Y-106488449D01*
X189027880Y-106206750D01*
X189165869Y-106169776D01*
X189245537Y-106099130D01*
X189279209Y-106040809D01*
X189300556Y-105936491D01*
X189238932Y-105706509D01*
X189168287Y-105626841D01*
X189109965Y-105593169D01*
X189005648Y-105571822D01*
X188729669Y-105645770D01*
X188650001Y-105716416D01*
X188616329Y-105774737D01*
X190190116Y-105944629D02*
X190017570Y-105300678D01*
X190058731Y-106374224D02*
X189643878Y-105745901D01*
X190241832Y-105585679D01*
X117756780Y-47794443D02*
X117899637Y-47746824D01*
X118137732Y-47746824D01*
X118232970Y-47794443D01*
X118280589Y-47842062D01*
X118328208Y-47937300D01*
X118328208Y-48032538D01*
X118280589Y-48127776D01*
X118232970Y-48175395D01*
X118137732Y-48223014D01*
X117947256Y-48270633D01*
X117852018Y-48318252D01*
X117804399Y-48365871D01*
X117756780Y-48461109D01*
X117756780Y-48556347D01*
X117804399Y-48651585D01*
X117852018Y-48699205D01*
X117947256Y-48746824D01*
X118185351Y-48746824D01*
X118328208Y-48699205D01*
X118661542Y-48746824D02*
X118899637Y-47746824D01*
X119090113Y-48461109D01*
X119280589Y-47746824D01*
X119518684Y-48746824D01*
X120423446Y-47746824D02*
X119852018Y-47746824D01*
X120137732Y-47746824D02*
X120137732Y-48746824D01*
X120042494Y-48603966D01*
X119947256Y-48508728D01*
X119852018Y-48461109D01*
X121375827Y-47746824D02*
X120804399Y-47746824D01*
X121090113Y-47746824D02*
X121090113Y-48746824D01*
X120994875Y-48603966D01*
X120899637Y-48508728D01*
X120804399Y-48461109D01*
X117756780Y-66884443D02*
X117899637Y-66836824D01*
X118137732Y-66836824D01*
X118232970Y-66884443D01*
X118280589Y-66932062D01*
X118328208Y-67027300D01*
X118328208Y-67122538D01*
X118280589Y-67217776D01*
X118232970Y-67265395D01*
X118137732Y-67313014D01*
X117947256Y-67360633D01*
X117852018Y-67408252D01*
X117804399Y-67455871D01*
X117756780Y-67551109D01*
X117756780Y-67646347D01*
X117804399Y-67741585D01*
X117852018Y-67789205D01*
X117947256Y-67836824D01*
X118185351Y-67836824D01*
X118328208Y-67789205D01*
X118661542Y-67836824D02*
X118899637Y-66836824D01*
X119090113Y-67551109D01*
X119280589Y-66836824D01*
X119518684Y-67836824D01*
X120423446Y-66836824D02*
X119852018Y-66836824D01*
X120137732Y-66836824D02*
X120137732Y-67836824D01*
X120042494Y-67693966D01*
X119947256Y-67598728D01*
X119852018Y-67551109D01*
X121375827Y-66836824D02*
X120804399Y-66836824D01*
X121090113Y-66836824D02*
X121090113Y-67836824D01*
X120994875Y-67693966D01*
X120899637Y-67598728D01*
X120804399Y-67551109D01*
X117756780Y-85919443D02*
X117899637Y-85871824D01*
X118137732Y-85871824D01*
X118232970Y-85919443D01*
X118280589Y-85967062D01*
X118328208Y-86062300D01*
X118328208Y-86157538D01*
X118280589Y-86252776D01*
X118232970Y-86300395D01*
X118137732Y-86348014D01*
X117947256Y-86395633D01*
X117852018Y-86443252D01*
X117804399Y-86490871D01*
X117756780Y-86586109D01*
X117756780Y-86681347D01*
X117804399Y-86776585D01*
X117852018Y-86824205D01*
X117947256Y-86871824D01*
X118185351Y-86871824D01*
X118328208Y-86824205D01*
X118661542Y-86871824D02*
X118899637Y-85871824D01*
X119090113Y-86586109D01*
X119280589Y-85871824D01*
X119518684Y-86871824D01*
X120423446Y-85871824D02*
X119852018Y-85871824D01*
X120137732Y-85871824D02*
X120137732Y-86871824D01*
X120042494Y-86728966D01*
X119947256Y-86633728D01*
X119852018Y-86586109D01*
X121375827Y-85871824D02*
X120804399Y-85871824D01*
X121090113Y-85871824D02*
X121090113Y-86871824D01*
X120994875Y-86728966D01*
X120899637Y-86633728D01*
X120804399Y-86586109D01*
X98756780Y-45269443D02*
X98899637Y-45221824D01*
X99137732Y-45221824D01*
X99232970Y-45269443D01*
X99280589Y-45317062D01*
X99328208Y-45412300D01*
X99328208Y-45507538D01*
X99280589Y-45602776D01*
X99232970Y-45650395D01*
X99137732Y-45698014D01*
X98947256Y-45745633D01*
X98852018Y-45793252D01*
X98804399Y-45840871D01*
X98756780Y-45936109D01*
X98756780Y-46031347D01*
X98804399Y-46126585D01*
X98852018Y-46174205D01*
X98947256Y-46221824D01*
X99185351Y-46221824D01*
X99328208Y-46174205D01*
X99661542Y-46221824D02*
X99899637Y-45221824D01*
X100090113Y-45936109D01*
X100280589Y-45221824D01*
X100518684Y-46221824D01*
X101423446Y-45221824D02*
X100852018Y-45221824D01*
X101137732Y-45221824D02*
X101137732Y-46221824D01*
X101042494Y-46078966D01*
X100947256Y-45983728D01*
X100852018Y-45936109D01*
X102375827Y-45221824D02*
X101804399Y-45221824D01*
X102090113Y-45221824D02*
X102090113Y-46221824D01*
X101994875Y-46078966D01*
X101899637Y-45983728D01*
X101804399Y-45936109D01*
X98756780Y-64359443D02*
X98899637Y-64311824D01*
X99137732Y-64311824D01*
X99232970Y-64359443D01*
X99280589Y-64407062D01*
X99328208Y-64502300D01*
X99328208Y-64597538D01*
X99280589Y-64692776D01*
X99232970Y-64740395D01*
X99137732Y-64788014D01*
X98947256Y-64835633D01*
X98852018Y-64883252D01*
X98804399Y-64930871D01*
X98756780Y-65026109D01*
X98756780Y-65121347D01*
X98804399Y-65216585D01*
X98852018Y-65264205D01*
X98947256Y-65311824D01*
X99185351Y-65311824D01*
X99328208Y-65264205D01*
X99661542Y-65311824D02*
X99899637Y-64311824D01*
X100090113Y-65026109D01*
X100280589Y-64311824D01*
X100518684Y-65311824D01*
X101423446Y-64311824D02*
X100852018Y-64311824D01*
X101137732Y-64311824D02*
X101137732Y-65311824D01*
X101042494Y-65168966D01*
X100947256Y-65073728D01*
X100852018Y-65026109D01*
X102375827Y-64311824D02*
X101804399Y-64311824D01*
X102090113Y-64311824D02*
X102090113Y-65311824D01*
X101994875Y-65168966D01*
X101899637Y-65073728D01*
X101804399Y-65026109D01*
X98756780Y-83394443D02*
X98899637Y-83346824D01*
X99137732Y-83346824D01*
X99232970Y-83394443D01*
X99280589Y-83442062D01*
X99328208Y-83537300D01*
X99328208Y-83632538D01*
X99280589Y-83727776D01*
X99232970Y-83775395D01*
X99137732Y-83823014D01*
X98947256Y-83870633D01*
X98852018Y-83918252D01*
X98804399Y-83965871D01*
X98756780Y-84061109D01*
X98756780Y-84156347D01*
X98804399Y-84251585D01*
X98852018Y-84299205D01*
X98947256Y-84346824D01*
X99185351Y-84346824D01*
X99328208Y-84299205D01*
X99661542Y-84346824D02*
X99899637Y-83346824D01*
X100090113Y-84061109D01*
X100280589Y-83346824D01*
X100518684Y-84346824D01*
X101423446Y-83346824D02*
X100852018Y-83346824D01*
X101137732Y-83346824D02*
X101137732Y-84346824D01*
X101042494Y-84203966D01*
X100947256Y-84108728D01*
X100852018Y-84061109D01*
X102375827Y-83346824D02*
X101804399Y-83346824D01*
X102090113Y-83346824D02*
X102090113Y-84346824D01*
X101994875Y-84203966D01*
X101899637Y-84108728D01*
X101804399Y-84061109D01*
X79766780Y-78802443D02*
X79909637Y-78754824D01*
X80147732Y-78754824D01*
X80242970Y-78802443D01*
X80290589Y-78850062D01*
X80338208Y-78945300D01*
X80338208Y-79040538D01*
X80290589Y-79135776D01*
X80242970Y-79183395D01*
X80147732Y-79231014D01*
X79957256Y-79278633D01*
X79862018Y-79326252D01*
X79814399Y-79373871D01*
X79766780Y-79469109D01*
X79766780Y-79564347D01*
X79814399Y-79659585D01*
X79862018Y-79707205D01*
X79957256Y-79754824D01*
X80195351Y-79754824D01*
X80338208Y-79707205D01*
X80671542Y-79754824D02*
X80909637Y-78754824D01*
X81100113Y-79469109D01*
X81290589Y-78754824D01*
X81528684Y-79754824D01*
X82433446Y-78754824D02*
X81862018Y-78754824D01*
X82147732Y-78754824D02*
X82147732Y-79754824D01*
X82052494Y-79611966D01*
X81957256Y-79516728D01*
X81862018Y-79469109D01*
X83385827Y-78754824D02*
X82814399Y-78754824D01*
X83100113Y-78754824D02*
X83100113Y-79754824D01*
X83004875Y-79611966D01*
X82909637Y-79516728D01*
X82814399Y-79469109D01*
X79766780Y-40677443D02*
X79909637Y-40629824D01*
X80147732Y-40629824D01*
X80242970Y-40677443D01*
X80290589Y-40725062D01*
X80338208Y-40820300D01*
X80338208Y-40915538D01*
X80290589Y-41010776D01*
X80242970Y-41058395D01*
X80147732Y-41106014D01*
X79957256Y-41153633D01*
X79862018Y-41201252D01*
X79814399Y-41248871D01*
X79766780Y-41344109D01*
X79766780Y-41439347D01*
X79814399Y-41534585D01*
X79862018Y-41582205D01*
X79957256Y-41629824D01*
X80195351Y-41629824D01*
X80338208Y-41582205D01*
X80671542Y-41629824D02*
X80909637Y-40629824D01*
X81100113Y-41344109D01*
X81290589Y-40629824D01*
X81528684Y-41629824D01*
X82433446Y-40629824D02*
X81862018Y-40629824D01*
X82147732Y-40629824D02*
X82147732Y-41629824D01*
X82052494Y-41486966D01*
X81957256Y-41391728D01*
X81862018Y-41344109D01*
X83385827Y-40629824D02*
X82814399Y-40629824D01*
X83100113Y-40629824D02*
X83100113Y-41629824D01*
X83004875Y-41486966D01*
X82909637Y-41391728D01*
X82814399Y-41344109D01*
X79766780Y-59767443D02*
X79909637Y-59719824D01*
X80147732Y-59719824D01*
X80242970Y-59767443D01*
X80290589Y-59815062D01*
X80338208Y-59910300D01*
X80338208Y-60005538D01*
X80290589Y-60100776D01*
X80242970Y-60148395D01*
X80147732Y-60196014D01*
X79957256Y-60243633D01*
X79862018Y-60291252D01*
X79814399Y-60338871D01*
X79766780Y-60434109D01*
X79766780Y-60529347D01*
X79814399Y-60624585D01*
X79862018Y-60672205D01*
X79957256Y-60719824D01*
X80195351Y-60719824D01*
X80338208Y-60672205D01*
X80671542Y-60719824D02*
X80909637Y-59719824D01*
X81100113Y-60434109D01*
X81290589Y-59719824D01*
X81528684Y-60719824D01*
X82433446Y-59719824D02*
X81862018Y-59719824D01*
X82147732Y-59719824D02*
X82147732Y-60719824D01*
X82052494Y-60576966D01*
X81957256Y-60481728D01*
X81862018Y-60434109D01*
X83385827Y-59719824D02*
X82814399Y-59719824D01*
X83100113Y-59719824D02*
X83100113Y-60719824D01*
X83004875Y-60576966D01*
X82909637Y-60481728D01*
X82814399Y-60434109D01*
X60766780Y-85052443D02*
X60909637Y-85004824D01*
X61147732Y-85004824D01*
X61242970Y-85052443D01*
X61290589Y-85100062D01*
X61338208Y-85195300D01*
X61338208Y-85290538D01*
X61290589Y-85385776D01*
X61242970Y-85433395D01*
X61147732Y-85481014D01*
X60957256Y-85528633D01*
X60862018Y-85576252D01*
X60814399Y-85623871D01*
X60766780Y-85719109D01*
X60766780Y-85814347D01*
X60814399Y-85909585D01*
X60862018Y-85957205D01*
X60957256Y-86004824D01*
X61195351Y-86004824D01*
X61338208Y-85957205D01*
X61671542Y-86004824D02*
X61909637Y-85004824D01*
X62100113Y-85719109D01*
X62290589Y-85004824D01*
X62528684Y-86004824D01*
X63433446Y-85004824D02*
X62862018Y-85004824D01*
X63147732Y-85004824D02*
X63147732Y-86004824D01*
X63052494Y-85861966D01*
X62957256Y-85766728D01*
X62862018Y-85719109D01*
X64385827Y-85004824D02*
X63814399Y-85004824D01*
X64100113Y-85004824D02*
X64100113Y-86004824D01*
X64004875Y-85861966D01*
X63909637Y-85766728D01*
X63814399Y-85719109D01*
X60766780Y-46927443D02*
X60909637Y-46879824D01*
X61147732Y-46879824D01*
X61242970Y-46927443D01*
X61290589Y-46975062D01*
X61338208Y-47070300D01*
X61338208Y-47165538D01*
X61290589Y-47260776D01*
X61242970Y-47308395D01*
X61147732Y-47356014D01*
X60957256Y-47403633D01*
X60862018Y-47451252D01*
X60814399Y-47498871D01*
X60766780Y-47594109D01*
X60766780Y-47689347D01*
X60814399Y-47784585D01*
X60862018Y-47832205D01*
X60957256Y-47879824D01*
X61195351Y-47879824D01*
X61338208Y-47832205D01*
X61671542Y-47879824D02*
X61909637Y-46879824D01*
X62100113Y-47594109D01*
X62290589Y-46879824D01*
X62528684Y-47879824D01*
X63433446Y-46879824D02*
X62862018Y-46879824D01*
X63147732Y-46879824D02*
X63147732Y-47879824D01*
X63052494Y-47736966D01*
X62957256Y-47641728D01*
X62862018Y-47594109D01*
X64385827Y-46879824D02*
X63814399Y-46879824D01*
X64100113Y-46879824D02*
X64100113Y-47879824D01*
X64004875Y-47736966D01*
X63909637Y-47641728D01*
X63814399Y-47594109D01*
X60766780Y-66017443D02*
X60909637Y-65969824D01*
X61147732Y-65969824D01*
X61242970Y-66017443D01*
X61290589Y-66065062D01*
X61338208Y-66160300D01*
X61338208Y-66255538D01*
X61290589Y-66350776D01*
X61242970Y-66398395D01*
X61147732Y-66446014D01*
X60957256Y-66493633D01*
X60862018Y-66541252D01*
X60814399Y-66588871D01*
X60766780Y-66684109D01*
X60766780Y-66779347D01*
X60814399Y-66874585D01*
X60862018Y-66922205D01*
X60957256Y-66969824D01*
X61195351Y-66969824D01*
X61338208Y-66922205D01*
X61671542Y-66969824D02*
X61909637Y-65969824D01*
X62100113Y-66684109D01*
X62290589Y-65969824D01*
X62528684Y-66969824D01*
X63433446Y-65969824D02*
X62862018Y-65969824D01*
X63147732Y-65969824D02*
X63147732Y-66969824D01*
X63052494Y-66826966D01*
X62957256Y-66731728D01*
X62862018Y-66684109D01*
X64385827Y-65969824D02*
X63814399Y-65969824D01*
X64100113Y-65969824D02*
X64100113Y-66969824D01*
X64004875Y-66826966D01*
X63909637Y-66731728D01*
X63814399Y-66684109D01*
X41864628Y-58858738D02*
X42007485Y-58811119D01*
X42245580Y-58811119D01*
X42340818Y-58858738D01*
X42388437Y-58906357D01*
X42436056Y-59001595D01*
X42436056Y-59096833D01*
X42388437Y-59192071D01*
X42340818Y-59239690D01*
X42245580Y-59287309D01*
X42055104Y-59334928D01*
X41959866Y-59382547D01*
X41912247Y-59430166D01*
X41864628Y-59525404D01*
X41864628Y-59620642D01*
X41912247Y-59715880D01*
X41959866Y-59763500D01*
X42055104Y-59811119D01*
X42293199Y-59811119D01*
X42436056Y-59763500D01*
X42769390Y-59811119D02*
X43007485Y-58811119D01*
X43197961Y-59525404D01*
X43388437Y-58811119D01*
X43626532Y-59811119D01*
X44531294Y-58811119D02*
X43959866Y-58811119D01*
X44245580Y-58811119D02*
X44245580Y-59811119D01*
X44150342Y-59668261D01*
X44055104Y-59573023D01*
X43959866Y-59525404D01*
X45483675Y-58811119D02*
X44912247Y-58811119D01*
X45197961Y-58811119D02*
X45197961Y-59811119D01*
X45102723Y-59668261D01*
X45007485Y-59573023D01*
X44912247Y-59525404D01*
X41864628Y-77948738D02*
X42007485Y-77901119D01*
X42245580Y-77901119D01*
X42340818Y-77948738D01*
X42388437Y-77996357D01*
X42436056Y-78091595D01*
X42436056Y-78186833D01*
X42388437Y-78282071D01*
X42340818Y-78329690D01*
X42245580Y-78377309D01*
X42055104Y-78424928D01*
X41959866Y-78472547D01*
X41912247Y-78520166D01*
X41864628Y-78615404D01*
X41864628Y-78710642D01*
X41912247Y-78805880D01*
X41959866Y-78853500D01*
X42055104Y-78901119D01*
X42293199Y-78901119D01*
X42436056Y-78853500D01*
X42769390Y-78901119D02*
X43007485Y-77901119D01*
X43197961Y-78615404D01*
X43388437Y-77901119D01*
X43626532Y-78901119D01*
X44531294Y-77901119D02*
X43959866Y-77901119D01*
X44245580Y-77901119D02*
X44245580Y-78901119D01*
X44150342Y-78758261D01*
X44055104Y-78663023D01*
X43959866Y-78615404D01*
X45483675Y-77901119D02*
X44912247Y-77901119D01*
X45197961Y-77901119D02*
X45197961Y-78901119D01*
X45102723Y-78758261D01*
X45007485Y-78663023D01*
X44912247Y-78615404D01*
X41864628Y-96983738D02*
X42007485Y-96936119D01*
X42245580Y-96936119D01*
X42340818Y-96983738D01*
X42388437Y-97031357D01*
X42436056Y-97126595D01*
X42436056Y-97221833D01*
X42388437Y-97317071D01*
X42340818Y-97364690D01*
X42245580Y-97412309D01*
X42055104Y-97459928D01*
X41959866Y-97507547D01*
X41912247Y-97555166D01*
X41864628Y-97650404D01*
X41864628Y-97745642D01*
X41912247Y-97840880D01*
X41959866Y-97888500D01*
X42055104Y-97936119D01*
X42293199Y-97936119D01*
X42436056Y-97888500D01*
X42769390Y-97936119D02*
X43007485Y-96936119D01*
X43197961Y-97650404D01*
X43388437Y-96936119D01*
X43626532Y-97936119D01*
X44531294Y-96936119D02*
X43959866Y-96936119D01*
X44245580Y-96936119D02*
X44245580Y-97936119D01*
X44150342Y-97793261D01*
X44055104Y-97698023D01*
X43959866Y-97650404D01*
X45483675Y-96936119D02*
X44912247Y-96936119D01*
X45197961Y-96936119D02*
X45197961Y-97936119D01*
X45102723Y-97793261D01*
X45007485Y-97698023D01*
X44912247Y-97650404D01*
X83152833Y-85608675D02*
X83486166Y-85132485D01*
X83724261Y-85608675D02*
X83724261Y-84608675D01*
X83343309Y-84608675D01*
X83248071Y-84656295D01*
X83200452Y-84703914D01*
X83152833Y-84799152D01*
X83152833Y-84942009D01*
X83200452Y-85037247D01*
X83248071Y-85084866D01*
X83343309Y-85132485D01*
X83724261Y-85132485D01*
X82724261Y-85084866D02*
X82390928Y-85084866D01*
X82248071Y-85608675D02*
X82724261Y-85608675D01*
X82724261Y-84608675D01*
X82248071Y-84608675D01*
X81486166Y-85084866D02*
X81819500Y-85084866D01*
X81819500Y-85608675D02*
X81819500Y-84608675D01*
X81343309Y-84608675D01*
X80819500Y-84608675D02*
X80819500Y-84846771D01*
X81057595Y-84751533D02*
X80819500Y-84846771D01*
X80581404Y-84751533D01*
X80962357Y-85037247D02*
X80819500Y-84846771D01*
X80676642Y-85037247D01*
X80057595Y-84608675D02*
X80057595Y-84846771D01*
X80295690Y-84751533D02*
X80057595Y-84846771D01*
X79819500Y-84751533D01*
X80200452Y-85037247D02*
X80057595Y-84846771D01*
X79914738Y-85037247D01*
X175500000Y-103074038D02*
X176000000Y-103974038D01*
X176000000Y-103974038D02*
X176500000Y-103074038D01*
X176500000Y-103074038D02*
X175500000Y-103074038D01*
X176500000Y-104074038D02*
X175500000Y-104074038D01*
X253500000Y-103500000D02*
X253500000Y-102500000D01*
X253500000Y-102500000D02*
X252600000Y-103000000D01*
X252600000Y-103000000D02*
X253500000Y-103500000D01*
X252500000Y-103500000D02*
X252500000Y-102500000D01*
X234500000Y-91500000D02*
X234500000Y-90500000D01*
X234500000Y-90500000D02*
X233600000Y-91000000D01*
X233600000Y-91000000D02*
X234500000Y-91500000D01*
X233500000Y-91500000D02*
X233500000Y-90500000D01*
X215500000Y-85500000D02*
X215500000Y-84500000D01*
X215500000Y-84500000D02*
X214600000Y-85000000D01*
X214600000Y-85000000D02*
X215500000Y-85500000D01*
X214500000Y-85500000D02*
X214500000Y-84500000D01*
X196500000Y-89500000D02*
X196500000Y-88500000D01*
X196500000Y-88500000D02*
X195600000Y-89000000D01*
X195600000Y-89000000D02*
X196500000Y-89500000D01*
X195500000Y-89500000D02*
X195500000Y-88500000D01*
X253500000Y-85500000D02*
X253500000Y-84500000D01*
X253500000Y-84500000D02*
X252600000Y-85000000D01*
X252600000Y-85000000D02*
X253500000Y-85500000D01*
X252500000Y-85500000D02*
X252500000Y-84500000D01*
X234500000Y-73500000D02*
X234500000Y-72500000D01*
X234500000Y-72500000D02*
X233600000Y-73000000D01*
X233600000Y-73000000D02*
X234500000Y-73500000D01*
X233500000Y-73500000D02*
X233500000Y-72500000D01*
X215500000Y-67500000D02*
X215500000Y-66500000D01*
X215500000Y-66500000D02*
X214600000Y-67000000D01*
X214600000Y-67000000D02*
X215500000Y-67500000D01*
X214500000Y-67500000D02*
X214500000Y-66500000D01*
X196688848Y-71500000D02*
X196688848Y-70500000D01*
X196688848Y-70500000D02*
X195788848Y-71000000D01*
X195788848Y-71000000D02*
X196688848Y-71500000D01*
X195688848Y-71500000D02*
X195688848Y-70500000D01*
X197500000Y-100500000D02*
X198000000Y-101400000D01*
X198000000Y-101400000D02*
X198500000Y-100500000D01*
X198500000Y-100500000D02*
X197500000Y-100500000D01*
X198500000Y-101500000D02*
X197500000Y-101500000D01*
X119500000Y-104500000D02*
X120500000Y-104500000D01*
X119500000Y-103500000D02*
X120500000Y-103500000D01*
X120000000Y-103600000D02*
X119500000Y-104500000D01*
X120500000Y-104500000D02*
X120000000Y-103600000D01*
X97500000Y-104500000D02*
X97000000Y-103600000D01*
X97000000Y-103600000D02*
X96500000Y-104500000D01*
X96500000Y-104500000D02*
X97500000Y-104500000D01*
X96500000Y-103500000D02*
X97500000Y-103500000D01*
D11*
X220111506Y-105070825D02*
G75*
G03*
X223448152Y-104084295I1306646J1716531D01*
G01*
X204782908Y-104092464D02*
G75*
G03*
X208108152Y-105054295I2015244J738169D01*
G01*
X222808152Y-88964295D02*
X224888152Y-91044295D01*
X224888152Y-100134295D02*
X223448152Y-104084295D01*
X203328152Y-100134295D02*
X204768152Y-104084295D01*
X205408152Y-88964295D02*
X208908152Y-88964295D01*
X224888152Y-99504295D02*
X224888152Y-100134295D01*
X224888152Y-91044295D02*
X224888152Y-93504295D01*
X203328152Y-91044295D02*
X203328152Y-93504295D01*
X205408152Y-88964295D02*
X203328152Y-91044295D01*
X203328152Y-99504295D02*
X203328152Y-100134295D01*
X219308152Y-88964295D02*
X222808152Y-88964295D01*
D12*
X174413848Y-69048000D02*
X181113848Y-69048000D01*
D10*
X182663848Y-65348000D02*
X179633848Y-65348000D01*
D13*
X182463848Y-65548000D02*
X180013848Y-65548000D01*
D10*
X177413848Y-67248000D02*
X172613848Y-67248000D01*
X182913848Y-68198000D02*
X182713848Y-68198000D01*
X172613848Y-67248000D02*
X172613848Y-70848000D01*
X172633848Y-68248000D02*
X172633848Y-70498000D01*
X182913848Y-68948000D02*
X182913848Y-68198000D01*
X182663848Y-69798000D02*
X182663848Y-65348000D01*
D14*
X182313848Y-65848000D02*
X182313848Y-67647999D01*
D15*
X173113848Y-70248000D02*
X173113848Y-67748000D01*
D16*
X181183848Y-69348000D02*
X181183848Y-67108000D01*
D13*
X172813848Y-67498000D02*
X174113848Y-67548000D01*
D17*
X172763848Y-70648000D02*
X174013848Y-70648000D01*
D10*
X172613848Y-70848000D02*
X180813849Y-70848000D01*
D18*
X182813848Y-68298000D02*
X182813848Y-68948000D01*
D15*
X177813848Y-67648000D02*
G75*
G03*
X180030166Y-65769471I65001J2169999D01*
G01*
D10*
X177413848Y-67248000D02*
G75*
G03*
X179630166Y-65369471I65001J2169999D01*
G01*
X180813849Y-70848001D02*
G75*
G03*
X182913848Y-68947999I100000J1999999D01*
G01*
X177613848Y-53940000D02*
X177613848Y-52940000D01*
X177613848Y-52940000D02*
X176713848Y-53440000D01*
X176713848Y-53440000D02*
X177613848Y-53940000D01*
X176613848Y-53940000D02*
X176613848Y-52940000D01*
D12*
X174413848Y-88083000D02*
X181113848Y-88083000D01*
D10*
X182663848Y-84383000D02*
X179633848Y-84383000D01*
D13*
X182463848Y-84583000D02*
X180013848Y-84583000D01*
D10*
X177413848Y-86283000D02*
X172613848Y-86283000D01*
X182913848Y-87233000D02*
X182713848Y-87233000D01*
X172613848Y-86283000D02*
X172613848Y-89883000D01*
X172633848Y-87283000D02*
X172633848Y-89533000D01*
X182913848Y-87983000D02*
X182913848Y-87233000D01*
X182663848Y-88833000D02*
X182663848Y-84383000D01*
D14*
X182313848Y-84883000D02*
X182313848Y-86682999D01*
D15*
X173113848Y-89283000D02*
X173113848Y-86783000D01*
D16*
X181183848Y-88383000D02*
X181183848Y-86143000D01*
D13*
X172813848Y-86533000D02*
X174113848Y-86583000D01*
D17*
X172763848Y-89683000D02*
X174013848Y-89683000D01*
D10*
X172613848Y-89883000D02*
X180813849Y-89883000D01*
D18*
X182813848Y-87333000D02*
X182813848Y-87983000D01*
D15*
X177813848Y-86683000D02*
G75*
G03*
X180030166Y-84804471I65001J2169999D01*
G01*
D10*
X177413848Y-86283000D02*
G75*
G03*
X179630166Y-84404471I65001J2169999D01*
G01*
X180813849Y-89883001D02*
G75*
G03*
X182913848Y-87982999I100000J1999999D01*
G01*
G36*
X180591000Y-39376205D02*
G01*
X183341000Y-39376205D01*
X183841000Y-39876205D01*
X183841000Y-42876205D01*
X183341000Y-43376205D01*
X180591000Y-43376205D01*
X178341000Y-41126205D01*
X175841000Y-41126205D01*
X175341000Y-40626205D01*
X175341000Y-37626205D01*
X175841000Y-37126205D01*
X178341000Y-37126205D01*
X180591000Y-39376205D01*
G37*
D11*
X180591000Y-39376205D02*
X183341000Y-39376205D01*
X183841000Y-39876205D01*
X183841000Y-42876205D01*
X183341000Y-43376205D01*
X180591000Y-43376205D01*
X178341000Y-41126205D01*
X175841000Y-41126205D01*
X175341000Y-40626205D01*
X175341000Y-37626205D01*
X175841000Y-37126205D01*
X178341000Y-37126205D01*
X180591000Y-39376205D01*
D10*
X177688848Y-73040000D02*
X177688848Y-72040000D01*
X177688848Y-72040000D02*
X176788848Y-72540000D01*
X176788848Y-72540000D02*
X177688848Y-73040000D01*
X176688848Y-73040000D02*
X176688848Y-72040000D01*
G36*
X180591000Y-77501205D02*
G01*
X183341000Y-77501205D01*
X183841000Y-78001205D01*
X183841000Y-81001205D01*
X183341000Y-81501205D01*
X180591000Y-81501205D01*
X178341000Y-79251205D01*
X175841000Y-79251205D01*
X175341000Y-78751205D01*
X175341000Y-75751205D01*
X175841000Y-75251205D01*
X178341000Y-75251205D01*
X180591000Y-77501205D01*
G37*
D11*
X180591000Y-77501205D02*
X183341000Y-77501205D01*
X183841000Y-78001205D01*
X183841000Y-81001205D01*
X183341000Y-81501205D01*
X180591000Y-81501205D01*
X178341000Y-79251205D01*
X175841000Y-79251205D01*
X175341000Y-78751205D01*
X175341000Y-75751205D01*
X175841000Y-75251205D01*
X178341000Y-75251205D01*
X180591000Y-77501205D01*
G36*
X180591000Y-58466205D02*
G01*
X183341000Y-58466205D01*
X183841000Y-58966205D01*
X183841000Y-61966205D01*
X183341000Y-62466205D01*
X180591000Y-62466205D01*
X178341000Y-60216205D01*
X175841000Y-60216205D01*
X175341000Y-59716205D01*
X175341000Y-56716205D01*
X175841000Y-56216205D01*
X178341000Y-56216205D01*
X180591000Y-58466205D01*
G37*
X180591000Y-58466205D02*
X183341000Y-58466205D01*
X183841000Y-58966205D01*
X183841000Y-61966205D01*
X183341000Y-62466205D01*
X180591000Y-62466205D01*
X178341000Y-60216205D01*
X175841000Y-60216205D01*
X175341000Y-59716205D01*
X175341000Y-56716205D01*
X175841000Y-56216205D01*
X178341000Y-56216205D01*
X180591000Y-58466205D01*
D10*
X177613848Y-91990000D02*
X177613848Y-90990000D01*
X177613848Y-90990000D02*
X176713848Y-91490000D01*
X176713848Y-91490000D02*
X177613848Y-91990000D01*
X176613848Y-91990000D02*
X176613848Y-90990000D01*
D12*
X174413848Y-49958000D02*
X181113848Y-49958000D01*
D10*
X182663848Y-46258000D02*
X179633848Y-46258000D01*
D13*
X182463848Y-46458000D02*
X180013848Y-46458000D01*
D10*
X177413848Y-48158000D02*
X172613848Y-48158000D01*
X182913848Y-49108000D02*
X182713848Y-49108000D01*
X172613848Y-48158000D02*
X172613848Y-51758000D01*
X172633848Y-49158000D02*
X172633848Y-51408000D01*
X182913848Y-49858000D02*
X182913848Y-49108000D01*
X182663848Y-50708000D02*
X182663848Y-46258000D01*
D14*
X182313848Y-46758000D02*
X182313848Y-48557999D01*
D15*
X173113848Y-51158000D02*
X173113848Y-48658000D01*
D16*
X181183848Y-50258000D02*
X181183848Y-48018000D01*
D13*
X172813848Y-48408000D02*
X174113848Y-48458000D01*
D17*
X172763848Y-51558000D02*
X174013848Y-51558000D01*
D10*
X172613848Y-51758000D02*
X180813849Y-51758000D01*
D18*
X182813848Y-49208000D02*
X182813848Y-49858000D01*
D15*
X177813848Y-48558000D02*
G75*
G03*
X180030166Y-46679471I65001J2169999D01*
G01*
D10*
X177413848Y-48158000D02*
G75*
G03*
X179630166Y-46279471I65001J2169999D01*
G01*
X180813849Y-51758001D02*
G75*
G03*
X182913848Y-49857999I100000J1999999D01*
G01*
D12*
X193413848Y-66523000D02*
X200113848Y-66523000D01*
D10*
X201663848Y-62823000D02*
X198633848Y-62823000D01*
D13*
X201463848Y-63023000D02*
X199013848Y-63023000D01*
D10*
X196413848Y-64723000D02*
X191613848Y-64723000D01*
X201913848Y-65673000D02*
X201713848Y-65673000D01*
X191613848Y-64723000D02*
X191613848Y-68323000D01*
X191633848Y-65723000D02*
X191633848Y-67973000D01*
X201913848Y-66423000D02*
X201913848Y-65673000D01*
X201663848Y-67273000D02*
X201663848Y-62823000D01*
D14*
X201313848Y-63323000D02*
X201313848Y-65122999D01*
D15*
X192113848Y-67723000D02*
X192113848Y-65223000D01*
D16*
X200183848Y-66823000D02*
X200183848Y-64583000D01*
D13*
X191813848Y-64973000D02*
X193113848Y-65023000D01*
D17*
X191763848Y-68123000D02*
X193013848Y-68123000D01*
D10*
X191613848Y-68323000D02*
X199813849Y-68323000D01*
D18*
X201813848Y-65773000D02*
X201813848Y-66423000D01*
D15*
X196813848Y-65123000D02*
G75*
G03*
X199030166Y-63244471I65001J2169999D01*
G01*
D10*
X196413848Y-64723000D02*
G75*
G03*
X198630166Y-62844471I65001J2169999D01*
G01*
X199813849Y-68323001D02*
G75*
G03*
X201913848Y-66422999I100000J1999999D01*
G01*
D12*
X193413848Y-47433000D02*
X200113848Y-47433000D01*
D10*
X201663848Y-43733000D02*
X198633848Y-43733000D01*
D13*
X201463848Y-43933000D02*
X199013848Y-43933000D01*
D10*
X196413848Y-45633000D02*
X191613848Y-45633000D01*
X201913848Y-46583000D02*
X201713848Y-46583000D01*
X191613848Y-45633000D02*
X191613848Y-49233000D01*
X191633848Y-46633000D02*
X191633848Y-48883000D01*
X201913848Y-47333000D02*
X201913848Y-46583000D01*
X201663848Y-48183000D02*
X201663848Y-43733000D01*
D14*
X201313848Y-44233000D02*
X201313848Y-46032999D01*
D15*
X192113848Y-48633000D02*
X192113848Y-46133000D01*
D16*
X200183848Y-47733000D02*
X200183848Y-45493000D01*
D13*
X191813848Y-45883000D02*
X193113848Y-45933000D01*
D17*
X191763848Y-49033000D02*
X193013848Y-49033000D01*
D10*
X191613848Y-49233000D02*
X199813849Y-49233000D01*
D18*
X201813848Y-46683000D02*
X201813848Y-47333000D01*
D15*
X196813848Y-46033000D02*
G75*
G03*
X199030166Y-44154471I65001J2169999D01*
G01*
D10*
X196413848Y-45633000D02*
G75*
G03*
X198630166Y-43754471I65001J2169999D01*
G01*
X199813849Y-49233001D02*
G75*
G03*
X201913848Y-47332999I100000J1999999D01*
G01*
D12*
X193413848Y-85558000D02*
X200113848Y-85558000D01*
D10*
X201663848Y-81858000D02*
X198633848Y-81858000D01*
D13*
X201463848Y-82058000D02*
X199013848Y-82058000D01*
D10*
X196413848Y-83758000D02*
X191613848Y-83758000D01*
X201913848Y-84708000D02*
X201713848Y-84708000D01*
X191613848Y-83758000D02*
X191613848Y-87358000D01*
X191633848Y-84758000D02*
X191633848Y-87008000D01*
X201913848Y-85458000D02*
X201913848Y-84708000D01*
X201663848Y-86308000D02*
X201663848Y-81858000D01*
D14*
X201313848Y-82358000D02*
X201313848Y-84157999D01*
D15*
X192113848Y-86758000D02*
X192113848Y-84258000D01*
D16*
X200183848Y-85858000D02*
X200183848Y-83618000D01*
D13*
X191813848Y-84008000D02*
X193113848Y-84058000D01*
D17*
X191763848Y-87158000D02*
X193013848Y-87158000D01*
D10*
X191613848Y-87358000D02*
X199813849Y-87358000D01*
D18*
X201813848Y-84808000D02*
X201813848Y-85458000D01*
D15*
X196813848Y-84158000D02*
G75*
G03*
X199030166Y-82279471I65001J2169999D01*
G01*
D10*
X196413848Y-83758000D02*
G75*
G03*
X198630166Y-81879471I65001J2169999D01*
G01*
X199813849Y-87358001D02*
G75*
G03*
X201913848Y-85457999I100000J1999999D01*
G01*
G36*
X199591000Y-36851205D02*
G01*
X202341000Y-36851205D01*
X202841000Y-37351205D01*
X202841000Y-40351205D01*
X202341000Y-40851205D01*
X199591000Y-40851205D01*
X197341000Y-38601205D01*
X194841000Y-38601205D01*
X194341000Y-38101205D01*
X194341000Y-35101205D01*
X194841000Y-34601205D01*
X197341000Y-34601205D01*
X199591000Y-36851205D01*
G37*
D11*
X199591000Y-36851205D02*
X202341000Y-36851205D01*
X202841000Y-37351205D01*
X202841000Y-40351205D01*
X202341000Y-40851205D01*
X199591000Y-40851205D01*
X197341000Y-38601205D01*
X194841000Y-38601205D01*
X194341000Y-38101205D01*
X194341000Y-35101205D01*
X194841000Y-34601205D01*
X197341000Y-34601205D01*
X199591000Y-36851205D01*
D10*
X196613848Y-51415000D02*
X196613848Y-50415000D01*
X196613848Y-50415000D02*
X195713848Y-50915000D01*
X195713848Y-50915000D02*
X196613848Y-51415000D01*
X195613848Y-51415000D02*
X195613848Y-50415000D01*
G36*
X199591000Y-74976205D02*
G01*
X202341000Y-74976205D01*
X202841000Y-75476205D01*
X202841000Y-78476205D01*
X202341000Y-78976205D01*
X199591000Y-78976205D01*
X197341000Y-76726205D01*
X194841000Y-76726205D01*
X194341000Y-76226205D01*
X194341000Y-73226205D01*
X194841000Y-72726205D01*
X197341000Y-72726205D01*
X199591000Y-74976205D01*
G37*
D11*
X199591000Y-74976205D02*
X202341000Y-74976205D01*
X202841000Y-75476205D01*
X202841000Y-78476205D01*
X202341000Y-78976205D01*
X199591000Y-78976205D01*
X197341000Y-76726205D01*
X194841000Y-76726205D01*
X194341000Y-76226205D01*
X194341000Y-73226205D01*
X194841000Y-72726205D01*
X197341000Y-72726205D01*
X199591000Y-74976205D01*
G36*
X199591000Y-55941205D02*
G01*
X202341000Y-55941205D01*
X202841000Y-56441205D01*
X202841000Y-59441205D01*
X202341000Y-59941205D01*
X199591000Y-59941205D01*
X197341000Y-57691205D01*
X194841000Y-57691205D01*
X194341000Y-57191205D01*
X194341000Y-54191205D01*
X194841000Y-53691205D01*
X197341000Y-53691205D01*
X199591000Y-55941205D01*
G37*
X199591000Y-55941205D02*
X202341000Y-55941205D01*
X202841000Y-56441205D01*
X202841000Y-59441205D01*
X202341000Y-59941205D01*
X199591000Y-59941205D01*
X197341000Y-57691205D01*
X194841000Y-57691205D01*
X194341000Y-57191205D01*
X194341000Y-54191205D01*
X194841000Y-53691205D01*
X197341000Y-53691205D01*
X199591000Y-55941205D01*
D12*
X212403848Y-42841000D02*
X219103848Y-42841000D01*
D10*
X220653848Y-39141000D02*
X217623848Y-39141000D01*
D13*
X220453848Y-39341000D02*
X218003848Y-39341000D01*
D10*
X215403848Y-41041000D02*
X210603848Y-41041000D01*
X220903848Y-41991000D02*
X220703848Y-41991000D01*
X210603848Y-41041000D02*
X210603848Y-44641000D01*
X210623848Y-42041000D02*
X210623848Y-44291000D01*
X220903848Y-42741000D02*
X220903848Y-41991000D01*
X220653848Y-43591000D02*
X220653848Y-39141000D01*
D14*
X220303848Y-39641000D02*
X220303848Y-41440999D01*
D15*
X211103848Y-44041000D02*
X211103848Y-41541000D01*
D16*
X219173848Y-43141000D02*
X219173848Y-40901000D01*
D13*
X210803848Y-41291000D02*
X212103848Y-41341000D01*
D17*
X210753848Y-44441000D02*
X212003848Y-44441000D01*
D10*
X210603848Y-44641000D02*
X218803849Y-44641000D01*
D18*
X220803848Y-42091000D02*
X220803848Y-42741000D01*
D15*
X215803848Y-41441000D02*
G75*
G03*
X218020166Y-39562471I65001J2169999D01*
G01*
D10*
X215403848Y-41041000D02*
G75*
G03*
X217620166Y-39162471I65001J2169999D01*
G01*
X218803849Y-44641001D02*
G75*
G03*
X220903848Y-42740999I100000J1999999D01*
G01*
G36*
X218581000Y-32259205D02*
G01*
X221331000Y-32259205D01*
X221831000Y-32759205D01*
X221831000Y-35759205D01*
X221331000Y-36259205D01*
X218581000Y-36259205D01*
X216331000Y-34009205D01*
X213831000Y-34009205D01*
X213331000Y-33509205D01*
X213331000Y-30509205D01*
X213831000Y-30009205D01*
X216331000Y-30009205D01*
X218581000Y-32259205D01*
G37*
D11*
X218581000Y-32259205D02*
X221331000Y-32259205D01*
X221831000Y-32759205D01*
X221831000Y-35759205D01*
X221331000Y-36259205D01*
X218581000Y-36259205D01*
X216331000Y-34009205D01*
X213831000Y-34009205D01*
X213331000Y-33509205D01*
X213331000Y-30509205D01*
X213831000Y-30009205D01*
X216331000Y-30009205D01*
X218581000Y-32259205D01*
G36*
X218581000Y-51349205D02*
G01*
X221331000Y-51349205D01*
X221831000Y-51849205D01*
X221831000Y-54849205D01*
X221331000Y-55349205D01*
X218581000Y-55349205D01*
X216331000Y-53099205D01*
X213831000Y-53099205D01*
X213331000Y-52599205D01*
X213331000Y-49599205D01*
X213831000Y-49099205D01*
X216331000Y-49099205D01*
X218581000Y-51349205D01*
G37*
X218581000Y-51349205D02*
X221331000Y-51349205D01*
X221831000Y-51849205D01*
X221831000Y-54849205D01*
X221331000Y-55349205D01*
X218581000Y-55349205D01*
X216331000Y-53099205D01*
X213831000Y-53099205D01*
X213331000Y-52599205D01*
X213331000Y-49599205D01*
X213831000Y-49099205D01*
X216331000Y-49099205D01*
X218581000Y-51349205D01*
D10*
X215603848Y-46823000D02*
X215603848Y-45823000D01*
X215603848Y-45823000D02*
X214703848Y-46323000D01*
X214703848Y-46323000D02*
X215603848Y-46823000D01*
X214603848Y-46823000D02*
X214603848Y-45823000D01*
D12*
X212403848Y-61931000D02*
X219103848Y-61931000D01*
D10*
X220653848Y-58231000D02*
X217623848Y-58231000D01*
D13*
X220453848Y-58431000D02*
X218003848Y-58431000D01*
D10*
X215403848Y-60131000D02*
X210603848Y-60131000D01*
X220903848Y-61081000D02*
X220703848Y-61081000D01*
X210603848Y-60131000D02*
X210603848Y-63731000D01*
X210623848Y-61131000D02*
X210623848Y-63381000D01*
X220903848Y-61831000D02*
X220903848Y-61081000D01*
X220653848Y-62681000D02*
X220653848Y-58231000D01*
D14*
X220303848Y-58731000D02*
X220303848Y-60530999D01*
D15*
X211103848Y-63131000D02*
X211103848Y-60631000D01*
D16*
X219173848Y-62231000D02*
X219173848Y-59991000D01*
D13*
X210803848Y-60381000D02*
X212103848Y-60431000D01*
D17*
X210753848Y-63531000D02*
X212003848Y-63531000D01*
D10*
X210603848Y-63731000D02*
X218803849Y-63731000D01*
D18*
X220803848Y-61181000D02*
X220803848Y-61831000D01*
D15*
X215803848Y-60531000D02*
G75*
G03*
X218020166Y-58652471I65001J2169999D01*
G01*
D10*
X215403848Y-60131000D02*
G75*
G03*
X217620166Y-58252471I65001J2169999D01*
G01*
X218803849Y-63731001D02*
G75*
G03*
X220903848Y-61830999I100000J1999999D01*
G01*
G36*
X218581000Y-70384205D02*
G01*
X221331000Y-70384205D01*
X221831000Y-70884205D01*
X221831000Y-73884205D01*
X221331000Y-74384205D01*
X218581000Y-74384205D01*
X216331000Y-72134205D01*
X213831000Y-72134205D01*
X213331000Y-71634205D01*
X213331000Y-68634205D01*
X213831000Y-68134205D01*
X216331000Y-68134205D01*
X218581000Y-70384205D01*
G37*
D11*
X218581000Y-70384205D02*
X221331000Y-70384205D01*
X221831000Y-70884205D01*
X221831000Y-73884205D01*
X221331000Y-74384205D01*
X218581000Y-74384205D01*
X216331000Y-72134205D01*
X213831000Y-72134205D01*
X213331000Y-71634205D01*
X213331000Y-68634205D01*
X213831000Y-68134205D01*
X216331000Y-68134205D01*
X218581000Y-70384205D01*
D12*
X212403848Y-80966000D02*
X219103848Y-80966000D01*
D10*
X220653848Y-77266000D02*
X217623848Y-77266000D01*
D13*
X220453848Y-77466000D02*
X218003848Y-77466000D01*
D10*
X215403848Y-79166000D02*
X210603848Y-79166000D01*
X220903848Y-80116000D02*
X220703848Y-80116000D01*
X210603848Y-79166000D02*
X210603848Y-82766000D01*
X210623848Y-80166000D02*
X210623848Y-82416000D01*
X220903848Y-80866000D02*
X220903848Y-80116000D01*
X220653848Y-81716000D02*
X220653848Y-77266000D01*
D14*
X220303848Y-77766000D02*
X220303848Y-79565999D01*
D15*
X211103848Y-82166000D02*
X211103848Y-79666000D01*
D16*
X219173848Y-81266000D02*
X219173848Y-79026000D01*
D13*
X210803848Y-79416000D02*
X212103848Y-79466000D01*
D17*
X210753848Y-82566000D02*
X212003848Y-82566000D01*
D10*
X210603848Y-82766000D02*
X218803849Y-82766000D01*
D18*
X220803848Y-80216000D02*
X220803848Y-80866000D01*
D15*
X215803848Y-79566000D02*
G75*
G03*
X218020166Y-77687471I65001J2169999D01*
G01*
D10*
X215403848Y-79166000D02*
G75*
G03*
X217620166Y-77287471I65001J2169999D01*
G01*
X218803849Y-82766001D02*
G75*
G03*
X220903848Y-80865999I100000J1999999D01*
G01*
X234603848Y-53073000D02*
X234603848Y-52073000D01*
X234603848Y-52073000D02*
X233703848Y-52573000D01*
X233703848Y-52573000D02*
X234603848Y-53073000D01*
X233603848Y-53073000D02*
X233603848Y-52073000D01*
X237803849Y-50891001D02*
G75*
G03*
X239903848Y-48990999I100000J1999999D01*
G01*
X234403848Y-47291000D02*
G75*
G03*
X236620166Y-45412471I65001J2169999D01*
G01*
D15*
X234803848Y-47691000D02*
G75*
G03*
X237020166Y-45812471I65001J2169999D01*
G01*
D18*
X239803848Y-48341000D02*
X239803848Y-48991000D01*
D10*
X229603848Y-50891000D02*
X237803849Y-50891000D01*
D17*
X229753848Y-50691000D02*
X231003848Y-50691000D01*
D13*
X229803848Y-47541000D02*
X231103848Y-47591000D01*
D16*
X238173848Y-49391000D02*
X238173848Y-47151000D01*
D15*
X230103848Y-50291000D02*
X230103848Y-47791000D01*
D14*
X239303848Y-45891000D02*
X239303848Y-47690999D01*
D10*
X239653848Y-49841000D02*
X239653848Y-45391000D01*
X239903848Y-48991000D02*
X239903848Y-48241000D01*
X229623848Y-48291000D02*
X229623848Y-50541000D01*
X229603848Y-47291000D02*
X229603848Y-50891000D01*
X239903848Y-48241000D02*
X239703848Y-48241000D01*
X234403848Y-47291000D02*
X229603848Y-47291000D01*
D13*
X239453848Y-45591000D02*
X237003848Y-45591000D01*
D10*
X239653848Y-45391000D02*
X236623848Y-45391000D01*
D12*
X231403848Y-49091000D02*
X238103848Y-49091000D01*
X231403848Y-68181000D02*
X238103848Y-68181000D01*
D10*
X239653848Y-64481000D02*
X236623848Y-64481000D01*
D13*
X239453848Y-64681000D02*
X237003848Y-64681000D01*
D10*
X234403848Y-66381000D02*
X229603848Y-66381000D01*
X239903848Y-67331000D02*
X239703848Y-67331000D01*
X229603848Y-66381000D02*
X229603848Y-69981000D01*
X229623848Y-67381000D02*
X229623848Y-69631000D01*
X239903848Y-68081000D02*
X239903848Y-67331000D01*
X239653848Y-68931000D02*
X239653848Y-64481000D01*
D14*
X239303848Y-64981000D02*
X239303848Y-66780999D01*
D15*
X230103848Y-69381000D02*
X230103848Y-66881000D01*
D16*
X238173848Y-68481000D02*
X238173848Y-66241000D01*
D13*
X229803848Y-66631000D02*
X231103848Y-66681000D01*
D17*
X229753848Y-69781000D02*
X231003848Y-69781000D01*
D10*
X229603848Y-69981000D02*
X237803849Y-69981000D01*
D18*
X239803848Y-67431000D02*
X239803848Y-68081000D01*
D15*
X234803848Y-66781000D02*
G75*
G03*
X237020166Y-64902471I65001J2169999D01*
G01*
D10*
X234403848Y-66381000D02*
G75*
G03*
X236620166Y-64502471I65001J2169999D01*
G01*
X237803849Y-69981001D02*
G75*
G03*
X239903848Y-68080999I100000J1999999D01*
G01*
G36*
X237581000Y-38509205D02*
G01*
X240331000Y-38509205D01*
X240831000Y-39009205D01*
X240831000Y-42009205D01*
X240331000Y-42509205D01*
X237581000Y-42509205D01*
X235331000Y-40259205D01*
X232831000Y-40259205D01*
X232331000Y-39759205D01*
X232331000Y-36759205D01*
X232831000Y-36259205D01*
X235331000Y-36259205D01*
X237581000Y-38509205D01*
G37*
D11*
X237581000Y-38509205D02*
X240331000Y-38509205D01*
X240831000Y-39009205D01*
X240831000Y-42009205D01*
X240331000Y-42509205D01*
X237581000Y-42509205D01*
X235331000Y-40259205D01*
X232831000Y-40259205D01*
X232331000Y-39759205D01*
X232331000Y-36759205D01*
X232831000Y-36259205D01*
X235331000Y-36259205D01*
X237581000Y-38509205D01*
G36*
X237581000Y-57599205D02*
G01*
X240331000Y-57599205D01*
X240831000Y-58099205D01*
X240831000Y-61099205D01*
X240331000Y-61599205D01*
X237581000Y-61599205D01*
X235331000Y-59349205D01*
X232831000Y-59349205D01*
X232331000Y-58849205D01*
X232331000Y-55849205D01*
X232831000Y-55349205D01*
X235331000Y-55349205D01*
X237581000Y-57599205D01*
G37*
X237581000Y-57599205D02*
X240331000Y-57599205D01*
X240831000Y-58099205D01*
X240831000Y-61099205D01*
X240331000Y-61599205D01*
X237581000Y-61599205D01*
X235331000Y-59349205D01*
X232831000Y-59349205D01*
X232331000Y-58849205D01*
X232331000Y-55849205D01*
X232831000Y-55349205D01*
X235331000Y-55349205D01*
X237581000Y-57599205D01*
D12*
X231403848Y-87216000D02*
X238103848Y-87216000D01*
D10*
X239653848Y-83516000D02*
X236623848Y-83516000D01*
D13*
X239453848Y-83716000D02*
X237003848Y-83716000D01*
D10*
X234403848Y-85416000D02*
X229603848Y-85416000D01*
X239903848Y-86366000D02*
X239703848Y-86366000D01*
X229603848Y-85416000D02*
X229603848Y-89016000D01*
X229623848Y-86416000D02*
X229623848Y-88666000D01*
X239903848Y-87116000D02*
X239903848Y-86366000D01*
X239653848Y-87966000D02*
X239653848Y-83516000D01*
D14*
X239303848Y-84016000D02*
X239303848Y-85815999D01*
D15*
X230103848Y-88416000D02*
X230103848Y-85916000D01*
D16*
X238173848Y-87516000D02*
X238173848Y-85276000D01*
D13*
X229803848Y-85666000D02*
X231103848Y-85716000D01*
D17*
X229753848Y-88816000D02*
X231003848Y-88816000D01*
D10*
X229603848Y-89016000D02*
X237803849Y-89016000D01*
D18*
X239803848Y-86466000D02*
X239803848Y-87116000D01*
D15*
X234803848Y-85816000D02*
G75*
G03*
X237020166Y-83937471I65001J2169999D01*
G01*
D10*
X234403848Y-85416000D02*
G75*
G03*
X236620166Y-83537471I65001J2169999D01*
G01*
X237803849Y-89016001D02*
G75*
G03*
X239903848Y-87115999I100000J1999999D01*
G01*
G36*
X237581000Y-76634205D02*
G01*
X240331000Y-76634205D01*
X240831000Y-77134205D01*
X240831000Y-80134205D01*
X240331000Y-80634205D01*
X237581000Y-80634205D01*
X235331000Y-78384205D01*
X232831000Y-78384205D01*
X232331000Y-77884205D01*
X232331000Y-74884205D01*
X232831000Y-74384205D01*
X235331000Y-74384205D01*
X237581000Y-76634205D01*
G37*
D11*
X237581000Y-76634205D02*
X240331000Y-76634205D01*
X240831000Y-77134205D01*
X240831000Y-80134205D01*
X240331000Y-80634205D01*
X237581000Y-80634205D01*
X235331000Y-78384205D01*
X232831000Y-78384205D01*
X232331000Y-77884205D01*
X232331000Y-74884205D01*
X232831000Y-74384205D01*
X235331000Y-74384205D01*
X237581000Y-76634205D01*
G36*
X256483152Y-88565500D02*
G01*
X259233152Y-88565500D01*
X259733152Y-89065500D01*
X259733152Y-92065500D01*
X259233152Y-92565500D01*
X256483152Y-92565500D01*
X254233152Y-90315500D01*
X251733152Y-90315500D01*
X251233152Y-89815500D01*
X251233152Y-86815500D01*
X251733152Y-86315500D01*
X254233152Y-86315500D01*
X256483152Y-88565500D01*
G37*
X256483152Y-88565500D02*
X259233152Y-88565500D01*
X259733152Y-89065500D01*
X259733152Y-92065500D01*
X259233152Y-92565500D01*
X256483152Y-92565500D01*
X254233152Y-90315500D01*
X251733152Y-90315500D01*
X251233152Y-89815500D01*
X251233152Y-86815500D01*
X251733152Y-86315500D01*
X254233152Y-86315500D01*
X256483152Y-88565500D01*
D10*
X256706001Y-62822296D02*
G75*
G03*
X258806000Y-60922294I100000J1999999D01*
G01*
X253306000Y-59222295D02*
G75*
G03*
X255522318Y-57343766I65001J2169999D01*
G01*
D15*
X253706000Y-59622295D02*
G75*
G03*
X255922318Y-57743766I65001J2169999D01*
G01*
D18*
X258706000Y-60272295D02*
X258706000Y-60922295D01*
D10*
X248506000Y-62822295D02*
X256706001Y-62822295D01*
D17*
X248656000Y-62622295D02*
X249906000Y-62622295D01*
D13*
X248706000Y-59472295D02*
X250006000Y-59522295D01*
D16*
X257076000Y-61322295D02*
X257076000Y-59082295D01*
D15*
X249006000Y-62222295D02*
X249006000Y-59722295D01*
D14*
X258206000Y-57822295D02*
X258206000Y-59622294D01*
D10*
X258556000Y-61772295D02*
X258556000Y-57322295D01*
X258806000Y-60922295D02*
X258806000Y-60172295D01*
X248526000Y-60222295D02*
X248526000Y-62472295D01*
X248506000Y-59222295D02*
X248506000Y-62822295D01*
X258806000Y-60172295D02*
X258606000Y-60172295D01*
X253306000Y-59222295D02*
X248506000Y-59222295D01*
D13*
X258356000Y-57522295D02*
X255906000Y-57522295D01*
D10*
X258556000Y-57322295D02*
X255526000Y-57322295D01*
D12*
X250306000Y-61022295D02*
X257006000Y-61022295D01*
X250306000Y-80112295D02*
X257006000Y-80112295D01*
D10*
X258556000Y-76412295D02*
X255526000Y-76412295D01*
D13*
X258356000Y-76612295D02*
X255906000Y-76612295D01*
D10*
X253306000Y-78312295D02*
X248506000Y-78312295D01*
X258806000Y-79262295D02*
X258606000Y-79262295D01*
X248506000Y-78312295D02*
X248506000Y-81912295D01*
X248526000Y-79312295D02*
X248526000Y-81562295D01*
X258806000Y-80012295D02*
X258806000Y-79262295D01*
X258556000Y-80862295D02*
X258556000Y-76412295D01*
D14*
X258206000Y-76912295D02*
X258206000Y-78712294D01*
D15*
X249006000Y-81312295D02*
X249006000Y-78812295D01*
D16*
X257076000Y-80412295D02*
X257076000Y-78172295D01*
D13*
X248706000Y-78562295D02*
X250006000Y-78612295D01*
D17*
X248656000Y-81712295D02*
X249906000Y-81712295D01*
D10*
X248506000Y-81912295D02*
X256706001Y-81912295D01*
D18*
X258706000Y-79362295D02*
X258706000Y-80012295D01*
D15*
X253706000Y-78712295D02*
G75*
G03*
X255922318Y-76833766I65001J2169999D01*
G01*
D10*
X253306000Y-78312295D02*
G75*
G03*
X255522318Y-76433766I65001J2169999D01*
G01*
X256706001Y-81912296D02*
G75*
G03*
X258806000Y-80012294I100000J1999999D01*
G01*
G36*
X256483152Y-50440500D02*
G01*
X259233152Y-50440500D01*
X259733152Y-50940500D01*
X259733152Y-53940500D01*
X259233152Y-54440500D01*
X256483152Y-54440500D01*
X254233152Y-52190500D01*
X251733152Y-52190500D01*
X251233152Y-51690500D01*
X251233152Y-48690500D01*
X251733152Y-48190500D01*
X254233152Y-48190500D01*
X256483152Y-50440500D01*
G37*
D11*
X256483152Y-50440500D02*
X259233152Y-50440500D01*
X259733152Y-50940500D01*
X259733152Y-53940500D01*
X259233152Y-54440500D01*
X256483152Y-54440500D01*
X254233152Y-52190500D01*
X251733152Y-52190500D01*
X251233152Y-51690500D01*
X251233152Y-48690500D01*
X251733152Y-48190500D01*
X254233152Y-48190500D01*
X256483152Y-50440500D01*
D10*
X256706001Y-100947296D02*
G75*
G03*
X258806000Y-99047294I100000J1999999D01*
G01*
X253306000Y-97347295D02*
G75*
G03*
X255522318Y-95468766I65001J2169999D01*
G01*
D15*
X253706000Y-97747295D02*
G75*
G03*
X255922318Y-95868766I65001J2169999D01*
G01*
D18*
X258706000Y-98397295D02*
X258706000Y-99047295D01*
D10*
X248506000Y-100947295D02*
X256706001Y-100947295D01*
D17*
X248656000Y-100747295D02*
X249906000Y-100747295D01*
D13*
X248706000Y-97597295D02*
X250006000Y-97647295D01*
D16*
X257076000Y-99447295D02*
X257076000Y-97207295D01*
D15*
X249006000Y-100347295D02*
X249006000Y-97847295D01*
D14*
X258206000Y-95947295D02*
X258206000Y-97747294D01*
D10*
X258556000Y-99897295D02*
X258556000Y-95447295D01*
X258806000Y-99047295D02*
X258806000Y-98297295D01*
X248526000Y-98347295D02*
X248526000Y-100597295D01*
X248506000Y-97347295D02*
X248506000Y-100947295D01*
X258806000Y-98297295D02*
X258606000Y-98297295D01*
X253306000Y-97347295D02*
X248506000Y-97347295D01*
D13*
X258356000Y-95647295D02*
X255906000Y-95647295D01*
D10*
X258556000Y-95447295D02*
X255526000Y-95447295D01*
D12*
X250306000Y-99147295D02*
X257006000Y-99147295D01*
D10*
X252506000Y-65004295D02*
X252506000Y-64004295D01*
X252606000Y-64504295D02*
X253506000Y-65004295D01*
X253506000Y-64004295D02*
X252606000Y-64504295D01*
X253506000Y-65004295D02*
X253506000Y-64004295D01*
G36*
X256483152Y-69530500D02*
G01*
X259233152Y-69530500D01*
X259733152Y-70030500D01*
X259733152Y-73030500D01*
X259233152Y-73530500D01*
X256483152Y-73530500D01*
X254233152Y-71280500D01*
X251733152Y-71280500D01*
X251233152Y-70780500D01*
X251233152Y-67780500D01*
X251733152Y-67280500D01*
X254233152Y-67280500D01*
X256483152Y-69530500D01*
G37*
D11*
X256483152Y-69530500D02*
X259233152Y-69530500D01*
X259733152Y-70030500D01*
X259733152Y-73030500D01*
X259233152Y-73530500D01*
X256483152Y-73530500D01*
X254233152Y-71280500D01*
X251733152Y-71280500D01*
X251233152Y-70780500D01*
X251233152Y-67780500D01*
X251733152Y-67280500D01*
X254233152Y-67280500D01*
X256483152Y-69530500D01*
D10*
X165961000Y-109559295D02*
G75*
G03*
X164788953Y-112457575I1270000J-2199705D01*
G01*
X160438943Y-107614813D02*
G75*
G03*
X159509239Y-111084517I1270000J-2199704D01*
G01*
X168927152Y-102696822D02*
X169793178Y-102196822D01*
X176793178Y-114321178D02*
X176293178Y-113455152D01*
X157668822Y-109196822D02*
X158168822Y-110062848D01*
X164168822Y-120455152D02*
X164668822Y-121321178D01*
X164779473Y-112441155D02*
X163283988Y-113304574D01*
X157668822Y-109196822D02*
X158534848Y-108696822D01*
X159509239Y-111084517D02*
X159699739Y-111414473D01*
X165534848Y-120821178D02*
X164668822Y-121321178D01*
X169852409Y-106139414D02*
X170360409Y-107019295D01*
X161744194Y-114193574D02*
X161414239Y-114384074D01*
X160438943Y-107614813D02*
X168137909Y-103169813D01*
X170293178Y-103062848D02*
X169793178Y-102196822D01*
X161223739Y-114054118D02*
X161414239Y-114384074D01*
X170360409Y-107019295D02*
X165961000Y-109559295D01*
X168137909Y-103169813D02*
X168328409Y-103499768D01*
X176793178Y-114321178D02*
X175927152Y-114821178D01*
D11*
X164490000Y-99663000D02*
X164790000Y-99663000D01*
X166990000Y-96363000D02*
X167290000Y-96363000D01*
X167290000Y-96363000D02*
X167290000Y-99663000D01*
X164790000Y-96363000D02*
X164490000Y-96363000D01*
X164490000Y-96363000D02*
X164490000Y-99663000D01*
X167290000Y-99663000D02*
X166990000Y-99663000D01*
D10*
X180979039Y-104474528D02*
X180611021Y-104573138D01*
X190892822Y-95228605D02*
X191858747Y-94969786D01*
X182925178Y-111857395D02*
X181959253Y-112116214D01*
X180512411Y-104205120D02*
X180611021Y-104573138D01*
X195482214Y-108492747D02*
X195223395Y-107526822D01*
X181700433Y-111150288D02*
X181959253Y-112116214D01*
X190895543Y-98793367D02*
X191158503Y-99774748D01*
X178335786Y-98593253D02*
X179301712Y-98334433D01*
X192117567Y-95935712D02*
X191858747Y-94969786D01*
X191158503Y-99774748D02*
X186251600Y-101089548D01*
X179624920Y-100892961D02*
X179723530Y-101260978D01*
X190008052Y-95481207D02*
X190106662Y-95849225D01*
X181420972Y-97782109D02*
X190008052Y-95481207D01*
X184364452Y-103567409D02*
X182696455Y-104014348D01*
X195482214Y-108492747D02*
X194516288Y-108751567D01*
X178335786Y-98593253D02*
X178594605Y-99559178D01*
X181420972Y-97782107D02*
G75*
G03*
X179624920Y-100892961I657400J-2453453D01*
G01*
X186251600Y-101089548D02*
G75*
G03*
X184369359Y-103585723I657400J-2453452D01*
G01*
G36*
X105187978Y-104434504D02*
G01*
X106778969Y-107190179D01*
X109193783Y-107837227D01*
X109547336Y-108449600D01*
X108770879Y-111347377D01*
X108158507Y-111700930D01*
X105743692Y-111053883D01*
X104152702Y-108298207D01*
X101496406Y-107586454D01*
X101142853Y-106974082D01*
X101919310Y-104076305D01*
X102531682Y-103722751D01*
X105187978Y-104434504D01*
G37*
D11*
X105187978Y-104434504D02*
X106778969Y-107190179D01*
X109193783Y-107837227D01*
X109547336Y-108449600D01*
X108770879Y-111347377D01*
X108158507Y-111700930D01*
X105743692Y-111053883D01*
X104152702Y-108298207D01*
X101496406Y-107586454D01*
X101142853Y-106974082D01*
X101919310Y-104076305D01*
X102531682Y-103722751D01*
X105187978Y-104434504D01*
G36*
X124784161Y-111640544D02*
G01*
X125607718Y-114714102D01*
X127772782Y-115964102D01*
X127955794Y-116647114D01*
X126455794Y-119245191D01*
X125772782Y-119428203D01*
X123607718Y-118178203D01*
X122784161Y-115104646D01*
X120402591Y-113729646D01*
X120219579Y-113046633D01*
X121719579Y-110448557D01*
X122402591Y-110265544D01*
X124784161Y-111640544D01*
G37*
X124784161Y-111640544D02*
X125607718Y-114714102D01*
X127772782Y-115964102D01*
X127955794Y-116647114D01*
X126455794Y-119245191D01*
X125772782Y-119428203D01*
X123607718Y-118178203D01*
X122784161Y-115104646D01*
X120402591Y-113729646D01*
X120219579Y-113046633D01*
X121719579Y-110448557D01*
X122402591Y-110265544D01*
X124784161Y-111640544D01*
G36*
X171041044Y-114770114D02*
G01*
X172541044Y-117368191D01*
X172358032Y-118051203D01*
X170192968Y-119301203D01*
X167119411Y-118477646D01*
X164737841Y-119852646D01*
X164054829Y-119669633D01*
X162554829Y-117071557D01*
X162737841Y-116388544D01*
X165119411Y-115013544D01*
X168192968Y-115837102D01*
X170358032Y-114587102D01*
X171041044Y-114770114D01*
G37*
X171041044Y-114770114D02*
X172541044Y-117368191D01*
X172358032Y-118051203D01*
X170192968Y-119301203D01*
X167119411Y-118477646D01*
X164737841Y-119852646D01*
X164054829Y-119669633D01*
X162554829Y-117071557D01*
X162737841Y-116388544D01*
X165119411Y-115013544D01*
X168192968Y-115837102D01*
X170358032Y-114587102D01*
X171041044Y-114770114D01*
G36*
X186751337Y-107761265D02*
G01*
X189166151Y-107114217D01*
X189778524Y-107467771D01*
X190554981Y-110365548D01*
X190201428Y-110977921D01*
X187786613Y-111624968D01*
X185030937Y-110033978D01*
X182374641Y-110745731D01*
X181762269Y-110392177D01*
X180985812Y-107494400D01*
X181339365Y-106882027D01*
X183995661Y-106170275D01*
X186751337Y-107761265D01*
G37*
X186751337Y-107761265D02*
X189166151Y-107114217D01*
X189778524Y-107467771D01*
X190554981Y-110365548D01*
X190201428Y-110977921D01*
X187786613Y-111624968D01*
X185030937Y-110033978D01*
X182374641Y-110745731D01*
X181762269Y-110392177D01*
X180985812Y-107494400D01*
X181339365Y-106882027D01*
X183995661Y-106170275D01*
X186751337Y-107761265D01*
D10*
X119261652Y-93500000D02*
X119261652Y-92500000D01*
X119261652Y-92500000D02*
X118361652Y-93000000D01*
X118361652Y-93000000D02*
X119261652Y-93500000D01*
X118261652Y-93500000D02*
X118261652Y-92500000D01*
X118261652Y-54500000D02*
X118261652Y-53500000D01*
X118361652Y-54000000D02*
X119261652Y-54500000D01*
X119261652Y-53500000D02*
X118361652Y-54000000D01*
X119261652Y-54500000D02*
X119261652Y-53500000D01*
X119336652Y-73500000D02*
X119336652Y-72500000D01*
X119336652Y-72500000D02*
X118436652Y-73000000D01*
X118436652Y-73000000D02*
X119336652Y-73500000D01*
X118336652Y-73500000D02*
X118336652Y-72500000D01*
G36*
X117488804Y-49278205D02*
G01*
X119988804Y-49278205D01*
X120488804Y-49778205D01*
X120488804Y-52778205D01*
X119988804Y-53278205D01*
X117488804Y-53278205D01*
X115238804Y-51028205D01*
X112488804Y-51028205D01*
X111988804Y-50528205D01*
X111988804Y-47528205D01*
X112488804Y-47028205D01*
X115238804Y-47028205D01*
X117488804Y-49278205D01*
G37*
D11*
X117488804Y-49278205D02*
X119988804Y-49278205D01*
X120488804Y-49778205D01*
X120488804Y-52778205D01*
X119988804Y-53278205D01*
X117488804Y-53278205D01*
X115238804Y-51028205D01*
X112488804Y-51028205D01*
X111988804Y-50528205D01*
X111988804Y-47528205D01*
X112488804Y-47028205D01*
X115238804Y-47028205D01*
X117488804Y-49278205D01*
D12*
X121261652Y-40510000D02*
X114561652Y-40510000D01*
D10*
X113011652Y-44210000D02*
X116041652Y-44210000D01*
D13*
X113211652Y-44010000D02*
X115661652Y-44010000D01*
D10*
X118261652Y-42310000D02*
X123061652Y-42310000D01*
X112761652Y-41360000D02*
X112961652Y-41360000D01*
X123061652Y-42310000D02*
X123061652Y-38710000D01*
X123041652Y-41310000D02*
X123041652Y-39060000D01*
X112761652Y-40610000D02*
X112761652Y-41360000D01*
X113011652Y-39760000D02*
X113011652Y-44210000D01*
D14*
X113361652Y-43710000D02*
X113361652Y-41910001D01*
D15*
X122561652Y-39310000D02*
X122561652Y-41810000D01*
D16*
X114491652Y-40210000D02*
X114491652Y-42450000D01*
D13*
X122861652Y-42060000D02*
X121561652Y-42010000D01*
D17*
X122911652Y-38910000D02*
X121661652Y-38910000D01*
D10*
X123061652Y-38710000D02*
X114861651Y-38710000D01*
D18*
X112861652Y-41260000D02*
X112861652Y-40610000D01*
D15*
X117861652Y-41910000D02*
G75*
G03*
X115645334Y-43788529I-65001J-2169999D01*
G01*
D10*
X118261652Y-42310000D02*
G75*
G03*
X116045334Y-44188529I-65001J-2169999D01*
G01*
X114861651Y-38709999D02*
G75*
G03*
X112761652Y-40610001I-100000J-1999999D01*
G01*
X114861651Y-57799999D02*
G75*
G03*
X112761652Y-59700001I-100000J-1999999D01*
G01*
X118261652Y-61400000D02*
G75*
G03*
X116045334Y-63278529I-65001J-2169999D01*
G01*
D15*
X117861652Y-61000000D02*
G75*
G03*
X115645334Y-62878529I-65001J-2169999D01*
G01*
D18*
X112861652Y-60350000D02*
X112861652Y-59700000D01*
D10*
X123061652Y-57800000D02*
X114861651Y-57800000D01*
D17*
X122911652Y-58000000D02*
X121661652Y-58000000D01*
D13*
X122861652Y-61150000D02*
X121561652Y-61100000D01*
D16*
X114491652Y-59300000D02*
X114491652Y-61540000D01*
D15*
X122561652Y-58400000D02*
X122561652Y-60900000D01*
D14*
X113361652Y-62800000D02*
X113361652Y-61000001D01*
D10*
X113011652Y-58850000D02*
X113011652Y-63300000D01*
X112761652Y-59700000D02*
X112761652Y-60450000D01*
X123041652Y-60400000D02*
X123041652Y-58150000D01*
X123061652Y-61400000D02*
X123061652Y-57800000D01*
X112761652Y-60450000D02*
X112961652Y-60450000D01*
X118261652Y-61400000D02*
X123061652Y-61400000D01*
D13*
X113211652Y-63100000D02*
X115661652Y-63100000D01*
D10*
X113011652Y-63300000D02*
X116041652Y-63300000D01*
D12*
X121261652Y-59600000D02*
X114561652Y-59600000D01*
G36*
X117488804Y-68368205D02*
G01*
X119988804Y-68368205D01*
X120488804Y-68868205D01*
X120488804Y-71868205D01*
X119988804Y-72368205D01*
X117488804Y-72368205D01*
X115238804Y-70118205D01*
X112488804Y-70118205D01*
X111988804Y-69618205D01*
X111988804Y-66618205D01*
X112488804Y-66118205D01*
X115238804Y-66118205D01*
X117488804Y-68368205D01*
G37*
D11*
X117488804Y-68368205D02*
X119988804Y-68368205D01*
X120488804Y-68868205D01*
X120488804Y-71868205D01*
X119988804Y-72368205D01*
X117488804Y-72368205D01*
X115238804Y-70118205D01*
X112488804Y-70118205D01*
X111988804Y-69618205D01*
X111988804Y-66618205D01*
X112488804Y-66118205D01*
X115238804Y-66118205D01*
X117488804Y-68368205D01*
G36*
X117488804Y-87403205D02*
G01*
X119988804Y-87403205D01*
X120488804Y-87903205D01*
X120488804Y-90903205D01*
X119988804Y-91403205D01*
X117488804Y-91403205D01*
X115238804Y-89153205D01*
X112488804Y-89153205D01*
X111988804Y-88653205D01*
X111988804Y-85653205D01*
X112488804Y-85153205D01*
X115238804Y-85153205D01*
X117488804Y-87403205D01*
G37*
X117488804Y-87403205D02*
X119988804Y-87403205D01*
X120488804Y-87903205D01*
X120488804Y-90903205D01*
X119988804Y-91403205D01*
X117488804Y-91403205D01*
X115238804Y-89153205D01*
X112488804Y-89153205D01*
X111988804Y-88653205D01*
X111988804Y-85653205D01*
X112488804Y-85153205D01*
X115238804Y-85153205D01*
X117488804Y-87403205D01*
D10*
X114861651Y-76834999D02*
G75*
G03*
X112761652Y-78735001I-100000J-1999999D01*
G01*
X118261652Y-80435000D02*
G75*
G03*
X116045334Y-82313529I-65001J-2169999D01*
G01*
D15*
X117861652Y-80035000D02*
G75*
G03*
X115645334Y-81913529I-65001J-2169999D01*
G01*
D18*
X112861652Y-79385000D02*
X112861652Y-78735000D01*
D10*
X123061652Y-76835000D02*
X114861651Y-76835000D01*
D17*
X122911652Y-77035000D02*
X121661652Y-77035000D01*
D13*
X122861652Y-80185000D02*
X121561652Y-80135000D01*
D16*
X114491652Y-78335000D02*
X114491652Y-80575000D01*
D15*
X122561652Y-77435000D02*
X122561652Y-79935000D01*
D14*
X113361652Y-81835000D02*
X113361652Y-80035001D01*
D10*
X113011652Y-77885000D02*
X113011652Y-82335000D01*
X112761652Y-78735000D02*
X112761652Y-79485000D01*
X123041652Y-79435000D02*
X123041652Y-77185000D01*
X123061652Y-80435000D02*
X123061652Y-76835000D01*
X112761652Y-79485000D02*
X112961652Y-79485000D01*
X118261652Y-80435000D02*
X123061652Y-80435000D01*
D13*
X113211652Y-82135000D02*
X115661652Y-82135000D01*
D10*
X113011652Y-82335000D02*
X116041652Y-82335000D01*
D12*
X121261652Y-78635000D02*
X114561652Y-78635000D01*
D10*
X100261652Y-90500000D02*
X100261652Y-89500000D01*
X100261652Y-89500000D02*
X99361652Y-90000000D01*
X99361652Y-90000000D02*
X100261652Y-90500000D01*
X99261652Y-90500000D02*
X99261652Y-89500000D01*
X99261652Y-52500000D02*
X99261652Y-51500000D01*
X99361652Y-52000000D02*
X100261652Y-52500000D01*
X100261652Y-51500000D02*
X99361652Y-52000000D01*
X100261652Y-52500000D02*
X100261652Y-51500000D01*
X100336652Y-71500000D02*
X100336652Y-70500000D01*
X100336652Y-70500000D02*
X99436652Y-71000000D01*
X99436652Y-71000000D02*
X100336652Y-71500000D01*
X99336652Y-71500000D02*
X99336652Y-70500000D01*
G36*
X98488804Y-46753205D02*
G01*
X100988804Y-46753205D01*
X101488804Y-47253205D01*
X101488804Y-50253205D01*
X100988804Y-50753205D01*
X98488804Y-50753205D01*
X96238804Y-48503205D01*
X93488804Y-48503205D01*
X92988804Y-48003205D01*
X92988804Y-45003205D01*
X93488804Y-44503205D01*
X96238804Y-44503205D01*
X98488804Y-46753205D01*
G37*
D11*
X98488804Y-46753205D02*
X100988804Y-46753205D01*
X101488804Y-47253205D01*
X101488804Y-50253205D01*
X100988804Y-50753205D01*
X98488804Y-50753205D01*
X96238804Y-48503205D01*
X93488804Y-48503205D01*
X92988804Y-48003205D01*
X92988804Y-45003205D01*
X93488804Y-44503205D01*
X96238804Y-44503205D01*
X98488804Y-46753205D01*
D12*
X102261652Y-37985000D02*
X95561652Y-37985000D01*
D10*
X94011652Y-41685000D02*
X97041652Y-41685000D01*
D13*
X94211652Y-41485000D02*
X96661652Y-41485000D01*
D10*
X99261652Y-39785000D02*
X104061652Y-39785000D01*
X93761652Y-38835000D02*
X93961652Y-38835000D01*
X104061652Y-39785000D02*
X104061652Y-36185000D01*
X104041652Y-38785000D02*
X104041652Y-36535000D01*
X93761652Y-38085000D02*
X93761652Y-38835000D01*
X94011652Y-37235000D02*
X94011652Y-41685000D01*
D14*
X94361652Y-41185000D02*
X94361652Y-39385001D01*
D15*
X103561652Y-36785000D02*
X103561652Y-39285000D01*
D16*
X95491652Y-37685000D02*
X95491652Y-39925000D01*
D13*
X103861652Y-39535000D02*
X102561652Y-39485000D01*
D17*
X103911652Y-36385000D02*
X102661652Y-36385000D01*
D10*
X104061652Y-36185000D02*
X95861651Y-36185000D01*
D18*
X93861652Y-38735000D02*
X93861652Y-38085000D01*
D15*
X98861652Y-39385000D02*
G75*
G03*
X96645334Y-41263529I-65001J-2169999D01*
G01*
D10*
X99261652Y-39785000D02*
G75*
G03*
X97045334Y-41663529I-65001J-2169999D01*
G01*
X95861651Y-36184999D02*
G75*
G03*
X93761652Y-38085001I-100000J-1999999D01*
G01*
D12*
X102261652Y-57075000D02*
X95561652Y-57075000D01*
D10*
X94011652Y-60775000D02*
X97041652Y-60775000D01*
D13*
X94211652Y-60575000D02*
X96661652Y-60575000D01*
D10*
X99261652Y-58875000D02*
X104061652Y-58875000D01*
X93761652Y-57925000D02*
X93961652Y-57925000D01*
X104061652Y-58875000D02*
X104061652Y-55275000D01*
X104041652Y-57875000D02*
X104041652Y-55625000D01*
X93761652Y-57175000D02*
X93761652Y-57925000D01*
X94011652Y-56325000D02*
X94011652Y-60775000D01*
D14*
X94361652Y-60275000D02*
X94361652Y-58475001D01*
D15*
X103561652Y-55875000D02*
X103561652Y-58375000D01*
D16*
X95491652Y-56775000D02*
X95491652Y-59015000D01*
D13*
X103861652Y-58625000D02*
X102561652Y-58575000D01*
D17*
X103911652Y-55475000D02*
X102661652Y-55475000D01*
D10*
X104061652Y-55275000D02*
X95861651Y-55275000D01*
D18*
X93861652Y-57825000D02*
X93861652Y-57175000D01*
D15*
X98861652Y-58475000D02*
G75*
G03*
X96645334Y-60353529I-65001J-2169999D01*
G01*
D10*
X99261652Y-58875000D02*
G75*
G03*
X97045334Y-60753529I-65001J-2169999D01*
G01*
X95861651Y-55274999D02*
G75*
G03*
X93761652Y-57175001I-100000J-1999999D01*
G01*
G36*
X98488804Y-65843205D02*
G01*
X100988804Y-65843205D01*
X101488804Y-66343205D01*
X101488804Y-69343205D01*
X100988804Y-69843205D01*
X98488804Y-69843205D01*
X96238804Y-67593205D01*
X93488804Y-67593205D01*
X92988804Y-67093205D01*
X92988804Y-64093205D01*
X93488804Y-63593205D01*
X96238804Y-63593205D01*
X98488804Y-65843205D01*
G37*
D11*
X98488804Y-65843205D02*
X100988804Y-65843205D01*
X101488804Y-66343205D01*
X101488804Y-69343205D01*
X100988804Y-69843205D01*
X98488804Y-69843205D01*
X96238804Y-67593205D01*
X93488804Y-67593205D01*
X92988804Y-67093205D01*
X92988804Y-64093205D01*
X93488804Y-63593205D01*
X96238804Y-63593205D01*
X98488804Y-65843205D01*
G36*
X98488804Y-84878205D02*
G01*
X100988804Y-84878205D01*
X101488804Y-85378205D01*
X101488804Y-88378205D01*
X100988804Y-88878205D01*
X98488804Y-88878205D01*
X96238804Y-86628205D01*
X93488804Y-86628205D01*
X92988804Y-86128205D01*
X92988804Y-83128205D01*
X93488804Y-82628205D01*
X96238804Y-82628205D01*
X98488804Y-84878205D01*
G37*
X98488804Y-84878205D02*
X100988804Y-84878205D01*
X101488804Y-85378205D01*
X101488804Y-88378205D01*
X100988804Y-88878205D01*
X98488804Y-88878205D01*
X96238804Y-86628205D01*
X93488804Y-86628205D01*
X92988804Y-86128205D01*
X92988804Y-83128205D01*
X93488804Y-82628205D01*
X96238804Y-82628205D01*
X98488804Y-84878205D01*
D12*
X102261652Y-76110000D02*
X95561652Y-76110000D01*
D10*
X94011652Y-79810000D02*
X97041652Y-79810000D01*
D13*
X94211652Y-79610000D02*
X96661652Y-79610000D01*
D10*
X99261652Y-77910000D02*
X104061652Y-77910000D01*
X93761652Y-76960000D02*
X93961652Y-76960000D01*
X104061652Y-77910000D02*
X104061652Y-74310000D01*
X104041652Y-76910000D02*
X104041652Y-74660000D01*
X93761652Y-76210000D02*
X93761652Y-76960000D01*
X94011652Y-75360000D02*
X94011652Y-79810000D01*
D14*
X94361652Y-79310000D02*
X94361652Y-77510001D01*
D15*
X103561652Y-74910000D02*
X103561652Y-77410000D01*
D16*
X95491652Y-75810000D02*
X95491652Y-78050000D01*
D13*
X103861652Y-77660000D02*
X102561652Y-77610000D01*
D17*
X103911652Y-74510000D02*
X102661652Y-74510000D01*
D10*
X104061652Y-74310000D02*
X95861651Y-74310000D01*
D18*
X93861652Y-76860000D02*
X93861652Y-76210000D01*
D15*
X98861652Y-77510000D02*
G75*
G03*
X96645334Y-79388529I-65001J-2169999D01*
G01*
D10*
X99261652Y-77910000D02*
G75*
G03*
X97045334Y-79788529I-65001J-2169999D01*
G01*
X95861651Y-74309999D02*
G75*
G03*
X93761652Y-76210001I-100000J-1999999D01*
G01*
G36*
X79498804Y-80286205D02*
G01*
X81998804Y-80286205D01*
X82498804Y-80786205D01*
X82498804Y-83786205D01*
X81998804Y-84286205D01*
X79498804Y-84286205D01*
X77248804Y-82036205D01*
X74498804Y-82036205D01*
X73998804Y-81536205D01*
X73998804Y-78536205D01*
X74498804Y-78036205D01*
X77248804Y-78036205D01*
X79498804Y-80286205D01*
G37*
D11*
X79498804Y-80286205D02*
X81998804Y-80286205D01*
X82498804Y-80786205D01*
X82498804Y-83786205D01*
X81998804Y-84286205D01*
X79498804Y-84286205D01*
X77248804Y-82036205D01*
X74498804Y-82036205D01*
X73998804Y-81536205D01*
X73998804Y-78536205D01*
X74498804Y-78036205D01*
X77248804Y-78036205D01*
X79498804Y-80286205D01*
D12*
X83271652Y-52483000D02*
X76571652Y-52483000D01*
D10*
X75021652Y-56183000D02*
X78051652Y-56183000D01*
D13*
X75221652Y-55983000D02*
X77671652Y-55983000D01*
D10*
X80271652Y-54283000D02*
X85071652Y-54283000D01*
X74771652Y-53333000D02*
X74971652Y-53333000D01*
X85071652Y-54283000D02*
X85071652Y-50683000D01*
X85051652Y-53283000D02*
X85051652Y-51033000D01*
X74771652Y-52583000D02*
X74771652Y-53333000D01*
X75021652Y-51733000D02*
X75021652Y-56183000D01*
D14*
X75371652Y-55683000D02*
X75371652Y-53883001D01*
D15*
X84571652Y-51283000D02*
X84571652Y-53783000D01*
D16*
X76501652Y-52183000D02*
X76501652Y-54423000D01*
D13*
X84871652Y-54033000D02*
X83571652Y-53983000D01*
D17*
X84921652Y-50883000D02*
X83671652Y-50883000D01*
D10*
X85071652Y-50683000D02*
X76871651Y-50683000D01*
D18*
X74871652Y-53233000D02*
X74871652Y-52583000D01*
D15*
X79871652Y-53883000D02*
G75*
G03*
X77655334Y-55761529I-65001J-2169999D01*
G01*
D10*
X80271652Y-54283000D02*
G75*
G03*
X78055334Y-56161529I-65001J-2169999D01*
G01*
X76871651Y-50682999D02*
G75*
G03*
X74771652Y-52583001I-100000J-1999999D01*
G01*
D12*
X83271652Y-33393000D02*
X76571652Y-33393000D01*
D10*
X75021652Y-37093000D02*
X78051652Y-37093000D01*
D13*
X75221652Y-36893000D02*
X77671652Y-36893000D01*
D10*
X80271652Y-35193000D02*
X85071652Y-35193000D01*
X74771652Y-34243000D02*
X74971652Y-34243000D01*
X85071652Y-35193000D02*
X85071652Y-31593000D01*
X85051652Y-34193000D02*
X85051652Y-31943000D01*
X74771652Y-33493000D02*
X74771652Y-34243000D01*
X75021652Y-32643000D02*
X75021652Y-37093000D01*
D14*
X75371652Y-36593000D02*
X75371652Y-34793001D01*
D15*
X84571652Y-32193000D02*
X84571652Y-34693000D01*
D16*
X76501652Y-33093000D02*
X76501652Y-35333000D01*
D13*
X84871652Y-34943000D02*
X83571652Y-34893000D01*
D17*
X84921652Y-31793000D02*
X83671652Y-31793000D01*
D10*
X85071652Y-31593000D02*
X76871651Y-31593000D01*
D18*
X74871652Y-34143000D02*
X74871652Y-33493000D01*
D15*
X79871652Y-34793000D02*
G75*
G03*
X77655334Y-36671529I-65001J-2169999D01*
G01*
D10*
X80271652Y-35193000D02*
G75*
G03*
X78055334Y-37071529I-65001J-2169999D01*
G01*
X76871651Y-31592999D02*
G75*
G03*
X74771652Y-33493001I-100000J-1999999D01*
G01*
G36*
X79498804Y-42161205D02*
G01*
X81998804Y-42161205D01*
X82498804Y-42661205D01*
X82498804Y-45661205D01*
X81998804Y-46161205D01*
X79498804Y-46161205D01*
X77248804Y-43911205D01*
X74498804Y-43911205D01*
X73998804Y-43411205D01*
X73998804Y-40411205D01*
X74498804Y-39911205D01*
X77248804Y-39911205D01*
X79498804Y-42161205D01*
G37*
D11*
X79498804Y-42161205D02*
X81998804Y-42161205D01*
X82498804Y-42661205D01*
X82498804Y-45661205D01*
X81998804Y-46161205D01*
X79498804Y-46161205D01*
X77248804Y-43911205D01*
X74498804Y-43911205D01*
X73998804Y-43411205D01*
X73998804Y-40411205D01*
X74498804Y-39911205D01*
X77248804Y-39911205D01*
X79498804Y-42161205D01*
G36*
X79498804Y-61251205D02*
G01*
X81998804Y-61251205D01*
X82498804Y-61751205D01*
X82498804Y-64751205D01*
X81998804Y-65251205D01*
X79498804Y-65251205D01*
X77248804Y-63001205D01*
X74498804Y-63001205D01*
X73998804Y-62501205D01*
X73998804Y-59501205D01*
X74498804Y-59001205D01*
X77248804Y-59001205D01*
X79498804Y-61251205D01*
G37*
X79498804Y-61251205D02*
X81998804Y-61251205D01*
X82498804Y-61751205D01*
X82498804Y-64751205D01*
X81998804Y-65251205D01*
X79498804Y-65251205D01*
X77248804Y-63001205D01*
X74498804Y-63001205D01*
X73998804Y-62501205D01*
X73998804Y-59501205D01*
X74498804Y-59001205D01*
X77248804Y-59001205D01*
X79498804Y-61251205D01*
D10*
X81500000Y-85500000D02*
X81500000Y-84500000D01*
X81500000Y-84500000D02*
X80600000Y-85000000D01*
X80600000Y-85000000D02*
X81500000Y-85500000D01*
X80500000Y-85500000D02*
X80500000Y-84500000D01*
D12*
X83271652Y-71518000D02*
X76571652Y-71518000D01*
D10*
X75021652Y-75218000D02*
X78051652Y-75218000D01*
D13*
X75221652Y-75018000D02*
X77671652Y-75018000D01*
D10*
X80271652Y-73318000D02*
X85071652Y-73318000D01*
X74771652Y-72368000D02*
X74971652Y-72368000D01*
X85071652Y-73318000D02*
X85071652Y-69718000D01*
X85051652Y-72318000D02*
X85051652Y-70068000D01*
X74771652Y-71618000D02*
X74771652Y-72368000D01*
X75021652Y-70768000D02*
X75021652Y-75218000D01*
D14*
X75371652Y-74718000D02*
X75371652Y-72918001D01*
D15*
X84571652Y-70318000D02*
X84571652Y-72818000D01*
D16*
X76501652Y-71218000D02*
X76501652Y-73458000D01*
D13*
X84871652Y-73068000D02*
X83571652Y-73018000D01*
D17*
X84921652Y-69918000D02*
X83671652Y-69918000D01*
D10*
X85071652Y-69718000D02*
X76871651Y-69718000D01*
D18*
X74871652Y-72268000D02*
X74871652Y-71618000D01*
D15*
X79871652Y-72918000D02*
G75*
G03*
X77655334Y-74796529I-65001J-2169999D01*
G01*
D10*
X80271652Y-73318000D02*
G75*
G03*
X78055334Y-75196529I-65001J-2169999D01*
G01*
X76871651Y-69717999D02*
G75*
G03*
X74771652Y-71618001I-100000J-1999999D01*
G01*
X81346652Y-67500000D02*
X81346652Y-66500000D01*
X81346652Y-66500000D02*
X80446652Y-67000000D01*
X80446652Y-67000000D02*
X81346652Y-67500000D01*
X80346652Y-67500000D02*
X80346652Y-66500000D01*
X80271652Y-48500000D02*
X80271652Y-47500000D01*
X80371652Y-48000000D02*
X81271652Y-48500000D01*
X81271652Y-47500000D02*
X80371652Y-48000000D01*
X81271652Y-48500000D02*
X81271652Y-47500000D01*
G36*
X60498804Y-86536205D02*
G01*
X62998804Y-86536205D01*
X63498804Y-87036205D01*
X63498804Y-90036205D01*
X62998804Y-90536205D01*
X60498804Y-90536205D01*
X58248804Y-88286205D01*
X55498804Y-88286205D01*
X54998804Y-87786205D01*
X54998804Y-84786205D01*
X55498804Y-84286205D01*
X58248804Y-84286205D01*
X60498804Y-86536205D01*
G37*
D11*
X60498804Y-86536205D02*
X62998804Y-86536205D01*
X63498804Y-87036205D01*
X63498804Y-90036205D01*
X62998804Y-90536205D01*
X60498804Y-90536205D01*
X58248804Y-88286205D01*
X55498804Y-88286205D01*
X54998804Y-87786205D01*
X54998804Y-84786205D01*
X55498804Y-84286205D01*
X58248804Y-84286205D01*
X60498804Y-86536205D01*
D12*
X64271652Y-58733000D02*
X57571652Y-58733000D01*
D10*
X56021652Y-62433000D02*
X59051652Y-62433000D01*
D13*
X56221652Y-62233000D02*
X58671652Y-62233000D01*
D10*
X61271652Y-60533000D02*
X66071652Y-60533000D01*
X55771652Y-59583000D02*
X55971652Y-59583000D01*
X66071652Y-60533000D02*
X66071652Y-56933000D01*
X66051652Y-59533000D02*
X66051652Y-57283000D01*
X55771652Y-58833000D02*
X55771652Y-59583000D01*
X56021652Y-57983000D02*
X56021652Y-62433000D01*
D14*
X56371652Y-61933000D02*
X56371652Y-60133001D01*
D15*
X65571652Y-57533000D02*
X65571652Y-60033000D01*
D16*
X57501652Y-58433000D02*
X57501652Y-60673000D01*
D13*
X65871652Y-60283000D02*
X64571652Y-60233000D01*
D17*
X65921652Y-57133000D02*
X64671652Y-57133000D01*
D10*
X66071652Y-56933000D02*
X57871651Y-56933000D01*
D18*
X55871652Y-59483000D02*
X55871652Y-58833000D01*
D15*
X60871652Y-60133000D02*
G75*
G03*
X58655334Y-62011529I-65001J-2169999D01*
G01*
D10*
X61271652Y-60533000D02*
G75*
G03*
X59055334Y-62411529I-65001J-2169999D01*
G01*
X57871651Y-56932999D02*
G75*
G03*
X55771652Y-58833001I-100000J-1999999D01*
G01*
D12*
X64271652Y-39643000D02*
X57571652Y-39643000D01*
D10*
X56021652Y-43343000D02*
X59051652Y-43343000D01*
D13*
X56221652Y-43143000D02*
X58671652Y-43143000D01*
D10*
X61271652Y-41443000D02*
X66071652Y-41443000D01*
X55771652Y-40493000D02*
X55971652Y-40493000D01*
X66071652Y-41443000D02*
X66071652Y-37843000D01*
X66051652Y-40443000D02*
X66051652Y-38193000D01*
X55771652Y-39743000D02*
X55771652Y-40493000D01*
X56021652Y-38893000D02*
X56021652Y-43343000D01*
D14*
X56371652Y-42843000D02*
X56371652Y-41043001D01*
D15*
X65571652Y-38443000D02*
X65571652Y-40943000D01*
D16*
X57501652Y-39343000D02*
X57501652Y-41583000D01*
D13*
X65871652Y-41193000D02*
X64571652Y-41143000D01*
D17*
X65921652Y-38043000D02*
X64671652Y-38043000D01*
D10*
X66071652Y-37843000D02*
X57871651Y-37843000D01*
D18*
X55871652Y-40393000D02*
X55871652Y-39743000D01*
D15*
X60871652Y-41043000D02*
G75*
G03*
X58655334Y-42921529I-65001J-2169999D01*
G01*
D10*
X61271652Y-41443000D02*
G75*
G03*
X59055334Y-43321529I-65001J-2169999D01*
G01*
X57871651Y-37842999D02*
G75*
G03*
X55771652Y-39743001I-100000J-1999999D01*
G01*
G36*
X60498804Y-48411205D02*
G01*
X62998804Y-48411205D01*
X63498804Y-48911205D01*
X63498804Y-51911205D01*
X62998804Y-52411205D01*
X60498804Y-52411205D01*
X58248804Y-50161205D01*
X55498804Y-50161205D01*
X54998804Y-49661205D01*
X54998804Y-46661205D01*
X55498804Y-46161205D01*
X58248804Y-46161205D01*
X60498804Y-48411205D01*
G37*
D11*
X60498804Y-48411205D02*
X62998804Y-48411205D01*
X63498804Y-48911205D01*
X63498804Y-51911205D01*
X62998804Y-52411205D01*
X60498804Y-52411205D01*
X58248804Y-50161205D01*
X55498804Y-50161205D01*
X54998804Y-49661205D01*
X54998804Y-46661205D01*
X55498804Y-46161205D01*
X58248804Y-46161205D01*
X60498804Y-48411205D01*
G36*
X60498804Y-67501205D02*
G01*
X62998804Y-67501205D01*
X63498804Y-68001205D01*
X63498804Y-71001205D01*
X62998804Y-71501205D01*
X60498804Y-71501205D01*
X58248804Y-69251205D01*
X55498804Y-69251205D01*
X54998804Y-68751205D01*
X54998804Y-65751205D01*
X55498804Y-65251205D01*
X58248804Y-65251205D01*
X60498804Y-67501205D01*
G37*
X60498804Y-67501205D02*
X62998804Y-67501205D01*
X63498804Y-68001205D01*
X63498804Y-71001205D01*
X62998804Y-71501205D01*
X60498804Y-71501205D01*
X58248804Y-69251205D01*
X55498804Y-69251205D01*
X54998804Y-68751205D01*
X54998804Y-65751205D01*
X55498804Y-65251205D01*
X58248804Y-65251205D01*
X60498804Y-67501205D01*
D10*
X62500000Y-92500000D02*
X62500000Y-91500000D01*
X62500000Y-91500000D02*
X61600000Y-92000000D01*
X61600000Y-92000000D02*
X62500000Y-92500000D01*
X61500000Y-92500000D02*
X61500000Y-91500000D01*
D12*
X64271652Y-77768000D02*
X57571652Y-77768000D01*
D10*
X56021652Y-81468000D02*
X59051652Y-81468000D01*
D13*
X56221652Y-81268000D02*
X58671652Y-81268000D01*
D10*
X61271652Y-79568000D02*
X66071652Y-79568000D01*
X55771652Y-78618000D02*
X55971652Y-78618000D01*
X66071652Y-79568000D02*
X66071652Y-75968000D01*
X66051652Y-78568000D02*
X66051652Y-76318000D01*
X55771652Y-77868000D02*
X55771652Y-78618000D01*
X56021652Y-77018000D02*
X56021652Y-81468000D01*
D14*
X56371652Y-80968000D02*
X56371652Y-79168001D01*
D15*
X65571652Y-76568000D02*
X65571652Y-79068000D01*
D16*
X57501652Y-77468000D02*
X57501652Y-79708000D01*
D13*
X65871652Y-79318000D02*
X64571652Y-79268000D01*
D17*
X65921652Y-76168000D02*
X64671652Y-76168000D01*
D10*
X66071652Y-75968000D02*
X57871651Y-75968000D01*
D18*
X55871652Y-78518000D02*
X55871652Y-77868000D01*
D15*
X60871652Y-79168000D02*
G75*
G03*
X58655334Y-81046529I-65001J-2169999D01*
G01*
D10*
X61271652Y-79568000D02*
G75*
G03*
X59055334Y-81446529I-65001J-2169999D01*
G01*
X57871651Y-75967999D02*
G75*
G03*
X55771652Y-77868001I-100000J-1999999D01*
G01*
X62346652Y-73500000D02*
X62346652Y-72500000D01*
X62346652Y-72500000D02*
X61446652Y-73000000D01*
X61446652Y-73000000D02*
X62346652Y-73500000D01*
X61346652Y-73500000D02*
X61346652Y-72500000D01*
X61271652Y-54500000D02*
X61271652Y-53500000D01*
X61371652Y-54000000D02*
X62271652Y-54500000D01*
X62271652Y-53500000D02*
X61371652Y-54000000D01*
X62271652Y-54500000D02*
X62271652Y-53500000D01*
G36*
X41596652Y-60342500D02*
G01*
X44096652Y-60342500D01*
X44596652Y-60842500D01*
X44596652Y-63842500D01*
X44096652Y-64342500D01*
X41596652Y-64342500D01*
X39346652Y-62092500D01*
X36596652Y-62092500D01*
X36096652Y-61592500D01*
X36096652Y-58592500D01*
X36596652Y-58092500D01*
X39346652Y-58092500D01*
X41596652Y-60342500D01*
G37*
D11*
X41596652Y-60342500D02*
X44096652Y-60342500D01*
X44596652Y-60842500D01*
X44596652Y-63842500D01*
X44096652Y-64342500D01*
X41596652Y-64342500D01*
X39346652Y-62092500D01*
X36596652Y-62092500D01*
X36096652Y-61592500D01*
X36096652Y-58592500D01*
X36596652Y-58092500D01*
X39346652Y-58092500D01*
X41596652Y-60342500D01*
D10*
X38969499Y-49774294D02*
G75*
G03*
X36869500Y-51674296I-100000J-1999999D01*
G01*
X42369500Y-53374295D02*
G75*
G03*
X40153182Y-55252824I-65001J-2169999D01*
G01*
D15*
X41969500Y-52974295D02*
G75*
G03*
X39753182Y-54852824I-65001J-2169999D01*
G01*
D18*
X36969500Y-52324295D02*
X36969500Y-51674295D01*
D10*
X47169500Y-49774295D02*
X38969499Y-49774295D01*
D17*
X47019500Y-49974295D02*
X45769500Y-49974295D01*
D13*
X46969500Y-53124295D02*
X45669500Y-53074295D01*
D16*
X38599500Y-51274295D02*
X38599500Y-53514295D01*
D15*
X46669500Y-50374295D02*
X46669500Y-52874295D01*
D14*
X37469500Y-54774295D02*
X37469500Y-52974296D01*
D10*
X37119500Y-50824295D02*
X37119500Y-55274295D01*
X36869500Y-51674295D02*
X36869500Y-52424295D01*
X47149500Y-52374295D02*
X47149500Y-50124295D01*
X47169500Y-53374295D02*
X47169500Y-49774295D01*
X36869500Y-52424295D02*
X37069500Y-52424295D01*
X42369500Y-53374295D02*
X47169500Y-53374295D01*
D13*
X37319500Y-55074295D02*
X39769500Y-55074295D01*
D10*
X37119500Y-55274295D02*
X40149500Y-55274295D01*
D12*
X45369500Y-51574295D02*
X38669500Y-51574295D01*
G36*
X41596652Y-79432500D02*
G01*
X44096652Y-79432500D01*
X44596652Y-79932500D01*
X44596652Y-82932500D01*
X44096652Y-83432500D01*
X41596652Y-83432500D01*
X39346652Y-81182500D01*
X36596652Y-81182500D01*
X36096652Y-80682500D01*
X36096652Y-77682500D01*
X36596652Y-77182500D01*
X39346652Y-77182500D01*
X41596652Y-79432500D01*
G37*
D11*
X41596652Y-79432500D02*
X44096652Y-79432500D01*
X44596652Y-79932500D01*
X44596652Y-82932500D01*
X44096652Y-83432500D01*
X41596652Y-83432500D01*
X39346652Y-81182500D01*
X36596652Y-81182500D01*
X36096652Y-80682500D01*
X36096652Y-77682500D01*
X36596652Y-77182500D01*
X39346652Y-77182500D01*
X41596652Y-79432500D01*
D12*
X45369500Y-70664295D02*
X38669500Y-70664295D01*
D10*
X37119500Y-74364295D02*
X40149500Y-74364295D01*
D13*
X37319500Y-74164295D02*
X39769500Y-74164295D01*
D10*
X42369500Y-72464295D02*
X47169500Y-72464295D01*
X36869500Y-71514295D02*
X37069500Y-71514295D01*
X47169500Y-72464295D02*
X47169500Y-68864295D01*
X47149500Y-71464295D02*
X47149500Y-69214295D01*
X36869500Y-70764295D02*
X36869500Y-71514295D01*
X37119500Y-69914295D02*
X37119500Y-74364295D01*
D14*
X37469500Y-73864295D02*
X37469500Y-72064296D01*
D15*
X46669500Y-69464295D02*
X46669500Y-71964295D01*
D16*
X38599500Y-70364295D02*
X38599500Y-72604295D01*
D13*
X46969500Y-72214295D02*
X45669500Y-72164295D01*
D17*
X47019500Y-69064295D02*
X45769500Y-69064295D01*
D10*
X47169500Y-68864295D02*
X38969499Y-68864295D01*
D18*
X36969500Y-71414295D02*
X36969500Y-70764295D01*
D15*
X41969500Y-72064295D02*
G75*
G03*
X39753182Y-73942824I-65001J-2169999D01*
G01*
D10*
X42369500Y-72464295D02*
G75*
G03*
X40153182Y-74342824I-65001J-2169999D01*
G01*
X38969499Y-68864294D02*
G75*
G03*
X36869500Y-70764296I-100000J-1999999D01*
G01*
G36*
X41596652Y-98467500D02*
G01*
X44096652Y-98467500D01*
X44596652Y-98967500D01*
X44596652Y-101967500D01*
X44096652Y-102467500D01*
X41596652Y-102467500D01*
X39346652Y-100217500D01*
X36596652Y-100217500D01*
X36096652Y-99717500D01*
X36096652Y-96717500D01*
X36596652Y-96217500D01*
X39346652Y-96217500D01*
X41596652Y-98467500D01*
G37*
D11*
X41596652Y-98467500D02*
X44096652Y-98467500D01*
X44596652Y-98967500D01*
X44596652Y-101967500D01*
X44096652Y-102467500D01*
X41596652Y-102467500D01*
X39346652Y-100217500D01*
X36596652Y-100217500D01*
X36096652Y-99717500D01*
X36096652Y-96717500D01*
X36596652Y-96217500D01*
X39346652Y-96217500D01*
X41596652Y-98467500D01*
X87822854Y-105222825D02*
G75*
G03*
X91159500Y-104236295I1306646J1716531D01*
G01*
X72494256Y-104244464D02*
G75*
G03*
X75819500Y-105206295I2015244J738169D01*
G01*
X90519500Y-89116295D02*
X92599500Y-91196295D01*
X92599500Y-100286295D02*
X91159500Y-104236295D01*
X71039500Y-100286295D02*
X72479500Y-104236295D01*
X73119500Y-89116295D02*
X76619500Y-89116295D01*
X92599500Y-99656295D02*
X92599500Y-100286295D01*
X92599500Y-91196295D02*
X92599500Y-93656295D01*
X71039500Y-91196295D02*
X71039500Y-93656295D01*
X73119500Y-89116295D02*
X71039500Y-91196295D01*
X71039500Y-99656295D02*
X71039500Y-100286295D01*
X87019500Y-89116295D02*
X90519500Y-89116295D01*
D10*
X42444500Y-85500000D02*
X42444500Y-84500000D01*
X42544500Y-85000000D02*
X43444500Y-85500000D01*
X43444500Y-84500000D02*
X42544500Y-85000000D01*
X43444500Y-85500000D02*
X43444500Y-84500000D01*
X42369500Y-103500000D02*
X42369500Y-102500000D01*
X42469500Y-103000000D02*
X43369500Y-103500000D01*
X43369500Y-102500000D02*
X42469500Y-103000000D01*
X43369500Y-103500000D02*
X43369500Y-102500000D01*
X38969499Y-87899294D02*
G75*
G03*
X36869500Y-89799296I-100000J-1999999D01*
G01*
X42369500Y-91499295D02*
G75*
G03*
X40153182Y-93377824I-65001J-2169999D01*
G01*
D15*
X41969500Y-91099295D02*
G75*
G03*
X39753182Y-92977824I-65001J-2169999D01*
G01*
D18*
X36969500Y-90449295D02*
X36969500Y-89799295D01*
D10*
X47169500Y-87899295D02*
X38969499Y-87899295D01*
D17*
X47019500Y-88099295D02*
X45769500Y-88099295D01*
D13*
X46969500Y-91249295D02*
X45669500Y-91199295D01*
D16*
X38599500Y-89399295D02*
X38599500Y-91639295D01*
D15*
X46669500Y-88499295D02*
X46669500Y-90999295D01*
D14*
X37469500Y-92899295D02*
X37469500Y-91099296D01*
D10*
X37119500Y-88949295D02*
X37119500Y-93399295D01*
X36869500Y-89799295D02*
X36869500Y-90549295D01*
X47149500Y-90499295D02*
X47149500Y-88249295D01*
X47169500Y-91499295D02*
X47169500Y-87899295D01*
X36869500Y-90549295D02*
X37069500Y-90549295D01*
X42369500Y-91499295D02*
X47169500Y-91499295D01*
D13*
X37319500Y-93199295D02*
X39769500Y-93199295D01*
D10*
X37119500Y-93399295D02*
X40149500Y-93399295D01*
D12*
X45369500Y-89699295D02*
X38669500Y-89699295D01*
D10*
X42369500Y-66500000D02*
X42369500Y-65500000D01*
X42469500Y-66000000D02*
X43369500Y-66500000D01*
X43369500Y-65500000D02*
X42469500Y-66000000D01*
X43369500Y-66500000D02*
X43369500Y-65500000D01*
X107146326Y-95961908D02*
G75*
G03*
X104035474Y-97757959I-657401J-2453450D01*
G01*
X109676052Y-101241548D02*
G75*
G03*
X106797897Y-102462179I-657399J-2453454D01*
G01*
X115733406Y-98262809D02*
X115634796Y-98630827D01*
X114582956Y-102556349D02*
X109676052Y-101241548D01*
X104068905Y-95121786D02*
X103810085Y-96087712D01*
X107146326Y-95961908D02*
X115733406Y-98262809D01*
X101411364Y-108903567D02*
X100445438Y-108644747D01*
X104035474Y-97757959D02*
X103936864Y-98125977D01*
X104068905Y-95121786D02*
X105034830Y-95380605D01*
X106802804Y-102443865D02*
X105134807Y-101996926D01*
X117333047Y-99711178D02*
X117591866Y-98745253D01*
X113968399Y-112268214D02*
X114227219Y-111302288D01*
X103147983Y-101070118D02*
X103049373Y-101438136D01*
X114845916Y-101574969D02*
X114582956Y-102556349D01*
X113968399Y-112268214D02*
X113002474Y-112009395D01*
X103417391Y-101536746D02*
X103049373Y-101438136D01*
X100704257Y-107678822D02*
X100445438Y-108644747D01*
X116625940Y-98486433D02*
X117591866Y-98745253D01*
X129966652Y-109711295D02*
G75*
G03*
X126870645Y-110145413I-1270000J-2199704D01*
G01*
X128889596Y-103956812D02*
G75*
G03*
X125419891Y-104886517I-1270000J-2199706D01*
G01*
X126134474Y-102348822D02*
X127000500Y-102848822D01*
X126880125Y-110128993D02*
X125384640Y-109265574D01*
X137392804Y-108848822D02*
X138258830Y-109348822D01*
X125419891Y-104886517D02*
X125229391Y-105216473D01*
X131258830Y-121473178D02*
X131758830Y-120607152D01*
X123844846Y-108376574D02*
X123514891Y-108186074D01*
X134874061Y-111371414D02*
X134366061Y-112251295D01*
X128889595Y-103956813D02*
X136588561Y-108401813D01*
X136588561Y-108401813D02*
X136398061Y-108731768D01*
X126134474Y-102348822D02*
X125634474Y-103214848D01*
X120000500Y-114973178D02*
X119134474Y-114473178D01*
X134366061Y-112251295D02*
X129966652Y-109711295D01*
X137758830Y-110214848D02*
X138258830Y-109348822D01*
X131258830Y-121473178D02*
X130392804Y-120973178D01*
X123705391Y-107856118D02*
X123514891Y-108186074D01*
X119634474Y-113607152D02*
X119134474Y-114473178D01*
D11*
X131135652Y-96515000D02*
X131435652Y-96515000D01*
X128635652Y-99815000D02*
X128935652Y-99815000D01*
X131435652Y-96515000D02*
X131435652Y-99815000D01*
X128935652Y-96515000D02*
X128635652Y-96515000D01*
X128635652Y-96515000D02*
X128635652Y-99815000D01*
X131435652Y-99815000D02*
X131135652Y-99815000D01*
D19*
X140000000Y-90000000D03*
X157075000Y-89900000D03*
X135000000Y-90000000D03*
X162000000Y-90000000D03*
%LPC*%
G36*
X176425000Y-102399038D02*
G01*
X175575000Y-102399038D01*
X175575000Y-101199038D01*
X176425000Y-101199038D01*
X176425000Y-102399038D01*
G37*
D20*
X176425000Y-102399038D02*
X175575000Y-102399038D01*
X175575000Y-101199038D01*
X176425000Y-101199038D01*
X176425000Y-102399038D01*
G36*
X176425000Y-105949038D02*
G01*
X175575000Y-105949038D01*
X175575000Y-104749038D01*
X176425000Y-104749038D01*
X176425000Y-105949038D01*
G37*
X176425000Y-105949038D02*
X175575000Y-105949038D01*
X175575000Y-104749038D01*
X176425000Y-104749038D01*
X176425000Y-105949038D01*
G36*
X255375000Y-103425000D02*
G01*
X254175000Y-103425000D01*
X254175000Y-102575000D01*
X255375000Y-102575000D01*
X255375000Y-103425000D01*
G37*
X255375000Y-103425000D02*
X254175000Y-103425000D01*
X254175000Y-102575000D01*
X255375000Y-102575000D01*
X255375000Y-103425000D01*
G36*
X251825000Y-103425000D02*
G01*
X250625000Y-103425000D01*
X250625000Y-102575000D01*
X251825000Y-102575000D01*
X251825000Y-103425000D01*
G37*
X251825000Y-103425000D02*
X250625000Y-103425000D01*
X250625000Y-102575000D01*
X251825000Y-102575000D01*
X251825000Y-103425000D01*
G36*
X236375000Y-91425000D02*
G01*
X235175000Y-91425000D01*
X235175000Y-90575000D01*
X236375000Y-90575000D01*
X236375000Y-91425000D01*
G37*
X236375000Y-91425000D02*
X235175000Y-91425000D01*
X235175000Y-90575000D01*
X236375000Y-90575000D01*
X236375000Y-91425000D01*
G36*
X232825000Y-91425000D02*
G01*
X231625000Y-91425000D01*
X231625000Y-90575000D01*
X232825000Y-90575000D01*
X232825000Y-91425000D01*
G37*
X232825000Y-91425000D02*
X231625000Y-91425000D01*
X231625000Y-90575000D01*
X232825000Y-90575000D01*
X232825000Y-91425000D01*
G36*
X217375000Y-85425000D02*
G01*
X216175000Y-85425000D01*
X216175000Y-84575000D01*
X217375000Y-84575000D01*
X217375000Y-85425000D01*
G37*
X217375000Y-85425000D02*
X216175000Y-85425000D01*
X216175000Y-84575000D01*
X217375000Y-84575000D01*
X217375000Y-85425000D01*
G36*
X213825000Y-85425000D02*
G01*
X212625000Y-85425000D01*
X212625000Y-84575000D01*
X213825000Y-84575000D01*
X213825000Y-85425000D01*
G37*
X213825000Y-85425000D02*
X212625000Y-85425000D01*
X212625000Y-84575000D01*
X213825000Y-84575000D01*
X213825000Y-85425000D01*
G36*
X198375000Y-89425000D02*
G01*
X197175000Y-89425000D01*
X197175000Y-88575000D01*
X198375000Y-88575000D01*
X198375000Y-89425000D01*
G37*
X198375000Y-89425000D02*
X197175000Y-89425000D01*
X197175000Y-88575000D01*
X198375000Y-88575000D01*
X198375000Y-89425000D01*
G36*
X194825000Y-89425000D02*
G01*
X193625000Y-89425000D01*
X193625000Y-88575000D01*
X194825000Y-88575000D01*
X194825000Y-89425000D01*
G37*
X194825000Y-89425000D02*
X193625000Y-89425000D01*
X193625000Y-88575000D01*
X194825000Y-88575000D01*
X194825000Y-89425000D01*
G36*
X255375000Y-85425000D02*
G01*
X254175000Y-85425000D01*
X254175000Y-84575000D01*
X255375000Y-84575000D01*
X255375000Y-85425000D01*
G37*
X255375000Y-85425000D02*
X254175000Y-85425000D01*
X254175000Y-84575000D01*
X255375000Y-84575000D01*
X255375000Y-85425000D01*
G36*
X251825000Y-85425000D02*
G01*
X250625000Y-85425000D01*
X250625000Y-84575000D01*
X251825000Y-84575000D01*
X251825000Y-85425000D01*
G37*
X251825000Y-85425000D02*
X250625000Y-85425000D01*
X250625000Y-84575000D01*
X251825000Y-84575000D01*
X251825000Y-85425000D01*
G36*
X236375000Y-73425000D02*
G01*
X235175000Y-73425000D01*
X235175000Y-72575000D01*
X236375000Y-72575000D01*
X236375000Y-73425000D01*
G37*
X236375000Y-73425000D02*
X235175000Y-73425000D01*
X235175000Y-72575000D01*
X236375000Y-72575000D01*
X236375000Y-73425000D01*
G36*
X232825000Y-73425000D02*
G01*
X231625000Y-73425000D01*
X231625000Y-72575000D01*
X232825000Y-72575000D01*
X232825000Y-73425000D01*
G37*
X232825000Y-73425000D02*
X231625000Y-73425000D01*
X231625000Y-72575000D01*
X232825000Y-72575000D01*
X232825000Y-73425000D01*
G36*
X217375000Y-67425000D02*
G01*
X216175000Y-67425000D01*
X216175000Y-66575000D01*
X217375000Y-66575000D01*
X217375000Y-67425000D01*
G37*
X217375000Y-67425000D02*
X216175000Y-67425000D01*
X216175000Y-66575000D01*
X217375000Y-66575000D01*
X217375000Y-67425000D01*
G36*
X213825000Y-67425000D02*
G01*
X212625000Y-67425000D01*
X212625000Y-66575000D01*
X213825000Y-66575000D01*
X213825000Y-67425000D01*
G37*
X213825000Y-67425000D02*
X212625000Y-67425000D01*
X212625000Y-66575000D01*
X213825000Y-66575000D01*
X213825000Y-67425000D01*
G36*
X198563848Y-71425000D02*
G01*
X197363848Y-71425000D01*
X197363848Y-70575000D01*
X198563848Y-70575000D01*
X198563848Y-71425000D01*
G37*
X198563848Y-71425000D02*
X197363848Y-71425000D01*
X197363848Y-70575000D01*
X198563848Y-70575000D01*
X198563848Y-71425000D01*
G36*
X195013848Y-71425000D02*
G01*
X193813848Y-71425000D01*
X193813848Y-70575000D01*
X195013848Y-70575000D01*
X195013848Y-71425000D01*
G37*
X195013848Y-71425000D02*
X193813848Y-71425000D01*
X193813848Y-70575000D01*
X195013848Y-70575000D01*
X195013848Y-71425000D01*
G36*
X198425000Y-99825000D02*
G01*
X197575000Y-99825000D01*
X197575000Y-98625000D01*
X198425000Y-98625000D01*
X198425000Y-99825000D01*
G37*
X198425000Y-99825000D02*
X197575000Y-99825000D01*
X197575000Y-98625000D01*
X198425000Y-98625000D01*
X198425000Y-99825000D01*
G36*
X198425000Y-103375000D02*
G01*
X197575000Y-103375000D01*
X197575000Y-102175000D01*
X198425000Y-102175000D01*
X198425000Y-103375000D01*
G37*
X198425000Y-103375000D02*
X197575000Y-103375000D01*
X197575000Y-102175000D01*
X198425000Y-102175000D01*
X198425000Y-103375000D01*
G36*
X120425000Y-102825000D02*
G01*
X119575000Y-102825000D01*
X119575000Y-101625000D01*
X120425000Y-101625000D01*
X120425000Y-102825000D01*
G37*
X120425000Y-102825000D02*
X119575000Y-102825000D01*
X119575000Y-101625000D01*
X120425000Y-101625000D01*
X120425000Y-102825000D01*
G36*
X120425000Y-106375000D02*
G01*
X119575000Y-106375000D01*
X119575000Y-105175000D01*
X120425000Y-105175000D01*
X120425000Y-106375000D01*
G37*
X120425000Y-106375000D02*
X119575000Y-106375000D01*
X119575000Y-105175000D01*
X120425000Y-105175000D01*
X120425000Y-106375000D01*
G36*
X97425000Y-106375000D02*
G01*
X96575000Y-106375000D01*
X96575000Y-105175000D01*
X97425000Y-105175000D01*
X97425000Y-106375000D01*
G37*
X97425000Y-106375000D02*
X96575000Y-106375000D01*
X96575000Y-105175000D01*
X97425000Y-105175000D01*
X97425000Y-106375000D01*
G36*
X97425000Y-102825000D02*
G01*
X96575000Y-102825000D01*
X96575000Y-101625000D01*
X97425000Y-101625000D01*
X97425000Y-102825000D01*
G37*
X97425000Y-102825000D02*
X96575000Y-102825000D01*
X96575000Y-101625000D01*
X97425000Y-101625000D01*
X97425000Y-102825000D01*
G36*
X179488848Y-53865000D02*
G01*
X178288848Y-53865000D01*
X178288848Y-53015000D01*
X179488848Y-53015000D01*
X179488848Y-53865000D01*
G37*
X179488848Y-53865000D02*
X178288848Y-53865000D01*
X178288848Y-53015000D01*
X179488848Y-53015000D01*
X179488848Y-53865000D01*
G36*
X175938848Y-53865000D02*
G01*
X174738848Y-53865000D01*
X174738848Y-53015000D01*
X175938848Y-53015000D01*
X175938848Y-53865000D01*
G37*
X175938848Y-53865000D02*
X174738848Y-53865000D01*
X174738848Y-53015000D01*
X175938848Y-53015000D01*
X175938848Y-53865000D01*
G36*
X179563848Y-72965000D02*
G01*
X178363848Y-72965000D01*
X178363848Y-72115000D01*
X179563848Y-72115000D01*
X179563848Y-72965000D01*
G37*
X179563848Y-72965000D02*
X178363848Y-72965000D01*
X178363848Y-72115000D01*
X179563848Y-72115000D01*
X179563848Y-72965000D01*
G36*
X176013848Y-72965000D02*
G01*
X174813848Y-72965000D01*
X174813848Y-72115000D01*
X176013848Y-72115000D01*
X176013848Y-72965000D01*
G37*
X176013848Y-72965000D02*
X174813848Y-72965000D01*
X174813848Y-72115000D01*
X176013848Y-72115000D01*
X176013848Y-72965000D01*
G36*
X179488848Y-91915000D02*
G01*
X178288848Y-91915000D01*
X178288848Y-91065000D01*
X179488848Y-91065000D01*
X179488848Y-91915000D01*
G37*
X179488848Y-91915000D02*
X178288848Y-91915000D01*
X178288848Y-91065000D01*
X179488848Y-91065000D01*
X179488848Y-91915000D01*
G36*
X175938848Y-91915000D02*
G01*
X174738848Y-91915000D01*
X174738848Y-91065000D01*
X175938848Y-91065000D01*
X175938848Y-91915000D01*
G37*
X175938848Y-91915000D02*
X174738848Y-91915000D01*
X174738848Y-91065000D01*
X175938848Y-91065000D01*
X175938848Y-91915000D01*
G36*
X198488848Y-51340000D02*
G01*
X197288848Y-51340000D01*
X197288848Y-50490000D01*
X198488848Y-50490000D01*
X198488848Y-51340000D01*
G37*
X198488848Y-51340000D02*
X197288848Y-51340000D01*
X197288848Y-50490000D01*
X198488848Y-50490000D01*
X198488848Y-51340000D01*
G36*
X194938848Y-51340000D02*
G01*
X193738848Y-51340000D01*
X193738848Y-50490000D01*
X194938848Y-50490000D01*
X194938848Y-51340000D01*
G37*
X194938848Y-51340000D02*
X193738848Y-51340000D01*
X193738848Y-50490000D01*
X194938848Y-50490000D01*
X194938848Y-51340000D01*
G36*
X217478848Y-46748000D02*
G01*
X216278848Y-46748000D01*
X216278848Y-45898000D01*
X217478848Y-45898000D01*
X217478848Y-46748000D01*
G37*
X217478848Y-46748000D02*
X216278848Y-46748000D01*
X216278848Y-45898000D01*
X217478848Y-45898000D01*
X217478848Y-46748000D01*
G36*
X213928848Y-46748000D02*
G01*
X212728848Y-46748000D01*
X212728848Y-45898000D01*
X213928848Y-45898000D01*
X213928848Y-46748000D01*
G37*
X213928848Y-46748000D02*
X212728848Y-46748000D01*
X212728848Y-45898000D01*
X213928848Y-45898000D01*
X213928848Y-46748000D01*
G36*
X236478848Y-52998000D02*
G01*
X235278848Y-52998000D01*
X235278848Y-52148000D01*
X236478848Y-52148000D01*
X236478848Y-52998000D01*
G37*
X236478848Y-52998000D02*
X235278848Y-52998000D01*
X235278848Y-52148000D01*
X236478848Y-52148000D01*
X236478848Y-52998000D01*
G36*
X232928848Y-52998000D02*
G01*
X231728848Y-52998000D01*
X231728848Y-52148000D01*
X232928848Y-52148000D01*
X232928848Y-52998000D01*
G37*
X232928848Y-52998000D02*
X231728848Y-52998000D01*
X231728848Y-52148000D01*
X232928848Y-52148000D01*
X232928848Y-52998000D01*
G36*
X251831000Y-64929295D02*
G01*
X250631000Y-64929295D01*
X250631000Y-64079295D01*
X251831000Y-64079295D01*
X251831000Y-64929295D01*
G37*
X251831000Y-64929295D02*
X250631000Y-64929295D01*
X250631000Y-64079295D01*
X251831000Y-64079295D01*
X251831000Y-64929295D01*
G36*
X255381000Y-64929295D02*
G01*
X254181000Y-64929295D01*
X254181000Y-64079295D01*
X255381000Y-64079295D01*
X255381000Y-64929295D01*
G37*
X255381000Y-64929295D02*
X254181000Y-64929295D01*
X254181000Y-64079295D01*
X255381000Y-64079295D01*
X255381000Y-64929295D01*
G36*
X121136652Y-93425000D02*
G01*
X119936652Y-93425000D01*
X119936652Y-92575000D01*
X121136652Y-92575000D01*
X121136652Y-93425000D01*
G37*
X121136652Y-93425000D02*
X119936652Y-93425000D01*
X119936652Y-92575000D01*
X121136652Y-92575000D01*
X121136652Y-93425000D01*
G36*
X117586652Y-93425000D02*
G01*
X116386652Y-93425000D01*
X116386652Y-92575000D01*
X117586652Y-92575000D01*
X117586652Y-93425000D01*
G37*
X117586652Y-93425000D02*
X116386652Y-93425000D01*
X116386652Y-92575000D01*
X117586652Y-92575000D01*
X117586652Y-93425000D01*
G36*
X117586652Y-54425000D02*
G01*
X116386652Y-54425000D01*
X116386652Y-53575000D01*
X117586652Y-53575000D01*
X117586652Y-54425000D01*
G37*
X117586652Y-54425000D02*
X116386652Y-54425000D01*
X116386652Y-53575000D01*
X117586652Y-53575000D01*
X117586652Y-54425000D01*
G36*
X121136652Y-54425000D02*
G01*
X119936652Y-54425000D01*
X119936652Y-53575000D01*
X121136652Y-53575000D01*
X121136652Y-54425000D01*
G37*
X121136652Y-54425000D02*
X119936652Y-54425000D01*
X119936652Y-53575000D01*
X121136652Y-53575000D01*
X121136652Y-54425000D01*
G36*
X121211652Y-73425000D02*
G01*
X120011652Y-73425000D01*
X120011652Y-72575000D01*
X121211652Y-72575000D01*
X121211652Y-73425000D01*
G37*
X121211652Y-73425000D02*
X120011652Y-73425000D01*
X120011652Y-72575000D01*
X121211652Y-72575000D01*
X121211652Y-73425000D01*
G36*
X117661652Y-73425000D02*
G01*
X116461652Y-73425000D01*
X116461652Y-72575000D01*
X117661652Y-72575000D01*
X117661652Y-73425000D01*
G37*
X117661652Y-73425000D02*
X116461652Y-73425000D01*
X116461652Y-72575000D01*
X117661652Y-72575000D01*
X117661652Y-73425000D01*
G36*
X102136652Y-90425000D02*
G01*
X100936652Y-90425000D01*
X100936652Y-89575000D01*
X102136652Y-89575000D01*
X102136652Y-90425000D01*
G37*
X102136652Y-90425000D02*
X100936652Y-90425000D01*
X100936652Y-89575000D01*
X102136652Y-89575000D01*
X102136652Y-90425000D01*
G36*
X98586652Y-90425000D02*
G01*
X97386652Y-90425000D01*
X97386652Y-89575000D01*
X98586652Y-89575000D01*
X98586652Y-90425000D01*
G37*
X98586652Y-90425000D02*
X97386652Y-90425000D01*
X97386652Y-89575000D01*
X98586652Y-89575000D01*
X98586652Y-90425000D01*
G36*
X98586652Y-52425000D02*
G01*
X97386652Y-52425000D01*
X97386652Y-51575000D01*
X98586652Y-51575000D01*
X98586652Y-52425000D01*
G37*
X98586652Y-52425000D02*
X97386652Y-52425000D01*
X97386652Y-51575000D01*
X98586652Y-51575000D01*
X98586652Y-52425000D01*
G36*
X102136652Y-52425000D02*
G01*
X100936652Y-52425000D01*
X100936652Y-51575000D01*
X102136652Y-51575000D01*
X102136652Y-52425000D01*
G37*
X102136652Y-52425000D02*
X100936652Y-52425000D01*
X100936652Y-51575000D01*
X102136652Y-51575000D01*
X102136652Y-52425000D01*
G36*
X102211652Y-71425000D02*
G01*
X101011652Y-71425000D01*
X101011652Y-70575000D01*
X102211652Y-70575000D01*
X102211652Y-71425000D01*
G37*
X102211652Y-71425000D02*
X101011652Y-71425000D01*
X101011652Y-70575000D01*
X102211652Y-70575000D01*
X102211652Y-71425000D01*
G36*
X98661652Y-71425000D02*
G01*
X97461652Y-71425000D01*
X97461652Y-70575000D01*
X98661652Y-70575000D01*
X98661652Y-71425000D01*
G37*
X98661652Y-71425000D02*
X97461652Y-71425000D01*
X97461652Y-70575000D01*
X98661652Y-70575000D01*
X98661652Y-71425000D01*
G36*
X83375000Y-85425000D02*
G01*
X82175000Y-85425000D01*
X82175000Y-84575000D01*
X83375000Y-84575000D01*
X83375000Y-85425000D01*
G37*
X83375000Y-85425000D02*
X82175000Y-85425000D01*
X82175000Y-84575000D01*
X83375000Y-84575000D01*
X83375000Y-85425000D01*
G36*
X79825000Y-85425000D02*
G01*
X78625000Y-85425000D01*
X78625000Y-84575000D01*
X79825000Y-84575000D01*
X79825000Y-85425000D01*
G37*
X79825000Y-85425000D02*
X78625000Y-85425000D01*
X78625000Y-84575000D01*
X79825000Y-84575000D01*
X79825000Y-85425000D01*
G36*
X83221652Y-67425000D02*
G01*
X82021652Y-67425000D01*
X82021652Y-66575000D01*
X83221652Y-66575000D01*
X83221652Y-67425000D01*
G37*
X83221652Y-67425000D02*
X82021652Y-67425000D01*
X82021652Y-66575000D01*
X83221652Y-66575000D01*
X83221652Y-67425000D01*
G36*
X79671652Y-67425000D02*
G01*
X78471652Y-67425000D01*
X78471652Y-66575000D01*
X79671652Y-66575000D01*
X79671652Y-67425000D01*
G37*
X79671652Y-67425000D02*
X78471652Y-67425000D01*
X78471652Y-66575000D01*
X79671652Y-66575000D01*
X79671652Y-67425000D01*
G36*
X79596652Y-48425000D02*
G01*
X78396652Y-48425000D01*
X78396652Y-47575000D01*
X79596652Y-47575000D01*
X79596652Y-48425000D01*
G37*
X79596652Y-48425000D02*
X78396652Y-48425000D01*
X78396652Y-47575000D01*
X79596652Y-47575000D01*
X79596652Y-48425000D01*
G36*
X83146652Y-48425000D02*
G01*
X81946652Y-48425000D01*
X81946652Y-47575000D01*
X83146652Y-47575000D01*
X83146652Y-48425000D01*
G37*
X83146652Y-48425000D02*
X81946652Y-48425000D01*
X81946652Y-47575000D01*
X83146652Y-47575000D01*
X83146652Y-48425000D01*
G36*
X64375000Y-92425000D02*
G01*
X63175000Y-92425000D01*
X63175000Y-91575000D01*
X64375000Y-91575000D01*
X64375000Y-92425000D01*
G37*
X64375000Y-92425000D02*
X63175000Y-92425000D01*
X63175000Y-91575000D01*
X64375000Y-91575000D01*
X64375000Y-92425000D01*
G36*
X60825000Y-92425000D02*
G01*
X59625000Y-92425000D01*
X59625000Y-91575000D01*
X60825000Y-91575000D01*
X60825000Y-92425000D01*
G37*
X60825000Y-92425000D02*
X59625000Y-92425000D01*
X59625000Y-91575000D01*
X60825000Y-91575000D01*
X60825000Y-92425000D01*
G36*
X64221652Y-73425000D02*
G01*
X63021652Y-73425000D01*
X63021652Y-72575000D01*
X64221652Y-72575000D01*
X64221652Y-73425000D01*
G37*
X64221652Y-73425000D02*
X63021652Y-73425000D01*
X63021652Y-72575000D01*
X64221652Y-72575000D01*
X64221652Y-73425000D01*
G36*
X60671652Y-73425000D02*
G01*
X59471652Y-73425000D01*
X59471652Y-72575000D01*
X60671652Y-72575000D01*
X60671652Y-73425000D01*
G37*
X60671652Y-73425000D02*
X59471652Y-73425000D01*
X59471652Y-72575000D01*
X60671652Y-72575000D01*
X60671652Y-73425000D01*
G36*
X60596652Y-54425000D02*
G01*
X59396652Y-54425000D01*
X59396652Y-53575000D01*
X60596652Y-53575000D01*
X60596652Y-54425000D01*
G37*
X60596652Y-54425000D02*
X59396652Y-54425000D01*
X59396652Y-53575000D01*
X60596652Y-53575000D01*
X60596652Y-54425000D01*
G36*
X64146652Y-54425000D02*
G01*
X62946652Y-54425000D01*
X62946652Y-53575000D01*
X64146652Y-53575000D01*
X64146652Y-54425000D01*
G37*
X64146652Y-54425000D02*
X62946652Y-54425000D01*
X62946652Y-53575000D01*
X64146652Y-53575000D01*
X64146652Y-54425000D01*
G36*
X41769500Y-85425000D02*
G01*
X40569500Y-85425000D01*
X40569500Y-84575000D01*
X41769500Y-84575000D01*
X41769500Y-85425000D01*
G37*
X41769500Y-85425000D02*
X40569500Y-85425000D01*
X40569500Y-84575000D01*
X41769500Y-84575000D01*
X41769500Y-85425000D01*
G36*
X45319500Y-85425000D02*
G01*
X44119500Y-85425000D01*
X44119500Y-84575000D01*
X45319500Y-84575000D01*
X45319500Y-85425000D01*
G37*
X45319500Y-85425000D02*
X44119500Y-85425000D01*
X44119500Y-84575000D01*
X45319500Y-84575000D01*
X45319500Y-85425000D01*
G36*
X41694500Y-103425000D02*
G01*
X40494500Y-103425000D01*
X40494500Y-102575000D01*
X41694500Y-102575000D01*
X41694500Y-103425000D01*
G37*
X41694500Y-103425000D02*
X40494500Y-103425000D01*
X40494500Y-102575000D01*
X41694500Y-102575000D01*
X41694500Y-103425000D01*
G36*
X45244500Y-103425000D02*
G01*
X44044500Y-103425000D01*
X44044500Y-102575000D01*
X45244500Y-102575000D01*
X45244500Y-103425000D01*
G37*
X45244500Y-103425000D02*
X44044500Y-103425000D01*
X44044500Y-102575000D01*
X45244500Y-102575000D01*
X45244500Y-103425000D01*
G36*
X41694500Y-66425000D02*
G01*
X40494500Y-66425000D01*
X40494500Y-65575000D01*
X41694500Y-65575000D01*
X41694500Y-66425000D01*
G37*
X41694500Y-66425000D02*
X40494500Y-66425000D01*
X40494500Y-65575000D01*
X41694500Y-65575000D01*
X41694500Y-66425000D01*
G36*
X45244500Y-66425000D02*
G01*
X44044500Y-66425000D01*
X44044500Y-65575000D01*
X45244500Y-65575000D01*
X45244500Y-66425000D01*
G37*
X45244500Y-66425000D02*
X44044500Y-66425000D01*
X44044500Y-65575000D01*
X45244500Y-65575000D01*
X45244500Y-66425000D01*
D21*
X150255000Y-64454907D03*
X150255000Y-66994907D03*
X150255000Y-69534907D03*
X150255000Y-72074907D03*
X150255000Y-74614907D03*
X150255000Y-77154907D03*
X150255000Y-79694907D03*
X166445000Y-79694907D03*
X166445000Y-77154907D03*
X166445000Y-74614907D03*
X166445000Y-72074907D03*
X166445000Y-69534907D03*
X166445000Y-66994907D03*
X166445000Y-64454907D03*
D22*
X157080000Y-63502907D03*
X159620000Y-63502907D03*
X157080000Y-66042907D03*
X159620000Y-66042907D03*
X153905000Y-71757907D03*
X153905000Y-69852907D03*
D23*
X176000000Y-107150038D03*
D24*
X176000000Y-99998038D03*
D23*
X249424000Y-103000000D03*
D24*
X256576000Y-103000000D03*
D23*
X230424000Y-91000000D03*
D24*
X237576000Y-91000000D03*
D23*
X211424000Y-85000000D03*
D24*
X218576000Y-85000000D03*
D23*
X192424000Y-89000000D03*
D24*
X199576000Y-89000000D03*
D23*
X249424000Y-85000000D03*
D24*
X256576000Y-85000000D03*
D23*
X230424000Y-73000000D03*
D24*
X237576000Y-73000000D03*
D23*
X211424000Y-67000000D03*
D24*
X218576000Y-67000000D03*
D23*
X192612848Y-71000000D03*
D24*
X199764848Y-71000000D03*
D23*
X198000000Y-104576000D03*
D24*
X198000000Y-97424000D03*
D23*
X120000000Y-100424000D03*
D24*
X120000000Y-107576000D03*
D23*
X97000000Y-100424000D03*
D24*
X97000000Y-107576000D03*
D19*
X140000000Y-90000000D03*
X157075000Y-89900000D03*
X135000000Y-90000000D03*
X162000000Y-90000000D03*
D25*
X144000000Y-98625000D03*
X144050000Y-95625000D03*
X152150000Y-96000000D03*
X152100000Y-99000000D03*
D26*
X214108152Y-96504295D03*
D27*
X225093152Y-96504295D03*
X203123152Y-96504295D03*
D28*
X174473848Y-69328000D03*
D29*
X177013848Y-64248000D03*
D30*
X171933848Y-64248000D03*
D28*
X180823848Y-66788000D03*
D30*
X182093848Y-64248000D03*
D31*
X184098848Y-66788000D03*
X171171848Y-69328000D03*
D23*
X173537848Y-53440000D03*
D24*
X180689848Y-53440000D03*
D28*
X174473848Y-88363000D03*
D29*
X177013848Y-83283000D03*
D30*
X171933848Y-83283000D03*
D28*
X180823848Y-85823000D03*
D30*
X182093848Y-83283000D03*
D31*
X184098848Y-85823000D03*
X171171848Y-88363000D03*
D32*
X177091000Y-45126205D03*
D33*
X182091000Y-41326205D03*
D34*
X182591000Y-45126205D03*
X171591000Y-45126205D03*
D33*
X177091000Y-39226205D03*
D35*
X173591000Y-39126205D03*
X185591000Y-41326205D03*
D23*
X173612848Y-72540000D03*
D24*
X180764848Y-72540000D03*
D32*
X177091000Y-83251205D03*
D33*
X182091000Y-79451205D03*
D34*
X182591000Y-83251205D03*
X171591000Y-83251205D03*
D33*
X177091000Y-77351205D03*
D35*
X173591000Y-77251205D03*
X185591000Y-79451205D03*
D32*
X177091000Y-64216205D03*
D33*
X182091000Y-60416205D03*
D34*
X182591000Y-64216205D03*
X171591000Y-64216205D03*
D33*
X177091000Y-58316205D03*
D35*
X173591000Y-58216205D03*
X185591000Y-60416205D03*
D23*
X173537848Y-91490000D03*
D24*
X180689848Y-91490000D03*
D28*
X174473848Y-50238000D03*
D29*
X177013848Y-45158000D03*
D30*
X171933848Y-45158000D03*
D28*
X180823848Y-47698000D03*
D30*
X182093848Y-45158000D03*
D31*
X184098848Y-47698000D03*
X171171848Y-50238000D03*
D28*
X193473848Y-66803000D03*
D29*
X196013848Y-61723000D03*
D30*
X190933848Y-61723000D03*
D28*
X199823848Y-64263000D03*
D30*
X201093848Y-61723000D03*
D31*
X203098848Y-64263000D03*
X190171848Y-66803000D03*
D28*
X193473848Y-47713000D03*
D29*
X196013848Y-42633000D03*
D30*
X190933848Y-42633000D03*
D28*
X199823848Y-45173000D03*
D30*
X201093848Y-42633000D03*
D31*
X203098848Y-45173000D03*
X190171848Y-47713000D03*
D28*
X193473848Y-85838000D03*
D29*
X196013848Y-80758000D03*
D30*
X190933848Y-80758000D03*
D28*
X199823848Y-83298000D03*
D30*
X201093848Y-80758000D03*
D31*
X203098848Y-83298000D03*
X190171848Y-85838000D03*
D32*
X196091000Y-42601205D03*
D33*
X201091000Y-38801205D03*
D34*
X201591000Y-42601205D03*
X190591000Y-42601205D03*
D33*
X196091000Y-36701205D03*
D35*
X192591000Y-36601205D03*
X204591000Y-38801205D03*
D23*
X192537848Y-50915000D03*
D24*
X199689848Y-50915000D03*
D32*
X196091000Y-80726205D03*
D33*
X201091000Y-76926205D03*
D34*
X201591000Y-80726205D03*
X190591000Y-80726205D03*
D33*
X196091000Y-74826205D03*
D35*
X192591000Y-74726205D03*
X204591000Y-76926205D03*
D32*
X196091000Y-61691205D03*
D33*
X201091000Y-57891205D03*
D34*
X201591000Y-61691205D03*
X190591000Y-61691205D03*
D33*
X196091000Y-55791205D03*
D35*
X192591000Y-55691205D03*
X204591000Y-57891205D03*
D28*
X212463848Y-43121000D03*
D29*
X215003848Y-38041000D03*
D30*
X209923848Y-38041000D03*
D28*
X218813848Y-40581000D03*
D30*
X220083848Y-38041000D03*
D31*
X222088848Y-40581000D03*
X209161848Y-43121000D03*
D32*
X215081000Y-38009205D03*
D33*
X220081000Y-34209205D03*
D34*
X220581000Y-38009205D03*
X209581000Y-38009205D03*
D33*
X215081000Y-32109205D03*
D35*
X211581000Y-32009205D03*
X223581000Y-34209205D03*
D32*
X215081000Y-57099205D03*
D33*
X220081000Y-53299205D03*
D34*
X220581000Y-57099205D03*
X209581000Y-57099205D03*
D33*
X215081000Y-51199205D03*
D35*
X211581000Y-51099205D03*
X223581000Y-53299205D03*
D23*
X211527848Y-46323000D03*
D24*
X218679848Y-46323000D03*
D28*
X212463848Y-62211000D03*
D29*
X215003848Y-57131000D03*
D30*
X209923848Y-57131000D03*
D28*
X218813848Y-59671000D03*
D30*
X220083848Y-57131000D03*
D31*
X222088848Y-59671000D03*
X209161848Y-62211000D03*
D32*
X215081000Y-76134205D03*
D33*
X220081000Y-72334205D03*
D34*
X220581000Y-76134205D03*
X209581000Y-76134205D03*
D33*
X215081000Y-70234205D03*
D35*
X211581000Y-70134205D03*
X223581000Y-72334205D03*
D28*
X212463848Y-81246000D03*
D29*
X215003848Y-76166000D03*
D30*
X209923848Y-76166000D03*
D28*
X218813848Y-78706000D03*
D30*
X220083848Y-76166000D03*
D31*
X222088848Y-78706000D03*
X209161848Y-81246000D03*
D23*
X230527848Y-52573000D03*
D24*
X237679848Y-52573000D03*
D31*
X228161848Y-49371000D03*
X241088848Y-46831000D03*
D30*
X239083848Y-44291000D03*
D28*
X237813848Y-46831000D03*
D30*
X228923848Y-44291000D03*
D29*
X234003848Y-44291000D03*
D28*
X231463848Y-49371000D03*
X231463848Y-68461000D03*
D29*
X234003848Y-63381000D03*
D30*
X228923848Y-63381000D03*
D28*
X237813848Y-65921000D03*
D30*
X239083848Y-63381000D03*
D31*
X241088848Y-65921000D03*
X228161848Y-68461000D03*
D35*
X242581000Y-40459205D03*
X230581000Y-38259205D03*
D33*
X234081000Y-38359205D03*
D34*
X228581000Y-44259205D03*
X239581000Y-44259205D03*
D33*
X239081000Y-40459205D03*
D32*
X234081000Y-44259205D03*
X234081000Y-63349205D03*
D33*
X239081000Y-59549205D03*
D34*
X239581000Y-63349205D03*
X228581000Y-63349205D03*
D33*
X234081000Y-57449205D03*
D35*
X230581000Y-57349205D03*
X242581000Y-59549205D03*
D28*
X231463848Y-87496000D03*
D29*
X234003848Y-82416000D03*
D30*
X228923848Y-82416000D03*
D28*
X237813848Y-84956000D03*
D30*
X239083848Y-82416000D03*
D31*
X241088848Y-84956000D03*
X228161848Y-87496000D03*
D32*
X234081000Y-82384205D03*
D33*
X239081000Y-78584205D03*
D34*
X239581000Y-82384205D03*
X228581000Y-82384205D03*
D33*
X234081000Y-76484205D03*
D35*
X230581000Y-76384205D03*
X242581000Y-78584205D03*
X261483152Y-90515500D03*
X249483152Y-88315500D03*
D33*
X252983152Y-88415500D03*
D34*
X247483152Y-94315500D03*
X258483152Y-94315500D03*
D33*
X257983152Y-90515500D03*
D32*
X252983152Y-94315500D03*
D31*
X247064000Y-61302295D03*
X259991000Y-58762295D03*
D30*
X257986000Y-56222295D03*
D28*
X256716000Y-58762295D03*
D30*
X247826000Y-56222295D03*
D29*
X252906000Y-56222295D03*
D28*
X250366000Y-61302295D03*
X250366000Y-80392295D03*
D29*
X252906000Y-75312295D03*
D30*
X247826000Y-75312295D03*
D28*
X256716000Y-77852295D03*
D30*
X257986000Y-75312295D03*
D31*
X259991000Y-77852295D03*
X247064000Y-80392295D03*
D35*
X261483152Y-52390500D03*
X249483152Y-50190500D03*
D33*
X252983152Y-50290500D03*
D34*
X247483152Y-56190500D03*
X258483152Y-56190500D03*
D33*
X257983152Y-52390500D03*
D32*
X252983152Y-56190500D03*
D31*
X247064000Y-99427295D03*
X259991000Y-96887295D03*
D30*
X257986000Y-94347295D03*
D28*
X256716000Y-96887295D03*
D30*
X247826000Y-94347295D03*
D29*
X252906000Y-94347295D03*
D28*
X250366000Y-99427295D03*
D24*
X256582000Y-64504295D03*
D23*
X249430000Y-64504295D03*
D32*
X252983152Y-75280500D03*
D33*
X257983152Y-71480500D03*
D34*
X258483152Y-75280500D03*
X247483152Y-75280500D03*
D33*
X252983152Y-69380500D03*
D35*
X249483152Y-69280500D03*
X261483152Y-71480500D03*
D36*
X159413848Y-113339295D03*
X170138300Y-104214591D03*
D37*
X162831591Y-114299000D03*
X171630409Y-109219000D03*
D28*
X162491295Y-108629591D03*
D38*
X167231000Y-111759000D03*
D28*
X166890705Y-106089591D03*
X162661443Y-111464295D03*
X169260557Y-107654295D03*
D39*
X158989000Y-104477000D03*
D40*
X165890000Y-99713000D03*
X165890000Y-96313000D03*
D37*
X191815903Y-102228199D03*
D28*
X182571422Y-102075649D03*
D38*
X186909000Y-103543000D03*
D28*
X183140748Y-99293497D03*
X189931777Y-100103448D03*
X188047651Y-97978696D03*
D37*
X182002097Y-104857801D03*
D41*
X191669873Y-97008125D03*
X178949200Y-103046220D03*
D39*
X240777000Y-92793000D03*
X245984000Y-45549000D03*
X185405000Y-35643000D03*
D33*
X107494620Y-109348962D03*
D34*
X103709060Y-102226495D03*
D32*
X109021652Y-103650000D03*
D34*
X114334244Y-105073505D03*
D33*
X103208510Y-106026423D03*
D42*
X110849478Y-110351422D03*
X99827770Y-105120556D03*
D32*
X128690250Y-111875000D03*
D33*
X125740250Y-116984550D03*
X122460123Y-112665897D03*
D34*
X133453390Y-114625000D03*
X123927110Y-109125000D03*
D43*
X128721339Y-118821152D03*
X119429034Y-110915897D03*
D33*
X170225500Y-116857550D03*
D34*
X162512360Y-114498000D03*
X172038640Y-108998000D03*
D32*
X167275500Y-111748000D03*
D33*
X164845373Y-117538897D03*
D44*
X173306589Y-115194152D03*
X161814284Y-119288897D03*
D33*
X183077351Y-108538651D03*
D34*
X192236060Y-102150533D03*
D32*
X186923468Y-103574038D03*
D34*
X181610876Y-104997543D03*
D33*
X188450500Y-109273000D03*
D45*
X191857123Y-108463726D03*
X179696611Y-109444518D03*
D23*
X115185652Y-93000000D03*
D24*
X122337652Y-93000000D03*
X122337652Y-54000000D03*
D23*
X115185652Y-54000000D03*
X115260652Y-73000000D03*
D24*
X122412652Y-73000000D03*
D32*
X118738804Y-45278205D03*
D33*
X113738804Y-49078205D03*
D34*
X113238804Y-45278205D03*
X124238804Y-45278205D03*
D33*
X118738804Y-51178205D03*
D46*
X122238804Y-51278205D03*
X110238804Y-49078205D03*
D28*
X121201652Y-40230000D03*
D29*
X118661652Y-45310000D03*
D30*
X123741652Y-45310000D03*
D28*
X114851652Y-42770000D03*
D30*
X113581652Y-45310000D03*
D31*
X111576652Y-42770000D03*
X124503652Y-40230000D03*
X124503652Y-59320000D03*
X111576652Y-61860000D03*
D30*
X113581652Y-64400000D03*
D28*
X114851652Y-61860000D03*
D30*
X123741652Y-64400000D03*
D29*
X118661652Y-64400000D03*
D28*
X121201652Y-59320000D03*
D46*
X110238804Y-68168205D03*
X122238804Y-70368205D03*
D33*
X118738804Y-70268205D03*
D34*
X124238804Y-64368205D03*
X113238804Y-64368205D03*
D33*
X113738804Y-68168205D03*
D32*
X118738804Y-64368205D03*
X118738804Y-83403205D03*
D33*
X113738804Y-87203205D03*
D34*
X113238804Y-83403205D03*
X124238804Y-83403205D03*
D33*
X118738804Y-89303205D03*
D46*
X122238804Y-89403205D03*
X110238804Y-87203205D03*
D31*
X124503652Y-78355000D03*
X111576652Y-80895000D03*
D30*
X113581652Y-83435000D03*
D28*
X114851652Y-80895000D03*
D30*
X123741652Y-83435000D03*
D29*
X118661652Y-83435000D03*
D28*
X121201652Y-78355000D03*
D23*
X96185652Y-90000000D03*
D24*
X103337652Y-90000000D03*
X103337652Y-52000000D03*
D23*
X96185652Y-52000000D03*
X96260652Y-71000000D03*
D24*
X103412652Y-71000000D03*
D32*
X99738804Y-42753205D03*
D33*
X94738804Y-46553205D03*
D34*
X94238804Y-42753205D03*
X105238804Y-42753205D03*
D33*
X99738804Y-48653205D03*
D46*
X103238804Y-48753205D03*
X91238804Y-46553205D03*
D28*
X102201652Y-37705000D03*
D29*
X99661652Y-42785000D03*
D30*
X104741652Y-42785000D03*
D28*
X95851652Y-40245000D03*
D30*
X94581652Y-42785000D03*
D31*
X92576652Y-40245000D03*
X105503652Y-37705000D03*
D28*
X102201652Y-56795000D03*
D29*
X99661652Y-61875000D03*
D30*
X104741652Y-61875000D03*
D28*
X95851652Y-59335000D03*
D30*
X94581652Y-61875000D03*
D31*
X92576652Y-59335000D03*
X105503652Y-56795000D03*
D32*
X99738804Y-61843205D03*
D33*
X94738804Y-65643205D03*
D34*
X94238804Y-61843205D03*
X105238804Y-61843205D03*
D33*
X99738804Y-67743205D03*
D46*
X103238804Y-67843205D03*
X91238804Y-65643205D03*
D32*
X99738804Y-80878205D03*
D33*
X94738804Y-84678205D03*
D34*
X94238804Y-80878205D03*
X105238804Y-80878205D03*
D33*
X99738804Y-86778205D03*
D46*
X103238804Y-86878205D03*
X91238804Y-84678205D03*
D28*
X102201652Y-75830000D03*
D29*
X99661652Y-80910000D03*
D30*
X104741652Y-80910000D03*
D28*
X95851652Y-78370000D03*
D30*
X94581652Y-80910000D03*
D31*
X92576652Y-78370000D03*
X105503652Y-75830000D03*
D32*
X80748804Y-76286205D03*
D33*
X75748804Y-80086205D03*
D34*
X75248804Y-76286205D03*
X86248804Y-76286205D03*
D33*
X80748804Y-82186205D03*
D46*
X84248804Y-82286205D03*
X72248804Y-80086205D03*
D28*
X83211652Y-52203000D03*
D29*
X80671652Y-57283000D03*
D30*
X85751652Y-57283000D03*
D28*
X76861652Y-54743000D03*
D30*
X75591652Y-57283000D03*
D31*
X73586652Y-54743000D03*
X86513652Y-52203000D03*
D28*
X83211652Y-33113000D03*
D29*
X80671652Y-38193000D03*
D30*
X85751652Y-38193000D03*
D28*
X76861652Y-35653000D03*
D30*
X75591652Y-38193000D03*
D31*
X73586652Y-35653000D03*
X86513652Y-33113000D03*
D32*
X80748804Y-38161205D03*
D33*
X75748804Y-41961205D03*
D34*
X75248804Y-38161205D03*
X86248804Y-38161205D03*
D33*
X80748804Y-44061205D03*
D46*
X84248804Y-44161205D03*
X72248804Y-41961205D03*
D32*
X80748804Y-57251205D03*
D33*
X75748804Y-61051205D03*
D34*
X75248804Y-57251205D03*
X86248804Y-57251205D03*
D33*
X80748804Y-63151205D03*
D46*
X84248804Y-63251205D03*
X72248804Y-61051205D03*
D23*
X77424000Y-85000000D03*
D24*
X84576000Y-85000000D03*
D28*
X83211652Y-71238000D03*
D29*
X80671652Y-76318000D03*
D30*
X85751652Y-76318000D03*
D28*
X76861652Y-73778000D03*
D30*
X75591652Y-76318000D03*
D31*
X73586652Y-73778000D03*
X86513652Y-71238000D03*
D23*
X77270652Y-67000000D03*
D24*
X84422652Y-67000000D03*
X84347652Y-48000000D03*
D23*
X77195652Y-48000000D03*
D32*
X61748804Y-82536205D03*
D33*
X56748804Y-86336205D03*
D34*
X56248804Y-82536205D03*
X67248804Y-82536205D03*
D33*
X61748804Y-88436205D03*
D46*
X65248804Y-88536205D03*
X53248804Y-86336205D03*
D28*
X64211652Y-58453000D03*
D29*
X61671652Y-63533000D03*
D30*
X66751652Y-63533000D03*
D28*
X57861652Y-60993000D03*
D30*
X56591652Y-63533000D03*
D31*
X54586652Y-60993000D03*
X67513652Y-58453000D03*
D28*
X64211652Y-39363000D03*
D29*
X61671652Y-44443000D03*
D30*
X66751652Y-44443000D03*
D28*
X57861652Y-41903000D03*
D30*
X56591652Y-44443000D03*
D31*
X54586652Y-41903000D03*
X67513652Y-39363000D03*
D32*
X61748804Y-44411205D03*
D33*
X56748804Y-48211205D03*
D34*
X56248804Y-44411205D03*
X67248804Y-44411205D03*
D33*
X61748804Y-50311205D03*
D46*
X65248804Y-50411205D03*
X53248804Y-48211205D03*
D32*
X61748804Y-63501205D03*
D33*
X56748804Y-67301205D03*
D34*
X56248804Y-63501205D03*
X67248804Y-63501205D03*
D33*
X61748804Y-69401205D03*
D46*
X65248804Y-69501205D03*
X53248804Y-67301205D03*
D23*
X58424000Y-92000000D03*
D24*
X65576000Y-92000000D03*
D28*
X64211652Y-77488000D03*
D29*
X61671652Y-82568000D03*
D30*
X66751652Y-82568000D03*
D28*
X57861652Y-80028000D03*
D30*
X56591652Y-82568000D03*
D31*
X54586652Y-80028000D03*
X67513652Y-77488000D03*
D23*
X58270652Y-73000000D03*
D24*
X65422652Y-73000000D03*
X65347652Y-54000000D03*
D23*
X58195652Y-54000000D03*
D46*
X34346652Y-60142500D03*
X46346652Y-62342500D03*
D33*
X42846652Y-62242500D03*
D34*
X48346652Y-56342500D03*
X37346652Y-56342500D03*
D33*
X37846652Y-60142500D03*
D32*
X42846652Y-56342500D03*
D31*
X48611500Y-51294295D03*
X35684500Y-53834295D03*
D30*
X37689500Y-56374295D03*
D28*
X38959500Y-53834295D03*
D30*
X47849500Y-56374295D03*
D29*
X42769500Y-56374295D03*
D28*
X45309500Y-51294295D03*
D32*
X42846652Y-75432500D03*
D33*
X37846652Y-79232500D03*
D34*
X37346652Y-75432500D03*
X48346652Y-75432500D03*
D33*
X42846652Y-81332500D03*
D46*
X46346652Y-81432500D03*
X34346652Y-79232500D03*
D28*
X45309500Y-70384295D03*
D29*
X42769500Y-75464295D03*
D30*
X47849500Y-75464295D03*
D28*
X38959500Y-72924295D03*
D30*
X37689500Y-75464295D03*
D31*
X35684500Y-72924295D03*
X48611500Y-70384295D03*
D46*
X34346652Y-98267500D03*
X46346652Y-100467500D03*
D33*
X42846652Y-100367500D03*
D34*
X48346652Y-94467500D03*
X37346652Y-94467500D03*
D33*
X37846652Y-98267500D03*
D32*
X42846652Y-94467500D03*
D26*
X81819500Y-96656295D03*
D27*
X92804500Y-96656295D03*
X70834500Y-96656295D03*
D24*
X46520500Y-85000000D03*
D23*
X39368500Y-85000000D03*
D24*
X46445500Y-103000000D03*
D23*
X39293500Y-103000000D03*
D31*
X48611500Y-89419295D03*
X35684500Y-91959295D03*
D30*
X37689500Y-94499295D03*
D28*
X38959500Y-91959295D03*
D30*
X47849500Y-94499295D03*
D29*
X42769500Y-94499295D03*
D28*
X45309500Y-89419295D03*
D24*
X46445500Y-66000000D03*
D23*
X39293500Y-66000000D03*
D47*
X102373653Y-99284876D03*
X116409126Y-100416069D03*
D37*
X113925555Y-105009801D03*
D28*
X107880001Y-98130696D03*
X105995875Y-100255448D03*
X112786904Y-99445497D03*
D38*
X109018652Y-103695000D03*
D28*
X113356230Y-102227649D03*
D37*
X104111749Y-102380199D03*
D48*
X123419500Y-105931295D03*
X136683952Y-110656591D03*
D37*
X133096061Y-114451000D03*
X124297243Y-109371000D03*
D28*
X133436357Y-108781591D03*
D38*
X128696652Y-111911000D03*
D28*
X129036947Y-106241591D03*
X133266209Y-111616295D03*
X126667095Y-107806295D03*
D39*
X136938652Y-104629000D03*
X49943652Y-45701000D03*
D40*
X130035652Y-96465000D03*
X130035652Y-99865000D03*
D39*
X110522652Y-35795000D03*
X55150652Y-92945000D03*
D21*
X129530000Y-64604907D03*
X129530000Y-67144907D03*
X129530000Y-69684907D03*
X129530000Y-72224907D03*
X129530000Y-74764907D03*
X129530000Y-77304907D03*
X129530000Y-79844907D03*
X145720000Y-79844907D03*
X145720000Y-77304907D03*
X145720000Y-74764907D03*
X145720000Y-72224907D03*
X145720000Y-69684907D03*
X145720000Y-67144907D03*
X145720000Y-64604907D03*
D22*
X136355000Y-63652907D03*
X138895000Y-63652907D03*
X136355000Y-66192907D03*
X138895000Y-66192907D03*
X133180000Y-71907907D03*
X133180000Y-70002907D03*
M02*
