M48
; DRILL file {KiCad (6.0.9)} date Thu Dec 29 20:14:10 2022
; FORMAT={-:-/ absolute / inch / decimal}
; #@! TF.CreationDate,2022-12-29T20:14:10-03:00
; #@! TF.GenerationSoftware,Kicad,Pcbnew,(6.0.9)
; #@! TF.FileFunction,NonPlated,1,2,NPTH
FMAT,2
INCH
; #@! TA.AperFunction,NonPlated,NPTH,ComponentDrill
T1C0.0276
; #@! TA.AperFunction,NonPlated,NPTH,ComponentDrill
T2C0.0670
; #@! TA.AperFunction,NonPlated,NPTH,ComponentDrill
T3C0.0709
; #@! TA.AperFunction,NonPlated,NPTH,ComponentDrill
T4C0.0748
; #@! TA.AperFunction,NonPlated,NPTH,ComponentDrill
T5C0.1181
; #@! TA.AperFunction,NonPlated,NPTH,ComponentDrill
T6C0.1201
; #@! TA.AperFunction,NonPlated,NPTH,ComponentDrill
T7C0.1260
; #@! TA.AperFunction,NonPlated,NPTH,ComponentDrill
T8C0.1339
; #@! TA.AperFunction,NonPlated,NPTH,ComponentDrill
T9C0.1570
; #@! TA.AperFunction,NonPlated,NPTH,ComponentDrill
T10C0.1614
%
G90
G05
T1
X5.6693Y-3.8829
X5.6713Y-3.7648
X5.9882Y-3.8976
X5.9902Y-3.7795
T2
X4.0989Y-4.0307
X4.4853Y-4.1342
X4.8936Y-4.3059
X5.24Y-4.5059
X6.4107Y-4.5
X6.7571Y-4.3
X7.1654Y-4.1283
X7.5518Y-4.0247
T3
X1.4703Y-2.2182
X1.4703Y-2.9698
X1.4703Y-3.7192
X1.9034Y-2.2182
X1.9034Y-2.9698
X1.9034Y-3.7192
X2.2145Y-1.7485
X2.2145Y-2.5
X2.2145Y-3.2495
X2.6476Y-1.7485
X2.6476Y-2.5
X2.6476Y-3.2495
X2.9626Y-1.5024
X2.9626Y-2.254
X2.9626Y-3.0034
X3.3956Y-1.5024
X3.3956Y-2.254
X3.3956Y-3.0034
X3.7102Y-1.6832
X3.7102Y-2.4348
X3.7102Y-3.1842
X4.083Y-4.0247
X4.1433Y-1.6832
X4.1433Y-2.4348
X4.1433Y-3.1842
X4.4582Y-1.7826
X4.4582Y-2.5342
X4.4582Y-3.2836
X4.5013Y-4.1368
X4.879Y-4.2963
X4.8913Y-1.7826
X4.8913Y-2.5342
X4.8913Y-3.2836
X5.2541Y-4.5128
X6.3981Y-4.5078
X6.7556Y-1.7766
X6.7556Y-2.5282
X6.7556Y-3.2776
X6.7732Y-4.2913
X7.15Y-4.1338
X7.1886Y-1.7766
X7.1886Y-2.5282
X7.1886Y-3.2776
X7.5036Y-1.6772
X7.5036Y-2.4288
X7.5036Y-3.1782
X7.5683Y-4.0217
X7.9367Y-1.6772
X7.9367Y-2.4288
X7.9367Y-3.1782
X8.2512Y-1.4964
X8.2512Y-2.248
X8.2512Y-2.9974
X8.6843Y-1.4964
X8.6843Y-2.248
X8.6843Y-2.9974
X8.9993Y-1.7425
X8.9993Y-2.4941
X8.9993Y-3.2435
X9.4323Y-1.7425
X9.4323Y-2.4941
X9.4323Y-3.2435
X9.7434Y-2.2122
X9.7434Y-2.9638
X9.7434Y-3.7132
X10.1765Y-2.2122
X10.1765Y-2.9638
X10.1765Y-3.7132
T4
X1.4838Y-2.2195
X1.4838Y-2.971
X1.4838Y-3.7204
X1.8838Y-2.2195
X1.8838Y-2.971
X1.8838Y-3.7204
X2.228Y-1.7497
X2.228Y-2.5013
X2.228Y-3.2507
X2.628Y-1.7497
X2.628Y-2.5013
X2.628Y-3.2507
X2.976Y-1.5037
X2.976Y-2.2552
X2.976Y-3.0046
X3.376Y-1.5037
X3.376Y-2.2552
X3.376Y-3.0046
X3.7237Y-1.6844
X3.7237Y-2.436
X3.7237Y-3.1854
X4.1237Y-1.6844
X4.1237Y-2.436
X4.1237Y-3.1854
X4.4717Y-1.7839
X4.4717Y-2.5354
X4.4717Y-3.2848
X4.8717Y-1.7839
X4.8717Y-2.5354
X4.8717Y-3.2848
X6.769Y-1.7779
X6.769Y-2.5294
X6.769Y-3.2789
X7.169Y-1.7779
X7.169Y-2.5294
X7.169Y-3.2789
X7.5171Y-1.6785
X7.5171Y-2.43
X7.5171Y-3.1794
X7.9171Y-1.6785
X7.9171Y-2.43
X7.9171Y-3.1794
X8.2647Y-1.4977
X8.2647Y-2.2493
X8.2647Y-2.9987
X8.6647Y-1.4977
X8.6647Y-2.2493
X8.6647Y-2.9987
X9.0127Y-1.7437
X9.0127Y-2.4953
X9.0127Y-3.2447
X9.4127Y-1.7437
X9.4127Y-2.4953
X9.4127Y-3.2447
X9.7569Y-2.2135
X9.7569Y-2.9651
X9.7569Y-3.7145
X10.1569Y-2.2135
X10.1569Y-2.9651
X10.1569Y-3.7145
T5
X1.5338Y-2.1195
X1.5338Y-2.871
X1.5338Y-3.6204
X1.7838Y-2.0195
X1.7838Y-2.771
X1.7838Y-3.5204
X2.278Y-1.6497
X2.278Y-2.4013
X2.278Y-3.1507
X2.528Y-1.5497
X2.528Y-2.3013
X2.528Y-3.0507
X3.026Y-1.4037
X3.026Y-2.1552
X3.026Y-2.9046
X3.276Y-1.3037
X3.276Y-2.0552
X3.276Y-2.8046
X3.7737Y-1.5844
X3.7737Y-2.336
X3.7737Y-3.0854
X4.0237Y-1.4844
X4.0237Y-2.236
X4.0237Y-2.9854
X4.1731Y-3.9471
X4.2472Y-3.8634
X4.4404Y-3.9152
X4.4628Y-4.0247
X4.5217Y-1.6839
X4.5217Y-2.4354
X4.5217Y-3.1848
X4.7717Y-1.5839
X4.7717Y-2.3354
X4.7717Y-3.0848
X4.9869Y-4.2443
X5.0802Y-4.1827
X5.2467Y-4.3943
X5.2534Y-4.2827
X6.3973Y-4.2768
X6.404Y-4.3884
X6.5705Y-4.1768
X6.6638Y-4.2384
X6.869Y-1.9779
X6.869Y-2.7294
X6.869Y-3.4789
X7.119Y-1.8779
X7.119Y-2.6294
X7.119Y-3.3789
X7.1879Y-4.0187
X7.2103Y-3.9092
X7.4035Y-3.8574
X7.4776Y-3.9411
X7.6171Y-1.8785
X7.6171Y-2.63
X7.6171Y-3.3794
X7.8671Y-1.7785
X7.8671Y-2.53
X7.8671Y-3.2794
X8.3647Y-1.6977
X8.3647Y-2.4493
X8.3647Y-3.1987
X8.6147Y-1.5977
X8.6147Y-2.3493
X8.6147Y-3.0987
X9.1127Y-1.9437
X9.1127Y-2.6953
X9.1127Y-3.4447
X9.3627Y-1.8437
X9.3627Y-2.5953
X9.3627Y-3.3447
X9.8569Y-2.4135
X9.8569Y-3.1651
X9.8569Y-3.9145
X10.1069Y-2.3135
X10.1069Y-3.0651
X10.1069Y-3.8145
T6
X1.49Y-2.3678
X1.49Y-3.1194
X1.49Y-3.8688
X1.6869Y-2.4505
X1.6869Y-3.2021
X1.6869Y-3.9515
X2.2342Y-1.8981
X2.2342Y-2.6497
X2.2342Y-3.3991
X2.4311Y-1.9808
X2.4311Y-2.7323
X2.4311Y-3.4817
X2.9822Y-1.652
X2.9822Y-2.4036
X2.9822Y-3.153
X3.1791Y-1.7347
X3.1791Y-2.4863
X3.1791Y-3.2357
X3.7299Y-1.8328
X3.7299Y-2.5844
X3.7299Y-3.3338
X3.9267Y-1.9155
X3.9267Y-2.6671
X3.9267Y-3.4165
X4.0633Y-4.1743
X4.2321Y-4.3051
X4.4779Y-1.9322
X4.4779Y-2.6838
X4.4779Y-3.4332
X4.6748Y-2.0149
X4.6748Y-2.7665
X4.6748Y-3.5159
X4.8213Y-4.4357
X4.9504Y-4.6057
X6.49Y-4.6275
X6.7018Y-4.6007
X6.9721Y-1.5443
X6.9721Y-2.2959
X6.9721Y-3.0453
X7.1689Y-1.627
X7.1689Y-2.3786
X7.1689Y-3.128
X7.2078Y-4.2732
X7.4193Y-4.3021
X7.7201Y-1.4449
X7.7201Y-2.1965
X7.7201Y-2.9459
X7.917Y-1.5276
X7.917Y-2.2792
X7.917Y-3.0286
X8.4678Y-1.2641
X8.4678Y-2.0157
X8.4678Y-2.7651
X8.6646Y-1.3468
X8.6646Y-2.0984
X8.6646Y-2.8478
X9.2158Y-1.5102
X9.2158Y-2.2618
X9.2158Y-3.0112
X9.4126Y-1.5929
X9.4126Y-2.3445
X9.4126Y-3.0939
X9.96Y-1.9799
X9.96Y-2.7315
X9.96Y-3.4809
X10.1568Y-2.0626
X10.1568Y-2.8142
X10.1568Y-3.5636
T7
X1.9663Y-1.7993
X2.1713Y-3.6593
X4.3513Y-1.4093
X5.3913Y-4.1193
X6.2594Y-4.1133
X7.2994Y-1.4033
X9.4794Y-3.6533
X9.6844Y-1.7933
T8
X1.6869Y-2.2182
X1.6869Y-2.9698
X1.6869Y-3.7192
X2.4311Y-1.7485
X2.4311Y-2.5
X2.4311Y-3.2495
X3.1791Y-1.5024
X3.1791Y-2.254
X3.1791Y-3.0034
X3.9267Y-1.6832
X3.9267Y-2.4348
X3.9267Y-3.1842
X4.2922Y-4.0807
X4.6748Y-1.7826
X4.6748Y-2.5342
X4.6748Y-3.2836
X5.0665Y-4.4045
X6.5856Y-4.3995
X6.9721Y-1.7766
X6.9721Y-2.5282
X6.9721Y-3.2776
X7.3592Y-4.0777
X7.7201Y-1.6772
X7.7201Y-2.4288
X7.7201Y-3.1782
X8.4678Y-1.4964
X8.4678Y-2.248
X8.4678Y-2.9974
X9.2158Y-1.7425
X9.2158Y-2.4941
X9.2158Y-3.2435
X9.96Y-2.2122
X9.96Y-2.9638
X9.96Y-3.7132
T9
X4.2921Y-4.0825
X5.0668Y-4.4059
X6.5839Y-4.4
X7.3586Y-4.0765
T10
X1.6838Y-2.2195
X1.6838Y-2.971
X1.6838Y-3.7204
X2.428Y-1.7497
X2.428Y-2.5013
X2.428Y-3.2507
X3.176Y-1.5037
X3.176Y-2.2552
X3.176Y-3.0046
X3.9237Y-1.6844
X3.9237Y-2.436
X3.9237Y-3.1854
X4.6717Y-1.7839
X4.6717Y-2.5354
X4.6717Y-3.2848
X6.969Y-1.7779
X6.969Y-2.5294
X6.969Y-3.2789
X7.7171Y-1.6785
X7.7171Y-2.43
X7.7171Y-3.1794
X8.4647Y-1.4977
X8.4647Y-2.2493
X8.4647Y-2.9987
X9.2127Y-1.7437
X9.2127Y-2.4953
X9.2127Y-3.2447
X9.9569Y-2.2135
X9.9569Y-2.9651
X9.9569Y-3.7145
T0
M30
