<?xml version="1.0" standalone="no"?>
 <!DOCTYPE svg PUBLIC "-//W3C//DTD SVG 1.1//EN" 
 "http://www.w3.org/Graphics/SVG/1.1/DTD/svg11.dtd"> 
<svg
  xmlns:svg="http://www.w3.org/2000/svg"
  xmlns="http://www.w3.org/2000/svg"
  xmlns:xlink="http://www.w3.org/1999/xlink"
  version="1.1"
  width="29.700220cm" height="21.000720cm" viewBox="0 0 116930 82680">
<title>SVG Picture created as pulso - high-PTH-drl_map.svg date 2022/12/29 20:14:09 </title>
  <desc>Picture generated by PCBNEW </desc>
<g style="fill:#000000; fill-opacity:1.000000;stroke:#000000; stroke-opacity:1.000000;
stroke-linecap:round; stroke-linejoin:round;"
 transform="translate(0 0) scale(1 1)">
</g>
<g style="fill:#000000; fill-opacity:0.0; 
stroke:#000000; stroke-width:0.000000; stroke-opacity:1; 
stroke-linecap:round; stroke-linejoin:round;">
</g>
<g style="fill:#000000; fill-opacity:0.0; 
stroke:#000000; stroke-width:23.752400; stroke-opacity:1; 
stroke-linecap:round; stroke-linejoin:round;">
<path d="M57844 32768
L59085 32696
" />
<path d="M57844 32228
L59085 32228
" />
<path d="M57844 18452
L59085 18452
" />
<path d="M59085 17916
L57844 17988
" />
<path d="M89045.714904 2167.234582 A68419.577645 68419.577645 0.0 0 0 68055.710389 6598.941307" />
<path d="M65356 46933
L59916 37392
" />
<path d="M90934 2169
L89045 2167
" />
<path d="M112977.382949 11085.698340 A1930.129061 1930.129061 0.0 0 0 112299.422534 10128.799561" />
<path d="M67376.508094 17561.359367 A475.042302 475.042302 0.0 0 0 67851.556097 17086.313265" />
<path d="M59079.320526 33893.075975 A7989.715971 7989.715971 0.0 0 0 59916.506558 37392.116723" />
<path d="M112014 37800
L111883 37801
" />
<path d="M78616.282965 42033.563394 A41299.276239 41299.276239 0.0 0 0 66654.435012 47218.172271" />
<path d="M67849 6922
L67851 17086
" />
<path d="M112981 36883
L112977 11085
" />
<path d="M111883.755468 37801.092108 A133903.696392 133903.696392 0.0 0 0 78616.283040 42033.563687" />
<path d="M68055.709279 6598.938896 A356.286952 356.286952 0.0 0 0 67849.180857 6922.225628" />
<path d="M65356.604596 46933.744207 A934.217051 934.217051 0.0 0 0 66654.435201 47218.172567" />
<path d="M59079 33893
L59085 32696
" />
<path d="M112299.422420 10128.799705 A32654.846736 32654.846736 0.0 0 0 90934.138549 2169.370361" />
<path d="M112014.392711 37800.781857 A950.678414 950.678414 0.0 0 0 112981.116041 36883.502689" />
<path d="M59085 32228
L59085 18452
" />
<path d="M59441 17559
L67376 17561
" />
<path d="M59441.306256 17559.995980 A356.263200 356.263200 0.0 0 0 59085.020255 17916.261555" />
<path d="M4630.577372 10201.006857 A1930.129061 1930.129061 0.0 0 0 3952.616957 11157.905636" />
<path d="M57013 37464
L51573 47005
" />
<path d="M48874.289518 6671.148604 A68419.577645 68419.577645 0.0 0 0 27884.285003 2239.441878" />
<path d="M27884 2239
L25995 2241
" />
<path d="M50275.564640 47290.379968 A41299.275764 41299.275764 0.0 0 0 38313.716823 42105.771151" />
<path d="M49078 17158
L49080 6994
" />
<path d="M49078.441909 17158.520561 A475.044202 475.044202 0.0 0 0 49553.491812 17633.568564" />
<path d="M57013.494198 37464.324443 A7989.716921 7989.716921 0.0 0 0 57850.680330 33965.283279" />
<path d="M5046 37873
L4915 37872
" />
<path d="M50275.564188 47290.380660 A934.218001 934.218001 0.0 0 0 51573.396114 47005.952011" />
<path d="M3952 11157
L3948 36955
" />
<path d="M49553 17633
L57488 17632
" />
<path d="M49080.816674 6994.432924 A356.284577 356.284577 0.0 0 0 48874.289629 6671.148348" />
<path d="M57844 32768
L57850 33965
" />
<path d="M25995.861358 2241.577657 A32654.846736 32654.846736 0.0 0 0 4630.577487 10201.007001" />
<path d="M3948.884340 36955.709969 A950.677939 950.677939 0.0 0 0 4915.607187 37872.988678" />
<path d="M38313.716866 42105.770984 A133903.696392 133903.696392 0.0 0 0 5046.244439 37873.299404" />
<path d="M57844 18452
L57844 32228
" />
<path d="M57845.000078 17988.468851 A356.283627 356.283627 0.0 0 0 57488.693649 17632.182850" />
</g>
<g style="fill:#000000; fill-opacity:0.0; 
stroke:#000000; stroke-width:95.009601; stroke-opacity:1; 
stroke-linecap:round; stroke-linejoin:round;">
</g>
<g style="fill:#000000; fill-opacity:0.0; 
stroke:#000000; stroke-width:19.001920; stroke-opacity:1; 
stroke-linecap:round; stroke-linejoin:round;">
<path d="M4706 12181
L4896 12371
" />
<path d="M4896 12181
L4706 12371
" />
<path d="M5181 12657
L5371 12847
" />
<path d="M5371 12657
L5181 12847
" />
<path d="M11832 6956
L12022 7146
" />
<path d="M12022 6956
L11832 7146
" />
<path d="M30834 26908
L31024 27098
" />
<path d="M31024 26908
L30834 27098
" />
<path d="M36534 33084
L36724 33274
" />
<path d="M36724 33084
L36534 33274
" />
<path d="M40335 35934
L40525 36124
" />
<path d="M40525 35934
L40335 36124
" />
<path d="M40335 38784
L40525 38974
" />
<path d="M40525 38784
L40335 38974
" />
<path d="M42235 39734
L42425 39924
" />
<path d="M42425 39734
L42235 39924
" />
<path d="M46035 35459
L46225 35649
" />
<path d="M46225 35459
L46035 35649
" />
<path d="M46035 36884
L46225 37074
" />
<path d="M46225 36884
L46035 37074
" />
<path d="M48411 42585
L48601 42775
" />
<path d="M48601 42585
L48411 42775
" />
<path d="M49786 29730
L49976 29920
" />
<path d="M49976 29730
L49786 29920
" />
<path d="M50311 28333
L50501 28523
" />
<path d="M50501 28333
L50311 28523
" />
<path d="M51261 34034
L51451 34224
" />
<path d="M51451 34034
L51261 34224
" />
<path d="M52211 29283
L52401 29473
" />
<path d="M52401 29283
L52211 29473
" />
<path d="M53161 34034
L53351 34224
" />
<path d="M53351 34034
L53161 34224
" />
<path d="M54586 33559
L54776 33749
" />
<path d="M54776 33559
L54586 33749
" />
<path d="M54586 34034
L54776 34224
" />
<path d="M54776 34034
L54586 34224
" />
<path d="M55061 21682
L55251 21872
" />
<path d="M55251 21682
L55061 21872
" />
<path d="M62187 29758
L62377 29948
" />
<path d="M62377 29758
L62187 29948
" />
<path d="M62662 34984
L62852 35174
" />
<path d="M62852 34984
L62662 35174
" />
<path d="M63612 25958
L63802 26148
" />
<path d="M63802 25958
L63612 26148
" />
<path d="M64087 22633
L64277 22823
" />
<path d="M64277 22633
L64087 22823
" />
<path d="M65037 17882
L65227 18072
" />
<path d="M65227 17882
L65037 18072
" />
<path d="M65037 24058
L65227 24248
" />
<path d="M65227 24058
L65037 24248
" />
<path d="M65037 34509
L65227 34699
" />
<path d="M65227 34509
L65037 34699
" />
<path d="M65512 22633
L65702 22823
" />
<path d="M65702 22633
L65512 22823
" />
<path d="M65987 18357
L66177 18547
" />
<path d="M66177 18357
L65987 18547
" />
<path d="M65987 36409
L66177 36599
" />
<path d="M66177 36409
L65987 36599
" />
<path d="M68363 34034
L68553 34224
" />
<path d="M68553 34034
L68363 34224
" />
<path d="M68363 43060
L68553 43250
" />
<path d="M68553 43060
L68363 43250
" />
<path d="M69313 24533
L69503 24723
" />
<path d="M69503 24533
L69313 24723
" />
<path d="M69788 33084
L69978 33274
" />
<path d="M69978 33084
L69788 33274
" />
<path d="M71213 41634
L71403 41824
" />
<path d="M71403 41634
L71213 41824
" />
<path d="M72163 12657
L72353 12847
" />
<path d="M72353 12657
L72163 12847
" />
<path d="M72638 30233
L72828 30423
" />
<path d="M72828 30233
L72638 30423
" />
<path d="M74063 34034
L74253 34224
" />
<path d="M74253 34034
L74063 34224
" />
<path d="M75013 31183
L75203 31373
" />
<path d="M75203 31183
L75013 31373
" />
<path d="M78339 38309
L78529 38499
" />
<path d="M78529 38309
L78339 38499
" />
<path d="M80239 33084
L80429 33274
" />
<path d="M80429 33084
L80239 33274
" />
<path d="M81189 37834
L81379 38024
" />
<path d="M81379 37834
L81189 38024
" />
<path d="M82139 7431
L82329 7621
" />
<path d="M82329 7431
L82139 7621
" />
<path d="M91640 18357
L91830 18547
" />
<path d="M91830 18357
L91640 18547
" />
<path d="M112067 11231
L112257 11421
" />
<path d="M112257 11231
L112067 11421
" />
</g>
<g style="fill:#000000; fill-opacity:0.0; 
stroke:#000000; stroke-width:47.504800; stroke-opacity:1; 
stroke-linecap:round; stroke-linejoin:round;">
<circle cx="6841.378633" cy="19877.734758" r="237.524001" /> 
<circle cx="6841.378633" cy="37454.510858" r="237.524001" /> 
<circle cx="6877.007234" cy="28903.646809" r="237.524001" /> 
<circle cx="10238.921949" cy="19877.734758" r="237.524001" /> 
<circle cx="10238.921949" cy="37454.510858" r="237.524001" /> 
<circle cx="10274.550549" cy="28903.646809" r="237.524001" /> 
<circle cx="15820.808188" cy="14177.158725" r="237.524001" /> 
<circle cx="15856.436788" cy="23203.070777" r="237.524001" /> 
<circle cx="15929.284449" cy="32228.982828" r="237.524001" /> 
<circle cx="19218.351503" cy="14177.158725" r="237.524001" /> 
<circle cx="19253.980103" cy="23203.070777" r="237.524001" /> 
<circle cx="19326.827765" cy="32228.982828" r="237.524001" /> 
<circle cx="24846.720239" cy="11326.870709" r="237.524001" /> 
<circle cx="24882.348840" cy="20352.782760" r="237.524001" /> 
<circle cx="24955.196501" cy="28903.646809" r="237.524001" /> 
<circle cx="28244.263555" cy="11326.870709" r="237.524001" /> 
<circle cx="28279.892155" cy="20352.782760" r="237.524001" /> 
<circle cx="28352.739816" cy="28903.646809" r="237.524001" /> 
<circle cx="33867.881811" cy="13227.062720" r="237.524001" /> 
<circle cx="33867.881811" cy="31278.886823" r="237.524001" /> 
<circle cx="33903.510411" cy="22252.974771" r="237.524001" /> 
<circle cx="34254.736202" cy="36230.787203" r="237.524001" /> 
<circle cx="34254.736202" cy="39628.330518" r="237.524001" /> 
<circle cx="37265.425126" cy="13227.062720" r="237.524001" /> 
<circle cx="37265.425126" cy="31278.886823" r="237.524001" /> 
<circle cx="37301.053726" cy="22252.974771" r="237.524001" /> 
<circle cx="42893.793862" cy="14177.158725" r="237.524001" /> 
<circle cx="42893.793862" cy="32704.030831" r="237.524001" /> 
<circle cx="42929.422462" cy="23203.070777" r="237.524001" /> 
<circle cx="45180.840264" cy="36230.787203" r="237.524001" /> 
<circle cx="45180.840264" cy="39628.330518" r="237.524001" /> 
<circle cx="46291.337178" cy="14177.158725" r="237.524001" /> 
<circle cx="46291.337178" cy="32704.030831" r="237.524001" /> 
<circle cx="46326.965778" cy="23203.070777" r="237.524001" /> 
<circle cx="49933.695531" cy="19214.998614" r="237.524001" /> 
<circle cx="49933.695531" cy="20421.620541" r="237.524001" /> 
<circle cx="49933.695531" cy="21628.242468" r="237.524001" /> 
<circle cx="49933.695531" cy="22834.864395" r="237.524001" /> 
<circle cx="49933.695531" cy="24041.486322" r="237.524001" /> 
<circle cx="49933.695531" cy="25248.108249" r="237.524001" /> 
<circle cx="49933.695531" cy="26454.730176" r="237.524001" /> 
<circle cx="57173.427092" cy="19214.998614" r="237.524001" /> 
<circle cx="57173.427092" cy="20421.620541" r="237.524001" /> 
<circle cx="57173.427092" cy="21628.242468" r="237.524001" /> 
<circle cx="57173.427092" cy="22834.864395" r="237.524001" /> 
<circle cx="57173.427092" cy="24041.486322" r="237.524001" /> 
<circle cx="57173.427092" cy="25248.108249" r="237.524001" /> 
<circle cx="57173.427092" cy="26454.730176" r="237.524001" /> 
<circle cx="59779.065387" cy="19143.741414" r="237.524001" /> 
<circle cx="59779.065387" cy="20350.363341" r="237.524001" /> 
<circle cx="59779.065387" cy="21556.985268" r="237.524001" /> 
<circle cx="59779.065387" cy="22763.607195" r="237.524001" /> 
<circle cx="59779.065387" cy="23970.229122" r="237.524001" /> 
<circle cx="59779.065387" cy="25176.851048" r="237.524001" /> 
<circle cx="59779.065387" cy="26383.472975" r="237.524001" /> 
<circle cx="67018.796948" cy="19143.741414" r="237.524001" /> 
<circle cx="67018.796948" cy="20350.363341" r="237.524001" /> 
<circle cx="67018.796948" cy="21556.985268" r="237.524001" /> 
<circle cx="67018.796948" cy="22763.607195" r="237.524001" /> 
<circle cx="67018.796948" cy="23970.229122" r="237.524001" /> 
<circle cx="67018.796948" cy="25176.851048" r="237.524001" /> 
<circle cx="67018.796948" cy="26383.472975" r="237.524001" /> 
<circle cx="70613.888025" cy="13911.131844" r="237.524001" /> 
<circle cx="70613.888025" cy="31986.708347" r="237.524001" /> 
<circle cx="70649.516626" cy="22984.548695" r="237.524001" /> 
<circle cx="71783.528415" cy="36028.434806" r="237.524001" /> 
<circle cx="71783.528415" cy="39425.978121" r="237.524001" /> 
<circle cx="74011.431341" cy="13911.131844" r="237.524001" /> 
<circle cx="74011.431341" cy="31986.708347" r="237.524001" /> 
<circle cx="74047.059941" cy="22984.548695" r="237.524001" /> 
<circle cx="79585.716812" cy="30803.838820" r="237.524001" /> 
<circle cx="79639.800077" cy="12711.635637" r="237.524001" /> 
<circle cx="79675.428677" cy="22252.974771" r="237.524001" /> 
<circle cx="82234.584475" cy="34805.643195" r="237.524001" /> 
<circle cx="82234.584475" cy="38203.186510" r="237.524001" /> 
<circle cx="82983.260127" cy="30803.838820" r="237.524001" /> 
<circle cx="83037.343392" cy="12711.635637" r="237.524001" /> 
<circle cx="83072.971992" cy="22252.974771" r="237.524001" /> 
<circle cx="88611.628863" cy="20352.782760" r="237.524001" /> 
<circle cx="88611.628863" cy="28903.646809" r="237.524001" /> 
<circle cx="88660.961648" cy="10530.215208" r="237.524001" /> 
<circle cx="92009.172179" cy="20352.782760" r="237.524001" /> 
<circle cx="92009.172179" cy="28903.646809" r="237.524001" /> 
<circle cx="92058.504964" cy="10530.215208" r="237.524001" /> 
<circle cx="97637.540915" cy="23203.070777" r="237.524001" /> 
<circle cx="97637.540915" cy="31753.934825" r="237.524001" /> 
<circle cx="97686.873700" cy="13499.265225" r="237.524001" /> 
<circle cx="101035.084230" cy="23203.070777" r="237.524001" /> 
<circle cx="101035.084230" cy="31753.934825" r="237.524001" /> 
<circle cx="101084.417015" cy="13499.265225" r="237.524001" /> 
<circle cx="106663.452966" cy="28903.646809" r="237.524001" /> 
<circle cx="106663.452966" cy="37454.510858" r="237.524001" /> 
<circle cx="106666.303254" cy="19167.203085" r="237.524001" /> 
<circle cx="110060.996282" cy="28903.646809" r="237.524001" /> 
<circle cx="110060.996282" cy="37454.510858" r="237.524001" /> 
<circle cx="110063.846570" cy="19167.203085" r="237.524001" /> 
</g>
<g style="fill:#000000; fill-opacity:0.0; 
stroke:#000000; stroke-width:48.264877; stroke-opacity:1; 
stroke-linecap:round; stroke-linejoin:round;">
<path d="M51441 21537
L51441 22020
" />
<path d="M51200 21779
L51683 21779
" />
<path d="M51441 22442
L51441 22925
" />
<path d="M51200 22684
L51683 22684
" />
<path d="M52950 18521
L52950 19004
" />
<path d="M52708 18762
L53191 18762
" />
<path d="M52950 19728
L52950 20210
" />
<path d="M52708 19969
L53191 19969
" />
<path d="M54156 18521
L54156 19004
" />
<path d="M53915 18762
L54398 18762
" />
<path d="M54156 19728
L54156 20210
" />
<path d="M53915 19969
L54398 19969
" />
<path d="M61287 21466
L61287 21949
" />
<path d="M61046 21708
L61528 21708
" />
<path d="M61287 22371
L61287 22854
" />
<path d="M61046 22613
L61528 22613
" />
<path d="M62795 18450
L62795 18932
" />
<path d="M62554 18691
L63036 18691
" />
<path d="M62795 19656
L62795 20139
" />
<path d="M62554 19898
L63036 19898
" />
<path d="M64002 18450
L64002 18932
" />
<path d="M63760 18691
L64243 18691
" />
<path d="M64002 19656
L64002 20139
" />
<path d="M63760 19898
L64243 19898
" />
</g>
<g style="fill:#000000; fill-opacity:0.0; 
stroke:#000000; stroke-width:59.381000; stroke-opacity:1; 
stroke-linecap:round; stroke-linejoin:round;">
<path style="fill:#000000; fill-opacity:0.0; 
stroke:#000000; stroke-width:59.381000; stroke-opacity:1; 
stroke-linecap:round; stroke-linejoin:round;fill:none"
d="M 52516.505869,31488.832387
52516.505869,31068.941258
52096.614740,31068.941258
52096.614740,31488.832387
Z" /> 
<path style="fill:#000000; fill-opacity:0.0; 
stroke:#000000; stroke-width:59.381000; stroke-opacity:1; 
stroke-linecap:round; stroke-linejoin:round;fill:none"
d="M 54891.745883,31488.832387
54891.745883,31068.941258
54471.854753,31068.941258
54471.854753,31488.832387
Z" /> 
<path style="fill:#000000; fill-opacity:0.0; 
stroke:#000000; stroke-width:59.381000; stroke-opacity:1; 
stroke-linecap:round; stroke-linejoin:round;fill:none"
d="M 63003.190529,31441.327587
63003.190529,31021.436458
62583.299400,31021.436458
62583.299400,31441.327587
Z" /> 
<path style="fill:#000000; fill-opacity:0.0; 
stroke:#000000; stroke-width:59.381000; stroke-opacity:1; 
stroke-linecap:round; stroke-linejoin:round;fill:none"
d="M 65342.801942,31488.832387
65342.801942,31068.941258
64922.910813,31068.941258
64922.910813,31488.832387
Z" /> 
</g>
<g style="fill:#000000; fill-opacity:0.0; 
stroke:#000000; stroke-width:95.009601; stroke-opacity:1; 
stroke-linecap:round; stroke-linejoin:round;">
</g>
<g style="fill:#000000; fill-opacity:0.0; 
stroke:#000000; stroke-width:78.740157; stroke-opacity:1; 
stroke-linecap:round; stroke-linejoin:round;">
<text x="4724.409393" y="48712.484880"
textLength="5866.912665" font-size="1049.868437" lengthAdjust="spacingAndGlyphs"
text-anchor="start" opacity="0">Drill Map:</text>
<g class="stroked-text"><desc>Drill Map:</desc>
<path d="M4951 48674
L4951 47887
L5138 47887
L5251 47925
L5326 48000
L5363 48075
L5401 48225
L5401 48337
L5363 48487
L5326 48562
L5251 48637
L5138 48674
L4951 48674
" />
<path d="M5738 48674
L5738 48150
" />
<path d="M5738 48300
L5776 48225
L5813 48187
L5888 48150
L5963 48150
" />
<path d="M6226 48674
L6226 48150
" />
<path d="M6226 47887
L6188 47925
L6226 47962
L6263 47925
L6226 47887
L6226 47962
" />
<path d="M6713 48674
L6638 48637
L6601 48562
L6601 47887
" />
<path d="M7125 48674
L7050 48637
L7013 48562
L7013 47887
" />
<path d="M8025 48674
L8025 47887
L8288 48450
L8550 47887
L8550 48674
" />
<path d="M9263 48674
L9263 48262
L9225 48187
L9150 48150
L9000 48150
L8925 48187
" />
<path d="M9263 48637
L9188 48674
L9000 48674
L8925 48637
L8888 48562
L8888 48487
L8925 48412
L9000 48375
L9188 48375
L9263 48337
" />
<path d="M9638 48150
L9638 48937
" />
<path d="M9638 48187
L9713 48150
L9863 48150
L9938 48187
L9975 48225
L10013 48300
L10013 48525
L9975 48599
L9938 48637
L9863 48674
L9713 48674
L9638 48637
" />
<path d="M10350 48599
L10388 48637
L10350 48674
L10313 48637
L10350 48599
L10350 48674
" />
<path d="M10350 48187
L10388 48225
L10350 48262
L10313 48225
L10350 48187
L10350 48262
" />
</g></g>
<g style="fill:#000000; fill-opacity:0.0; 
stroke:#000000; stroke-width:19.001920; stroke-opacity:1; 
stroke-linecap:round; stroke-linejoin:round;">
<path d="M3746 49877
L3937 50067
" />
<path d="M3937 49877
L3746 50067
" />
</g>
<g style="fill:#000000; fill-opacity:0.0; 
stroke:#000000; stroke-width:95.009601; stroke-opacity:1; 
stroke-linecap:round; stroke-linejoin:round;">
</g>
<g style="fill:#000000; fill-opacity:0.0; 
stroke:#000000; stroke-width:78.740157; stroke-opacity:1; 
stroke-linecap:round; stroke-linejoin:round;">
<text x="4724.409393" y="50366.028167"
textLength="19201.349535" font-size="1049.868437" lengthAdjust="spacingAndGlyphs"
text-anchor="start" opacity="0">0.400mm / 0.0157" (44 holes)</text>
<g class="stroked-text"><desc>0.400mm / 0.0157" (44 holes)</desc>
<path d="M5101 49541
L5176 49541
L5251 49578
L5288 49616
L5326 49691
L5363 49841
L5363 50028
L5326 50178
L5288 50253
L5251 50291
L5176 50328
L5101 50328
L5026 50291
L4988 50253
L4951 50178
L4913 50028
L4913 49841
L4951 49691
L4988 49616
L5026 49578
L5101 49541
" />
<path d="M5701 50253
L5738 50291
L5701 50328
L5663 50291
L5701 50253
L5701 50328
" />
<path d="M6413 49803
L6413 50328
" />
<path d="M6226 49503
L6038 50066
L6526 50066
" />
<path d="M6976 49541
L7050 49541
L7125 49578
L7163 49616
L7200 49691
L7238 49841
L7238 50028
L7200 50178
L7163 50253
L7125 50291
L7050 50328
L6976 50328
L6901 50291
L6863 50253
L6826 50178
L6788 50028
L6788 49841
L6826 49691
L6863 49616
L6901 49578
L6976 49541
" />
<path d="M7725 49541
L7800 49541
L7875 49578
L7913 49616
L7950 49691
L7988 49841
L7988 50028
L7950 50178
L7913 50253
L7875 50291
L7800 50328
L7725 50328
L7650 50291
L7613 50253
L7575 50178
L7538 50028
L7538 49841
L7575 49691
L7613 49616
L7650 49578
L7725 49541
" />
<path d="M8325 50328
L8325 49803
" />
<path d="M8325 49878
L8363 49841
L8438 49803
L8550 49803
L8625 49841
L8663 49916
L8663 50328
" />
<path d="M8663 49916
L8700 49841
L8775 49803
L8888 49803
L8963 49841
L9000 49916
L9000 50328
" />
<path d="M9375 50328
L9375 49803
" />
<path d="M9375 49878
L9413 49841
L9488 49803
L9600 49803
L9675 49841
L9713 49916
L9713 50328
" />
<path d="M9713 49916
L9750 49841
L9825 49803
L9938 49803
L10013 49841
L10050 49916
L10050 50328
" />
<path d="M11587 49503
L10913 50516
" />
<path d="M12600 49541
L12675 49541
L12750 49578
L12787 49616
L12825 49691
L12862 49841
L12862 50028
L12825 50178
L12787 50253
L12750 50291
L12675 50328
L12600 50328
L12525 50291
L12487 50253
L12450 50178
L12412 50028
L12412 49841
L12450 49691
L12487 49616
L12525 49578
L12600 49541
" />
<path d="M13200 50253
L13237 50291
L13200 50328
L13162 50291
L13200 50253
L13200 50328
" />
<path d="M13725 49541
L13800 49541
L13875 49578
L13912 49616
L13950 49691
L13987 49841
L13987 50028
L13950 50178
L13912 50253
L13875 50291
L13800 50328
L13725 50328
L13650 50291
L13612 50253
L13575 50178
L13537 50028
L13537 49841
L13575 49691
L13612 49616
L13650 49578
L13725 49541
" />
<path d="M14737 50328
L14287 50328
" />
<path d="M14512 50328
L14512 49541
L14437 49653
L14362 49728
L14287 49766
" />
<path d="M15449 49541
L15074 49541
L15037 49916
L15074 49878
L15149 49841
L15337 49841
L15412 49878
L15449 49916
L15487 49991
L15487 50178
L15449 50253
L15412 50291
L15337 50328
L15149 50328
L15074 50291
L15037 50253
" />
<path d="M15749 49541
L16274 49541
L15937 50328
" />
<path d="M16537 49541
L16537 49691
" />
<path d="M16837 49541
L16837 49691
" />
<path d="M17999 50628
L17962 50590
L17887 50478
L17849 50403
L17812 50291
L17774 50103
L17774 49953
L17812 49766
L17849 49653
L17887 49578
L17962 49466
L17999 49428
" />
<path d="M18637 49803
L18637 50328
" />
<path d="M18449 49503
L18262 50066
L18749 50066
" />
<path d="M19386 49803
L19386 50328
" />
<path d="M19199 49503
L19011 50066
L19499 50066
" />
<path d="M20399 50328
L20399 49541
" />
<path d="M20736 50328
L20736 49916
L20699 49841
L20624 49803
L20511 49803
L20436 49841
L20399 49878
" />
<path d="M21224 50328
L21149 50291
L21111 50253
L21074 50178
L21074 49953
L21111 49878
L21149 49841
L21224 49803
L21336 49803
L21411 49841
L21449 49878
L21486 49953
L21486 50178
L21449 50253
L21411 50291
L21336 50328
L21224 50328
" />
<path d="M21936 50328
L21861 50291
L21824 50216
L21824 49541
" />
<path d="M22536 50291
L22461 50328
L22311 50328
L22236 50291
L22199 50216
L22199 49916
L22236 49841
L22311 49803
L22461 49803
L22536 49841
L22574 49916
L22574 49991
L22199 50066
" />
<path d="M22874 50291
L22949 50328
L23098 50328
L23173 50291
L23211 50216
L23211 50178
L23173 50103
L23098 50066
L22986 50066
L22911 50028
L22874 49953
L22874 49916
L22911 49841
L22986 49803
L23098 49803
L23173 49841
" />
<path d="M23473 50628
L23511 50590
L23586 50478
L23623 50403
L23661 50291
L23698 50103
L23698 49953
L23661 49766
L23623 49653
L23586 49578
L23511 49466
L23473 49428
" />
</g></g>
<g style="fill:#000000; fill-opacity:0.0; 
stroke:#000000; stroke-width:47.504800; stroke-opacity:1; 
stroke-linecap:round; stroke-linejoin:round;">
<circle cx="3699.483826" cy="51011.697261" r="237.524001" /> 
</g>
<g style="fill:#000000; fill-opacity:0.0; 
stroke:#000000; stroke-width:95.009601; stroke-opacity:1; 
stroke-linecap:round; stroke-linejoin:round;">
</g>
<g style="fill:#000000; fill-opacity:0.0; 
stroke:#000000; stroke-width:78.740157; stroke-opacity:1; 
stroke-linecap:round; stroke-linejoin:round;">
<text x="4724.409393" y="51405.398044"
textLength="19201.349535" font-size="1049.868437" lengthAdjust="spacingAndGlyphs"
text-anchor="start" opacity="0">1.000mm / 0.0394" (96 holes)</text>
<g class="stroked-text"><desc>1.000mm / 0.0394" (96 holes)</desc>
<path d="M5363 51367
L4913 51367
" />
<path d="M5138 51367
L5138 50580
L5063 50692
L4988 50767
L4913 50805
" />
<path d="M5701 51292
L5738 51330
L5701 51367
L5663 51330
L5701 51292
L5701 51367
" />
<path d="M6226 50580
L6301 50580
L6376 50617
L6413 50655
L6451 50730
L6488 50880
L6488 51067
L6451 51217
L6413 51292
L6376 51330
L6301 51367
L6226 51367
L6151 51330
L6113 51292
L6076 51217
L6038 51067
L6038 50880
L6076 50730
L6113 50655
L6151 50617
L6226 50580
" />
<path d="M6976 50580
L7050 50580
L7125 50617
L7163 50655
L7200 50730
L7238 50880
L7238 51067
L7200 51217
L7163 51292
L7125 51330
L7050 51367
L6976 51367
L6901 51330
L6863 51292
L6826 51217
L6788 51067
L6788 50880
L6826 50730
L6863 50655
L6901 50617
L6976 50580
" />
<path d="M7725 50580
L7800 50580
L7875 50617
L7913 50655
L7950 50730
L7988 50880
L7988 51067
L7950 51217
L7913 51292
L7875 51330
L7800 51367
L7725 51367
L7650 51330
L7613 51292
L7575 51217
L7538 51067
L7538 50880
L7575 50730
L7613 50655
L7650 50617
L7725 50580
" />
<path d="M8325 51367
L8325 50842
" />
<path d="M8325 50917
L8363 50880
L8438 50842
L8550 50842
L8625 50880
L8663 50955
L8663 51367
" />
<path d="M8663 50955
L8700 50880
L8775 50842
L8888 50842
L8963 50880
L9000 50955
L9000 51367
" />
<path d="M9375 51367
L9375 50842
" />
<path d="M9375 50917
L9413 50880
L9488 50842
L9600 50842
L9675 50880
L9713 50955
L9713 51367
" />
<path d="M9713 50955
L9750 50880
L9825 50842
L9938 50842
L10013 50880
L10050 50955
L10050 51367
" />
<path d="M11587 50543
L10913 51555
" />
<path d="M12600 50580
L12675 50580
L12750 50617
L12787 50655
L12825 50730
L12862 50880
L12862 51067
L12825 51217
L12787 51292
L12750 51330
L12675 51367
L12600 51367
L12525 51330
L12487 51292
L12450 51217
L12412 51067
L12412 50880
L12450 50730
L12487 50655
L12525 50617
L12600 50580
" />
<path d="M13200 51292
L13237 51330
L13200 51367
L13162 51330
L13200 51292
L13200 51367
" />
<path d="M13725 50580
L13800 50580
L13875 50617
L13912 50655
L13950 50730
L13987 50880
L13987 51067
L13950 51217
L13912 51292
L13875 51330
L13800 51367
L13725 51367
L13650 51330
L13612 51292
L13575 51217
L13537 51067
L13537 50880
L13575 50730
L13612 50655
L13650 50617
L13725 50580
" />
<path d="M14250 50580
L14737 50580
L14475 50880
L14587 50880
L14662 50917
L14700 50955
L14737 51030
L14737 51217
L14700 51292
L14662 51330
L14587 51367
L14362 51367
L14287 51330
L14250 51292
" />
<path d="M15112 51367
L15262 51367
L15337 51330
L15374 51292
L15449 51180
L15487 51030
L15487 50730
L15449 50655
L15412 50617
L15337 50580
L15187 50580
L15112 50617
L15074 50655
L15037 50730
L15037 50917
L15074 50992
L15112 51030
L15187 51067
L15337 51067
L15412 51030
L15449 50992
L15487 50917
" />
<path d="M16162 50842
L16162 51367
" />
<path d="M15974 50543
L15787 51105
L16274 51105
" />
<path d="M16537 50580
L16537 50730
" />
<path d="M16837 50580
L16837 50730
" />
<path d="M17999 51667
L17962 51630
L17887 51517
L17849 51442
L17812 51330
L17774 51142
L17774 50992
L17812 50805
L17849 50692
L17887 50617
L17962 50505
L17999 50468
" />
<path d="M18337 51367
L18487 51367
L18562 51330
L18599 51292
L18674 51180
L18712 51030
L18712 50730
L18674 50655
L18637 50617
L18562 50580
L18412 50580
L18337 50617
L18299 50655
L18262 50730
L18262 50917
L18299 50992
L18337 51030
L18412 51067
L18562 51067
L18637 51030
L18674 50992
L18712 50917
" />
<path d="M19386 50580
L19236 50580
L19161 50617
L19124 50655
L19049 50767
L19011 50917
L19011 51217
L19049 51292
L19086 51330
L19161 51367
L19311 51367
L19386 51330
L19424 51292
L19461 51217
L19461 51030
L19424 50955
L19386 50917
L19311 50880
L19161 50880
L19086 50917
L19049 50955
L19011 51030
" />
<path d="M20399 51367
L20399 50580
" />
<path d="M20736 51367
L20736 50955
L20699 50880
L20624 50842
L20511 50842
L20436 50880
L20399 50917
" />
<path d="M21224 51367
L21149 51330
L21111 51292
L21074 51217
L21074 50992
L21111 50917
L21149 50880
L21224 50842
L21336 50842
L21411 50880
L21449 50917
L21486 50992
L21486 51217
L21449 51292
L21411 51330
L21336 51367
L21224 51367
" />
<path d="M21936 51367
L21861 51330
L21824 51255
L21824 50580
" />
<path d="M22536 51330
L22461 51367
L22311 51367
L22236 51330
L22199 51255
L22199 50955
L22236 50880
L22311 50842
L22461 50842
L22536 50880
L22574 50955
L22574 51030
L22199 51105
" />
<path d="M22874 51330
L22949 51367
L23098 51367
L23173 51330
L23211 51255
L23211 51217
L23173 51142
L23098 51105
L22986 51105
L22911 51067
L22874 50992
L22874 50955
L22911 50880
L22986 50842
L23098 50842
L23173 50880
" />
<path d="M23473 51667
L23511 51630
L23586 51517
L23623 51442
L23661 51330
L23698 51142
L23698 50992
L23661 50805
L23623 50692
L23586 50617
L23511 50505
L23473 50468
" />
</g></g>
<g style="fill:#000000; fill-opacity:0.0; 
stroke:#000000; stroke-width:48.264877; stroke-opacity:1; 
stroke-linecap:round; stroke-linejoin:round;">
<path d="M3695 51809
L3695 52292
" />
<path d="M3454 52051
L3937 52051
" />
</g>
<g style="fill:#000000; fill-opacity:0.0; 
stroke:#000000; stroke-width:95.009601; stroke-opacity:1; 
stroke-linecap:round; stroke-linejoin:round;">
</g>
<g style="fill:#000000; fill-opacity:0.0; 
stroke:#000000; stroke-width:78.740157; stroke-opacity:1; 
stroke-linecap:round; stroke-linejoin:round;">
<text x="4724.409393" y="52444.767920"
textLength="19201.349535" font-size="1049.868437" lengthAdjust="spacingAndGlyphs"
text-anchor="start" opacity="0">1.016mm / 0.0400" (12 holes)</text>
<g class="stroked-text"><desc>1.016mm / 0.0400" (12 holes)</desc>
<path d="M5363 52407
L4913 52407
" />
<path d="M5138 52407
L5138 51619
L5063 51732
L4988 51807
L4913 51844
" />
<path d="M5701 52332
L5738 52369
L5701 52407
L5663 52369
L5701 52332
L5701 52407
" />
<path d="M6226 51619
L6301 51619
L6376 51657
L6413 51694
L6451 51769
L6488 51919
L6488 52107
L6451 52257
L6413 52332
L6376 52369
L6301 52407
L6226 52407
L6151 52369
L6113 52332
L6076 52257
L6038 52107
L6038 51919
L6076 51769
L6113 51694
L6151 51657
L6226 51619
" />
<path d="M7238 52407
L6788 52407
" />
<path d="M7013 52407
L7013 51619
L6938 51732
L6863 51807
L6788 51844
" />
<path d="M7913 51619
L7763 51619
L7688 51657
L7650 51694
L7575 51807
L7538 51957
L7538 52257
L7575 52332
L7613 52369
L7688 52407
L7838 52407
L7913 52369
L7950 52332
L7988 52257
L7988 52069
L7950 51994
L7913 51957
L7838 51919
L7688 51919
L7613 51957
L7575 51994
L7538 52069
" />
<path d="M8325 52407
L8325 51882
" />
<path d="M8325 51957
L8363 51919
L8438 51882
L8550 51882
L8625 51919
L8663 51994
L8663 52407
" />
<path d="M8663 51994
L8700 51919
L8775 51882
L8888 51882
L8963 51919
L9000 51994
L9000 52407
" />
<path d="M9375 52407
L9375 51882
" />
<path d="M9375 51957
L9413 51919
L9488 51882
L9600 51882
L9675 51919
L9713 51994
L9713 52407
" />
<path d="M9713 51994
L9750 51919
L9825 51882
L9938 51882
L10013 51919
L10050 51994
L10050 52407
" />
<path d="M11587 51582
L10913 52594
" />
<path d="M12600 51619
L12675 51619
L12750 51657
L12787 51694
L12825 51769
L12862 51919
L12862 52107
L12825 52257
L12787 52332
L12750 52369
L12675 52407
L12600 52407
L12525 52369
L12487 52332
L12450 52257
L12412 52107
L12412 51919
L12450 51769
L12487 51694
L12525 51657
L12600 51619
" />
<path d="M13200 52332
L13237 52369
L13200 52407
L13162 52369
L13200 52332
L13200 52407
" />
<path d="M13725 51619
L13800 51619
L13875 51657
L13912 51694
L13950 51769
L13987 51919
L13987 52107
L13950 52257
L13912 52332
L13875 52369
L13800 52407
L13725 52407
L13650 52369
L13612 52332
L13575 52257
L13537 52107
L13537 51919
L13575 51769
L13612 51694
L13650 51657
L13725 51619
" />
<path d="M14662 51882
L14662 52407
" />
<path d="M14475 51582
L14287 52144
L14775 52144
" />
<path d="M15224 51619
L15299 51619
L15374 51657
L15412 51694
L15449 51769
L15487 51919
L15487 52107
L15449 52257
L15412 52332
L15374 52369
L15299 52407
L15224 52407
L15149 52369
L15112 52332
L15074 52257
L15037 52107
L15037 51919
L15074 51769
L15112 51694
L15149 51657
L15224 51619
" />
<path d="M15974 51619
L16049 51619
L16124 51657
L16162 51694
L16199 51769
L16237 51919
L16237 52107
L16199 52257
L16162 52332
L16124 52369
L16049 52407
L15974 52407
L15899 52369
L15862 52332
L15824 52257
L15787 52107
L15787 51919
L15824 51769
L15862 51694
L15899 51657
L15974 51619
" />
<path d="M16537 51619
L16537 51769
" />
<path d="M16837 51619
L16837 51769
" />
<path d="M17999 52707
L17962 52669
L17887 52557
L17849 52482
L17812 52369
L17774 52182
L17774 52032
L17812 51844
L17849 51732
L17887 51657
L17962 51544
L17999 51507
" />
<path d="M18712 52407
L18262 52407
" />
<path d="M18487 52407
L18487 51619
L18412 51732
L18337 51807
L18262 51844
" />
<path d="M19011 51694
L19049 51657
L19124 51619
L19311 51619
L19386 51657
L19424 51694
L19461 51769
L19461 51844
L19424 51957
L18974 52407
L19461 52407
" />
<path d="M20399 52407
L20399 51619
" />
<path d="M20736 52407
L20736 51994
L20699 51919
L20624 51882
L20511 51882
L20436 51919
L20399 51957
" />
<path d="M21224 52407
L21149 52369
L21111 52332
L21074 52257
L21074 52032
L21111 51957
L21149 51919
L21224 51882
L21336 51882
L21411 51919
L21449 51957
L21486 52032
L21486 52257
L21449 52332
L21411 52369
L21336 52407
L21224 52407
" />
<path d="M21936 52407
L21861 52369
L21824 52294
L21824 51619
" />
<path d="M22536 52369
L22461 52407
L22311 52407
L22236 52369
L22199 52294
L22199 51994
L22236 51919
L22311 51882
L22461 51882
L22536 51919
L22574 51994
L22574 52069
L22199 52144
" />
<path d="M22874 52369
L22949 52407
L23098 52407
L23173 52369
L23211 52294
L23211 52257
L23173 52182
L23098 52144
L22986 52144
L22911 52107
L22874 52032
L22874 51994
L22911 51919
L22986 51882
L23098 51882
L23173 51919
" />
<path d="M23473 52707
L23511 52669
L23586 52557
L23623 52482
L23661 52369
L23698 52182
L23698 52032
L23661 51844
L23623 51732
L23586 51657
L23511 51544
L23473 51507
" />
</g></g>
<g style="fill:#000000; fill-opacity:0.0; 
stroke:#000000; stroke-width:59.381000; stroke-opacity:1; 
stroke-linecap:round; stroke-linejoin:round;">
<path style="fill:#000000; fill-opacity:0.0; 
stroke:#000000; stroke-width:59.381000; stroke-opacity:1; 
stroke-linecap:round; stroke-linejoin:round;fill:none"
d="M 3850.048390,53300.382578
3850.048390,52880.491449
3430.157261,52880.491449
3430.157261,53300.382578
Z" /> 
</g>
<g style="fill:#000000; fill-opacity:0.0; 
stroke:#000000; stroke-width:95.009601; stroke-opacity:1; 
stroke-linecap:round; stroke-linejoin:round;">
</g>
<g style="fill:#000000; fill-opacity:0.0; 
stroke:#000000; stroke-width:78.740157; stroke-opacity:1; 
stroke-linecap:round; stroke-linejoin:round;">
<text x="4724.409393" y="53484.137796"
textLength="18451.443509" font-size="1049.868437" lengthAdjust="spacingAndGlyphs"
text-anchor="start" opacity="0">1.250mm / 0.0492" (4 holes)</text>
<g class="stroked-text"><desc>1.250mm / 0.0492" (4 holes)</desc>
<path d="M5363 53446
L4913 53446
" />
<path d="M5138 53446
L5138 52659
L5063 52771
L4988 52846
L4913 52884
" />
<path d="M5701 53371
L5738 53409
L5701 53446
L5663 53409
L5701 53371
L5701 53446
" />
<path d="M6038 52734
L6076 52696
L6151 52659
L6338 52659
L6413 52696
L6451 52734
L6488 52809
L6488 52884
L6451 52996
L6001 53446
L6488 53446
" />
<path d="M7200 52659
L6826 52659
L6788 53034
L6826 52996
L6901 52959
L7088 52959
L7163 52996
L7200 53034
L7238 53109
L7238 53296
L7200 53371
L7163 53409
L7088 53446
L6901 53446
L6826 53409
L6788 53371
" />
<path d="M7725 52659
L7800 52659
L7875 52696
L7913 52734
L7950 52809
L7988 52959
L7988 53146
L7950 53296
L7913 53371
L7875 53409
L7800 53446
L7725 53446
L7650 53409
L7613 53371
L7575 53296
L7538 53146
L7538 52959
L7575 52809
L7613 52734
L7650 52696
L7725 52659
" />
<path d="M8325 53446
L8325 52921
" />
<path d="M8325 52996
L8363 52959
L8438 52921
L8550 52921
L8625 52959
L8663 53034
L8663 53446
" />
<path d="M8663 53034
L8700 52959
L8775 52921
L8888 52921
L8963 52959
L9000 53034
L9000 53446
" />
<path d="M9375 53446
L9375 52921
" />
<path d="M9375 52996
L9413 52959
L9488 52921
L9600 52921
L9675 52959
L9713 53034
L9713 53446
" />
<path d="M9713 53034
L9750 52959
L9825 52921
L9938 52921
L10013 52959
L10050 53034
L10050 53446
" />
<path d="M11587 52621
L10913 53634
" />
<path d="M12600 52659
L12675 52659
L12750 52696
L12787 52734
L12825 52809
L12862 52959
L12862 53146
L12825 53296
L12787 53371
L12750 53409
L12675 53446
L12600 53446
L12525 53409
L12487 53371
L12450 53296
L12412 53146
L12412 52959
L12450 52809
L12487 52734
L12525 52696
L12600 52659
" />
<path d="M13200 53371
L13237 53409
L13200 53446
L13162 53409
L13200 53371
L13200 53446
" />
<path d="M13725 52659
L13800 52659
L13875 52696
L13912 52734
L13950 52809
L13987 52959
L13987 53146
L13950 53296
L13912 53371
L13875 53409
L13800 53446
L13725 53446
L13650 53409
L13612 53371
L13575 53296
L13537 53146
L13537 52959
L13575 52809
L13612 52734
L13650 52696
L13725 52659
" />
<path d="M14662 52921
L14662 53446
" />
<path d="M14475 52621
L14287 53184
L14775 53184
" />
<path d="M15112 53446
L15262 53446
L15337 53409
L15374 53371
L15449 53259
L15487 53109
L15487 52809
L15449 52734
L15412 52696
L15337 52659
L15187 52659
L15112 52696
L15074 52734
L15037 52809
L15037 52996
L15074 53071
L15112 53109
L15187 53146
L15337 53146
L15412 53109
L15449 53071
L15487 52996
" />
<path d="M15787 52734
L15824 52696
L15899 52659
L16087 52659
L16162 52696
L16199 52734
L16237 52809
L16237 52884
L16199 52996
L15749 53446
L16237 53446
" />
<path d="M16537 52659
L16537 52809
" />
<path d="M16837 52659
L16837 52809
" />
<path d="M17999 53746
L17962 53709
L17887 53596
L17849 53521
L17812 53409
L17774 53221
L17774 53071
L17812 52884
L17849 52771
L17887 52696
L17962 52584
L17999 52546
" />
<path d="M18637 52921
L18637 53446
" />
<path d="M18449 52621
L18262 53184
L18749 53184
" />
<path d="M19649 53446
L19649 52659
" />
<path d="M19986 53446
L19986 53034
L19949 52959
L19874 52921
L19761 52921
L19686 52959
L19649 52996
" />
<path d="M20474 53446
L20399 53409
L20361 53371
L20324 53296
L20324 53071
L20361 52996
L20399 52959
L20474 52921
L20586 52921
L20661 52959
L20699 52996
L20736 53071
L20736 53296
L20699 53371
L20661 53409
L20586 53446
L20474 53446
" />
<path d="M21186 53446
L21111 53409
L21074 53334
L21074 52659
" />
<path d="M21786 53409
L21711 53446
L21561 53446
L21486 53409
L21449 53334
L21449 53034
L21486 52959
L21561 52921
L21711 52921
L21786 52959
L21824 53034
L21824 53109
L21449 53184
" />
<path d="M22124 53409
L22199 53446
L22349 53446
L22424 53409
L22461 53334
L22461 53296
L22424 53221
L22349 53184
L22236 53184
L22161 53146
L22124 53071
L22124 53034
L22161 52959
L22236 52921
L22349 52921
L22424 52959
" />
<path d="M22724 53746
L22761 53709
L22836 53596
L22874 53521
L22911 53409
L22949 53221
L22949 53071
L22911 52884
L22874 52771
L22836 52696
L22761 52584
L22724 52546
" />
</g></g> 
</svg>
