G04 #@! TF.GenerationSoftware,KiCad,Pcbnew,(6.0.9)*
G04 #@! TF.CreationDate,2022-12-29T20:14:13-03:00*
G04 #@! TF.ProjectId,pulso - high,70756c73-6f20-42d2-9068-6967682e6b69,0.3*
G04 #@! TF.SameCoordinates,Original*
G04 #@! TF.FileFunction,Copper,L1,Top*
G04 #@! TF.FilePolarity,Positive*
%FSLAX46Y46*%
G04 Gerber Fmt 4.6, Leading zero omitted, Abs format (unit mm)*
G04 Created by KiCad (PCBNEW (6.0.9)) date 2022-12-29 20:14:13*
%MOMM*%
%LPD*%
G01*
G04 APERTURE LIST*
G04 Aperture macros list*
%AMRotRect*
0 Rectangle, with rotation*
0 The origin of the aperture is its center*
0 $1 length*
0 $2 width*
0 $3 Rotation angle, in degrees counterclockwise*
0 Add horizontal line*
21,1,$1,$2,0,0,$3*%
%AMFreePoly0*
4,1,13,0.650000,-0.475000,-0.650000,-0.475000,-0.650000,-0.227400,-1.093000,-0.227400,-1.128355,-0.212755,-1.143000,-0.177400,-1.143000,0.178200,-1.128355,0.213555,-1.093000,0.228200,-0.650000,0.228200,-0.650000,0.475000,0.650000,0.475000,0.650000,-0.475000,0.650000,-0.475000,$1*%
%AMFreePoly1*
4,1,13,0.650000,0.227000,1.093000,0.227000,1.128355,0.212355,1.143000,0.177000,1.143000,-0.178600,1.128355,-0.213955,1.093000,-0.228600,0.650000,-0.228600,0.650000,-0.475000,-0.650000,-0.475000,-0.650000,0.475000,0.650000,0.475000,0.650000,0.227000,0.650000,0.227000,$1*%
G04 Aperture macros list end*
G04 #@! TA.AperFunction,ComponentPad*
%ADD10O,2.750000X1.800000*%
G04 #@! TD*
G04 #@! TA.AperFunction,ComponentPad*
%ADD11C,1.397000*%
G04 #@! TD*
G04 #@! TA.AperFunction,SMDPad,CuDef*
%ADD12FreePoly0,90.000000*%
G04 #@! TD*
G04 #@! TA.AperFunction,ComponentPad*
%ADD13R,1.600000X1.600000*%
G04 #@! TD*
G04 #@! TA.AperFunction,ComponentPad*
%ADD14C,1.600000*%
G04 #@! TD*
G04 #@! TA.AperFunction,SMDPad,CuDef*
%ADD15FreePoly1,90.000000*%
G04 #@! TD*
G04 #@! TA.AperFunction,SMDPad,CuDef*
%ADD16FreePoly0,0.000000*%
G04 #@! TD*
G04 #@! TA.AperFunction,SMDPad,CuDef*
%ADD17FreePoly1,0.000000*%
G04 #@! TD*
G04 #@! TA.AperFunction,SMDPad,CuDef*
%ADD18FreePoly0,270.000000*%
G04 #@! TD*
G04 #@! TA.AperFunction,SMDPad,CuDef*
%ADD19FreePoly1,270.000000*%
G04 #@! TD*
G04 #@! TA.AperFunction,ComponentPad*
%ADD20C,2.500000*%
G04 #@! TD*
G04 #@! TA.AperFunction,WasherPad*
%ADD21C,0.900000*%
G04 #@! TD*
G04 #@! TA.AperFunction,SMDPad,CuDef*
%ADD22R,1.000000X0.700000*%
G04 #@! TD*
G04 #@! TA.AperFunction,SMDPad,CuDef*
%ADD23R,2.800000X1.000000*%
G04 #@! TD*
G04 #@! TA.AperFunction,SMDPad,CuDef*
%ADD24RotRect,2.550000X2.500000X210.000000*%
G04 #@! TD*
G04 #@! TA.AperFunction,SMDPad,CuDef*
%ADD25RotRect,2.550000X2.500000X195.000000*%
G04 #@! TD*
G04 #@! TA.AperFunction,SMDPad,CuDef*
%ADD26R,1.700000X0.900000*%
G04 #@! TD*
G04 #@! TA.AperFunction,SMDPad,CuDef*
%ADD27RotRect,2.550000X2.500000X345.000000*%
G04 #@! TD*
G04 #@! TA.AperFunction,SMDPad,CuDef*
%ADD28RotRect,2.550000X2.500000X330.000000*%
G04 #@! TD*
G04 #@! TA.AperFunction,ViaPad*
%ADD29C,0.800000*%
G04 #@! TD*
G04 #@! TA.AperFunction,Conductor*
%ADD30C,0.200000*%
G04 #@! TD*
G04 #@! TA.AperFunction,Conductor*
%ADD31C,0.250000*%
G04 #@! TD*
G04 APERTURE END LIST*
D10*
X150255000Y-64454907D03*
X150255000Y-66994907D03*
X150255000Y-69534907D03*
X150255000Y-72074907D03*
X150255000Y-74614907D03*
X150255000Y-77154907D03*
X150255000Y-79694907D03*
X166445000Y-79694907D03*
X166445000Y-77154907D03*
X166445000Y-74614907D03*
X166445000Y-72074907D03*
X166445000Y-69534907D03*
X166445000Y-66994907D03*
X166445000Y-64454907D03*
D11*
X157080000Y-63502907D03*
X159620000Y-63502907D03*
X157080000Y-66042907D03*
X159620000Y-66042907D03*
X153905000Y-71757907D03*
X153905000Y-69852907D03*
D12*
X176000000Y-105349038D03*
D13*
X176000000Y-107150038D03*
D14*
X176000000Y-99998038D03*
D15*
X176000000Y-101799038D03*
D13*
X249424000Y-103000000D03*
D16*
X251225000Y-103000000D03*
D14*
X256576000Y-103000000D03*
D17*
X254775000Y-103000000D03*
D13*
X230424000Y-91000000D03*
D16*
X232225000Y-91000000D03*
D14*
X237576000Y-91000000D03*
D17*
X235775000Y-91000000D03*
D13*
X211424000Y-85000000D03*
D16*
X213225000Y-85000000D03*
D14*
X218576000Y-85000000D03*
D17*
X216775000Y-85000000D03*
D13*
X192424000Y-89000000D03*
D16*
X194225000Y-89000000D03*
D14*
X199576000Y-89000000D03*
D17*
X197775000Y-89000000D03*
D13*
X249424000Y-85000000D03*
D16*
X251225000Y-85000000D03*
D14*
X256576000Y-85000000D03*
D17*
X254775000Y-85000000D03*
D13*
X230424000Y-73000000D03*
D16*
X232225000Y-73000000D03*
D14*
X237576000Y-73000000D03*
D17*
X235775000Y-73000000D03*
D13*
X211424000Y-67000000D03*
D16*
X213225000Y-67000000D03*
D14*
X218576000Y-67000000D03*
D17*
X216775000Y-67000000D03*
D13*
X192612848Y-71000000D03*
D16*
X194413848Y-71000000D03*
D14*
X199764848Y-71000000D03*
D17*
X197963848Y-71000000D03*
D12*
X198000000Y-102775000D03*
D13*
X198000000Y-104576000D03*
D14*
X198000000Y-97424000D03*
D15*
X198000000Y-99225000D03*
D18*
X120000000Y-102225000D03*
D13*
X120000000Y-100424000D03*
D14*
X120000000Y-107576000D03*
D19*
X120000000Y-105775000D03*
D18*
X97000000Y-102225000D03*
D13*
X97000000Y-100424000D03*
D14*
X97000000Y-107576000D03*
D19*
X97000000Y-105775000D03*
D20*
X140000000Y-90000000D03*
X157075000Y-89900000D03*
X135000000Y-90000000D03*
X162000000Y-90000000D03*
D21*
X144000000Y-98625000D03*
X144050000Y-95625000D03*
D22*
X142200000Y-99375000D03*
X142200000Y-96375000D03*
X142200000Y-94875000D03*
D23*
X144100000Y-100975000D03*
X144100000Y-93025000D03*
D21*
X152150000Y-96000000D03*
X152100000Y-99000000D03*
D22*
X153950000Y-95250000D03*
X153950000Y-98250000D03*
X153950000Y-99750000D03*
D23*
X152050000Y-101600000D03*
X152050000Y-93650000D03*
D13*
X173537848Y-53440000D03*
D16*
X175338848Y-53440000D03*
D14*
X180689848Y-53440000D03*
D17*
X178888848Y-53440000D03*
D13*
X173612848Y-72540000D03*
D16*
X175413848Y-72540000D03*
D14*
X180764848Y-72540000D03*
D17*
X178963848Y-72540000D03*
D13*
X173537848Y-91490000D03*
D16*
X175338848Y-91490000D03*
D14*
X180689848Y-91490000D03*
D17*
X178888848Y-91490000D03*
D13*
X192537848Y-50915000D03*
D16*
X194338848Y-50915000D03*
D14*
X199689848Y-50915000D03*
D17*
X197888848Y-50915000D03*
D13*
X211527848Y-46323000D03*
D16*
X213328848Y-46323000D03*
D14*
X218679848Y-46323000D03*
D17*
X216878848Y-46323000D03*
D13*
X230527848Y-52573000D03*
D16*
X232328848Y-52573000D03*
D14*
X237679848Y-52573000D03*
D17*
X235878848Y-52573000D03*
X254781000Y-64504295D03*
D14*
X256582000Y-64504295D03*
D16*
X251231000Y-64504295D03*
D13*
X249430000Y-64504295D03*
D24*
X172508152Y-105779295D03*
X159243700Y-110504591D03*
D25*
X179518526Y-100264069D03*
X193553999Y-99132876D03*
D26*
X165892000Y-96313000D03*
X165892000Y-99713000D03*
D13*
X115185652Y-93000000D03*
D16*
X116986652Y-93000000D03*
D14*
X122337652Y-93000000D03*
D17*
X120536652Y-93000000D03*
X120536652Y-54000000D03*
D14*
X122337652Y-54000000D03*
D16*
X116986652Y-54000000D03*
D13*
X115185652Y-54000000D03*
X115260652Y-73000000D03*
D16*
X117061652Y-73000000D03*
D14*
X122412652Y-73000000D03*
D17*
X120611652Y-73000000D03*
D13*
X96185652Y-90000000D03*
D16*
X97986652Y-90000000D03*
D14*
X103337652Y-90000000D03*
D17*
X101536652Y-90000000D03*
X101536652Y-52000000D03*
D14*
X103337652Y-52000000D03*
D16*
X97986652Y-52000000D03*
D13*
X96185652Y-52000000D03*
X96260652Y-71000000D03*
D16*
X98061652Y-71000000D03*
D14*
X103412652Y-71000000D03*
D17*
X101611652Y-71000000D03*
D13*
X77424000Y-85000000D03*
D16*
X79225000Y-85000000D03*
D14*
X84576000Y-85000000D03*
D17*
X82775000Y-85000000D03*
D13*
X77270652Y-67000000D03*
D16*
X79071652Y-67000000D03*
D14*
X84422652Y-67000000D03*
D17*
X82621652Y-67000000D03*
X82546652Y-48000000D03*
D14*
X84347652Y-48000000D03*
D16*
X78996652Y-48000000D03*
D13*
X77195652Y-48000000D03*
X58424000Y-92000000D03*
D16*
X60225000Y-92000000D03*
D14*
X65576000Y-92000000D03*
D17*
X63775000Y-92000000D03*
D13*
X58270652Y-73000000D03*
D16*
X60071652Y-73000000D03*
D14*
X65422652Y-73000000D03*
D17*
X63621652Y-73000000D03*
X63546652Y-54000000D03*
D14*
X65347652Y-54000000D03*
D16*
X59996652Y-54000000D03*
D13*
X58195652Y-54000000D03*
D17*
X44719500Y-85000000D03*
D14*
X46520500Y-85000000D03*
D16*
X41169500Y-85000000D03*
D13*
X39368500Y-85000000D03*
D17*
X44644500Y-103000000D03*
D14*
X46445500Y-103000000D03*
D16*
X41094500Y-103000000D03*
D13*
X39293500Y-103000000D03*
D17*
X44644500Y-66000000D03*
D14*
X46445500Y-66000000D03*
D16*
X41094500Y-66000000D03*
D13*
X39293500Y-66000000D03*
D27*
X116978452Y-103198220D03*
X104257779Y-97160125D03*
D26*
X130037652Y-99865000D03*
X130037652Y-96465000D03*
D28*
X136513804Y-113491295D03*
X125789352Y-104366591D03*
D10*
X129530000Y-64604907D03*
X129530000Y-67144907D03*
X129530000Y-69684907D03*
X129530000Y-72224907D03*
X129530000Y-74764907D03*
X129530000Y-77304907D03*
X129530000Y-79844907D03*
X145720000Y-79844907D03*
X145720000Y-77304907D03*
X145720000Y-74764907D03*
X145720000Y-72224907D03*
X145720000Y-69684907D03*
X145720000Y-67144907D03*
X145720000Y-64604907D03*
D11*
X136355000Y-63652907D03*
X138895000Y-63652907D03*
X136355000Y-66192907D03*
X138895000Y-66192907D03*
X133180000Y-71907907D03*
X133180000Y-70002907D03*
D29*
X163000000Y-72000000D03*
X156000000Y-87000000D03*
X162000000Y-75000000D03*
X159000000Y-79000000D03*
X164000000Y-101000000D03*
X169000000Y-96000000D03*
X172000000Y-94000000D03*
X194000000Y-94000000D03*
X162000000Y-97000000D03*
X181000000Y-96000000D03*
X171000000Y-76000000D03*
X162000000Y-62000000D03*
X164000000Y-63000000D03*
X160000000Y-72000000D03*
X157000000Y-98000000D03*
X198000000Y-40000000D03*
X177000000Y-51000000D03*
X218000000Y-63000000D03*
X261000000Y-48000000D03*
X190000000Y-105000000D03*
X196000000Y-104000000D03*
X169000000Y-115000000D03*
X175000000Y-112000000D03*
X183000000Y-90000000D03*
X178000000Y-88000000D03*
X114000000Y-108000000D03*
X110000000Y-100000000D03*
X129895863Y-86941335D03*
X135000000Y-86000000D03*
X90000000Y-81000000D03*
X133000000Y-96000000D03*
X122000000Y-99000000D03*
X122000000Y-102000000D03*
X141000000Y-70000000D03*
X102000000Y-94000000D03*
X131000000Y-84000000D03*
X140000000Y-95000000D03*
X140000000Y-96000000D03*
X137000000Y-96000000D03*
X50000000Y-39000000D03*
X35000000Y-50000000D03*
X36000000Y-51000000D03*
X110000000Y-106000000D03*
X127000000Y-114000000D03*
D30*
X162000000Y-72000000D02*
X163000000Y-72000000D01*
X161000000Y-75000000D02*
G75*
G02*
X159000000Y-77000000I-2000000J0D01*
G01*
X161000000Y-75000000D02*
X161000000Y-73000000D01*
X159000000Y-77000000D02*
G75*
G03*
X156000000Y-80000000I0J-3000000D01*
G01*
X162000000Y-72000000D02*
G75*
G03*
X161000000Y-73000000I0J-1000000D01*
G01*
X156000000Y-87000000D02*
X156000000Y-80000000D01*
X162000000Y-76000000D02*
X162000000Y-75000000D01*
X162000000Y-76000000D02*
G75*
G02*
X159000000Y-79000000I-3000000J0D01*
G01*
X159000000Y-86000000D02*
X159000000Y-93000000D01*
X159000000Y-93000000D02*
X172027848Y-93000000D01*
X160000000Y-68000000D02*
X164000000Y-72000000D01*
X152264907Y-68000000D02*
X160000000Y-68000000D01*
X173537800Y-91490000D02*
G75*
G02*
X172027848Y-93000000I-1510000J0D01*
G01*
X159000000Y-86000000D02*
G75*
G03*
X164000000Y-81000000I0J5000000D01*
G01*
X152264907Y-68000000D02*
G75*
G03*
X150730000Y-69534907I-7J-1534900D01*
G01*
X164000000Y-72000000D02*
X164000000Y-81000000D01*
X159385093Y-74614907D02*
X150730000Y-74614907D01*
X159967797Y-72032203D02*
X159967797Y-74203896D01*
X160000000Y-72000000D02*
X159967797Y-72032203D01*
X159385093Y-74614857D02*
G75*
G03*
X159967797Y-74203896I-2093J621557D01*
G01*
X164000000Y-101000000D02*
G75*
G02*
X165287000Y-99713000I1287000J0D01*
G01*
X165892000Y-99713000D02*
X165287000Y-99713000D01*
X165892000Y-96313000D02*
G75*
G02*
X166205000Y-96000000I313000J0D01*
G01*
X169000000Y-96000000D02*
X166205000Y-96000000D01*
X158000000Y-94000000D02*
X172000000Y-94000000D01*
X158000000Y-94000000D02*
G75*
G02*
X157075000Y-93075000I0J925000D01*
G01*
X157075000Y-89900000D02*
X157075000Y-93075000D01*
X184000000Y-97000000D02*
X177000000Y-97000000D01*
X189000000Y-96000000D02*
X185000000Y-96000000D01*
X162000000Y-97000000D02*
G75*
G03*
X163000000Y-98000000I1000000J0D01*
G01*
X176000000Y-98000000D02*
G75*
G02*
X177000000Y-97000000I1000000J0D01*
G01*
X184000000Y-97000000D02*
G75*
G02*
X185000000Y-96000000I1000000J0D01*
G01*
X189000000Y-96000000D02*
G75*
G03*
X190000000Y-95000000I0J1000000D01*
G01*
X190000000Y-95000000D02*
G75*
G02*
X191000000Y-94000000I1000000J0D01*
G01*
X176000000Y-98000000D02*
X163000000Y-98000000D01*
X194000000Y-94000000D02*
X191000000Y-94000000D01*
X162000000Y-97000000D02*
G75*
G02*
X159250000Y-99750000I-2750000J0D01*
G01*
X153950000Y-99750000D02*
X159250000Y-99750000D01*
X152154907Y-77154907D02*
X150730000Y-77154907D01*
X154000000Y-92000000D02*
X154000000Y-79000000D01*
X162000000Y-95000000D02*
X157000000Y-95000000D01*
X169000000Y-95000000D02*
X162000000Y-95000000D01*
X154000000Y-92000000D02*
G75*
G03*
X157000000Y-95000000I3000000J0D01*
G01*
X152154907Y-77154900D02*
G75*
G02*
X154000000Y-79000000I-7J-1845100D01*
G01*
X169000000Y-94999940D02*
G75*
G02*
X170876412Y-96300134I-2400J-2007560D01*
G01*
X180699866Y-96300134D02*
X170876412Y-96300134D01*
X181000000Y-96000000D02*
X180699866Y-96300134D01*
X173612848Y-72540000D02*
G75*
G03*
X171000000Y-75152848I-48J-2612800D01*
G01*
X171000000Y-76000000D02*
X171000000Y-75152848D01*
X151000000Y-62000000D02*
X162000000Y-62000000D01*
X151000000Y-62000000D02*
G75*
G03*
X150730000Y-62270000I0J-270000D01*
G01*
X150730000Y-64454907D02*
X150730000Y-62270000D01*
X165000000Y-62000000D02*
X169000000Y-62000000D01*
X165000000Y-62000000D02*
G75*
G03*
X164000000Y-63000000I0J-1000000D01*
G01*
X169000000Y-54000000D02*
X169000000Y-62000000D01*
X157000000Y-98000000D02*
X154200000Y-98000000D01*
X153950000Y-98250000D02*
G75*
G02*
X154200000Y-98000000I250000J0D01*
G01*
X185000001Y-44000000D02*
G75*
G03*
X184857999Y-43857999I-142001J0D01*
G01*
X181142001Y-43857999D02*
X184857999Y-43857999D01*
X180000000Y-45000000D02*
X181142001Y-43857999D01*
X180000000Y-45905551D02*
X180000000Y-45000000D01*
X177000000Y-48905551D02*
X180000000Y-45905551D01*
X187193980Y-44000000D02*
X191193980Y-40000000D01*
X177000000Y-51000000D02*
X177000000Y-48905551D01*
X185000000Y-44000000D02*
X187193980Y-44000000D01*
X191193980Y-40000000D02*
X198000000Y-40000000D01*
X209000000Y-65000000D02*
X216000000Y-65000000D01*
X216000000Y-65000000D02*
X218000000Y-63000000D01*
X209000000Y-65000000D02*
G75*
G02*
X207000000Y-67000000I-2000000J0D01*
G01*
X205000000Y-67000000D02*
X207000000Y-67000000D01*
X197000000Y-67000000D02*
X205000000Y-67000000D01*
X197000000Y-64470551D02*
X197000000Y-67000000D01*
X199000000Y-62470551D02*
X197000000Y-64470551D01*
X199000001Y-62000000D02*
G75*
G03*
X196322999Y-59322999I-2677001J0D01*
G01*
X194677001Y-59322999D02*
X196322999Y-59322999D01*
X194000000Y-60000047D02*
G75*
G03*
X193613847Y-60386153I0J-386153D01*
G01*
X193613847Y-62717114D02*
X193613847Y-60386153D01*
X192330961Y-64000000D02*
X193613847Y-62717114D01*
X192000000Y-64000000D02*
X192330961Y-64000000D01*
X191000000Y-64000000D02*
X192000000Y-64000000D01*
X186000000Y-69000000D02*
G75*
G02*
X184000000Y-71000000I-2000000J0D01*
G01*
X199000000Y-62000000D02*
X199000000Y-62470551D01*
X191000000Y-64000000D02*
G75*
G03*
X186000000Y-69000000I0J-5000000D01*
G01*
X177999999Y-68296002D02*
G75*
G03*
X176351999Y-66648001I-1647999J2D01*
G01*
X178000000Y-68296002D02*
X178000000Y-69000000D01*
X180000000Y-71000000D02*
G75*
G03*
X178000000Y-69000000I-2000000J0D01*
G01*
X176351999Y-66648001D02*
X178351999Y-66648001D01*
X180000000Y-71000000D02*
X184000000Y-71000000D01*
X174537550Y-66648001D02*
X176351999Y-66648001D01*
X194000000Y-60000000D02*
X194677001Y-59322999D01*
X178351999Y-66648001D02*
X179000000Y-66000000D01*
X169110644Y-72074907D02*
X174537550Y-66648001D01*
X165970000Y-72074907D02*
X169110644Y-72074907D01*
X169000000Y-47000000D02*
X169000000Y-54000000D01*
X169000000Y-44000000D02*
X169000000Y-47000000D01*
X170000000Y-43000000D02*
G75*
G03*
X171000000Y-42000000I0J1000000D01*
G01*
X171000000Y-39000000D02*
X171000000Y-42000000D01*
X171000000Y-39000000D02*
G75*
G02*
X173000000Y-37000000I2000000J0D01*
G01*
X175000000Y-37000000D02*
X173000000Y-37000000D01*
X182000000Y-37000000D02*
X175000000Y-37000000D01*
X182000000Y-37000000D02*
G75*
G03*
X183000000Y-38000000I1000000J0D01*
G01*
X185000000Y-38000000D02*
X183000000Y-38000000D01*
X189000000Y-37000000D02*
G75*
G03*
X191000000Y-35000000I0J2000000D01*
G01*
X191000000Y-34000000D02*
X191000000Y-35000000D01*
X169000000Y-44000000D02*
G75*
G02*
X170000000Y-43000000I1000000J0D01*
G01*
X191000000Y-34000000D02*
G75*
G02*
X193000000Y-32000000I2000000J0D01*
G01*
X208000000Y-30000000D02*
X206000000Y-30000000D01*
X200000000Y-32000000D02*
X193000000Y-32000000D01*
X209000000Y-30000000D02*
X208000000Y-30000000D01*
X204000000Y-32000000D02*
X200000000Y-32000000D01*
X204000000Y-32000000D02*
G75*
G03*
X205000000Y-31000000I0J1000000D01*
G01*
X189000000Y-37000000D02*
X188000000Y-38000000D01*
X209000000Y-30000000D02*
G75*
G03*
X210000000Y-29000000I0J1000000D01*
G01*
X210000000Y-29000000D02*
X218000000Y-29000000D01*
X188000000Y-38000000D02*
X185000000Y-38000000D01*
X205000000Y-31000000D02*
G75*
G02*
X206000000Y-30000000I1000000J0D01*
G01*
X209610983Y-29000000D02*
X210000000Y-29000000D01*
X241000000Y-37000000D02*
X247000000Y-37000000D01*
X228000000Y-33000000D02*
X237000000Y-33000000D01*
X219000000Y-30000000D02*
X225000000Y-30000000D01*
X261000000Y-48000000D02*
G75*
G03*
X257000000Y-44000000I-4000000J0D01*
G01*
X254000000Y-44000000D02*
X257000000Y-44000000D01*
X254000000Y-44000000D02*
G75*
G02*
X251000000Y-41000000I0J3000000D01*
G01*
X251000000Y-41000000D02*
G75*
G03*
X247000000Y-37000000I-4000000J0D01*
G01*
X241000000Y-37000000D02*
G75*
G02*
X239000000Y-35000000I0J2000000D01*
G01*
X239000000Y-35000000D02*
G75*
G03*
X237000000Y-33000000I-2000000J0D01*
G01*
X228000000Y-33000000D02*
G75*
G02*
X227000000Y-32000000I0J1000000D01*
G01*
X227000000Y-32000000D02*
G75*
G03*
X225000000Y-30000000I-2000000J0D01*
G01*
X219000000Y-30000000D02*
G75*
G02*
X218000000Y-29000000I0J1000000D01*
G01*
X195000000Y-105000000D02*
X190000000Y-105000000D01*
X195000000Y-105000000D02*
G75*
G03*
X196000000Y-104000000I0J1000000D01*
G01*
X169000000Y-115000000D02*
G75*
G02*
X172000000Y-112000000I3000000J0D01*
G01*
X175000000Y-112000000D02*
X172000000Y-112000000D01*
X183000000Y-90000000D02*
X180000000Y-90000000D01*
X178000000Y-88000000D02*
G75*
G03*
X180000000Y-90000000I2000000J0D01*
G01*
X176000000Y-107150038D02*
G75*
G03*
X176849962Y-108000000I850000J38D01*
G01*
X179000000Y-108000000D02*
X176849962Y-108000000D01*
X179000050Y-108000000D02*
G75*
G02*
X180336350Y-106663650I1336350J0D01*
G01*
X195912350Y-106663650D02*
X180336350Y-106663650D01*
X198000000Y-104576000D02*
X195912350Y-106663650D01*
X173537848Y-94537848D02*
X173537848Y-91490000D01*
X173537800Y-94537848D02*
G75*
G03*
X174000000Y-95000000I462200J48D01*
G01*
X186424000Y-95000000D02*
X174000000Y-95000000D01*
X186424000Y-95000000D02*
G75*
G03*
X192424000Y-89000000I0J6000000D01*
G01*
X192424000Y-91424000D02*
G75*
G03*
X193000000Y-92000000I576000J0D01*
G01*
X192424000Y-91424000D02*
X192424000Y-89000000D01*
X208000000Y-92000000D02*
X193000000Y-92000000D01*
X211424000Y-85000000D02*
X211424000Y-88576000D01*
X208000000Y-92000000D02*
G75*
G03*
X211424000Y-88576000I0J3424000D01*
G01*
X211424000Y-85000000D02*
G75*
G03*
X217424000Y-91000000I6000000J0D01*
G01*
X230424000Y-91000000D02*
X217424000Y-91000000D01*
X237424000Y-98000000D02*
X230424000Y-91000000D01*
X242000000Y-98000000D02*
X237424000Y-98000000D01*
X242000000Y-98000000D02*
G75*
G03*
X247000000Y-103000000I5000000J0D01*
G01*
X249424000Y-103000000D02*
X247000000Y-103000000D01*
X232185204Y-74609204D02*
X230576000Y-73000000D01*
X240609204Y-74609204D02*
X232185204Y-74609204D01*
X243000000Y-77000000D02*
X240609204Y-74609204D01*
X243000000Y-81000000D02*
X243000000Y-77000000D01*
X249225000Y-83000000D02*
X245000000Y-83000000D01*
X230576000Y-73000000D02*
X230424000Y-73000000D01*
X243000000Y-81000000D02*
G75*
G03*
X245000000Y-83000000I2000000J0D01*
G01*
X249225000Y-83000000D02*
G75*
G02*
X251225000Y-85000000I0J-2000000D01*
G01*
X212424000Y-68000000D02*
X211424000Y-67000000D01*
X217000000Y-68000000D02*
X212424000Y-68000000D01*
X218000000Y-69000000D02*
X217000000Y-68000000D01*
X219398447Y-69000000D02*
X218000000Y-69000000D01*
X223398447Y-73000000D02*
X219398447Y-69000000D01*
X230424000Y-73000000D02*
X223398447Y-73000000D01*
X192612848Y-72612848D02*
X192612848Y-71000000D01*
X193048796Y-72951204D02*
X193000000Y-73000000D01*
X209424000Y-69000000D02*
X205001822Y-69000000D01*
X202048796Y-72951204D02*
X193048796Y-72951204D01*
X192612800Y-72612848D02*
G75*
G03*
X193000000Y-73000000I387200J48D01*
G01*
X204002389Y-69901744D02*
G75*
G02*
X205001822Y-69000000I999411J-102956D01*
G01*
X204002407Y-69901746D02*
X204550330Y-70449670D01*
X209424000Y-69000000D02*
G75*
G03*
X211424000Y-67000000I0J2000000D01*
G01*
X204550330Y-70449670D02*
X202048796Y-72951204D01*
X185000000Y-75000000D02*
X174000000Y-75000000D01*
X187000000Y-73000000D02*
X185000000Y-75000000D01*
X190612848Y-73000000D02*
X187000000Y-73000000D01*
X173612848Y-74612848D02*
X173612848Y-72540000D01*
X173612900Y-74612848D02*
G75*
G03*
X174000000Y-75000000I387200J48D01*
G01*
X190612848Y-73000048D02*
G75*
G03*
X192612848Y-71000000I-48J2000048D01*
G01*
X113000000Y-108000000D02*
X114000000Y-108000000D01*
X113000000Y-107999971D02*
G75*
G02*
X111506229Y-106506229I0J1493771D01*
G01*
X111506229Y-102993837D02*
X111506229Y-106506229D01*
X111506229Y-102846856D02*
X111506229Y-102993837D01*
X111506273Y-102846856D02*
G75*
G03*
X110000000Y-101340627I-1506273J-44D01*
G01*
X110000000Y-100000000D02*
X110000000Y-101340627D01*
X173537848Y-53440000D02*
X175338848Y-53440000D01*
X173537800Y-53440000D02*
G75*
G03*
X181097848Y-61000000I7560000J0D01*
G01*
X184000000Y-61000000D02*
X181097848Y-61000000D01*
X184000000Y-60999998D02*
G75*
G03*
X192537848Y-52462152I0J8537848D01*
G01*
X192537848Y-50915000D02*
X192537848Y-52462152D01*
X192537800Y-50915000D02*
G75*
G03*
X199622848Y-58000000I7085000J0D01*
G01*
X200000000Y-58000000D02*
X199622848Y-58000000D01*
X200000000Y-57999998D02*
G75*
G03*
X211527848Y-46472152I0J11527848D01*
G01*
X211527848Y-46323000D02*
X211527848Y-46472152D01*
X230527848Y-52573000D02*
X217777848Y-52573000D01*
X211527800Y-46323000D02*
G75*
G03*
X217777848Y-52573000I6250000J0D01*
G01*
X230527805Y-52573000D02*
G75*
G03*
X242459143Y-64504295I11931295J0D01*
G01*
X249430000Y-64504295D02*
X242459143Y-64504295D01*
X135000000Y-86000000D02*
X135000000Y-90000000D01*
X129895800Y-86941335D02*
G75*
G03*
X129954528Y-87000000I58700J35D01*
G01*
X130000000Y-87000000D02*
X129954528Y-87000000D01*
X118832537Y-86999962D02*
G75*
G02*
X116567538Y-84735001I-37J2264962D01*
G01*
X100092538Y-84735001D02*
X116567538Y-84735001D01*
X97678769Y-82321232D02*
X100092538Y-84735001D01*
X90000000Y-81000000D02*
X91321232Y-82321232D01*
X118832537Y-87000000D02*
X130000000Y-87000000D01*
X91321232Y-82321232D02*
X97678769Y-82321232D01*
X130502652Y-96000000D02*
X133000000Y-96000000D01*
X130502652Y-95999952D02*
G75*
G03*
X130037652Y-96465000I48J-465048D01*
G01*
X142595757Y-89404243D02*
X140921179Y-89404243D01*
X141000000Y-81000000D02*
X146000000Y-86000000D01*
X146000000Y-86000000D02*
X142595757Y-89404243D01*
X141000000Y-70000000D02*
X141000000Y-81000000D01*
X140000000Y-90000033D02*
G75*
G03*
X140921179Y-89404243I2200J1006633D01*
G01*
D31*
X132000000Y-80000000D02*
X132000000Y-74219907D01*
X132000000Y-87000000D02*
X132000000Y-80000000D01*
X129000000Y-91000000D02*
X129000000Y-90000000D01*
X128000000Y-97000000D02*
X128000000Y-96000000D01*
X122000000Y-99000000D02*
X126000000Y-99000000D01*
X130005000Y-72224900D02*
G75*
G02*
X132000000Y-74219907I0J-1995000D01*
G01*
X132000000Y-87000000D02*
G75*
G02*
X130000000Y-89000000I-2000000J0D01*
G01*
X130000000Y-89000000D02*
G75*
G03*
X129000000Y-90000000I0J-1000000D01*
G01*
X129000000Y-91000000D02*
G75*
G02*
X128000000Y-92000000I-1000000J0D01*
G01*
X128000000Y-92000000D02*
G75*
G03*
X130000000Y-94000000I2000000J0D01*
G01*
X130000000Y-94000000D02*
G75*
G02*
X128000000Y-96000000I-2000000J0D01*
G01*
X128000000Y-97000000D02*
G75*
G02*
X127000000Y-98000000I-1000000J0D01*
G01*
X127000000Y-98000000D02*
G75*
G02*
X126000000Y-99000000I-1000000J0D01*
G01*
X122000000Y-105576000D02*
X122000000Y-102000000D01*
X122000000Y-105576000D02*
G75*
G02*
X120000000Y-107576000I-2000000J0D01*
G01*
D30*
X104000000Y-94000000D02*
X102000000Y-94000000D01*
X104000000Y-94000000D02*
G75*
G03*
X105000000Y-95000000I1000000J0D01*
G01*
X108000000Y-95000000D02*
X107000000Y-95000000D01*
X108000000Y-95000000D02*
G75*
G02*
X109000000Y-96000000I0J-1000000D01*
G01*
X107000000Y-95000000D02*
X105000000Y-95000000D01*
X109000000Y-96000000D02*
G75*
G03*
X110000000Y-97000000I1000000J0D01*
G01*
X120000000Y-97000000D02*
X110000000Y-97000000D01*
X131000000Y-84000000D02*
X131000000Y-86000000D01*
X129000000Y-88000000D02*
G75*
G03*
X131000000Y-86000000I0J2000000D01*
G01*
X120000000Y-97000000D02*
G75*
G03*
X128000000Y-89000000I0J8000000D01*
G01*
X128000000Y-89000000D02*
G75*
G02*
X129000000Y-88000000I1000000J0D01*
G01*
X142075000Y-95000000D02*
X140000000Y-95000000D01*
X142075000Y-95000000D02*
G75*
G03*
X142200000Y-94875000I0J125000D01*
G01*
X140000000Y-96000000D02*
G75*
G03*
X140375000Y-96375000I375000J0D01*
G01*
X142200000Y-96375000D02*
X140375000Y-96375000D01*
X134000000Y-95000000D02*
G75*
G02*
X130000000Y-91000000I0J4000000D01*
G01*
X130000000Y-90000000D02*
G75*
G03*
X133000000Y-87000000I0J3000000D01*
G01*
X137000000Y-96000000D02*
G75*
G03*
X136000000Y-95000000I-1000000J0D01*
G01*
X133000000Y-86000000D02*
X133000000Y-87000000D01*
X130000000Y-90000000D02*
X130000000Y-91000000D01*
X133000000Y-72087907D02*
X133000000Y-86000000D01*
X134000000Y-95000000D02*
X136000000Y-95000000D01*
X133000007Y-72087907D02*
G75*
G02*
X133180000Y-71907907I179993J7D01*
G01*
X135000000Y-100000000D02*
X130172652Y-100000000D01*
X138000000Y-88000000D02*
X138000000Y-97000000D01*
X130037700Y-99865000D02*
G75*
G03*
X130172652Y-100000000I135000J0D01*
G01*
X136355000Y-66192907D02*
X136355000Y-86355000D01*
X135000000Y-100000000D02*
G75*
G03*
X138000000Y-97000000I0J3000000D01*
G01*
X138000000Y-88000000D02*
G75*
G03*
X137000000Y-87000000I-1000000J0D01*
G01*
X137000000Y-87000000D02*
G75*
G02*
X136355000Y-86355000I0J645000D01*
G01*
X63845304Y-74577348D02*
X65422652Y-73000000D01*
X46520500Y-81979500D02*
X53922652Y-74577348D01*
X53922652Y-74577348D02*
X63845304Y-74577348D01*
X46520500Y-85000000D02*
X46520500Y-81979500D01*
X122412652Y-73587348D02*
X122412652Y-73000000D01*
X112000000Y-75000000D02*
X121000000Y-75000000D01*
X121000000Y-75000000D02*
X122412652Y-73587348D01*
X108000000Y-71000000D02*
X112000000Y-75000000D01*
X103412652Y-71000000D02*
X108000000Y-71000000D01*
X102000000Y-72412652D02*
X103412652Y-71000000D01*
X94412652Y-72412652D02*
X102000000Y-72412652D01*
X89000000Y-67000000D02*
X94412652Y-72412652D01*
X84422652Y-67000000D02*
X89000000Y-67000000D01*
X101337652Y-92000000D02*
X103337652Y-90000000D01*
X96000000Y-92000000D02*
X101337652Y-92000000D01*
X89000000Y-85000000D02*
X96000000Y-92000000D01*
X84576000Y-85000000D02*
X89000000Y-85000000D01*
X82576000Y-87000000D02*
X84576000Y-85000000D01*
X70576000Y-87000000D02*
X82576000Y-87000000D01*
X65576000Y-92000000D02*
X70576000Y-87000000D01*
D31*
X126304907Y-77304907D02*
X130005000Y-77304907D01*
X126000000Y-77000000D02*
X126304907Y-77304907D01*
X126000000Y-42376696D02*
X126000000Y-77000000D01*
X121978303Y-38354999D02*
X126000000Y-42376696D01*
X110289577Y-38354999D02*
X121978303Y-38354999D01*
X92576114Y-34000000D02*
X105934578Y-34000000D01*
X89699821Y-31123707D02*
X92576114Y-34000000D01*
X73550000Y-31450000D02*
X73876293Y-31123707D01*
X68550000Y-31450000D02*
X73550000Y-31450000D01*
X50000000Y-39000000D02*
X61000000Y-39000000D01*
X61000000Y-39000000D02*
X68550000Y-31450000D01*
X73876293Y-31123707D02*
X89699821Y-31123707D01*
X105934578Y-34000000D02*
X110289577Y-38354999D01*
D30*
X127000000Y-75000000D02*
X129437436Y-75000000D01*
X127000000Y-40000000D02*
X127000000Y-75000000D01*
X126000000Y-39000000D02*
X127000000Y-40000000D01*
X125000000Y-39000000D02*
X126000000Y-39000000D01*
X124414213Y-38414214D02*
X125000000Y-39000000D01*
X120414213Y-37000000D02*
X121000000Y-37000000D01*
X114414213Y-35000000D02*
X115585787Y-35000000D01*
X110844999Y-33844999D02*
X111625795Y-33844999D01*
X95828427Y-33000000D02*
X110000000Y-33000000D01*
X130004991Y-74764898D02*
G75*
G02*
X129437436Y-75000000I-567591J567598D01*
G01*
X124414208Y-38414219D02*
G75*
G03*
X121000000Y-37000000I-3414208J-3414181D01*
G01*
X120414213Y-36999994D02*
G75*
G02*
X118000000Y-36000000I-13J3414194D01*
G01*
X118000004Y-35999996D02*
G75*
G03*
X115585787Y-35000000I-2414204J-2414204D01*
G01*
X112000002Y-33999998D02*
G75*
G03*
X111625795Y-33844999I-374202J-374202D01*
G01*
X91000004Y-30999996D02*
G75*
G03*
X88585787Y-30000000I-2414204J-2414204D01*
G01*
D31*
X82000000Y-30000000D02*
X87000000Y-30000000D01*
X81999998Y-30000002D02*
G75*
G03*
X79855107Y-29111556I-2144898J-2144898D01*
G01*
X76005308Y-29111556D02*
X79855107Y-29111556D01*
D30*
X87000000Y-30000000D02*
X88585787Y-30000000D01*
D31*
X75116864Y-30000000D02*
X76005308Y-29111556D01*
X72000000Y-30000000D02*
X75116864Y-30000000D01*
X72000004Y-30000004D02*
G75*
G02*
X69585787Y-31000000I-2414204J2414204D01*
G01*
X67000000Y-31000000D02*
X69585787Y-31000000D01*
X65414213Y-31000000D02*
X67000000Y-31000000D01*
X65414213Y-31000006D02*
G75*
G03*
X63000000Y-32000000I-13J-3414194D01*
G01*
X63000008Y-32000008D02*
G75*
G02*
X58171573Y-34000000I-4828408J4828408D01*
G01*
X57000000Y-34000000D02*
X58171573Y-34000000D01*
D30*
X95828427Y-32999988D02*
G75*
G02*
X91000001Y-30999999I-27J6828388D01*
G01*
D31*
X56828427Y-34000000D02*
X57000000Y-34000000D01*
X50414213Y-37585786D02*
X52000000Y-36000000D01*
X50414208Y-37585781D02*
G75*
G02*
X47000000Y-39000000I-3414208J3414181D01*
G01*
X35000000Y-47000000D02*
X40171573Y-41828427D01*
X35000000Y-50000000D02*
X35000000Y-47000000D01*
D30*
X114414213Y-34999994D02*
G75*
G02*
X112000000Y-34000000I-13J3414194D01*
G01*
X110000000Y-33000000D02*
X110844999Y-33844999D01*
D31*
X47000000Y-39000014D02*
G75*
G03*
X40171573Y-41828427I0J-9656886D01*
G01*
X56828427Y-34000012D02*
G75*
G03*
X52000001Y-36000001I-27J-6828388D01*
G01*
X107000000Y-106000000D02*
X110000000Y-106000000D01*
X105000000Y-104000000D02*
X106000000Y-105000000D01*
X104000000Y-104000000D02*
X105000000Y-104000000D01*
X102000000Y-104000000D02*
X104000000Y-104000000D01*
X106000000Y-105000000D02*
X107000000Y-106000000D01*
X98424000Y-100424000D02*
X102000000Y-104000000D01*
X97000000Y-100424000D02*
X98424000Y-100424000D01*
X122424000Y-100424000D02*
X120000000Y-100424000D01*
X123000000Y-101000000D02*
X122424000Y-100424000D01*
X123000000Y-106000000D02*
X123000000Y-101000000D01*
X122000000Y-110000000D02*
X122000000Y-107000000D01*
X123000000Y-110000000D02*
X122000000Y-110000000D01*
X127000000Y-114000000D02*
X123000000Y-110000000D01*
X122000000Y-107000000D02*
X123000000Y-106000000D01*
X118000000Y-109000000D02*
X118576000Y-109000000D01*
X118576000Y-109000000D02*
X120000000Y-107576000D01*
X118000000Y-109000000D02*
X114000000Y-113000000D01*
X97424000Y-108000000D02*
X97000000Y-107576000D01*
X101000000Y-108000000D02*
X97424000Y-108000000D01*
X105000000Y-112000000D02*
X101000000Y-108000000D01*
X109000000Y-112000000D02*
X105000000Y-112000000D01*
X110000000Y-113000000D02*
X109000000Y-112000000D01*
X114000000Y-113000000D02*
X110000000Y-113000000D01*
X105000000Y-90000000D02*
X103337652Y-90000000D01*
X110000000Y-95000000D02*
X105000000Y-90000000D01*
X122000000Y-95000000D02*
X110000000Y-95000000D01*
X122337652Y-94662348D02*
X122000000Y-95000000D01*
X122337652Y-93000000D02*
X122337652Y-94662348D01*
D30*
X65576000Y-93424000D02*
X65576000Y-92000000D01*
X50000000Y-103000000D02*
X59000000Y-94000000D01*
X65000000Y-94000000D02*
X65576000Y-93424000D01*
X46445500Y-103000000D02*
X50000000Y-103000000D01*
X59000000Y-94000000D02*
X65000000Y-94000000D01*
X74000000Y-69000000D02*
X82000000Y-69000000D01*
X84000000Y-67000000D02*
X84422652Y-67000000D01*
X70000000Y-73000000D02*
X74000000Y-69000000D01*
X82000000Y-69000000D02*
X84000000Y-67000000D01*
X65422652Y-73000000D02*
X70000000Y-73000000D01*
D31*
X63546652Y-54453348D02*
X63546652Y-54000000D01*
X53000000Y-62000000D02*
X53000000Y-56000000D01*
X49000000Y-66000000D02*
X53000000Y-62000000D01*
X46445500Y-66000000D02*
X49000000Y-66000000D01*
X53000000Y-56000000D02*
X62000000Y-56000000D01*
X62000000Y-56000000D02*
X63546652Y-54453348D01*
X118536652Y-56000000D02*
X120536652Y-54000000D01*
X109000000Y-56000000D02*
X118536652Y-56000000D01*
X105000000Y-52000000D02*
X109000000Y-56000000D01*
X103337652Y-52000000D02*
X105000000Y-52000000D01*
X88000000Y-48000000D02*
X91000000Y-51000000D01*
X91000000Y-51000000D02*
X91000000Y-54000000D01*
X91000000Y-54000000D02*
X99536652Y-54000000D01*
X99536652Y-54000000D02*
X101536652Y-52000000D01*
X84347652Y-48000000D02*
X88000000Y-48000000D01*
X82546652Y-48453348D02*
X82546652Y-48000000D01*
X72000000Y-50000000D02*
X81000000Y-50000000D01*
X81000000Y-50000000D02*
X82546652Y-48453348D01*
X68000000Y-54000000D02*
X72000000Y-50000000D01*
X65347652Y-54000000D02*
X68000000Y-54000000D01*
D30*
X159243700Y-108794300D02*
X159243700Y-110504591D01*
M02*
